%TF.GenerationSoftware,KiCad,Pcbnew,(5.1.10)-1*%
%TF.CreationDate,2021-12-15T20:23:36+00:00*%
%TF.ProjectId,vacSwitch,76616353-7769-4746-9368-2e6b69636164,rev?*%
%TF.SameCoordinates,Original*%
%TF.FileFunction,Copper,L1,Top*%
%TF.FilePolarity,Positive*%
%FSLAX46Y46*%
G04 Gerber Fmt 4.6, Leading zero omitted, Abs format (unit mm)*
G04 Created by KiCad (PCBNEW (5.1.10)-1) date 2021-12-15 20:23:36*
%MOMM*%
%LPD*%
G01*
G04 APERTURE LIST*
%TA.AperFunction,ComponentPad*%
%ADD10C,1.600000*%
%TD*%
%TA.AperFunction,ComponentPad*%
%ADD11R,1.600000X1.600000*%
%TD*%
%TA.AperFunction,ComponentPad*%
%ADD12C,1.950000*%
%TD*%
%TA.AperFunction,ComponentPad*%
%ADD13O,1.750000X1.200000*%
%TD*%
%TA.AperFunction,ComponentPad*%
%ADD14C,2.200000*%
%TD*%
%TA.AperFunction,ComponentPad*%
%ADD15O,1.600000X1.600000*%
%TD*%
%TA.AperFunction,ComponentPad*%
%ADD16C,1.800000*%
%TD*%
%TA.AperFunction,ComponentPad*%
%ADD17R,1.800000X1.800000*%
%TD*%
%TA.AperFunction,ComponentPad*%
%ADD18R,2.000000X1.905000*%
%TD*%
%TA.AperFunction,ComponentPad*%
%ADD19O,2.000000X1.905000*%
%TD*%
%TA.AperFunction,ComponentPad*%
%ADD20O,1.200000X1.750000*%
%TD*%
%TA.AperFunction,ComponentPad*%
%ADD21R,1.700000X1.700000*%
%TD*%
%TA.AperFunction,ComponentPad*%
%ADD22O,1.700000X1.700000*%
%TD*%
%TA.AperFunction,ComponentPad*%
%ADD23C,1.400000*%
%TD*%
%TA.AperFunction,ComponentPad*%
%ADD24R,1.400000X1.400000*%
%TD*%
%TA.AperFunction,ComponentPad*%
%ADD25R,2.000000X2.000000*%
%TD*%
%TA.AperFunction,ComponentPad*%
%ADD26C,2.000000*%
%TD*%
%TA.AperFunction,ComponentPad*%
%ADD27O,1.050000X1.500000*%
%TD*%
%TA.AperFunction,ComponentPad*%
%ADD28R,1.050000X1.500000*%
%TD*%
%TA.AperFunction,ComponentPad*%
%ADD29R,2.400000X1.600000*%
%TD*%
%TA.AperFunction,ComponentPad*%
%ADD30O,2.400000X1.600000*%
%TD*%
%TA.AperFunction,ComponentPad*%
%ADD31R,1.600000X2.400000*%
%TD*%
%TA.AperFunction,ComponentPad*%
%ADD32O,1.600000X2.400000*%
%TD*%
%TA.AperFunction,ViaPad*%
%ADD33C,0.800000*%
%TD*%
%TA.AperFunction,Conductor*%
%ADD34C,0.250000*%
%TD*%
%TA.AperFunction,Conductor*%
%ADD35C,1.000000*%
%TD*%
%TA.AperFunction,Conductor*%
%ADD36C,3.000000*%
%TD*%
%TA.AperFunction,Conductor*%
%ADD37C,0.254000*%
%TD*%
%TA.AperFunction,Conductor*%
%ADD38C,0.100000*%
%TD*%
G04 APERTURE END LIST*
D10*
%TO.P,C4,2*%
%TO.N,0V*%
X149860000Y-80471000D03*
D11*
%TO.P,C4,1*%
%TO.N,SCL*%
X149860000Y-85471000D03*
%TD*%
%TO.P,C3,1*%
%TO.N,Net-(C3-Pad1)*%
X127000000Y-121285000D03*
D10*
%TO.P,C3,2*%
%TO.N,0V*%
X132000000Y-121285000D03*
%TD*%
D12*
%TO.P,J1,1*%
%TO.N,HOT*%
X111252000Y-96647000D03*
%TO.P,J1,2*%
%TO.N,NEUTRAL*%
X111252000Y-101727000D03*
%TO.P,J1,3*%
%TO.N,VAC*%
X111252000Y-106807000D03*
%TO.P,J1,4*%
%TO.N,NEUTRAL*%
X111252000Y-111887000D03*
%TO.P,J1,5*%
%TO.N,LOAD1*%
X111252000Y-116967000D03*
%TO.P,J1,6*%
%TO.N,LOAD*%
X111252000Y-122047000D03*
%TD*%
D13*
%TO.P,J3,6*%
%TO.N,+5V*%
X169672000Y-120871000D03*
%TO.P,J3,5*%
%TO.N,RESET*%
X169672000Y-118871000D03*
%TO.P,J3,4*%
%TO.N,SCL*%
X169672000Y-116871000D03*
%TO.P,J3,3*%
%TO.N,MOSI*%
X169672000Y-114871000D03*
%TO.P,J3,2*%
%TO.N,MISO*%
X169672000Y-112871000D03*
%TO.P,J3,1*%
%TO.N,0V*%
%TA.AperFunction,ComponentPad*%
G36*
G01*
X169046999Y-110271000D02*
X170297001Y-110271000D01*
G75*
G02*
X170547000Y-110520999I0J-249999D01*
G01*
X170547000Y-111221001D01*
G75*
G02*
X170297001Y-111471000I-249999J0D01*
G01*
X169046999Y-111471000D01*
G75*
G02*
X168797000Y-111221001I0J249999D01*
G01*
X168797000Y-110520999D01*
G75*
G02*
X169046999Y-110271000I249999J0D01*
G01*
G37*
%TD.AperFunction*%
%TD*%
D11*
%TO.P,C1,1*%
%TO.N,VCC*%
X170180000Y-82931000D03*
D10*
%TO.P,C1,2*%
%TO.N,0V*%
X165180000Y-82931000D03*
%TD*%
D14*
%TO.P,C6,1*%
%TO.N,VAC*%
X130810000Y-112268000D03*
%TO.P,C6,2*%
%TO.N,HOT*%
X130810000Y-97268000D03*
%TD*%
D11*
%TO.P,D1,1*%
%TO.N,SCL*%
X144780000Y-85471000D03*
D15*
%TO.P,D1,2*%
%TO.N,Net-(D1-Pad2)*%
X137160000Y-85471000D03*
%TD*%
D16*
%TO.P,D6,2*%
%TO.N,Net-(D6-Pad2)*%
X189738000Y-81153000D03*
D17*
%TO.P,D6,1*%
%TO.N,Net-(D6-Pad1)*%
X189738000Y-83693000D03*
%TD*%
%TO.P,D7,1*%
%TO.N,0V*%
X189738000Y-86995000D03*
D16*
%TO.P,D7,2*%
%TO.N,Net-(D7-Pad2)*%
X189738000Y-89535000D03*
%TD*%
D18*
%TO.P,D9,1*%
%TO.N,HOT*%
X111506000Y-87503000D03*
D19*
%TO.P,D9,2*%
%TO.N,VAC*%
X111506000Y-84963000D03*
%TO.P,D9,3*%
%TO.N,Net-(D9-Pad3)*%
X111506000Y-82423000D03*
%TD*%
%TO.P,J2,1*%
%TO.N,0V*%
%TA.AperFunction,ComponentPad*%
G36*
G01*
X162976000Y-103368001D02*
X162976000Y-102117999D01*
G75*
G02*
X163225999Y-101868000I249999J0D01*
G01*
X163926001Y-101868000D01*
G75*
G02*
X164176000Y-102117999I0J-249999D01*
G01*
X164176000Y-103368001D01*
G75*
G02*
X163926001Y-103618000I-249999J0D01*
G01*
X163225999Y-103618000D01*
G75*
G02*
X162976000Y-103368001I0J249999D01*
G01*
G37*
%TD.AperFunction*%
D20*
%TO.P,J2,2*%
%TO.N,TX*%
X165576000Y-102743000D03*
%TO.P,J2,3*%
%TO.N,RX*%
X167576000Y-102743000D03*
%TD*%
%TO.P,J4,1*%
%TO.N,SW2*%
%TA.AperFunction,ComponentPad*%
G36*
G01*
X189874999Y-103667000D02*
X191125001Y-103667000D01*
G75*
G02*
X191375000Y-103916999I0J-249999D01*
G01*
X191375000Y-104617001D01*
G75*
G02*
X191125001Y-104867000I-249999J0D01*
G01*
X189874999Y-104867000D01*
G75*
G02*
X189625000Y-104617001I0J249999D01*
G01*
X189625000Y-103916999D01*
G75*
G02*
X189874999Y-103667000I249999J0D01*
G01*
G37*
%TD.AperFunction*%
D13*
%TO.P,J4,2*%
%TO.N,SW1*%
X190500000Y-106267000D03*
%TD*%
D21*
%TO.P,JP1,1*%
%TO.N,Net-(JP1-Pad1)*%
X163576000Y-116967000D03*
D22*
%TO.P,JP1,2*%
%TO.N,VCC*%
X163576000Y-119507000D03*
%TO.P,JP1,3*%
%TO.N,+5V*%
X163576000Y-122047000D03*
%TD*%
D23*
%TO.P,K1,13*%
%TO.N,N/C*%
X185166000Y-107696000D03*
%TO.P,K1,9*%
X185166000Y-117956000D03*
%TO.P,K1,6*%
%TO.N,Net-(D6-Pad1)*%
X177546000Y-117956000D03*
%TO.P,K1,2*%
%TO.N,VCC*%
X177546000Y-107696000D03*
D24*
%TO.P,K1,1*%
%TO.N,N/C*%
X177546000Y-105156000D03*
D23*
%TO.P,K1,8*%
%TO.N,SW1*%
X185166000Y-120396000D03*
%TO.P,K1,7*%
%TO.N,N/C*%
X177546000Y-120396000D03*
%TO.P,K1,14*%
%TO.N,SW2*%
X185166000Y-105156000D03*
%TD*%
D25*
%TO.P,PS1,1*%
%TO.N,HOT*%
X139192000Y-90805000D03*
D26*
%TO.P,PS1,2*%
%TO.N,NEUTRAL*%
X139192000Y-95885000D03*
%TO.P,PS1,4*%
%TO.N,0V*%
X156972000Y-121285000D03*
%TO.P,PS1,3*%
%TO.N,Net-(PS1-Pad3)*%
X139192000Y-121285000D03*
%TO.P,PS1,5*%
%TO.N,Net-(JP1-Pad1)*%
X156972000Y-116205000D03*
%TD*%
D27*
%TO.P,Q1,2*%
%TO.N,Net-(Q1-Pad2)*%
X182626000Y-86487000D03*
%TO.P,Q1,3*%
%TO.N,0V*%
X181356000Y-86487000D03*
D28*
%TO.P,Q1,1*%
%TO.N,Net-(D6-Pad1)*%
X183896000Y-86487000D03*
%TD*%
D15*
%TO.P,R3,2*%
%TO.N,VCC*%
X163830000Y-96393000D03*
D10*
%TO.P,R3,1*%
%TO.N,RESET*%
X163830000Y-88773000D03*
%TD*%
%TO.P,R4,1*%
%TO.N,Net-(D1-Pad2)*%
X144780000Y-81915000D03*
D15*
%TO.P,R4,2*%
%TO.N,Net-(R4-Pad2)*%
X137160000Y-81915000D03*
%TD*%
D10*
%TO.P,R7,1*%
%TO.N,MOSI*%
X178816000Y-96901000D03*
D15*
%TO.P,R7,2*%
%TO.N,Net-(D7-Pad2)*%
X186436000Y-96901000D03*
%TD*%
%TO.P,R8,2*%
%TO.N,Net-(Q1-Pad2)*%
X186436000Y-93599000D03*
D10*
%TO.P,R8,1*%
%TO.N,MISO*%
X178816000Y-93599000D03*
%TD*%
D15*
%TO.P,R9,2*%
%TO.N,Net-(D6-Pad2)*%
X183134000Y-81153000D03*
D10*
%TO.P,R9,1*%
%TO.N,VCC*%
X175514000Y-81153000D03*
%TD*%
%TO.P,R10,1*%
%TO.N,VCC*%
X162306000Y-80645000D03*
D15*
%TO.P,R10,2*%
%TO.N,Net-(R10-Pad2)*%
X154686000Y-80645000D03*
%TD*%
D10*
%TO.P,R11,1*%
%TO.N,Net-(D9-Pad3)*%
X124968000Y-96520000D03*
D15*
%TO.P,R11,2*%
%TO.N,HOT*%
X117348000Y-96520000D03*
%TD*%
%TO.P,R12,2*%
%TO.N,VAC*%
X131826000Y-92202000D03*
D10*
%TO.P,R12,1*%
%TO.N,Net-(R12-Pad1)*%
X124206000Y-92202000D03*
%TD*%
%TO.P,RV1,1*%
%TO.N,HOT*%
X119380000Y-100584000D03*
%TO.P,RV1,2*%
%TO.N,NEUTRAL*%
X124380000Y-102484000D03*
%TD*%
D29*
%TO.P,U1,1*%
%TO.N,RESET*%
X167894000Y-88773000D03*
D30*
%TO.P,U1,5*%
%TO.N,MOSI*%
X175514000Y-96393000D03*
%TO.P,U1,2*%
%TO.N,TX*%
X167894000Y-91313000D03*
%TO.P,U1,6*%
%TO.N,MISO*%
X175514000Y-93853000D03*
%TO.P,U1,3*%
%TO.N,RX*%
X167894000Y-93853000D03*
%TO.P,U1,7*%
%TO.N,SCL*%
X175514000Y-91313000D03*
%TO.P,U1,4*%
%TO.N,0V*%
X167894000Y-96393000D03*
%TO.P,U1,8*%
%TO.N,VCC*%
X175514000Y-88773000D03*
%TD*%
%TO.P,U2,1*%
%TO.N,LOAD1*%
%TA.AperFunction,SMDPad,CuDef*%
G36*
G01*
X117327000Y-119149000D02*
X117327000Y-118849000D01*
G75*
G02*
X117477000Y-118699000I150000J0D01*
G01*
X119127000Y-118699000D01*
G75*
G02*
X119277000Y-118849000I0J-150000D01*
G01*
X119277000Y-119149000D01*
G75*
G02*
X119127000Y-119299000I-150000J0D01*
G01*
X117477000Y-119299000D01*
G75*
G02*
X117327000Y-119149000I0J150000D01*
G01*
G37*
%TD.AperFunction*%
%TO.P,U2,2*%
%TA.AperFunction,SMDPad,CuDef*%
G36*
G01*
X117327000Y-120419000D02*
X117327000Y-120119000D01*
G75*
G02*
X117477000Y-119969000I150000J0D01*
G01*
X119127000Y-119969000D01*
G75*
G02*
X119277000Y-120119000I0J-150000D01*
G01*
X119277000Y-120419000D01*
G75*
G02*
X119127000Y-120569000I-150000J0D01*
G01*
X117477000Y-120569000D01*
G75*
G02*
X117327000Y-120419000I0J150000D01*
G01*
G37*
%TD.AperFunction*%
%TO.P,U2,3*%
%TO.N,LOAD*%
%TA.AperFunction,SMDPad,CuDef*%
G36*
G01*
X117327000Y-121689000D02*
X117327000Y-121389000D01*
G75*
G02*
X117477000Y-121239000I150000J0D01*
G01*
X119127000Y-121239000D01*
G75*
G02*
X119277000Y-121389000I0J-150000D01*
G01*
X119277000Y-121689000D01*
G75*
G02*
X119127000Y-121839000I-150000J0D01*
G01*
X117477000Y-121839000D01*
G75*
G02*
X117327000Y-121689000I0J150000D01*
G01*
G37*
%TD.AperFunction*%
%TO.P,U2,4*%
%TA.AperFunction,SMDPad,CuDef*%
G36*
G01*
X117327000Y-122959000D02*
X117327000Y-122659000D01*
G75*
G02*
X117477000Y-122509000I150000J0D01*
G01*
X119127000Y-122509000D01*
G75*
G02*
X119277000Y-122659000I0J-150000D01*
G01*
X119277000Y-122959000D01*
G75*
G02*
X119127000Y-123109000I-150000J0D01*
G01*
X117477000Y-123109000D01*
G75*
G02*
X117327000Y-122959000I0J150000D01*
G01*
G37*
%TD.AperFunction*%
%TO.P,U2,5*%
%TO.N,0V*%
%TA.AperFunction,SMDPad,CuDef*%
G36*
G01*
X122277000Y-122959000D02*
X122277000Y-122659000D01*
G75*
G02*
X122427000Y-122509000I150000J0D01*
G01*
X124077000Y-122509000D01*
G75*
G02*
X124227000Y-122659000I0J-150000D01*
G01*
X124227000Y-122959000D01*
G75*
G02*
X124077000Y-123109000I-150000J0D01*
G01*
X122427000Y-123109000D01*
G75*
G02*
X122277000Y-122959000I0J150000D01*
G01*
G37*
%TD.AperFunction*%
%TO.P,U2,6*%
%TO.N,Net-(C3-Pad1)*%
%TA.AperFunction,SMDPad,CuDef*%
G36*
G01*
X122277000Y-121689000D02*
X122277000Y-121389000D01*
G75*
G02*
X122427000Y-121239000I150000J0D01*
G01*
X124077000Y-121239000D01*
G75*
G02*
X124227000Y-121389000I0J-150000D01*
G01*
X124227000Y-121689000D01*
G75*
G02*
X124077000Y-121839000I-150000J0D01*
G01*
X122427000Y-121839000D01*
G75*
G02*
X122277000Y-121689000I0J150000D01*
G01*
G37*
%TD.AperFunction*%
%TO.P,U2,7*%
%TO.N,Net-(R4-Pad2)*%
%TA.AperFunction,SMDPad,CuDef*%
G36*
G01*
X122277000Y-120419000D02*
X122277000Y-120119000D01*
G75*
G02*
X122427000Y-119969000I150000J0D01*
G01*
X124077000Y-119969000D01*
G75*
G02*
X124227000Y-120119000I0J-150000D01*
G01*
X124227000Y-120419000D01*
G75*
G02*
X124077000Y-120569000I-150000J0D01*
G01*
X122427000Y-120569000D01*
G75*
G02*
X122277000Y-120419000I0J150000D01*
G01*
G37*
%TD.AperFunction*%
%TO.P,U2,8*%
%TO.N,VCC*%
%TA.AperFunction,SMDPad,CuDef*%
G36*
G01*
X122277000Y-119149000D02*
X122277000Y-118849000D01*
G75*
G02*
X122427000Y-118699000I150000J0D01*
G01*
X124077000Y-118699000D01*
G75*
G02*
X124227000Y-118849000I0J-150000D01*
G01*
X124227000Y-119149000D01*
G75*
G02*
X124077000Y-119299000I-150000J0D01*
G01*
X122427000Y-119299000D01*
G75*
G02*
X122277000Y-119149000I0J150000D01*
G01*
G37*
%TD.AperFunction*%
%TD*%
D31*
%TO.P,U3,1*%
%TO.N,Net-(R10-Pad2)*%
X123444000Y-81153000D03*
D32*
%TO.P,U3,4*%
%TO.N,Net-(D9-Pad3)*%
X118364000Y-88773000D03*
%TO.P,U3,2*%
%TO.N,Net-(D6-Pad1)*%
X120904000Y-81153000D03*
%TO.P,U3,5*%
%TO.N,Net-(U3-Pad5)*%
X120904000Y-88773000D03*
%TO.P,U3,3*%
%TO.N,Net-(U3-Pad3)*%
X118364000Y-81153000D03*
%TO.P,U3,6*%
%TO.N,Net-(R12-Pad1)*%
X123444000Y-88773000D03*
%TD*%
D33*
%TO.N,VAC*%
X124841000Y-106807000D03*
%TO.N,MISO*%
X166878000Y-109601000D03*
X169672000Y-100965000D03*
%TD*%
D34*
%TO.N,VCC*%
X175514000Y-88773000D02*
X175514000Y-81153000D01*
X172974000Y-88773000D02*
X172720000Y-89027000D01*
X175514000Y-88773000D02*
X172974000Y-88773000D01*
X163576000Y-119507000D02*
X161036000Y-122047000D01*
X161036000Y-122047000D02*
X161036000Y-123571000D01*
X162306000Y-80645000D02*
X167640000Y-80645000D01*
X169926000Y-82931000D02*
X170180000Y-82931000D01*
X167640000Y-80645000D02*
X169926000Y-82931000D01*
X173736000Y-82931000D02*
X175514000Y-81153000D01*
X170180000Y-82931000D02*
X173736000Y-82931000D01*
X121539000Y-118999000D02*
X123252000Y-118999000D01*
X163576000Y-119507000D02*
X159004000Y-124079000D01*
X147066000Y-124079000D02*
X144780000Y-121793000D01*
X120904000Y-122555000D02*
X120904000Y-119634000D01*
X144780000Y-121793000D02*
X144780000Y-117475000D01*
X144780000Y-117475000D02*
X143256000Y-115951000D01*
X135255000Y-115951000D02*
X133985000Y-117221000D01*
X159004000Y-124079000D02*
X147066000Y-124079000D01*
X143256000Y-115951000D02*
X135255000Y-115951000D01*
X133985000Y-117221000D02*
X133985000Y-123317000D01*
X133985000Y-123317000D02*
X132842000Y-124460000D01*
X132842000Y-124460000D02*
X122809000Y-124460000D01*
X122809000Y-124460000D02*
X120904000Y-122555000D01*
X120904000Y-119634000D02*
X121539000Y-118999000D01*
X161734500Y-124269500D02*
X161798000Y-124333000D01*
X161036000Y-123571000D02*
X161734500Y-124269500D01*
X172720000Y-89027000D02*
X172593000Y-89027000D01*
X172593000Y-89027000D02*
X172339000Y-89281000D01*
X172339000Y-89281000D02*
X172339000Y-106299000D01*
X173863000Y-107823000D02*
X175768000Y-107823000D01*
X172339000Y-106299000D02*
X173863000Y-107823000D01*
X170370500Y-124269500D02*
X169581500Y-124269500D01*
X173863000Y-120777000D02*
X170370500Y-124269500D01*
X169581500Y-124269500D02*
X161734500Y-124269500D01*
X173863000Y-107823000D02*
X173863000Y-120777000D01*
X172974000Y-88773000D02*
X172720000Y-88773000D01*
X172720000Y-88773000D02*
X170434000Y-86487000D01*
X170434000Y-86487000D02*
X161798000Y-86487000D01*
X161798000Y-86487000D02*
X160782000Y-87503000D01*
X160782000Y-87503000D02*
X160782000Y-95250000D01*
X161925000Y-96393000D02*
X163830000Y-96393000D01*
X160782000Y-95250000D02*
X161925000Y-96393000D01*
%TO.N,0V*%
X152400000Y-113919000D02*
X163576000Y-102743000D01*
X152400000Y-116713000D02*
X152400000Y-113919000D01*
X156972000Y-121285000D02*
X152400000Y-116713000D01*
X163576000Y-109347000D02*
X163576000Y-102743000D01*
X165100000Y-110871000D02*
X163576000Y-109347000D01*
X169672000Y-110871000D02*
X165100000Y-110871000D01*
X163830000Y-102489000D02*
X163576000Y-102743000D01*
X165140000Y-82971000D02*
X165180000Y-82931000D01*
X130476000Y-122809000D02*
X132000000Y-121285000D01*
X123252000Y-122809000D02*
X130476000Y-122809000D01*
X156972000Y-121285000D02*
X150368000Y-121285000D01*
X132000000Y-118569590D02*
X132000000Y-121285000D01*
X135068599Y-115500991D02*
X132000000Y-118569590D01*
X144583991Y-115500991D02*
X135068599Y-115500991D01*
X150368000Y-121285000D02*
X144583991Y-115500991D01*
%TO.N,Net-(C3-Pad1)*%
X126746000Y-121539000D02*
X127000000Y-121285000D01*
X123252000Y-121539000D02*
X126746000Y-121539000D01*
%TO.N,HOT*%
X111506000Y-96393000D02*
X111252000Y-96647000D01*
X111506000Y-87503000D02*
X111506000Y-96393000D01*
X138303000Y-89916000D02*
X139192000Y-90805000D01*
X117221000Y-96647000D02*
X117348000Y-96520000D01*
D35*
X111252000Y-96647000D02*
X117221000Y-96647000D01*
X117348000Y-98552000D02*
X119380000Y-100584000D01*
X117348000Y-96520000D02*
X117348000Y-98552000D01*
X119380000Y-100584000D02*
X125476000Y-100584000D01*
X128792000Y-97268000D02*
X130810000Y-97268000D01*
X125476000Y-100584000D02*
X128792000Y-97268000D01*
D34*
X130810000Y-97268000D02*
X132856000Y-97268000D01*
X139192000Y-90932000D02*
X139192000Y-90805000D01*
X132856000Y-97268000D02*
X139192000Y-90932000D01*
%TO.N,VAC*%
X109601000Y-84963000D02*
X111506000Y-84963000D01*
X108458000Y-86106000D02*
X109601000Y-84963000D01*
X111252000Y-106807000D02*
X106680000Y-102235000D01*
X106680000Y-87884000D02*
X109601000Y-84963000D01*
X106680000Y-102235000D02*
X106680000Y-87884000D01*
D35*
X111252000Y-106807000D02*
X124841000Y-106807000D01*
X124968000Y-106934000D02*
X130302000Y-112268000D01*
X124841000Y-106807000D02*
X124841000Y-106807000D01*
D34*
%TO.N,Net-(D1-Pad2)*%
X137160000Y-85471000D02*
X139700000Y-85471000D01*
X143256000Y-81915000D02*
X144780000Y-81915000D01*
X139700000Y-85471000D02*
X143256000Y-81915000D01*
%TO.N,Net-(D6-Pad2)*%
X183134000Y-81153000D02*
X189738000Y-81153000D01*
%TO.N,Net-(D6-Pad1)*%
X186690000Y-83693000D02*
X183896000Y-86487000D01*
X189738000Y-83693000D02*
X186690000Y-83693000D01*
X120904000Y-79248000D02*
X120904000Y-81153000D01*
X177546000Y-78613000D02*
X121539000Y-78613000D01*
X178816000Y-79883000D02*
X177546000Y-78613000D01*
X121539000Y-78613000D02*
X120904000Y-79248000D01*
X178816000Y-81788000D02*
X178816000Y-79883000D01*
X180086000Y-83058000D02*
X178816000Y-81788000D01*
X183134000Y-83058000D02*
X180086000Y-83058000D01*
X183896000Y-83820000D02*
X183134000Y-83058000D01*
X183896000Y-86487000D02*
X183896000Y-83820000D01*
X181737000Y-113765000D02*
X177546000Y-117956000D01*
X181737000Y-103632000D02*
X181737000Y-113765000D01*
X183896000Y-101473000D02*
X181737000Y-103632000D01*
X183896000Y-86487000D02*
X183896000Y-101473000D01*
%TO.N,Net-(D7-Pad2)*%
X189738000Y-96393000D02*
X189738000Y-89535000D01*
X189230000Y-96901000D02*
X189738000Y-96393000D01*
X186436000Y-96901000D02*
X189230000Y-96901000D01*
%TO.N,Net-(D9-Pad3)*%
X118364000Y-88773000D02*
X118364000Y-87249000D01*
X113538000Y-82423000D02*
X111506000Y-82423000D01*
X118364000Y-87249000D02*
X113538000Y-82423000D01*
X118364000Y-88773000D02*
X118364000Y-89789000D01*
X118364000Y-88773000D02*
X118364000Y-90932000D01*
X123952000Y-96520000D02*
X124968000Y-96520000D01*
X118364000Y-90932000D02*
X123952000Y-96520000D01*
D35*
%TO.N,NEUTRAL*%
X111252000Y-101727000D02*
X114935000Y-101727000D01*
X114935000Y-101727000D02*
X116586000Y-103378000D01*
X123486000Y-103378000D02*
X124380000Y-102484000D01*
X116586000Y-103378000D02*
X123486000Y-103378000D01*
D34*
X124380000Y-102484000D02*
X131196000Y-102484000D01*
X137795000Y-95885000D02*
X139192000Y-95885000D01*
X131196000Y-102484000D02*
X137795000Y-95885000D01*
D35*
%TO.N,LOAD*%
X118302000Y-122809000D02*
X118302000Y-121539000D01*
D34*
X112014000Y-122809000D02*
X111252000Y-122047000D01*
D36*
X118302000Y-122809000D02*
X112014000Y-122809000D01*
D34*
%TO.N,TX*%
X169419010Y-97774990D02*
X169419010Y-92838010D01*
X165576000Y-101618000D02*
X169419010Y-97774990D01*
X169419010Y-92838010D02*
X167894000Y-91313000D01*
X165576000Y-102743000D02*
X165576000Y-101618000D01*
%TO.N,MISO*%
X178562000Y-93853000D02*
X178816000Y-93599000D01*
X175514000Y-93853000D02*
X178562000Y-93853000D01*
X166878000Y-109601000D02*
X166878000Y-107569000D01*
X169672000Y-104775000D02*
X169672000Y-100965000D01*
X166878000Y-107569000D02*
X169672000Y-104775000D01*
%TO.N,MOSI*%
X176022000Y-96901000D02*
X175514000Y-96393000D01*
X178816000Y-96901000D02*
X176022000Y-96901000D01*
%TO.N,RESET*%
X163830000Y-88773000D02*
X167894000Y-88773000D01*
X169672000Y-118871000D02*
X171450000Y-117093000D01*
X171450000Y-92329000D02*
X167894000Y-88773000D01*
X171450000Y-117093000D02*
X171450000Y-92329000D01*
%TO.N,SW2*%
X187452000Y-104267000D02*
X190500000Y-104267000D01*
X186436000Y-105283000D02*
X187452000Y-104267000D01*
%TO.N,SW1*%
X190500000Y-106267000D02*
X190500000Y-116459000D01*
X190500000Y-116459000D02*
X186436000Y-120523000D01*
%TO.N,Net-(JP1-Pad1)*%
X157734000Y-116967000D02*
X156972000Y-116205000D01*
X163576000Y-116967000D02*
X157734000Y-116967000D01*
%TO.N,+5V*%
X168496000Y-122047000D02*
X169672000Y-120871000D01*
X163576000Y-122047000D02*
X168496000Y-122047000D01*
%TO.N,Net-(R4-Pad2)*%
X123252000Y-120269000D02*
X124206000Y-120269000D01*
X124714000Y-120269000D02*
X124841000Y-120269000D01*
X123252000Y-120269000D02*
X124714000Y-120269000D01*
X138285001Y-80789999D02*
X137160000Y-81915000D01*
X145432999Y-80789999D02*
X138285001Y-80789999D01*
X148739001Y-84096001D02*
X145432999Y-80789999D01*
X151407411Y-84096001D02*
X148739001Y-84096001D01*
X155575000Y-88263590D02*
X151407411Y-84096001D01*
X155575000Y-104267000D02*
X155575000Y-88263590D01*
X144791019Y-115050981D02*
X155575000Y-104267000D01*
X131191000Y-118742180D02*
X134882199Y-115050981D01*
X131191000Y-119507000D02*
X131191000Y-118742180D01*
X125476000Y-119507000D02*
X131191000Y-119507000D01*
X134882199Y-115050981D02*
X144791019Y-115050981D01*
X124714000Y-120269000D02*
X125476000Y-119507000D01*
%TO.N,Net-(R10-Pad2)*%
X123444000Y-81153000D02*
X124714000Y-79883000D01*
X153924000Y-79883000D02*
X154686000Y-80645000D01*
X153924000Y-79883000D02*
X153924000Y-80264000D01*
X153924000Y-80264000D02*
X151892000Y-82296000D01*
X151892000Y-82296000D02*
X148717000Y-82296000D01*
X148717000Y-82296000D02*
X146304000Y-79883000D01*
X146304000Y-79883000D02*
X124714000Y-79883000D01*
%TO.N,Net-(R12-Pad1)*%
X123444000Y-91567000D02*
X123952000Y-92075000D01*
X123444000Y-88773000D02*
X123444000Y-91567000D01*
D35*
%TO.N,LOAD1*%
X118302000Y-120269000D02*
X118302000Y-118999000D01*
D36*
X116270000Y-116967000D02*
X118302000Y-118999000D01*
X111252000Y-116967000D02*
X116270000Y-116967000D01*
%TD*%
D37*
%TO.N,0V*%
X192532000Y-126873000D02*
X144399000Y-126873000D01*
X144399000Y-122486801D01*
X146502201Y-124590003D01*
X146525999Y-124619001D01*
X146641724Y-124713974D01*
X146773753Y-124784546D01*
X146917014Y-124828003D01*
X147028667Y-124839000D01*
X147028676Y-124839000D01*
X147065999Y-124842676D01*
X147103322Y-124839000D01*
X158966678Y-124839000D01*
X159004000Y-124842676D01*
X159041322Y-124839000D01*
X159041333Y-124839000D01*
X159152986Y-124828003D01*
X159296247Y-124784546D01*
X159428276Y-124713974D01*
X159544001Y-124619001D01*
X159567804Y-124589997D01*
X160322099Y-123835702D01*
X160330454Y-123863246D01*
X160401026Y-123995276D01*
X160469737Y-124079000D01*
X160496000Y-124111001D01*
X160524998Y-124134799D01*
X161170701Y-124780502D01*
X161194499Y-124809501D01*
X161223503Y-124833304D01*
X161286998Y-124896799D01*
X161373725Y-124967974D01*
X161505754Y-125038546D01*
X161649015Y-125082003D01*
X161798000Y-125096677D01*
X161946986Y-125082003D01*
X162090246Y-125038546D01*
X162107170Y-125029500D01*
X170333178Y-125029500D01*
X170370500Y-125033176D01*
X170407822Y-125029500D01*
X170407833Y-125029500D01*
X170519486Y-125018503D01*
X170662747Y-124975046D01*
X170794776Y-124904474D01*
X170910501Y-124809501D01*
X170934304Y-124780497D01*
X174374003Y-121340799D01*
X174403001Y-121317001D01*
X174497974Y-121201276D01*
X174568546Y-121069247D01*
X174612003Y-120925986D01*
X174623000Y-120814333D01*
X174623000Y-120814323D01*
X174626676Y-120777000D01*
X174623000Y-120739677D01*
X174623000Y-108583000D01*
X175805333Y-108583000D01*
X175916986Y-108572003D01*
X176060247Y-108528546D01*
X176192276Y-108457974D01*
X176308001Y-108363001D01*
X176354048Y-108306893D01*
X176362939Y-108328359D01*
X176509038Y-108547013D01*
X176694987Y-108732962D01*
X176913641Y-108879061D01*
X177156595Y-108979696D01*
X177414514Y-109031000D01*
X177677486Y-109031000D01*
X177935405Y-108979696D01*
X178178359Y-108879061D01*
X178397013Y-108732962D01*
X178582962Y-108547013D01*
X178729061Y-108328359D01*
X178829696Y-108085405D01*
X178881000Y-107827486D01*
X178881000Y-107564514D01*
X178829696Y-107306595D01*
X178729061Y-107063641D01*
X178582962Y-106844987D01*
X178397013Y-106659038D01*
X178178359Y-106512939D01*
X178132810Y-106494072D01*
X178246000Y-106494072D01*
X178370482Y-106481812D01*
X178490180Y-106445502D01*
X178600494Y-106386537D01*
X178697185Y-106307185D01*
X178776537Y-106210494D01*
X178835502Y-106100180D01*
X178871812Y-105980482D01*
X178884072Y-105856000D01*
X178884072Y-104456000D01*
X178871812Y-104331518D01*
X178835502Y-104211820D01*
X178776537Y-104101506D01*
X178697185Y-104004815D01*
X178600494Y-103925463D01*
X178490180Y-103866498D01*
X178370482Y-103830188D01*
X178246000Y-103817928D01*
X176846000Y-103817928D01*
X176721518Y-103830188D01*
X176601820Y-103866498D01*
X176491506Y-103925463D01*
X176394815Y-104004815D01*
X176315463Y-104101506D01*
X176256498Y-104211820D01*
X176220188Y-104331518D01*
X176207928Y-104456000D01*
X176207928Y-105856000D01*
X176220188Y-105980482D01*
X176256498Y-106100180D01*
X176315463Y-106210494D01*
X176394815Y-106307185D01*
X176491506Y-106386537D01*
X176601820Y-106445502D01*
X176721518Y-106481812D01*
X176846000Y-106494072D01*
X176959190Y-106494072D01*
X176913641Y-106512939D01*
X176694987Y-106659038D01*
X176509038Y-106844987D01*
X176362939Y-107063641D01*
X176281191Y-107260997D01*
X176192276Y-107188026D01*
X176060247Y-107117454D01*
X175916986Y-107073997D01*
X175805333Y-107063000D01*
X174177803Y-107063000D01*
X173099000Y-105984199D01*
X173099000Y-89686175D01*
X173144276Y-89661974D01*
X173260001Y-89567001D01*
X173283804Y-89537997D01*
X173288801Y-89533000D01*
X173893099Y-89533000D01*
X173915068Y-89574101D01*
X174094392Y-89792608D01*
X174312899Y-89971932D01*
X174445858Y-90043000D01*
X174312899Y-90114068D01*
X174094392Y-90293392D01*
X173915068Y-90511899D01*
X173781818Y-90761192D01*
X173699764Y-91031691D01*
X173672057Y-91313000D01*
X173699764Y-91594309D01*
X173781818Y-91864808D01*
X173915068Y-92114101D01*
X174094392Y-92332608D01*
X174312899Y-92511932D01*
X174445858Y-92583000D01*
X174312899Y-92654068D01*
X174094392Y-92833392D01*
X173915068Y-93051899D01*
X173781818Y-93301192D01*
X173699764Y-93571691D01*
X173672057Y-93853000D01*
X173699764Y-94134309D01*
X173781818Y-94404808D01*
X173915068Y-94654101D01*
X174094392Y-94872608D01*
X174312899Y-95051932D01*
X174445858Y-95123000D01*
X174312899Y-95194068D01*
X174094392Y-95373392D01*
X173915068Y-95591899D01*
X173781818Y-95841192D01*
X173699764Y-96111691D01*
X173672057Y-96393000D01*
X173699764Y-96674309D01*
X173781818Y-96944808D01*
X173915068Y-97194101D01*
X174094392Y-97412608D01*
X174312899Y-97591932D01*
X174562192Y-97725182D01*
X174832691Y-97807236D01*
X175043508Y-97828000D01*
X175984492Y-97828000D01*
X176195309Y-97807236D01*
X176465808Y-97725182D01*
X176585884Y-97661000D01*
X177597957Y-97661000D01*
X177701363Y-97815759D01*
X177901241Y-98015637D01*
X178136273Y-98172680D01*
X178397426Y-98280853D01*
X178674665Y-98336000D01*
X178957335Y-98336000D01*
X179234574Y-98280853D01*
X179495727Y-98172680D01*
X179730759Y-98015637D01*
X179930637Y-97815759D01*
X180087680Y-97580727D01*
X180195853Y-97319574D01*
X180251000Y-97042335D01*
X180251000Y-96759665D01*
X180195853Y-96482426D01*
X180087680Y-96221273D01*
X179930637Y-95986241D01*
X179730759Y-95786363D01*
X179495727Y-95629320D01*
X179234574Y-95521147D01*
X178957335Y-95466000D01*
X178674665Y-95466000D01*
X178397426Y-95521147D01*
X178136273Y-95629320D01*
X177901241Y-95786363D01*
X177701363Y-95986241D01*
X177597957Y-96141000D01*
X177331123Y-96141000D01*
X177328236Y-96111691D01*
X177246182Y-95841192D01*
X177112932Y-95591899D01*
X176933608Y-95373392D01*
X176715101Y-95194068D01*
X176582142Y-95123000D01*
X176715101Y-95051932D01*
X176933608Y-94872608D01*
X177112932Y-94654101D01*
X177134901Y-94613000D01*
X177800604Y-94613000D01*
X177901241Y-94713637D01*
X178136273Y-94870680D01*
X178397426Y-94978853D01*
X178674665Y-95034000D01*
X178957335Y-95034000D01*
X179234574Y-94978853D01*
X179495727Y-94870680D01*
X179730759Y-94713637D01*
X179930637Y-94513759D01*
X180087680Y-94278727D01*
X180195853Y-94017574D01*
X180251000Y-93740335D01*
X180251000Y-93457665D01*
X180195853Y-93180426D01*
X180087680Y-92919273D01*
X179930637Y-92684241D01*
X179730759Y-92484363D01*
X179495727Y-92327320D01*
X179234574Y-92219147D01*
X178957335Y-92164000D01*
X178674665Y-92164000D01*
X178397426Y-92219147D01*
X178136273Y-92327320D01*
X177901241Y-92484363D01*
X177701363Y-92684241D01*
X177544320Y-92919273D01*
X177472360Y-93093000D01*
X177134901Y-93093000D01*
X177112932Y-93051899D01*
X176933608Y-92833392D01*
X176715101Y-92654068D01*
X176582142Y-92583000D01*
X176715101Y-92511932D01*
X176933608Y-92332608D01*
X177112932Y-92114101D01*
X177246182Y-91864808D01*
X177328236Y-91594309D01*
X177355943Y-91313000D01*
X177328236Y-91031691D01*
X177246182Y-90761192D01*
X177112932Y-90511899D01*
X176933608Y-90293392D01*
X176715101Y-90114068D01*
X176582142Y-90043000D01*
X176715101Y-89971932D01*
X176933608Y-89792608D01*
X177112932Y-89574101D01*
X177246182Y-89324808D01*
X177328236Y-89054309D01*
X177355943Y-88773000D01*
X177328236Y-88491691D01*
X177246182Y-88221192D01*
X177112932Y-87971899D01*
X176933608Y-87753392D01*
X176715101Y-87574068D01*
X176465808Y-87440818D01*
X176274000Y-87382634D01*
X176274000Y-86797507D01*
X180189669Y-86797507D01*
X180228761Y-87023404D01*
X180311172Y-87237334D01*
X180433736Y-87431076D01*
X180591742Y-87597184D01*
X180779118Y-87729275D01*
X180988663Y-87822272D01*
X181050190Y-87830964D01*
X181229000Y-87705163D01*
X181229000Y-86614000D01*
X180349402Y-86614000D01*
X180189669Y-86797507D01*
X176274000Y-86797507D01*
X176274000Y-86176493D01*
X180189669Y-86176493D01*
X180349402Y-86360000D01*
X181229000Y-86360000D01*
X181229000Y-85268837D01*
X181050190Y-85143036D01*
X180988663Y-85151728D01*
X180779118Y-85244725D01*
X180591742Y-85376816D01*
X180433736Y-85542924D01*
X180311172Y-85736666D01*
X180228761Y-85950596D01*
X180189669Y-86176493D01*
X176274000Y-86176493D01*
X176274000Y-82371043D01*
X176428759Y-82267637D01*
X176628637Y-82067759D01*
X176785680Y-81832727D01*
X176893853Y-81571574D01*
X176949000Y-81294335D01*
X176949000Y-81011665D01*
X176893853Y-80734426D01*
X176785680Y-80473273D01*
X176628637Y-80238241D01*
X176428759Y-80038363D01*
X176193727Y-79881320D01*
X175932574Y-79773147D01*
X175655335Y-79718000D01*
X175372665Y-79718000D01*
X175095426Y-79773147D01*
X174834273Y-79881320D01*
X174599241Y-80038363D01*
X174399363Y-80238241D01*
X174242320Y-80473273D01*
X174134147Y-80734426D01*
X174079000Y-81011665D01*
X174079000Y-81294335D01*
X174115312Y-81476886D01*
X173421199Y-82171000D01*
X171618072Y-82171000D01*
X171618072Y-82131000D01*
X171605812Y-82006518D01*
X171569502Y-81886820D01*
X171510537Y-81776506D01*
X171431185Y-81679815D01*
X171334494Y-81600463D01*
X171224180Y-81541498D01*
X171104482Y-81505188D01*
X170980000Y-81492928D01*
X169562730Y-81492928D01*
X168203804Y-80134003D01*
X168180001Y-80104999D01*
X168064276Y-80010026D01*
X167932247Y-79939454D01*
X167788986Y-79895997D01*
X167677333Y-79885000D01*
X167677322Y-79885000D01*
X167640000Y-79881324D01*
X167602678Y-79885000D01*
X163524043Y-79885000D01*
X163420637Y-79730241D01*
X163220759Y-79530363D01*
X162985727Y-79373320D01*
X162984954Y-79373000D01*
X177231199Y-79373000D01*
X178056001Y-80197803D01*
X178056000Y-81750677D01*
X178052324Y-81788000D01*
X178056000Y-81825322D01*
X178056000Y-81825332D01*
X178066997Y-81936985D01*
X178093651Y-82024853D01*
X178110454Y-82080246D01*
X178181026Y-82212276D01*
X178220871Y-82260826D01*
X178275999Y-82328001D01*
X178305003Y-82351804D01*
X179522200Y-83569002D01*
X179545999Y-83598001D01*
X179661724Y-83692974D01*
X179793753Y-83763546D01*
X179937014Y-83807003D01*
X180048667Y-83818000D01*
X180048676Y-83818000D01*
X180085999Y-83821676D01*
X180123322Y-83818000D01*
X182819199Y-83818000D01*
X183136001Y-84134803D01*
X183136001Y-85144713D01*
X183126820Y-85147498D01*
X183062098Y-85182093D01*
X182853400Y-85118785D01*
X182626000Y-85096388D01*
X182398601Y-85118785D01*
X182179941Y-85185115D01*
X181991331Y-85285929D01*
X181932882Y-85244725D01*
X181723337Y-85151728D01*
X181661810Y-85143036D01*
X181483000Y-85268837D01*
X181483000Y-86033891D01*
X181482785Y-86034600D01*
X181466000Y-86205021D01*
X181466000Y-86768978D01*
X181482785Y-86939399D01*
X181483000Y-86940108D01*
X181483000Y-87705163D01*
X181661810Y-87830964D01*
X181723337Y-87822272D01*
X181932882Y-87729275D01*
X181991331Y-87688071D01*
X182179940Y-87788885D01*
X182398600Y-87855215D01*
X182626000Y-87877612D01*
X182853399Y-87855215D01*
X183062098Y-87791907D01*
X183126820Y-87826502D01*
X183136000Y-87829287D01*
X183136001Y-101158197D01*
X181226003Y-103068196D01*
X181196999Y-103091999D01*
X181141871Y-103159174D01*
X181102026Y-103207724D01*
X181031455Y-103339753D01*
X181031454Y-103339754D01*
X180987997Y-103483015D01*
X180977000Y-103594668D01*
X180977000Y-103594678D01*
X180973324Y-103632000D01*
X180977000Y-103669322D01*
X180977001Y-113450197D01*
X177784844Y-116642355D01*
X177677486Y-116621000D01*
X177414514Y-116621000D01*
X177156595Y-116672304D01*
X176913641Y-116772939D01*
X176694987Y-116919038D01*
X176509038Y-117104987D01*
X176362939Y-117323641D01*
X176262304Y-117566595D01*
X176211000Y-117824514D01*
X176211000Y-118087486D01*
X176262304Y-118345405D01*
X176362939Y-118588359D01*
X176509038Y-118807013D01*
X176694987Y-118992962D01*
X176913641Y-119139061D01*
X177002819Y-119176000D01*
X176913641Y-119212939D01*
X176694987Y-119359038D01*
X176509038Y-119544987D01*
X176362939Y-119763641D01*
X176262304Y-120006595D01*
X176211000Y-120264514D01*
X176211000Y-120527486D01*
X176262304Y-120785405D01*
X176362939Y-121028359D01*
X176509038Y-121247013D01*
X176694987Y-121432962D01*
X176913641Y-121579061D01*
X177156595Y-121679696D01*
X177414514Y-121731000D01*
X177677486Y-121731000D01*
X177935405Y-121679696D01*
X178178359Y-121579061D01*
X178397013Y-121432962D01*
X178582962Y-121247013D01*
X178729061Y-121028359D01*
X178829696Y-120785405D01*
X178881000Y-120527486D01*
X178881000Y-120264514D01*
X178829696Y-120006595D01*
X178729061Y-119763641D01*
X178582962Y-119544987D01*
X178397013Y-119359038D01*
X178178359Y-119212939D01*
X178089181Y-119176000D01*
X178178359Y-119139061D01*
X178397013Y-118992962D01*
X178582962Y-118807013D01*
X178729061Y-118588359D01*
X178829696Y-118345405D01*
X178881000Y-118087486D01*
X178881000Y-117824514D01*
X178859645Y-117717156D01*
X182248003Y-114328799D01*
X182277001Y-114305001D01*
X182303332Y-114272917D01*
X182371974Y-114189277D01*
X182442546Y-114057247D01*
X182486003Y-113913986D01*
X182497000Y-113802333D01*
X182497000Y-113802324D01*
X182500676Y-113765001D01*
X182497000Y-113727678D01*
X182497000Y-105024514D01*
X183831000Y-105024514D01*
X183831000Y-105287486D01*
X183882304Y-105545405D01*
X183982939Y-105788359D01*
X184129038Y-106007013D01*
X184314987Y-106192962D01*
X184533641Y-106339061D01*
X184743530Y-106426000D01*
X184533641Y-106512939D01*
X184314987Y-106659038D01*
X184129038Y-106844987D01*
X183982939Y-107063641D01*
X183882304Y-107306595D01*
X183831000Y-107564514D01*
X183831000Y-107827486D01*
X183882304Y-108085405D01*
X183982939Y-108328359D01*
X184129038Y-108547013D01*
X184314987Y-108732962D01*
X184533641Y-108879061D01*
X184776595Y-108979696D01*
X185034514Y-109031000D01*
X185297486Y-109031000D01*
X185555405Y-108979696D01*
X185798359Y-108879061D01*
X186017013Y-108732962D01*
X186202962Y-108547013D01*
X186349061Y-108328359D01*
X186449696Y-108085405D01*
X186501000Y-107827486D01*
X186501000Y-107564514D01*
X186449696Y-107306595D01*
X186349061Y-107063641D01*
X186202962Y-106844987D01*
X186017013Y-106659038D01*
X185798359Y-106512939D01*
X185588470Y-106426000D01*
X185798359Y-106339061D01*
X186017013Y-106192962D01*
X186202962Y-106007013D01*
X186203244Y-106006591D01*
X186287015Y-106032002D01*
X186436000Y-106046676D01*
X186584985Y-106032002D01*
X186728246Y-105988546D01*
X186860276Y-105917974D01*
X186947002Y-105846799D01*
X187766802Y-105027000D01*
X189092024Y-105027000D01*
X189136595Y-105110387D01*
X189247038Y-105244962D01*
X189381613Y-105355405D01*
X189386111Y-105357809D01*
X189347498Y-105389498D01*
X189193167Y-105577551D01*
X189078489Y-105792099D01*
X189007870Y-106024898D01*
X188984025Y-106267000D01*
X189007870Y-106509102D01*
X189078489Y-106741901D01*
X189193167Y-106956449D01*
X189347498Y-107144502D01*
X189535551Y-107298833D01*
X189740000Y-107408113D01*
X189740001Y-116144197D01*
X186257536Y-119626663D01*
X186202962Y-119544987D01*
X186017013Y-119359038D01*
X185798359Y-119212939D01*
X185709181Y-119176000D01*
X185798359Y-119139061D01*
X186017013Y-118992962D01*
X186202962Y-118807013D01*
X186349061Y-118588359D01*
X186449696Y-118345405D01*
X186501000Y-118087486D01*
X186501000Y-117824514D01*
X186449696Y-117566595D01*
X186349061Y-117323641D01*
X186202962Y-117104987D01*
X186017013Y-116919038D01*
X185798359Y-116772939D01*
X185555405Y-116672304D01*
X185297486Y-116621000D01*
X185034514Y-116621000D01*
X184776595Y-116672304D01*
X184533641Y-116772939D01*
X184314987Y-116919038D01*
X184129038Y-117104987D01*
X183982939Y-117323641D01*
X183882304Y-117566595D01*
X183831000Y-117824514D01*
X183831000Y-118087486D01*
X183882304Y-118345405D01*
X183982939Y-118588359D01*
X184129038Y-118807013D01*
X184314987Y-118992962D01*
X184533641Y-119139061D01*
X184622819Y-119176000D01*
X184533641Y-119212939D01*
X184314987Y-119359038D01*
X184129038Y-119544987D01*
X183982939Y-119763641D01*
X183882304Y-120006595D01*
X183831000Y-120264514D01*
X183831000Y-120527486D01*
X183882304Y-120785405D01*
X183982939Y-121028359D01*
X184129038Y-121247013D01*
X184314987Y-121432962D01*
X184533641Y-121579061D01*
X184776595Y-121679696D01*
X185034514Y-121731000D01*
X185297486Y-121731000D01*
X185555405Y-121679696D01*
X185798359Y-121579061D01*
X186017013Y-121432962D01*
X186202962Y-121247013D01*
X186203244Y-121246591D01*
X186287015Y-121272002D01*
X186436000Y-121286676D01*
X186584985Y-121272002D01*
X186728246Y-121228546D01*
X186860276Y-121157974D01*
X186947002Y-121086799D01*
X191011003Y-117022799D01*
X191040001Y-116999001D01*
X191105625Y-116919038D01*
X191134974Y-116883277D01*
X191205546Y-116751247D01*
X191216237Y-116716002D01*
X191249003Y-116607986D01*
X191260000Y-116496333D01*
X191260000Y-116496323D01*
X191263676Y-116459000D01*
X191260000Y-116421677D01*
X191260000Y-107408113D01*
X191464449Y-107298833D01*
X191652502Y-107144502D01*
X191806833Y-106956449D01*
X191921511Y-106741901D01*
X191992130Y-106509102D01*
X192015975Y-106267000D01*
X191992130Y-106024898D01*
X191921511Y-105792099D01*
X191806833Y-105577551D01*
X191652502Y-105389498D01*
X191613889Y-105357809D01*
X191618387Y-105355405D01*
X191752962Y-105244962D01*
X191863405Y-105110387D01*
X191945472Y-104956851D01*
X191996008Y-104790255D01*
X192013072Y-104617001D01*
X192013072Y-103916999D01*
X191996008Y-103743745D01*
X191945472Y-103577149D01*
X191863405Y-103423613D01*
X191752962Y-103289038D01*
X191618387Y-103178595D01*
X191464851Y-103096528D01*
X191298255Y-103045992D01*
X191125001Y-103028928D01*
X189874999Y-103028928D01*
X189701745Y-103045992D01*
X189535149Y-103096528D01*
X189381613Y-103178595D01*
X189247038Y-103289038D01*
X189136595Y-103423613D01*
X189092024Y-103507000D01*
X187489322Y-103507000D01*
X187452000Y-103503324D01*
X187414677Y-103507000D01*
X187414667Y-103507000D01*
X187303014Y-103517997D01*
X187159753Y-103561454D01*
X187027723Y-103632026D01*
X186944083Y-103700668D01*
X186911999Y-103726999D01*
X186888201Y-103755997D01*
X186257536Y-104386663D01*
X186202962Y-104304987D01*
X186017013Y-104119038D01*
X185798359Y-103972939D01*
X185555405Y-103872304D01*
X185297486Y-103821000D01*
X185034514Y-103821000D01*
X184776595Y-103872304D01*
X184533641Y-103972939D01*
X184314987Y-104119038D01*
X184129038Y-104304987D01*
X183982939Y-104523641D01*
X183882304Y-104766595D01*
X183831000Y-105024514D01*
X182497000Y-105024514D01*
X182497000Y-103946801D01*
X184407003Y-102036799D01*
X184436001Y-102013001D01*
X184462332Y-101980917D01*
X184530974Y-101897277D01*
X184601546Y-101765247D01*
X184644157Y-101624774D01*
X184645003Y-101621986D01*
X184656000Y-101510333D01*
X184656000Y-101510324D01*
X184659676Y-101473001D01*
X184656000Y-101435678D01*
X184656000Y-96759665D01*
X185001000Y-96759665D01*
X185001000Y-97042335D01*
X185056147Y-97319574D01*
X185164320Y-97580727D01*
X185321363Y-97815759D01*
X185521241Y-98015637D01*
X185756273Y-98172680D01*
X186017426Y-98280853D01*
X186294665Y-98336000D01*
X186577335Y-98336000D01*
X186854574Y-98280853D01*
X187115727Y-98172680D01*
X187350759Y-98015637D01*
X187550637Y-97815759D01*
X187654043Y-97661000D01*
X189192678Y-97661000D01*
X189230000Y-97664676D01*
X189267322Y-97661000D01*
X189267333Y-97661000D01*
X189378986Y-97650003D01*
X189522247Y-97606546D01*
X189654276Y-97535974D01*
X189770001Y-97441001D01*
X189793803Y-97411998D01*
X190249003Y-96956798D01*
X190278001Y-96933001D01*
X190372974Y-96817276D01*
X190443546Y-96685247D01*
X190487003Y-96541986D01*
X190498000Y-96430333D01*
X190498000Y-96430324D01*
X190501676Y-96393001D01*
X190498000Y-96355678D01*
X190498000Y-90873313D01*
X190716505Y-90727312D01*
X190930312Y-90513505D01*
X191098299Y-90262095D01*
X191214011Y-89982743D01*
X191273000Y-89686184D01*
X191273000Y-89383816D01*
X191214011Y-89087257D01*
X191098299Y-88807905D01*
X190930312Y-88556495D01*
X190863873Y-88490056D01*
X190882180Y-88484502D01*
X190992494Y-88425537D01*
X191089185Y-88346185D01*
X191168537Y-88249494D01*
X191227502Y-88139180D01*
X191263812Y-88019482D01*
X191276072Y-87895000D01*
X191273000Y-87280750D01*
X191114250Y-87122000D01*
X189865000Y-87122000D01*
X189865000Y-87142000D01*
X189611000Y-87142000D01*
X189611000Y-87122000D01*
X188361750Y-87122000D01*
X188203000Y-87280750D01*
X188199928Y-87895000D01*
X188212188Y-88019482D01*
X188248498Y-88139180D01*
X188307463Y-88249494D01*
X188386815Y-88346185D01*
X188483506Y-88425537D01*
X188593820Y-88484502D01*
X188612127Y-88490056D01*
X188545688Y-88556495D01*
X188377701Y-88807905D01*
X188261989Y-89087257D01*
X188203000Y-89383816D01*
X188203000Y-89686184D01*
X188261989Y-89982743D01*
X188377701Y-90262095D01*
X188545688Y-90513505D01*
X188759495Y-90727312D01*
X188978001Y-90873313D01*
X188978000Y-96078198D01*
X188915199Y-96141000D01*
X187654043Y-96141000D01*
X187550637Y-95986241D01*
X187350759Y-95786363D01*
X187115727Y-95629320D01*
X186854574Y-95521147D01*
X186577335Y-95466000D01*
X186294665Y-95466000D01*
X186017426Y-95521147D01*
X185756273Y-95629320D01*
X185521241Y-95786363D01*
X185321363Y-95986241D01*
X185164320Y-96221273D01*
X185056147Y-96482426D01*
X185001000Y-96759665D01*
X184656000Y-96759665D01*
X184656000Y-93457665D01*
X185001000Y-93457665D01*
X185001000Y-93740335D01*
X185056147Y-94017574D01*
X185164320Y-94278727D01*
X185321363Y-94513759D01*
X185521241Y-94713637D01*
X185756273Y-94870680D01*
X186017426Y-94978853D01*
X186294665Y-95034000D01*
X186577335Y-95034000D01*
X186854574Y-94978853D01*
X187115727Y-94870680D01*
X187350759Y-94713637D01*
X187550637Y-94513759D01*
X187707680Y-94278727D01*
X187815853Y-94017574D01*
X187871000Y-93740335D01*
X187871000Y-93457665D01*
X187815853Y-93180426D01*
X187707680Y-92919273D01*
X187550637Y-92684241D01*
X187350759Y-92484363D01*
X187115727Y-92327320D01*
X186854574Y-92219147D01*
X186577335Y-92164000D01*
X186294665Y-92164000D01*
X186017426Y-92219147D01*
X185756273Y-92327320D01*
X185521241Y-92484363D01*
X185321363Y-92684241D01*
X185164320Y-92919273D01*
X185056147Y-93180426D01*
X185001000Y-93457665D01*
X184656000Y-93457665D01*
X184656000Y-87829287D01*
X184665180Y-87826502D01*
X184775494Y-87767537D01*
X184872185Y-87688185D01*
X184951537Y-87591494D01*
X185010502Y-87481180D01*
X185046812Y-87361482D01*
X185059072Y-87237000D01*
X185059072Y-86398729D01*
X185362801Y-86095000D01*
X188199928Y-86095000D01*
X188203000Y-86709250D01*
X188361750Y-86868000D01*
X189611000Y-86868000D01*
X189611000Y-85618750D01*
X189865000Y-85618750D01*
X189865000Y-86868000D01*
X191114250Y-86868000D01*
X191273000Y-86709250D01*
X191276072Y-86095000D01*
X191263812Y-85970518D01*
X191227502Y-85850820D01*
X191168537Y-85740506D01*
X191089185Y-85643815D01*
X190992494Y-85564463D01*
X190882180Y-85505498D01*
X190762482Y-85469188D01*
X190638000Y-85456928D01*
X190023750Y-85460000D01*
X189865000Y-85618750D01*
X189611000Y-85618750D01*
X189452250Y-85460000D01*
X188838000Y-85456928D01*
X188713518Y-85469188D01*
X188593820Y-85505498D01*
X188483506Y-85564463D01*
X188386815Y-85643815D01*
X188307463Y-85740506D01*
X188248498Y-85850820D01*
X188212188Y-85970518D01*
X188199928Y-86095000D01*
X185362801Y-86095000D01*
X187004802Y-84453000D01*
X188199928Y-84453000D01*
X188199928Y-84593000D01*
X188212188Y-84717482D01*
X188248498Y-84837180D01*
X188307463Y-84947494D01*
X188386815Y-85044185D01*
X188483506Y-85123537D01*
X188593820Y-85182502D01*
X188713518Y-85218812D01*
X188838000Y-85231072D01*
X190638000Y-85231072D01*
X190762482Y-85218812D01*
X190882180Y-85182502D01*
X190992494Y-85123537D01*
X191089185Y-85044185D01*
X191168537Y-84947494D01*
X191227502Y-84837180D01*
X191263812Y-84717482D01*
X191276072Y-84593000D01*
X191276072Y-82793000D01*
X191263812Y-82668518D01*
X191227502Y-82548820D01*
X191168537Y-82438506D01*
X191089185Y-82341815D01*
X190992494Y-82262463D01*
X190882180Y-82203498D01*
X190863873Y-82197944D01*
X190930312Y-82131505D01*
X191098299Y-81880095D01*
X191214011Y-81600743D01*
X191273000Y-81304184D01*
X191273000Y-81001816D01*
X191214011Y-80705257D01*
X191098299Y-80425905D01*
X190930312Y-80174495D01*
X190716505Y-79960688D01*
X190465095Y-79792701D01*
X190185743Y-79676989D01*
X189889184Y-79618000D01*
X189586816Y-79618000D01*
X189290257Y-79676989D01*
X189010905Y-79792701D01*
X188759495Y-79960688D01*
X188545688Y-80174495D01*
X188399687Y-80393000D01*
X184352043Y-80393000D01*
X184248637Y-80238241D01*
X184048759Y-80038363D01*
X183813727Y-79881320D01*
X183552574Y-79773147D01*
X183275335Y-79718000D01*
X182992665Y-79718000D01*
X182715426Y-79773147D01*
X182454273Y-79881320D01*
X182219241Y-80038363D01*
X182019363Y-80238241D01*
X181862320Y-80473273D01*
X181754147Y-80734426D01*
X181699000Y-81011665D01*
X181699000Y-81294335D01*
X181754147Y-81571574D01*
X181862320Y-81832727D01*
X182019363Y-82067759D01*
X182219241Y-82267637D01*
X182264683Y-82298000D01*
X180400802Y-82298000D01*
X179576000Y-81473199D01*
X179576000Y-79920322D01*
X179579676Y-79882999D01*
X179576000Y-79845676D01*
X179576000Y-79845667D01*
X179565003Y-79734014D01*
X179521546Y-79590753D01*
X179450974Y-79458724D01*
X179356001Y-79342999D01*
X179327003Y-79319201D01*
X179001802Y-78994000D01*
X192532000Y-78994000D01*
X192532000Y-126873000D01*
%TA.AperFunction,Conductor*%
D38*
G36*
X192532000Y-126873000D02*
G01*
X144399000Y-126873000D01*
X144399000Y-122486801D01*
X146502201Y-124590003D01*
X146525999Y-124619001D01*
X146641724Y-124713974D01*
X146773753Y-124784546D01*
X146917014Y-124828003D01*
X147028667Y-124839000D01*
X147028676Y-124839000D01*
X147065999Y-124842676D01*
X147103322Y-124839000D01*
X158966678Y-124839000D01*
X159004000Y-124842676D01*
X159041322Y-124839000D01*
X159041333Y-124839000D01*
X159152986Y-124828003D01*
X159296247Y-124784546D01*
X159428276Y-124713974D01*
X159544001Y-124619001D01*
X159567804Y-124589997D01*
X160322099Y-123835702D01*
X160330454Y-123863246D01*
X160401026Y-123995276D01*
X160469737Y-124079000D01*
X160496000Y-124111001D01*
X160524998Y-124134799D01*
X161170701Y-124780502D01*
X161194499Y-124809501D01*
X161223503Y-124833304D01*
X161286998Y-124896799D01*
X161373725Y-124967974D01*
X161505754Y-125038546D01*
X161649015Y-125082003D01*
X161798000Y-125096677D01*
X161946986Y-125082003D01*
X162090246Y-125038546D01*
X162107170Y-125029500D01*
X170333178Y-125029500D01*
X170370500Y-125033176D01*
X170407822Y-125029500D01*
X170407833Y-125029500D01*
X170519486Y-125018503D01*
X170662747Y-124975046D01*
X170794776Y-124904474D01*
X170910501Y-124809501D01*
X170934304Y-124780497D01*
X174374003Y-121340799D01*
X174403001Y-121317001D01*
X174497974Y-121201276D01*
X174568546Y-121069247D01*
X174612003Y-120925986D01*
X174623000Y-120814333D01*
X174623000Y-120814323D01*
X174626676Y-120777000D01*
X174623000Y-120739677D01*
X174623000Y-108583000D01*
X175805333Y-108583000D01*
X175916986Y-108572003D01*
X176060247Y-108528546D01*
X176192276Y-108457974D01*
X176308001Y-108363001D01*
X176354048Y-108306893D01*
X176362939Y-108328359D01*
X176509038Y-108547013D01*
X176694987Y-108732962D01*
X176913641Y-108879061D01*
X177156595Y-108979696D01*
X177414514Y-109031000D01*
X177677486Y-109031000D01*
X177935405Y-108979696D01*
X178178359Y-108879061D01*
X178397013Y-108732962D01*
X178582962Y-108547013D01*
X178729061Y-108328359D01*
X178829696Y-108085405D01*
X178881000Y-107827486D01*
X178881000Y-107564514D01*
X178829696Y-107306595D01*
X178729061Y-107063641D01*
X178582962Y-106844987D01*
X178397013Y-106659038D01*
X178178359Y-106512939D01*
X178132810Y-106494072D01*
X178246000Y-106494072D01*
X178370482Y-106481812D01*
X178490180Y-106445502D01*
X178600494Y-106386537D01*
X178697185Y-106307185D01*
X178776537Y-106210494D01*
X178835502Y-106100180D01*
X178871812Y-105980482D01*
X178884072Y-105856000D01*
X178884072Y-104456000D01*
X178871812Y-104331518D01*
X178835502Y-104211820D01*
X178776537Y-104101506D01*
X178697185Y-104004815D01*
X178600494Y-103925463D01*
X178490180Y-103866498D01*
X178370482Y-103830188D01*
X178246000Y-103817928D01*
X176846000Y-103817928D01*
X176721518Y-103830188D01*
X176601820Y-103866498D01*
X176491506Y-103925463D01*
X176394815Y-104004815D01*
X176315463Y-104101506D01*
X176256498Y-104211820D01*
X176220188Y-104331518D01*
X176207928Y-104456000D01*
X176207928Y-105856000D01*
X176220188Y-105980482D01*
X176256498Y-106100180D01*
X176315463Y-106210494D01*
X176394815Y-106307185D01*
X176491506Y-106386537D01*
X176601820Y-106445502D01*
X176721518Y-106481812D01*
X176846000Y-106494072D01*
X176959190Y-106494072D01*
X176913641Y-106512939D01*
X176694987Y-106659038D01*
X176509038Y-106844987D01*
X176362939Y-107063641D01*
X176281191Y-107260997D01*
X176192276Y-107188026D01*
X176060247Y-107117454D01*
X175916986Y-107073997D01*
X175805333Y-107063000D01*
X174177803Y-107063000D01*
X173099000Y-105984199D01*
X173099000Y-89686175D01*
X173144276Y-89661974D01*
X173260001Y-89567001D01*
X173283804Y-89537997D01*
X173288801Y-89533000D01*
X173893099Y-89533000D01*
X173915068Y-89574101D01*
X174094392Y-89792608D01*
X174312899Y-89971932D01*
X174445858Y-90043000D01*
X174312899Y-90114068D01*
X174094392Y-90293392D01*
X173915068Y-90511899D01*
X173781818Y-90761192D01*
X173699764Y-91031691D01*
X173672057Y-91313000D01*
X173699764Y-91594309D01*
X173781818Y-91864808D01*
X173915068Y-92114101D01*
X174094392Y-92332608D01*
X174312899Y-92511932D01*
X174445858Y-92583000D01*
X174312899Y-92654068D01*
X174094392Y-92833392D01*
X173915068Y-93051899D01*
X173781818Y-93301192D01*
X173699764Y-93571691D01*
X173672057Y-93853000D01*
X173699764Y-94134309D01*
X173781818Y-94404808D01*
X173915068Y-94654101D01*
X174094392Y-94872608D01*
X174312899Y-95051932D01*
X174445858Y-95123000D01*
X174312899Y-95194068D01*
X174094392Y-95373392D01*
X173915068Y-95591899D01*
X173781818Y-95841192D01*
X173699764Y-96111691D01*
X173672057Y-96393000D01*
X173699764Y-96674309D01*
X173781818Y-96944808D01*
X173915068Y-97194101D01*
X174094392Y-97412608D01*
X174312899Y-97591932D01*
X174562192Y-97725182D01*
X174832691Y-97807236D01*
X175043508Y-97828000D01*
X175984492Y-97828000D01*
X176195309Y-97807236D01*
X176465808Y-97725182D01*
X176585884Y-97661000D01*
X177597957Y-97661000D01*
X177701363Y-97815759D01*
X177901241Y-98015637D01*
X178136273Y-98172680D01*
X178397426Y-98280853D01*
X178674665Y-98336000D01*
X178957335Y-98336000D01*
X179234574Y-98280853D01*
X179495727Y-98172680D01*
X179730759Y-98015637D01*
X179930637Y-97815759D01*
X180087680Y-97580727D01*
X180195853Y-97319574D01*
X180251000Y-97042335D01*
X180251000Y-96759665D01*
X180195853Y-96482426D01*
X180087680Y-96221273D01*
X179930637Y-95986241D01*
X179730759Y-95786363D01*
X179495727Y-95629320D01*
X179234574Y-95521147D01*
X178957335Y-95466000D01*
X178674665Y-95466000D01*
X178397426Y-95521147D01*
X178136273Y-95629320D01*
X177901241Y-95786363D01*
X177701363Y-95986241D01*
X177597957Y-96141000D01*
X177331123Y-96141000D01*
X177328236Y-96111691D01*
X177246182Y-95841192D01*
X177112932Y-95591899D01*
X176933608Y-95373392D01*
X176715101Y-95194068D01*
X176582142Y-95123000D01*
X176715101Y-95051932D01*
X176933608Y-94872608D01*
X177112932Y-94654101D01*
X177134901Y-94613000D01*
X177800604Y-94613000D01*
X177901241Y-94713637D01*
X178136273Y-94870680D01*
X178397426Y-94978853D01*
X178674665Y-95034000D01*
X178957335Y-95034000D01*
X179234574Y-94978853D01*
X179495727Y-94870680D01*
X179730759Y-94713637D01*
X179930637Y-94513759D01*
X180087680Y-94278727D01*
X180195853Y-94017574D01*
X180251000Y-93740335D01*
X180251000Y-93457665D01*
X180195853Y-93180426D01*
X180087680Y-92919273D01*
X179930637Y-92684241D01*
X179730759Y-92484363D01*
X179495727Y-92327320D01*
X179234574Y-92219147D01*
X178957335Y-92164000D01*
X178674665Y-92164000D01*
X178397426Y-92219147D01*
X178136273Y-92327320D01*
X177901241Y-92484363D01*
X177701363Y-92684241D01*
X177544320Y-92919273D01*
X177472360Y-93093000D01*
X177134901Y-93093000D01*
X177112932Y-93051899D01*
X176933608Y-92833392D01*
X176715101Y-92654068D01*
X176582142Y-92583000D01*
X176715101Y-92511932D01*
X176933608Y-92332608D01*
X177112932Y-92114101D01*
X177246182Y-91864808D01*
X177328236Y-91594309D01*
X177355943Y-91313000D01*
X177328236Y-91031691D01*
X177246182Y-90761192D01*
X177112932Y-90511899D01*
X176933608Y-90293392D01*
X176715101Y-90114068D01*
X176582142Y-90043000D01*
X176715101Y-89971932D01*
X176933608Y-89792608D01*
X177112932Y-89574101D01*
X177246182Y-89324808D01*
X177328236Y-89054309D01*
X177355943Y-88773000D01*
X177328236Y-88491691D01*
X177246182Y-88221192D01*
X177112932Y-87971899D01*
X176933608Y-87753392D01*
X176715101Y-87574068D01*
X176465808Y-87440818D01*
X176274000Y-87382634D01*
X176274000Y-86797507D01*
X180189669Y-86797507D01*
X180228761Y-87023404D01*
X180311172Y-87237334D01*
X180433736Y-87431076D01*
X180591742Y-87597184D01*
X180779118Y-87729275D01*
X180988663Y-87822272D01*
X181050190Y-87830964D01*
X181229000Y-87705163D01*
X181229000Y-86614000D01*
X180349402Y-86614000D01*
X180189669Y-86797507D01*
X176274000Y-86797507D01*
X176274000Y-86176493D01*
X180189669Y-86176493D01*
X180349402Y-86360000D01*
X181229000Y-86360000D01*
X181229000Y-85268837D01*
X181050190Y-85143036D01*
X180988663Y-85151728D01*
X180779118Y-85244725D01*
X180591742Y-85376816D01*
X180433736Y-85542924D01*
X180311172Y-85736666D01*
X180228761Y-85950596D01*
X180189669Y-86176493D01*
X176274000Y-86176493D01*
X176274000Y-82371043D01*
X176428759Y-82267637D01*
X176628637Y-82067759D01*
X176785680Y-81832727D01*
X176893853Y-81571574D01*
X176949000Y-81294335D01*
X176949000Y-81011665D01*
X176893853Y-80734426D01*
X176785680Y-80473273D01*
X176628637Y-80238241D01*
X176428759Y-80038363D01*
X176193727Y-79881320D01*
X175932574Y-79773147D01*
X175655335Y-79718000D01*
X175372665Y-79718000D01*
X175095426Y-79773147D01*
X174834273Y-79881320D01*
X174599241Y-80038363D01*
X174399363Y-80238241D01*
X174242320Y-80473273D01*
X174134147Y-80734426D01*
X174079000Y-81011665D01*
X174079000Y-81294335D01*
X174115312Y-81476886D01*
X173421199Y-82171000D01*
X171618072Y-82171000D01*
X171618072Y-82131000D01*
X171605812Y-82006518D01*
X171569502Y-81886820D01*
X171510537Y-81776506D01*
X171431185Y-81679815D01*
X171334494Y-81600463D01*
X171224180Y-81541498D01*
X171104482Y-81505188D01*
X170980000Y-81492928D01*
X169562730Y-81492928D01*
X168203804Y-80134003D01*
X168180001Y-80104999D01*
X168064276Y-80010026D01*
X167932247Y-79939454D01*
X167788986Y-79895997D01*
X167677333Y-79885000D01*
X167677322Y-79885000D01*
X167640000Y-79881324D01*
X167602678Y-79885000D01*
X163524043Y-79885000D01*
X163420637Y-79730241D01*
X163220759Y-79530363D01*
X162985727Y-79373320D01*
X162984954Y-79373000D01*
X177231199Y-79373000D01*
X178056001Y-80197803D01*
X178056000Y-81750677D01*
X178052324Y-81788000D01*
X178056000Y-81825322D01*
X178056000Y-81825332D01*
X178066997Y-81936985D01*
X178093651Y-82024853D01*
X178110454Y-82080246D01*
X178181026Y-82212276D01*
X178220871Y-82260826D01*
X178275999Y-82328001D01*
X178305003Y-82351804D01*
X179522200Y-83569002D01*
X179545999Y-83598001D01*
X179661724Y-83692974D01*
X179793753Y-83763546D01*
X179937014Y-83807003D01*
X180048667Y-83818000D01*
X180048676Y-83818000D01*
X180085999Y-83821676D01*
X180123322Y-83818000D01*
X182819199Y-83818000D01*
X183136001Y-84134803D01*
X183136001Y-85144713D01*
X183126820Y-85147498D01*
X183062098Y-85182093D01*
X182853400Y-85118785D01*
X182626000Y-85096388D01*
X182398601Y-85118785D01*
X182179941Y-85185115D01*
X181991331Y-85285929D01*
X181932882Y-85244725D01*
X181723337Y-85151728D01*
X181661810Y-85143036D01*
X181483000Y-85268837D01*
X181483000Y-86033891D01*
X181482785Y-86034600D01*
X181466000Y-86205021D01*
X181466000Y-86768978D01*
X181482785Y-86939399D01*
X181483000Y-86940108D01*
X181483000Y-87705163D01*
X181661810Y-87830964D01*
X181723337Y-87822272D01*
X181932882Y-87729275D01*
X181991331Y-87688071D01*
X182179940Y-87788885D01*
X182398600Y-87855215D01*
X182626000Y-87877612D01*
X182853399Y-87855215D01*
X183062098Y-87791907D01*
X183126820Y-87826502D01*
X183136000Y-87829287D01*
X183136001Y-101158197D01*
X181226003Y-103068196D01*
X181196999Y-103091999D01*
X181141871Y-103159174D01*
X181102026Y-103207724D01*
X181031455Y-103339753D01*
X181031454Y-103339754D01*
X180987997Y-103483015D01*
X180977000Y-103594668D01*
X180977000Y-103594678D01*
X180973324Y-103632000D01*
X180977000Y-103669322D01*
X180977001Y-113450197D01*
X177784844Y-116642355D01*
X177677486Y-116621000D01*
X177414514Y-116621000D01*
X177156595Y-116672304D01*
X176913641Y-116772939D01*
X176694987Y-116919038D01*
X176509038Y-117104987D01*
X176362939Y-117323641D01*
X176262304Y-117566595D01*
X176211000Y-117824514D01*
X176211000Y-118087486D01*
X176262304Y-118345405D01*
X176362939Y-118588359D01*
X176509038Y-118807013D01*
X176694987Y-118992962D01*
X176913641Y-119139061D01*
X177002819Y-119176000D01*
X176913641Y-119212939D01*
X176694987Y-119359038D01*
X176509038Y-119544987D01*
X176362939Y-119763641D01*
X176262304Y-120006595D01*
X176211000Y-120264514D01*
X176211000Y-120527486D01*
X176262304Y-120785405D01*
X176362939Y-121028359D01*
X176509038Y-121247013D01*
X176694987Y-121432962D01*
X176913641Y-121579061D01*
X177156595Y-121679696D01*
X177414514Y-121731000D01*
X177677486Y-121731000D01*
X177935405Y-121679696D01*
X178178359Y-121579061D01*
X178397013Y-121432962D01*
X178582962Y-121247013D01*
X178729061Y-121028359D01*
X178829696Y-120785405D01*
X178881000Y-120527486D01*
X178881000Y-120264514D01*
X178829696Y-120006595D01*
X178729061Y-119763641D01*
X178582962Y-119544987D01*
X178397013Y-119359038D01*
X178178359Y-119212939D01*
X178089181Y-119176000D01*
X178178359Y-119139061D01*
X178397013Y-118992962D01*
X178582962Y-118807013D01*
X178729061Y-118588359D01*
X178829696Y-118345405D01*
X178881000Y-118087486D01*
X178881000Y-117824514D01*
X178859645Y-117717156D01*
X182248003Y-114328799D01*
X182277001Y-114305001D01*
X182303332Y-114272917D01*
X182371974Y-114189277D01*
X182442546Y-114057247D01*
X182486003Y-113913986D01*
X182497000Y-113802333D01*
X182497000Y-113802324D01*
X182500676Y-113765001D01*
X182497000Y-113727678D01*
X182497000Y-105024514D01*
X183831000Y-105024514D01*
X183831000Y-105287486D01*
X183882304Y-105545405D01*
X183982939Y-105788359D01*
X184129038Y-106007013D01*
X184314987Y-106192962D01*
X184533641Y-106339061D01*
X184743530Y-106426000D01*
X184533641Y-106512939D01*
X184314987Y-106659038D01*
X184129038Y-106844987D01*
X183982939Y-107063641D01*
X183882304Y-107306595D01*
X183831000Y-107564514D01*
X183831000Y-107827486D01*
X183882304Y-108085405D01*
X183982939Y-108328359D01*
X184129038Y-108547013D01*
X184314987Y-108732962D01*
X184533641Y-108879061D01*
X184776595Y-108979696D01*
X185034514Y-109031000D01*
X185297486Y-109031000D01*
X185555405Y-108979696D01*
X185798359Y-108879061D01*
X186017013Y-108732962D01*
X186202962Y-108547013D01*
X186349061Y-108328359D01*
X186449696Y-108085405D01*
X186501000Y-107827486D01*
X186501000Y-107564514D01*
X186449696Y-107306595D01*
X186349061Y-107063641D01*
X186202962Y-106844987D01*
X186017013Y-106659038D01*
X185798359Y-106512939D01*
X185588470Y-106426000D01*
X185798359Y-106339061D01*
X186017013Y-106192962D01*
X186202962Y-106007013D01*
X186203244Y-106006591D01*
X186287015Y-106032002D01*
X186436000Y-106046676D01*
X186584985Y-106032002D01*
X186728246Y-105988546D01*
X186860276Y-105917974D01*
X186947002Y-105846799D01*
X187766802Y-105027000D01*
X189092024Y-105027000D01*
X189136595Y-105110387D01*
X189247038Y-105244962D01*
X189381613Y-105355405D01*
X189386111Y-105357809D01*
X189347498Y-105389498D01*
X189193167Y-105577551D01*
X189078489Y-105792099D01*
X189007870Y-106024898D01*
X188984025Y-106267000D01*
X189007870Y-106509102D01*
X189078489Y-106741901D01*
X189193167Y-106956449D01*
X189347498Y-107144502D01*
X189535551Y-107298833D01*
X189740000Y-107408113D01*
X189740001Y-116144197D01*
X186257536Y-119626663D01*
X186202962Y-119544987D01*
X186017013Y-119359038D01*
X185798359Y-119212939D01*
X185709181Y-119176000D01*
X185798359Y-119139061D01*
X186017013Y-118992962D01*
X186202962Y-118807013D01*
X186349061Y-118588359D01*
X186449696Y-118345405D01*
X186501000Y-118087486D01*
X186501000Y-117824514D01*
X186449696Y-117566595D01*
X186349061Y-117323641D01*
X186202962Y-117104987D01*
X186017013Y-116919038D01*
X185798359Y-116772939D01*
X185555405Y-116672304D01*
X185297486Y-116621000D01*
X185034514Y-116621000D01*
X184776595Y-116672304D01*
X184533641Y-116772939D01*
X184314987Y-116919038D01*
X184129038Y-117104987D01*
X183982939Y-117323641D01*
X183882304Y-117566595D01*
X183831000Y-117824514D01*
X183831000Y-118087486D01*
X183882304Y-118345405D01*
X183982939Y-118588359D01*
X184129038Y-118807013D01*
X184314987Y-118992962D01*
X184533641Y-119139061D01*
X184622819Y-119176000D01*
X184533641Y-119212939D01*
X184314987Y-119359038D01*
X184129038Y-119544987D01*
X183982939Y-119763641D01*
X183882304Y-120006595D01*
X183831000Y-120264514D01*
X183831000Y-120527486D01*
X183882304Y-120785405D01*
X183982939Y-121028359D01*
X184129038Y-121247013D01*
X184314987Y-121432962D01*
X184533641Y-121579061D01*
X184776595Y-121679696D01*
X185034514Y-121731000D01*
X185297486Y-121731000D01*
X185555405Y-121679696D01*
X185798359Y-121579061D01*
X186017013Y-121432962D01*
X186202962Y-121247013D01*
X186203244Y-121246591D01*
X186287015Y-121272002D01*
X186436000Y-121286676D01*
X186584985Y-121272002D01*
X186728246Y-121228546D01*
X186860276Y-121157974D01*
X186947002Y-121086799D01*
X191011003Y-117022799D01*
X191040001Y-116999001D01*
X191105625Y-116919038D01*
X191134974Y-116883277D01*
X191205546Y-116751247D01*
X191216237Y-116716002D01*
X191249003Y-116607986D01*
X191260000Y-116496333D01*
X191260000Y-116496323D01*
X191263676Y-116459000D01*
X191260000Y-116421677D01*
X191260000Y-107408113D01*
X191464449Y-107298833D01*
X191652502Y-107144502D01*
X191806833Y-106956449D01*
X191921511Y-106741901D01*
X191992130Y-106509102D01*
X192015975Y-106267000D01*
X191992130Y-106024898D01*
X191921511Y-105792099D01*
X191806833Y-105577551D01*
X191652502Y-105389498D01*
X191613889Y-105357809D01*
X191618387Y-105355405D01*
X191752962Y-105244962D01*
X191863405Y-105110387D01*
X191945472Y-104956851D01*
X191996008Y-104790255D01*
X192013072Y-104617001D01*
X192013072Y-103916999D01*
X191996008Y-103743745D01*
X191945472Y-103577149D01*
X191863405Y-103423613D01*
X191752962Y-103289038D01*
X191618387Y-103178595D01*
X191464851Y-103096528D01*
X191298255Y-103045992D01*
X191125001Y-103028928D01*
X189874999Y-103028928D01*
X189701745Y-103045992D01*
X189535149Y-103096528D01*
X189381613Y-103178595D01*
X189247038Y-103289038D01*
X189136595Y-103423613D01*
X189092024Y-103507000D01*
X187489322Y-103507000D01*
X187452000Y-103503324D01*
X187414677Y-103507000D01*
X187414667Y-103507000D01*
X187303014Y-103517997D01*
X187159753Y-103561454D01*
X187027723Y-103632026D01*
X186944083Y-103700668D01*
X186911999Y-103726999D01*
X186888201Y-103755997D01*
X186257536Y-104386663D01*
X186202962Y-104304987D01*
X186017013Y-104119038D01*
X185798359Y-103972939D01*
X185555405Y-103872304D01*
X185297486Y-103821000D01*
X185034514Y-103821000D01*
X184776595Y-103872304D01*
X184533641Y-103972939D01*
X184314987Y-104119038D01*
X184129038Y-104304987D01*
X183982939Y-104523641D01*
X183882304Y-104766595D01*
X183831000Y-105024514D01*
X182497000Y-105024514D01*
X182497000Y-103946801D01*
X184407003Y-102036799D01*
X184436001Y-102013001D01*
X184462332Y-101980917D01*
X184530974Y-101897277D01*
X184601546Y-101765247D01*
X184644157Y-101624774D01*
X184645003Y-101621986D01*
X184656000Y-101510333D01*
X184656000Y-101510324D01*
X184659676Y-101473001D01*
X184656000Y-101435678D01*
X184656000Y-96759665D01*
X185001000Y-96759665D01*
X185001000Y-97042335D01*
X185056147Y-97319574D01*
X185164320Y-97580727D01*
X185321363Y-97815759D01*
X185521241Y-98015637D01*
X185756273Y-98172680D01*
X186017426Y-98280853D01*
X186294665Y-98336000D01*
X186577335Y-98336000D01*
X186854574Y-98280853D01*
X187115727Y-98172680D01*
X187350759Y-98015637D01*
X187550637Y-97815759D01*
X187654043Y-97661000D01*
X189192678Y-97661000D01*
X189230000Y-97664676D01*
X189267322Y-97661000D01*
X189267333Y-97661000D01*
X189378986Y-97650003D01*
X189522247Y-97606546D01*
X189654276Y-97535974D01*
X189770001Y-97441001D01*
X189793803Y-97411998D01*
X190249003Y-96956798D01*
X190278001Y-96933001D01*
X190372974Y-96817276D01*
X190443546Y-96685247D01*
X190487003Y-96541986D01*
X190498000Y-96430333D01*
X190498000Y-96430324D01*
X190501676Y-96393001D01*
X190498000Y-96355678D01*
X190498000Y-90873313D01*
X190716505Y-90727312D01*
X190930312Y-90513505D01*
X191098299Y-90262095D01*
X191214011Y-89982743D01*
X191273000Y-89686184D01*
X191273000Y-89383816D01*
X191214011Y-89087257D01*
X191098299Y-88807905D01*
X190930312Y-88556495D01*
X190863873Y-88490056D01*
X190882180Y-88484502D01*
X190992494Y-88425537D01*
X191089185Y-88346185D01*
X191168537Y-88249494D01*
X191227502Y-88139180D01*
X191263812Y-88019482D01*
X191276072Y-87895000D01*
X191273000Y-87280750D01*
X191114250Y-87122000D01*
X189865000Y-87122000D01*
X189865000Y-87142000D01*
X189611000Y-87142000D01*
X189611000Y-87122000D01*
X188361750Y-87122000D01*
X188203000Y-87280750D01*
X188199928Y-87895000D01*
X188212188Y-88019482D01*
X188248498Y-88139180D01*
X188307463Y-88249494D01*
X188386815Y-88346185D01*
X188483506Y-88425537D01*
X188593820Y-88484502D01*
X188612127Y-88490056D01*
X188545688Y-88556495D01*
X188377701Y-88807905D01*
X188261989Y-89087257D01*
X188203000Y-89383816D01*
X188203000Y-89686184D01*
X188261989Y-89982743D01*
X188377701Y-90262095D01*
X188545688Y-90513505D01*
X188759495Y-90727312D01*
X188978001Y-90873313D01*
X188978000Y-96078198D01*
X188915199Y-96141000D01*
X187654043Y-96141000D01*
X187550637Y-95986241D01*
X187350759Y-95786363D01*
X187115727Y-95629320D01*
X186854574Y-95521147D01*
X186577335Y-95466000D01*
X186294665Y-95466000D01*
X186017426Y-95521147D01*
X185756273Y-95629320D01*
X185521241Y-95786363D01*
X185321363Y-95986241D01*
X185164320Y-96221273D01*
X185056147Y-96482426D01*
X185001000Y-96759665D01*
X184656000Y-96759665D01*
X184656000Y-93457665D01*
X185001000Y-93457665D01*
X185001000Y-93740335D01*
X185056147Y-94017574D01*
X185164320Y-94278727D01*
X185321363Y-94513759D01*
X185521241Y-94713637D01*
X185756273Y-94870680D01*
X186017426Y-94978853D01*
X186294665Y-95034000D01*
X186577335Y-95034000D01*
X186854574Y-94978853D01*
X187115727Y-94870680D01*
X187350759Y-94713637D01*
X187550637Y-94513759D01*
X187707680Y-94278727D01*
X187815853Y-94017574D01*
X187871000Y-93740335D01*
X187871000Y-93457665D01*
X187815853Y-93180426D01*
X187707680Y-92919273D01*
X187550637Y-92684241D01*
X187350759Y-92484363D01*
X187115727Y-92327320D01*
X186854574Y-92219147D01*
X186577335Y-92164000D01*
X186294665Y-92164000D01*
X186017426Y-92219147D01*
X185756273Y-92327320D01*
X185521241Y-92484363D01*
X185321363Y-92684241D01*
X185164320Y-92919273D01*
X185056147Y-93180426D01*
X185001000Y-93457665D01*
X184656000Y-93457665D01*
X184656000Y-87829287D01*
X184665180Y-87826502D01*
X184775494Y-87767537D01*
X184872185Y-87688185D01*
X184951537Y-87591494D01*
X185010502Y-87481180D01*
X185046812Y-87361482D01*
X185059072Y-87237000D01*
X185059072Y-86398729D01*
X185362801Y-86095000D01*
X188199928Y-86095000D01*
X188203000Y-86709250D01*
X188361750Y-86868000D01*
X189611000Y-86868000D01*
X189611000Y-85618750D01*
X189865000Y-85618750D01*
X189865000Y-86868000D01*
X191114250Y-86868000D01*
X191273000Y-86709250D01*
X191276072Y-86095000D01*
X191263812Y-85970518D01*
X191227502Y-85850820D01*
X191168537Y-85740506D01*
X191089185Y-85643815D01*
X190992494Y-85564463D01*
X190882180Y-85505498D01*
X190762482Y-85469188D01*
X190638000Y-85456928D01*
X190023750Y-85460000D01*
X189865000Y-85618750D01*
X189611000Y-85618750D01*
X189452250Y-85460000D01*
X188838000Y-85456928D01*
X188713518Y-85469188D01*
X188593820Y-85505498D01*
X188483506Y-85564463D01*
X188386815Y-85643815D01*
X188307463Y-85740506D01*
X188248498Y-85850820D01*
X188212188Y-85970518D01*
X188199928Y-86095000D01*
X185362801Y-86095000D01*
X187004802Y-84453000D01*
X188199928Y-84453000D01*
X188199928Y-84593000D01*
X188212188Y-84717482D01*
X188248498Y-84837180D01*
X188307463Y-84947494D01*
X188386815Y-85044185D01*
X188483506Y-85123537D01*
X188593820Y-85182502D01*
X188713518Y-85218812D01*
X188838000Y-85231072D01*
X190638000Y-85231072D01*
X190762482Y-85218812D01*
X190882180Y-85182502D01*
X190992494Y-85123537D01*
X191089185Y-85044185D01*
X191168537Y-84947494D01*
X191227502Y-84837180D01*
X191263812Y-84717482D01*
X191276072Y-84593000D01*
X191276072Y-82793000D01*
X191263812Y-82668518D01*
X191227502Y-82548820D01*
X191168537Y-82438506D01*
X191089185Y-82341815D01*
X190992494Y-82262463D01*
X190882180Y-82203498D01*
X190863873Y-82197944D01*
X190930312Y-82131505D01*
X191098299Y-81880095D01*
X191214011Y-81600743D01*
X191273000Y-81304184D01*
X191273000Y-81001816D01*
X191214011Y-80705257D01*
X191098299Y-80425905D01*
X190930312Y-80174495D01*
X190716505Y-79960688D01*
X190465095Y-79792701D01*
X190185743Y-79676989D01*
X189889184Y-79618000D01*
X189586816Y-79618000D01*
X189290257Y-79676989D01*
X189010905Y-79792701D01*
X188759495Y-79960688D01*
X188545688Y-80174495D01*
X188399687Y-80393000D01*
X184352043Y-80393000D01*
X184248637Y-80238241D01*
X184048759Y-80038363D01*
X183813727Y-79881320D01*
X183552574Y-79773147D01*
X183275335Y-79718000D01*
X182992665Y-79718000D01*
X182715426Y-79773147D01*
X182454273Y-79881320D01*
X182219241Y-80038363D01*
X182019363Y-80238241D01*
X181862320Y-80473273D01*
X181754147Y-80734426D01*
X181699000Y-81011665D01*
X181699000Y-81294335D01*
X181754147Y-81571574D01*
X181862320Y-81832727D01*
X182019363Y-82067759D01*
X182219241Y-82267637D01*
X182264683Y-82298000D01*
X180400802Y-82298000D01*
X179576000Y-81473199D01*
X179576000Y-79920322D01*
X179579676Y-79882999D01*
X179576000Y-79845676D01*
X179576000Y-79845667D01*
X179565003Y-79734014D01*
X179521546Y-79590753D01*
X179450974Y-79458724D01*
X179356001Y-79342999D01*
X179327003Y-79319201D01*
X179001802Y-78994000D01*
X192532000Y-78994000D01*
X192532000Y-126873000D01*
G37*
%TD.AperFunction*%
D37*
X161626273Y-79373320D02*
X161391241Y-79530363D01*
X161191363Y-79730241D01*
X161034320Y-79965273D01*
X160926147Y-80226426D01*
X160871000Y-80503665D01*
X160871000Y-80786335D01*
X160926147Y-81063574D01*
X161034320Y-81324727D01*
X161191363Y-81559759D01*
X161391241Y-81759637D01*
X161626273Y-81916680D01*
X161887426Y-82024853D01*
X162164665Y-82080000D01*
X162447335Y-82080000D01*
X162724574Y-82024853D01*
X162933536Y-81938298D01*
X164366903Y-81938298D01*
X165180000Y-82751395D01*
X165993097Y-81938298D01*
X165921514Y-81694329D01*
X165666004Y-81573429D01*
X165391816Y-81504700D01*
X165109488Y-81490783D01*
X164829870Y-81532213D01*
X164563708Y-81627397D01*
X164438486Y-81694329D01*
X164366903Y-81938298D01*
X162933536Y-81938298D01*
X162985727Y-81916680D01*
X163220759Y-81759637D01*
X163420637Y-81559759D01*
X163524043Y-81405000D01*
X167325199Y-81405000D01*
X168741928Y-82821730D01*
X168741928Y-83731000D01*
X168754188Y-83855482D01*
X168790498Y-83975180D01*
X168849463Y-84085494D01*
X168928815Y-84182185D01*
X169025506Y-84261537D01*
X169135820Y-84320502D01*
X169255518Y-84356812D01*
X169380000Y-84369072D01*
X170980000Y-84369072D01*
X171104482Y-84356812D01*
X171224180Y-84320502D01*
X171334494Y-84261537D01*
X171431185Y-84182185D01*
X171510537Y-84085494D01*
X171569502Y-83975180D01*
X171605812Y-83855482D01*
X171618072Y-83731000D01*
X171618072Y-83691000D01*
X173698678Y-83691000D01*
X173736000Y-83694676D01*
X173773322Y-83691000D01*
X173773333Y-83691000D01*
X173884986Y-83680003D01*
X174028247Y-83636546D01*
X174160276Y-83565974D01*
X174276001Y-83471001D01*
X174299804Y-83441997D01*
X174754001Y-82987801D01*
X174754000Y-87382634D01*
X174562192Y-87440818D01*
X174312899Y-87574068D01*
X174094392Y-87753392D01*
X173915068Y-87971899D01*
X173893099Y-88013000D01*
X173034802Y-88013000D01*
X170997804Y-85976003D01*
X170974001Y-85946999D01*
X170858276Y-85852026D01*
X170726247Y-85781454D01*
X170582986Y-85737997D01*
X170471333Y-85727000D01*
X170471322Y-85727000D01*
X170434000Y-85723324D01*
X170396678Y-85727000D01*
X161835322Y-85727000D01*
X161798000Y-85723324D01*
X161760677Y-85727000D01*
X161760667Y-85727000D01*
X161649014Y-85737997D01*
X161505753Y-85781454D01*
X161373723Y-85852026D01*
X161290083Y-85920668D01*
X161257999Y-85946999D01*
X161234201Y-85975997D01*
X160271002Y-86939196D01*
X160241999Y-86962999D01*
X160192426Y-87023404D01*
X160147026Y-87078724D01*
X160076455Y-87210753D01*
X160076454Y-87210754D01*
X160032997Y-87354015D01*
X160022000Y-87465668D01*
X160022000Y-87465678D01*
X160018324Y-87503000D01*
X160022000Y-87540322D01*
X160022001Y-95212668D01*
X160018324Y-95250000D01*
X160032998Y-95398985D01*
X160076454Y-95542246D01*
X160147026Y-95674276D01*
X160218201Y-95761002D01*
X160242000Y-95790001D01*
X160270998Y-95813799D01*
X161361200Y-96904002D01*
X161384999Y-96933001D01*
X161413997Y-96956799D01*
X161500723Y-97027974D01*
X161606748Y-97084646D01*
X161632753Y-97098546D01*
X161776014Y-97142003D01*
X161887667Y-97153000D01*
X161887676Y-97153000D01*
X161924999Y-97156676D01*
X161962322Y-97153000D01*
X162611957Y-97153000D01*
X162715363Y-97307759D01*
X162915241Y-97507637D01*
X163150273Y-97664680D01*
X163411426Y-97772853D01*
X163688665Y-97828000D01*
X163971335Y-97828000D01*
X164248574Y-97772853D01*
X164509727Y-97664680D01*
X164744759Y-97507637D01*
X164944637Y-97307759D01*
X165101680Y-97072727D01*
X165209853Y-96811574D01*
X165223684Y-96742039D01*
X166102096Y-96742039D01*
X166119633Y-96824818D01*
X166230285Y-97084646D01*
X166389500Y-97317895D01*
X166591161Y-97515601D01*
X166827517Y-97670166D01*
X167089486Y-97775650D01*
X167367000Y-97828000D01*
X167767000Y-97828000D01*
X167767000Y-96520000D01*
X166224085Y-96520000D01*
X166102096Y-96742039D01*
X165223684Y-96742039D01*
X165265000Y-96534335D01*
X165265000Y-96251665D01*
X165209853Y-95974426D01*
X165101680Y-95713273D01*
X164944637Y-95478241D01*
X164744759Y-95278363D01*
X164509727Y-95121320D01*
X164248574Y-95013147D01*
X163971335Y-94958000D01*
X163688665Y-94958000D01*
X163411426Y-95013147D01*
X163150273Y-95121320D01*
X162915241Y-95278363D01*
X162715363Y-95478241D01*
X162611957Y-95633000D01*
X162239802Y-95633000D01*
X161542000Y-94935199D01*
X161542000Y-87817801D01*
X162112802Y-87247000D01*
X170119199Y-87247000D01*
X171715248Y-88843050D01*
X171704026Y-88856724D01*
X171669142Y-88921987D01*
X171633454Y-88988754D01*
X171589997Y-89132015D01*
X171579000Y-89243668D01*
X171579000Y-89243678D01*
X171575324Y-89281000D01*
X171579000Y-89318322D01*
X171579000Y-91383197D01*
X169732072Y-89536270D01*
X169732072Y-87973000D01*
X169719812Y-87848518D01*
X169683502Y-87728820D01*
X169624537Y-87618506D01*
X169545185Y-87521815D01*
X169448494Y-87442463D01*
X169338180Y-87383498D01*
X169218482Y-87347188D01*
X169094000Y-87334928D01*
X166694000Y-87334928D01*
X166569518Y-87347188D01*
X166449820Y-87383498D01*
X166339506Y-87442463D01*
X166242815Y-87521815D01*
X166163463Y-87618506D01*
X166104498Y-87728820D01*
X166068188Y-87848518D01*
X166055928Y-87973000D01*
X166055928Y-88013000D01*
X165048043Y-88013000D01*
X164944637Y-87858241D01*
X164744759Y-87658363D01*
X164509727Y-87501320D01*
X164248574Y-87393147D01*
X163971335Y-87338000D01*
X163688665Y-87338000D01*
X163411426Y-87393147D01*
X163150273Y-87501320D01*
X162915241Y-87658363D01*
X162715363Y-87858241D01*
X162558320Y-88093273D01*
X162450147Y-88354426D01*
X162395000Y-88631665D01*
X162395000Y-88914335D01*
X162450147Y-89191574D01*
X162558320Y-89452727D01*
X162715363Y-89687759D01*
X162915241Y-89887637D01*
X163150273Y-90044680D01*
X163411426Y-90152853D01*
X163688665Y-90208000D01*
X163971335Y-90208000D01*
X164248574Y-90152853D01*
X164509727Y-90044680D01*
X164744759Y-89887637D01*
X164944637Y-89687759D01*
X165048043Y-89533000D01*
X166055928Y-89533000D01*
X166055928Y-89573000D01*
X166068188Y-89697482D01*
X166104498Y-89817180D01*
X166163463Y-89927494D01*
X166242815Y-90024185D01*
X166339506Y-90103537D01*
X166449820Y-90162502D01*
X166569518Y-90198812D01*
X166587482Y-90200581D01*
X166474392Y-90293392D01*
X166295068Y-90511899D01*
X166161818Y-90761192D01*
X166079764Y-91031691D01*
X166052057Y-91313000D01*
X166079764Y-91594309D01*
X166161818Y-91864808D01*
X166295068Y-92114101D01*
X166474392Y-92332608D01*
X166692899Y-92511932D01*
X166825858Y-92583000D01*
X166692899Y-92654068D01*
X166474392Y-92833392D01*
X166295068Y-93051899D01*
X166161818Y-93301192D01*
X166079764Y-93571691D01*
X166052057Y-93853000D01*
X166079764Y-94134309D01*
X166161818Y-94404808D01*
X166295068Y-94654101D01*
X166474392Y-94872608D01*
X166692899Y-95051932D01*
X166820741Y-95120265D01*
X166591161Y-95270399D01*
X166389500Y-95468105D01*
X166230285Y-95701354D01*
X166119633Y-95961182D01*
X166102096Y-96043961D01*
X166224085Y-96266000D01*
X167767000Y-96266000D01*
X167767000Y-96246000D01*
X168021000Y-96246000D01*
X168021000Y-96266000D01*
X168041000Y-96266000D01*
X168041000Y-96520000D01*
X168021000Y-96520000D01*
X168021000Y-97828000D01*
X168291198Y-97828000D01*
X165064998Y-101054201D01*
X165036000Y-101077999D01*
X165012202Y-101106997D01*
X165012201Y-101106998D01*
X164941026Y-101193724D01*
X164870454Y-101325754D01*
X164850435Y-101391750D01*
X164831172Y-101455256D01*
X164826998Y-101469015D01*
X164825281Y-101486450D01*
X164732691Y-101562436D01*
X164706537Y-101513506D01*
X164627185Y-101416815D01*
X164530494Y-101337463D01*
X164420180Y-101278498D01*
X164300482Y-101242188D01*
X164176000Y-101229928D01*
X163861750Y-101233000D01*
X163703000Y-101391750D01*
X163703000Y-102616000D01*
X163723000Y-102616000D01*
X163723000Y-102870000D01*
X163703000Y-102870000D01*
X163703000Y-104094250D01*
X163861750Y-104253000D01*
X164176000Y-104256072D01*
X164300482Y-104243812D01*
X164420180Y-104207502D01*
X164530494Y-104148537D01*
X164627185Y-104069185D01*
X164706537Y-103972494D01*
X164732692Y-103923563D01*
X164886552Y-104049833D01*
X165101100Y-104164511D01*
X165333899Y-104235130D01*
X165576000Y-104258975D01*
X165818102Y-104235130D01*
X166050901Y-104164511D01*
X166265449Y-104049833D01*
X166453502Y-103895502D01*
X166576001Y-103746237D01*
X166698499Y-103895502D01*
X166886552Y-104049833D01*
X167101100Y-104164511D01*
X167333899Y-104235130D01*
X167576000Y-104258975D01*
X167818102Y-104235130D01*
X168050901Y-104164511D01*
X168265449Y-104049833D01*
X168453502Y-103895502D01*
X168607833Y-103707449D01*
X168722511Y-103492900D01*
X168793130Y-103260101D01*
X168811000Y-103078664D01*
X168811000Y-102407335D01*
X168793130Y-102225898D01*
X168722511Y-101993099D01*
X168607833Y-101778551D01*
X168453502Y-101590498D01*
X168265448Y-101436167D01*
X168050900Y-101321489D01*
X167818101Y-101250870D01*
X167576000Y-101227025D01*
X167333898Y-101250870D01*
X167101099Y-101321489D01*
X166886551Y-101436167D01*
X166698498Y-101590498D01*
X166576000Y-101739763D01*
X166554832Y-101713969D01*
X169930014Y-98338788D01*
X169959011Y-98314991D01*
X170053984Y-98199266D01*
X170124556Y-98067237D01*
X170168013Y-97923976D01*
X170179010Y-97812323D01*
X170179010Y-97812313D01*
X170182686Y-97774990D01*
X170179010Y-97737667D01*
X170179010Y-92875333D01*
X170182686Y-92838010D01*
X170179010Y-92800687D01*
X170179010Y-92800677D01*
X170168013Y-92689024D01*
X170124556Y-92545763D01*
X170053984Y-92413734D01*
X169959011Y-92298009D01*
X169930013Y-92274211D01*
X169589408Y-91933607D01*
X169626182Y-91864808D01*
X169692473Y-91646275D01*
X170690001Y-92643804D01*
X170690001Y-100777599D01*
X170667226Y-100663102D01*
X170589205Y-100474744D01*
X170475937Y-100305226D01*
X170331774Y-100161063D01*
X170162256Y-100047795D01*
X169973898Y-99969774D01*
X169773939Y-99930000D01*
X169570061Y-99930000D01*
X169370102Y-99969774D01*
X169181744Y-100047795D01*
X169012226Y-100161063D01*
X168868063Y-100305226D01*
X168754795Y-100474744D01*
X168676774Y-100663102D01*
X168637000Y-100863061D01*
X168637000Y-101066939D01*
X168676774Y-101266898D01*
X168754795Y-101455256D01*
X168868063Y-101624774D01*
X168912001Y-101668712D01*
X168912000Y-104460198D01*
X166366998Y-107005201D01*
X166338000Y-107028999D01*
X166314202Y-107057997D01*
X166314201Y-107057998D01*
X166243026Y-107144724D01*
X166172454Y-107276754D01*
X166161764Y-107311996D01*
X166135457Y-107398723D01*
X166128998Y-107420015D01*
X166114324Y-107569000D01*
X166118001Y-107606332D01*
X166118000Y-108897289D01*
X166074063Y-108941226D01*
X165960795Y-109110744D01*
X165882774Y-109299102D01*
X165843000Y-109499061D01*
X165843000Y-109702939D01*
X165882774Y-109902898D01*
X165960795Y-110091256D01*
X166074063Y-110260774D01*
X166218226Y-110404937D01*
X166387744Y-110518205D01*
X166576102Y-110596226D01*
X166776061Y-110636000D01*
X166979939Y-110636000D01*
X167179898Y-110596226D01*
X167368256Y-110518205D01*
X167537774Y-110404937D01*
X167671711Y-110271000D01*
X168158928Y-110271000D01*
X168162000Y-110585250D01*
X168320750Y-110744000D01*
X169545000Y-110744000D01*
X169545000Y-109794750D01*
X169386250Y-109636000D01*
X168797000Y-109632928D01*
X168672518Y-109645188D01*
X168552820Y-109681498D01*
X168442506Y-109740463D01*
X168345815Y-109819815D01*
X168266463Y-109916506D01*
X168207498Y-110026820D01*
X168171188Y-110146518D01*
X168158928Y-110271000D01*
X167671711Y-110271000D01*
X167681937Y-110260774D01*
X167795205Y-110091256D01*
X167873226Y-109902898D01*
X167913000Y-109702939D01*
X167913000Y-109499061D01*
X167873226Y-109299102D01*
X167795205Y-109110744D01*
X167681937Y-108941226D01*
X167638000Y-108897289D01*
X167638000Y-107883801D01*
X170183004Y-105338798D01*
X170212001Y-105315001D01*
X170306974Y-105199276D01*
X170377546Y-105067247D01*
X170421003Y-104923986D01*
X170432000Y-104812333D01*
X170432000Y-104812325D01*
X170435676Y-104775000D01*
X170432000Y-104737675D01*
X170432000Y-101668711D01*
X170475937Y-101624774D01*
X170589205Y-101455256D01*
X170667226Y-101266898D01*
X170690001Y-101152401D01*
X170690000Y-109650805D01*
X170671482Y-109645188D01*
X170547000Y-109632928D01*
X169957750Y-109636000D01*
X169799000Y-109794750D01*
X169799000Y-110744000D01*
X169819000Y-110744000D01*
X169819000Y-110998000D01*
X169799000Y-110998000D01*
X169799000Y-111018000D01*
X169545000Y-111018000D01*
X169545000Y-110998000D01*
X168320750Y-110998000D01*
X168162000Y-111156750D01*
X168158928Y-111471000D01*
X168171188Y-111595482D01*
X168207498Y-111715180D01*
X168266463Y-111825494D01*
X168345815Y-111922185D01*
X168442506Y-112001537D01*
X168491436Y-112027691D01*
X168365167Y-112181551D01*
X168250489Y-112396099D01*
X168179870Y-112628898D01*
X168156025Y-112871000D01*
X168179870Y-113113102D01*
X168250489Y-113345901D01*
X168365167Y-113560449D01*
X168519498Y-113748502D01*
X168668762Y-113871000D01*
X168519498Y-113993498D01*
X168365167Y-114181551D01*
X168250489Y-114396099D01*
X168179870Y-114628898D01*
X168156025Y-114871000D01*
X168179870Y-115113102D01*
X168250489Y-115345901D01*
X168365167Y-115560449D01*
X168519498Y-115748502D01*
X168668762Y-115871000D01*
X168519498Y-115993498D01*
X168365167Y-116181551D01*
X168250489Y-116396099D01*
X168179870Y-116628898D01*
X168156025Y-116871000D01*
X168179870Y-117113102D01*
X168250489Y-117345901D01*
X168365167Y-117560449D01*
X168519498Y-117748502D01*
X168668762Y-117871000D01*
X168519498Y-117993498D01*
X168365167Y-118181551D01*
X168250489Y-118396099D01*
X168179870Y-118628898D01*
X168156025Y-118871000D01*
X168179870Y-119113102D01*
X168250489Y-119345901D01*
X168365167Y-119560449D01*
X168519498Y-119748502D01*
X168668762Y-119871000D01*
X168519498Y-119993498D01*
X168365167Y-120181551D01*
X168250489Y-120396099D01*
X168179870Y-120628898D01*
X168156025Y-120871000D01*
X168179870Y-121113102D01*
X168220653Y-121247546D01*
X168181199Y-121287000D01*
X164854178Y-121287000D01*
X164729475Y-121100368D01*
X164522632Y-120893525D01*
X164348240Y-120777000D01*
X164522632Y-120660475D01*
X164729475Y-120453632D01*
X164891990Y-120210411D01*
X165003932Y-119940158D01*
X165061000Y-119653260D01*
X165061000Y-119360740D01*
X165003932Y-119073842D01*
X164891990Y-118803589D01*
X164729475Y-118560368D01*
X164597620Y-118428513D01*
X164670180Y-118406502D01*
X164780494Y-118347537D01*
X164877185Y-118268185D01*
X164956537Y-118171494D01*
X165015502Y-118061180D01*
X165051812Y-117941482D01*
X165064072Y-117817000D01*
X165064072Y-116117000D01*
X165051812Y-115992518D01*
X165015502Y-115872820D01*
X164956537Y-115762506D01*
X164877185Y-115665815D01*
X164780494Y-115586463D01*
X164670180Y-115527498D01*
X164550482Y-115491188D01*
X164426000Y-115478928D01*
X162726000Y-115478928D01*
X162601518Y-115491188D01*
X162481820Y-115527498D01*
X162371506Y-115586463D01*
X162274815Y-115665815D01*
X162195463Y-115762506D01*
X162136498Y-115872820D01*
X162100188Y-115992518D01*
X162087928Y-116117000D01*
X162087928Y-116207000D01*
X158607000Y-116207000D01*
X158607000Y-116043967D01*
X158544168Y-115728088D01*
X158420918Y-115430537D01*
X158241987Y-115162748D01*
X158014252Y-114935013D01*
X157746463Y-114756082D01*
X157448912Y-114632832D01*
X157133033Y-114570000D01*
X156810967Y-114570000D01*
X156495088Y-114632832D01*
X156197537Y-114756082D01*
X155929748Y-114935013D01*
X155702013Y-115162748D01*
X155523082Y-115430537D01*
X155399832Y-115728088D01*
X155337000Y-116043967D01*
X155337000Y-116366033D01*
X155399832Y-116681912D01*
X155523082Y-116979463D01*
X155702013Y-117247252D01*
X155929748Y-117474987D01*
X156197537Y-117653918D01*
X156495088Y-117777168D01*
X156810967Y-117840000D01*
X157133033Y-117840000D01*
X157448912Y-117777168D01*
X157594356Y-117716923D01*
X157696667Y-117727000D01*
X157696675Y-117727000D01*
X157734000Y-117730676D01*
X157771325Y-117727000D01*
X162087928Y-117727000D01*
X162087928Y-117817000D01*
X162100188Y-117941482D01*
X162136498Y-118061180D01*
X162195463Y-118171494D01*
X162274815Y-118268185D01*
X162371506Y-118347537D01*
X162481820Y-118406502D01*
X162554380Y-118428513D01*
X162422525Y-118560368D01*
X162260010Y-118803589D01*
X162148068Y-119073842D01*
X162091000Y-119360740D01*
X162091000Y-119653260D01*
X162134790Y-119873407D01*
X160524998Y-121483200D01*
X160495999Y-121506999D01*
X160472201Y-121535997D01*
X158689199Y-123319000D01*
X147380802Y-123319000D01*
X146482215Y-122420413D01*
X156016192Y-122420413D01*
X156111956Y-122684814D01*
X156401571Y-122825704D01*
X156713108Y-122907384D01*
X157034595Y-122926718D01*
X157353675Y-122882961D01*
X157658088Y-122777795D01*
X157832044Y-122684814D01*
X157927808Y-122420413D01*
X156972000Y-121464605D01*
X156016192Y-122420413D01*
X146482215Y-122420413D01*
X145540000Y-121478199D01*
X145540000Y-121347595D01*
X155330282Y-121347595D01*
X155374039Y-121666675D01*
X155479205Y-121971088D01*
X155572186Y-122145044D01*
X155836587Y-122240808D01*
X156792395Y-121285000D01*
X157151605Y-121285000D01*
X158107413Y-122240808D01*
X158371814Y-122145044D01*
X158512704Y-121855429D01*
X158594384Y-121543892D01*
X158613718Y-121222405D01*
X158569961Y-120903325D01*
X158464795Y-120598912D01*
X158371814Y-120424956D01*
X158107413Y-120329192D01*
X157151605Y-121285000D01*
X156792395Y-121285000D01*
X155836587Y-120329192D01*
X155572186Y-120424956D01*
X155431296Y-120714571D01*
X155349616Y-121026108D01*
X155330282Y-121347595D01*
X145540000Y-121347595D01*
X145540000Y-120149587D01*
X156016192Y-120149587D01*
X156972000Y-121105395D01*
X157927808Y-120149587D01*
X157832044Y-119885186D01*
X157542429Y-119744296D01*
X157230892Y-119662616D01*
X156909405Y-119643282D01*
X156590325Y-119687039D01*
X156285912Y-119792205D01*
X156111956Y-119885186D01*
X156016192Y-120149587D01*
X145540000Y-120149587D01*
X145540000Y-117512322D01*
X145543676Y-117474999D01*
X145540000Y-117437676D01*
X145540000Y-117437667D01*
X145529003Y-117326014D01*
X145485546Y-117182753D01*
X145414974Y-117050724D01*
X145356492Y-116979463D01*
X145343799Y-116963996D01*
X145343795Y-116963992D01*
X145320001Y-116934999D01*
X145291008Y-116911205D01*
X144399000Y-116019198D01*
X144399000Y-115810981D01*
X144753697Y-115810981D01*
X144791019Y-115814657D01*
X144828341Y-115810981D01*
X144828352Y-115810981D01*
X144940005Y-115799984D01*
X145083266Y-115756527D01*
X145215295Y-115685955D01*
X145331020Y-115590982D01*
X145354823Y-115561978D01*
X156086004Y-104830798D01*
X156115001Y-104807001D01*
X156209974Y-104691276D01*
X156280546Y-104559247D01*
X156324003Y-104415986D01*
X156335000Y-104304333D01*
X156335000Y-104304324D01*
X156338676Y-104267001D01*
X156335000Y-104229678D01*
X156335000Y-103618000D01*
X162337928Y-103618000D01*
X162350188Y-103742482D01*
X162386498Y-103862180D01*
X162445463Y-103972494D01*
X162524815Y-104069185D01*
X162621506Y-104148537D01*
X162731820Y-104207502D01*
X162851518Y-104243812D01*
X162976000Y-104256072D01*
X163290250Y-104253000D01*
X163449000Y-104094250D01*
X163449000Y-102870000D01*
X162499750Y-102870000D01*
X162341000Y-103028750D01*
X162337928Y-103618000D01*
X156335000Y-103618000D01*
X156335000Y-101868000D01*
X162337928Y-101868000D01*
X162341000Y-102457250D01*
X162499750Y-102616000D01*
X163449000Y-102616000D01*
X163449000Y-101391750D01*
X163290250Y-101233000D01*
X162976000Y-101229928D01*
X162851518Y-101242188D01*
X162731820Y-101278498D01*
X162621506Y-101337463D01*
X162524815Y-101416815D01*
X162445463Y-101513506D01*
X162386498Y-101623820D01*
X162350188Y-101743518D01*
X162337928Y-101868000D01*
X156335000Y-101868000D01*
X156335000Y-88300913D01*
X156338676Y-88263590D01*
X156335000Y-88226267D01*
X156335000Y-88226257D01*
X156324003Y-88114604D01*
X156280546Y-87971343D01*
X156209974Y-87839313D01*
X156138799Y-87752587D01*
X156115001Y-87723589D01*
X156086003Y-87699791D01*
X152309914Y-83923702D01*
X164366903Y-83923702D01*
X164438486Y-84167671D01*
X164693996Y-84288571D01*
X164968184Y-84357300D01*
X165250512Y-84371217D01*
X165530130Y-84329787D01*
X165796292Y-84234603D01*
X165921514Y-84167671D01*
X165993097Y-83923702D01*
X165180000Y-83110605D01*
X164366903Y-83923702D01*
X152309914Y-83923702D01*
X151971215Y-83585004D01*
X151947412Y-83556000D01*
X151831687Y-83461027D01*
X151699658Y-83390455D01*
X151556397Y-83346998D01*
X151444744Y-83336001D01*
X151444733Y-83336001D01*
X151407411Y-83332325D01*
X151370089Y-83336001D01*
X149053803Y-83336001D01*
X148773802Y-83056000D01*
X151854678Y-83056000D01*
X151892000Y-83059676D01*
X151929322Y-83056000D01*
X151929333Y-83056000D01*
X152040986Y-83045003D01*
X152184247Y-83001546D01*
X152184310Y-83001512D01*
X163739783Y-83001512D01*
X163781213Y-83281130D01*
X163876397Y-83547292D01*
X163943329Y-83672514D01*
X164187298Y-83744097D01*
X165000395Y-82931000D01*
X165359605Y-82931000D01*
X166172702Y-83744097D01*
X166416671Y-83672514D01*
X166537571Y-83417004D01*
X166606300Y-83142816D01*
X166620217Y-82860488D01*
X166578787Y-82580870D01*
X166483603Y-82314708D01*
X166416671Y-82189486D01*
X166172702Y-82117903D01*
X165359605Y-82931000D01*
X165000395Y-82931000D01*
X164187298Y-82117903D01*
X163943329Y-82189486D01*
X163822429Y-82444996D01*
X163753700Y-82719184D01*
X163739783Y-83001512D01*
X152184310Y-83001512D01*
X152316276Y-82930974D01*
X152432001Y-82836001D01*
X152455804Y-82806997D01*
X153637203Y-81625599D01*
X153771241Y-81759637D01*
X154006273Y-81916680D01*
X154267426Y-82024853D01*
X154544665Y-82080000D01*
X154827335Y-82080000D01*
X155104574Y-82024853D01*
X155365727Y-81916680D01*
X155600759Y-81759637D01*
X155800637Y-81559759D01*
X155957680Y-81324727D01*
X156065853Y-81063574D01*
X156121000Y-80786335D01*
X156121000Y-80503665D01*
X156065853Y-80226426D01*
X155957680Y-79965273D01*
X155800637Y-79730241D01*
X155600759Y-79530363D01*
X155365727Y-79373320D01*
X155364954Y-79373000D01*
X161627046Y-79373000D01*
X161626273Y-79373320D01*
%TA.AperFunction,Conductor*%
D38*
G36*
X161626273Y-79373320D02*
G01*
X161391241Y-79530363D01*
X161191363Y-79730241D01*
X161034320Y-79965273D01*
X160926147Y-80226426D01*
X160871000Y-80503665D01*
X160871000Y-80786335D01*
X160926147Y-81063574D01*
X161034320Y-81324727D01*
X161191363Y-81559759D01*
X161391241Y-81759637D01*
X161626273Y-81916680D01*
X161887426Y-82024853D01*
X162164665Y-82080000D01*
X162447335Y-82080000D01*
X162724574Y-82024853D01*
X162933536Y-81938298D01*
X164366903Y-81938298D01*
X165180000Y-82751395D01*
X165993097Y-81938298D01*
X165921514Y-81694329D01*
X165666004Y-81573429D01*
X165391816Y-81504700D01*
X165109488Y-81490783D01*
X164829870Y-81532213D01*
X164563708Y-81627397D01*
X164438486Y-81694329D01*
X164366903Y-81938298D01*
X162933536Y-81938298D01*
X162985727Y-81916680D01*
X163220759Y-81759637D01*
X163420637Y-81559759D01*
X163524043Y-81405000D01*
X167325199Y-81405000D01*
X168741928Y-82821730D01*
X168741928Y-83731000D01*
X168754188Y-83855482D01*
X168790498Y-83975180D01*
X168849463Y-84085494D01*
X168928815Y-84182185D01*
X169025506Y-84261537D01*
X169135820Y-84320502D01*
X169255518Y-84356812D01*
X169380000Y-84369072D01*
X170980000Y-84369072D01*
X171104482Y-84356812D01*
X171224180Y-84320502D01*
X171334494Y-84261537D01*
X171431185Y-84182185D01*
X171510537Y-84085494D01*
X171569502Y-83975180D01*
X171605812Y-83855482D01*
X171618072Y-83731000D01*
X171618072Y-83691000D01*
X173698678Y-83691000D01*
X173736000Y-83694676D01*
X173773322Y-83691000D01*
X173773333Y-83691000D01*
X173884986Y-83680003D01*
X174028247Y-83636546D01*
X174160276Y-83565974D01*
X174276001Y-83471001D01*
X174299804Y-83441997D01*
X174754001Y-82987801D01*
X174754000Y-87382634D01*
X174562192Y-87440818D01*
X174312899Y-87574068D01*
X174094392Y-87753392D01*
X173915068Y-87971899D01*
X173893099Y-88013000D01*
X173034802Y-88013000D01*
X170997804Y-85976003D01*
X170974001Y-85946999D01*
X170858276Y-85852026D01*
X170726247Y-85781454D01*
X170582986Y-85737997D01*
X170471333Y-85727000D01*
X170471322Y-85727000D01*
X170434000Y-85723324D01*
X170396678Y-85727000D01*
X161835322Y-85727000D01*
X161798000Y-85723324D01*
X161760677Y-85727000D01*
X161760667Y-85727000D01*
X161649014Y-85737997D01*
X161505753Y-85781454D01*
X161373723Y-85852026D01*
X161290083Y-85920668D01*
X161257999Y-85946999D01*
X161234201Y-85975997D01*
X160271002Y-86939196D01*
X160241999Y-86962999D01*
X160192426Y-87023404D01*
X160147026Y-87078724D01*
X160076455Y-87210753D01*
X160076454Y-87210754D01*
X160032997Y-87354015D01*
X160022000Y-87465668D01*
X160022000Y-87465678D01*
X160018324Y-87503000D01*
X160022000Y-87540322D01*
X160022001Y-95212668D01*
X160018324Y-95250000D01*
X160032998Y-95398985D01*
X160076454Y-95542246D01*
X160147026Y-95674276D01*
X160218201Y-95761002D01*
X160242000Y-95790001D01*
X160270998Y-95813799D01*
X161361200Y-96904002D01*
X161384999Y-96933001D01*
X161413997Y-96956799D01*
X161500723Y-97027974D01*
X161606748Y-97084646D01*
X161632753Y-97098546D01*
X161776014Y-97142003D01*
X161887667Y-97153000D01*
X161887676Y-97153000D01*
X161924999Y-97156676D01*
X161962322Y-97153000D01*
X162611957Y-97153000D01*
X162715363Y-97307759D01*
X162915241Y-97507637D01*
X163150273Y-97664680D01*
X163411426Y-97772853D01*
X163688665Y-97828000D01*
X163971335Y-97828000D01*
X164248574Y-97772853D01*
X164509727Y-97664680D01*
X164744759Y-97507637D01*
X164944637Y-97307759D01*
X165101680Y-97072727D01*
X165209853Y-96811574D01*
X165223684Y-96742039D01*
X166102096Y-96742039D01*
X166119633Y-96824818D01*
X166230285Y-97084646D01*
X166389500Y-97317895D01*
X166591161Y-97515601D01*
X166827517Y-97670166D01*
X167089486Y-97775650D01*
X167367000Y-97828000D01*
X167767000Y-97828000D01*
X167767000Y-96520000D01*
X166224085Y-96520000D01*
X166102096Y-96742039D01*
X165223684Y-96742039D01*
X165265000Y-96534335D01*
X165265000Y-96251665D01*
X165209853Y-95974426D01*
X165101680Y-95713273D01*
X164944637Y-95478241D01*
X164744759Y-95278363D01*
X164509727Y-95121320D01*
X164248574Y-95013147D01*
X163971335Y-94958000D01*
X163688665Y-94958000D01*
X163411426Y-95013147D01*
X163150273Y-95121320D01*
X162915241Y-95278363D01*
X162715363Y-95478241D01*
X162611957Y-95633000D01*
X162239802Y-95633000D01*
X161542000Y-94935199D01*
X161542000Y-87817801D01*
X162112802Y-87247000D01*
X170119199Y-87247000D01*
X171715248Y-88843050D01*
X171704026Y-88856724D01*
X171669142Y-88921987D01*
X171633454Y-88988754D01*
X171589997Y-89132015D01*
X171579000Y-89243668D01*
X171579000Y-89243678D01*
X171575324Y-89281000D01*
X171579000Y-89318322D01*
X171579000Y-91383197D01*
X169732072Y-89536270D01*
X169732072Y-87973000D01*
X169719812Y-87848518D01*
X169683502Y-87728820D01*
X169624537Y-87618506D01*
X169545185Y-87521815D01*
X169448494Y-87442463D01*
X169338180Y-87383498D01*
X169218482Y-87347188D01*
X169094000Y-87334928D01*
X166694000Y-87334928D01*
X166569518Y-87347188D01*
X166449820Y-87383498D01*
X166339506Y-87442463D01*
X166242815Y-87521815D01*
X166163463Y-87618506D01*
X166104498Y-87728820D01*
X166068188Y-87848518D01*
X166055928Y-87973000D01*
X166055928Y-88013000D01*
X165048043Y-88013000D01*
X164944637Y-87858241D01*
X164744759Y-87658363D01*
X164509727Y-87501320D01*
X164248574Y-87393147D01*
X163971335Y-87338000D01*
X163688665Y-87338000D01*
X163411426Y-87393147D01*
X163150273Y-87501320D01*
X162915241Y-87658363D01*
X162715363Y-87858241D01*
X162558320Y-88093273D01*
X162450147Y-88354426D01*
X162395000Y-88631665D01*
X162395000Y-88914335D01*
X162450147Y-89191574D01*
X162558320Y-89452727D01*
X162715363Y-89687759D01*
X162915241Y-89887637D01*
X163150273Y-90044680D01*
X163411426Y-90152853D01*
X163688665Y-90208000D01*
X163971335Y-90208000D01*
X164248574Y-90152853D01*
X164509727Y-90044680D01*
X164744759Y-89887637D01*
X164944637Y-89687759D01*
X165048043Y-89533000D01*
X166055928Y-89533000D01*
X166055928Y-89573000D01*
X166068188Y-89697482D01*
X166104498Y-89817180D01*
X166163463Y-89927494D01*
X166242815Y-90024185D01*
X166339506Y-90103537D01*
X166449820Y-90162502D01*
X166569518Y-90198812D01*
X166587482Y-90200581D01*
X166474392Y-90293392D01*
X166295068Y-90511899D01*
X166161818Y-90761192D01*
X166079764Y-91031691D01*
X166052057Y-91313000D01*
X166079764Y-91594309D01*
X166161818Y-91864808D01*
X166295068Y-92114101D01*
X166474392Y-92332608D01*
X166692899Y-92511932D01*
X166825858Y-92583000D01*
X166692899Y-92654068D01*
X166474392Y-92833392D01*
X166295068Y-93051899D01*
X166161818Y-93301192D01*
X166079764Y-93571691D01*
X166052057Y-93853000D01*
X166079764Y-94134309D01*
X166161818Y-94404808D01*
X166295068Y-94654101D01*
X166474392Y-94872608D01*
X166692899Y-95051932D01*
X166820741Y-95120265D01*
X166591161Y-95270399D01*
X166389500Y-95468105D01*
X166230285Y-95701354D01*
X166119633Y-95961182D01*
X166102096Y-96043961D01*
X166224085Y-96266000D01*
X167767000Y-96266000D01*
X167767000Y-96246000D01*
X168021000Y-96246000D01*
X168021000Y-96266000D01*
X168041000Y-96266000D01*
X168041000Y-96520000D01*
X168021000Y-96520000D01*
X168021000Y-97828000D01*
X168291198Y-97828000D01*
X165064998Y-101054201D01*
X165036000Y-101077999D01*
X165012202Y-101106997D01*
X165012201Y-101106998D01*
X164941026Y-101193724D01*
X164870454Y-101325754D01*
X164850435Y-101391750D01*
X164831172Y-101455256D01*
X164826998Y-101469015D01*
X164825281Y-101486450D01*
X164732691Y-101562436D01*
X164706537Y-101513506D01*
X164627185Y-101416815D01*
X164530494Y-101337463D01*
X164420180Y-101278498D01*
X164300482Y-101242188D01*
X164176000Y-101229928D01*
X163861750Y-101233000D01*
X163703000Y-101391750D01*
X163703000Y-102616000D01*
X163723000Y-102616000D01*
X163723000Y-102870000D01*
X163703000Y-102870000D01*
X163703000Y-104094250D01*
X163861750Y-104253000D01*
X164176000Y-104256072D01*
X164300482Y-104243812D01*
X164420180Y-104207502D01*
X164530494Y-104148537D01*
X164627185Y-104069185D01*
X164706537Y-103972494D01*
X164732692Y-103923563D01*
X164886552Y-104049833D01*
X165101100Y-104164511D01*
X165333899Y-104235130D01*
X165576000Y-104258975D01*
X165818102Y-104235130D01*
X166050901Y-104164511D01*
X166265449Y-104049833D01*
X166453502Y-103895502D01*
X166576001Y-103746237D01*
X166698499Y-103895502D01*
X166886552Y-104049833D01*
X167101100Y-104164511D01*
X167333899Y-104235130D01*
X167576000Y-104258975D01*
X167818102Y-104235130D01*
X168050901Y-104164511D01*
X168265449Y-104049833D01*
X168453502Y-103895502D01*
X168607833Y-103707449D01*
X168722511Y-103492900D01*
X168793130Y-103260101D01*
X168811000Y-103078664D01*
X168811000Y-102407335D01*
X168793130Y-102225898D01*
X168722511Y-101993099D01*
X168607833Y-101778551D01*
X168453502Y-101590498D01*
X168265448Y-101436167D01*
X168050900Y-101321489D01*
X167818101Y-101250870D01*
X167576000Y-101227025D01*
X167333898Y-101250870D01*
X167101099Y-101321489D01*
X166886551Y-101436167D01*
X166698498Y-101590498D01*
X166576000Y-101739763D01*
X166554832Y-101713969D01*
X169930014Y-98338788D01*
X169959011Y-98314991D01*
X170053984Y-98199266D01*
X170124556Y-98067237D01*
X170168013Y-97923976D01*
X170179010Y-97812323D01*
X170179010Y-97812313D01*
X170182686Y-97774990D01*
X170179010Y-97737667D01*
X170179010Y-92875333D01*
X170182686Y-92838010D01*
X170179010Y-92800687D01*
X170179010Y-92800677D01*
X170168013Y-92689024D01*
X170124556Y-92545763D01*
X170053984Y-92413734D01*
X169959011Y-92298009D01*
X169930013Y-92274211D01*
X169589408Y-91933607D01*
X169626182Y-91864808D01*
X169692473Y-91646275D01*
X170690001Y-92643804D01*
X170690001Y-100777599D01*
X170667226Y-100663102D01*
X170589205Y-100474744D01*
X170475937Y-100305226D01*
X170331774Y-100161063D01*
X170162256Y-100047795D01*
X169973898Y-99969774D01*
X169773939Y-99930000D01*
X169570061Y-99930000D01*
X169370102Y-99969774D01*
X169181744Y-100047795D01*
X169012226Y-100161063D01*
X168868063Y-100305226D01*
X168754795Y-100474744D01*
X168676774Y-100663102D01*
X168637000Y-100863061D01*
X168637000Y-101066939D01*
X168676774Y-101266898D01*
X168754795Y-101455256D01*
X168868063Y-101624774D01*
X168912001Y-101668712D01*
X168912000Y-104460198D01*
X166366998Y-107005201D01*
X166338000Y-107028999D01*
X166314202Y-107057997D01*
X166314201Y-107057998D01*
X166243026Y-107144724D01*
X166172454Y-107276754D01*
X166161764Y-107311996D01*
X166135457Y-107398723D01*
X166128998Y-107420015D01*
X166114324Y-107569000D01*
X166118001Y-107606332D01*
X166118000Y-108897289D01*
X166074063Y-108941226D01*
X165960795Y-109110744D01*
X165882774Y-109299102D01*
X165843000Y-109499061D01*
X165843000Y-109702939D01*
X165882774Y-109902898D01*
X165960795Y-110091256D01*
X166074063Y-110260774D01*
X166218226Y-110404937D01*
X166387744Y-110518205D01*
X166576102Y-110596226D01*
X166776061Y-110636000D01*
X166979939Y-110636000D01*
X167179898Y-110596226D01*
X167368256Y-110518205D01*
X167537774Y-110404937D01*
X167671711Y-110271000D01*
X168158928Y-110271000D01*
X168162000Y-110585250D01*
X168320750Y-110744000D01*
X169545000Y-110744000D01*
X169545000Y-109794750D01*
X169386250Y-109636000D01*
X168797000Y-109632928D01*
X168672518Y-109645188D01*
X168552820Y-109681498D01*
X168442506Y-109740463D01*
X168345815Y-109819815D01*
X168266463Y-109916506D01*
X168207498Y-110026820D01*
X168171188Y-110146518D01*
X168158928Y-110271000D01*
X167671711Y-110271000D01*
X167681937Y-110260774D01*
X167795205Y-110091256D01*
X167873226Y-109902898D01*
X167913000Y-109702939D01*
X167913000Y-109499061D01*
X167873226Y-109299102D01*
X167795205Y-109110744D01*
X167681937Y-108941226D01*
X167638000Y-108897289D01*
X167638000Y-107883801D01*
X170183004Y-105338798D01*
X170212001Y-105315001D01*
X170306974Y-105199276D01*
X170377546Y-105067247D01*
X170421003Y-104923986D01*
X170432000Y-104812333D01*
X170432000Y-104812325D01*
X170435676Y-104775000D01*
X170432000Y-104737675D01*
X170432000Y-101668711D01*
X170475937Y-101624774D01*
X170589205Y-101455256D01*
X170667226Y-101266898D01*
X170690001Y-101152401D01*
X170690000Y-109650805D01*
X170671482Y-109645188D01*
X170547000Y-109632928D01*
X169957750Y-109636000D01*
X169799000Y-109794750D01*
X169799000Y-110744000D01*
X169819000Y-110744000D01*
X169819000Y-110998000D01*
X169799000Y-110998000D01*
X169799000Y-111018000D01*
X169545000Y-111018000D01*
X169545000Y-110998000D01*
X168320750Y-110998000D01*
X168162000Y-111156750D01*
X168158928Y-111471000D01*
X168171188Y-111595482D01*
X168207498Y-111715180D01*
X168266463Y-111825494D01*
X168345815Y-111922185D01*
X168442506Y-112001537D01*
X168491436Y-112027691D01*
X168365167Y-112181551D01*
X168250489Y-112396099D01*
X168179870Y-112628898D01*
X168156025Y-112871000D01*
X168179870Y-113113102D01*
X168250489Y-113345901D01*
X168365167Y-113560449D01*
X168519498Y-113748502D01*
X168668762Y-113871000D01*
X168519498Y-113993498D01*
X168365167Y-114181551D01*
X168250489Y-114396099D01*
X168179870Y-114628898D01*
X168156025Y-114871000D01*
X168179870Y-115113102D01*
X168250489Y-115345901D01*
X168365167Y-115560449D01*
X168519498Y-115748502D01*
X168668762Y-115871000D01*
X168519498Y-115993498D01*
X168365167Y-116181551D01*
X168250489Y-116396099D01*
X168179870Y-116628898D01*
X168156025Y-116871000D01*
X168179870Y-117113102D01*
X168250489Y-117345901D01*
X168365167Y-117560449D01*
X168519498Y-117748502D01*
X168668762Y-117871000D01*
X168519498Y-117993498D01*
X168365167Y-118181551D01*
X168250489Y-118396099D01*
X168179870Y-118628898D01*
X168156025Y-118871000D01*
X168179870Y-119113102D01*
X168250489Y-119345901D01*
X168365167Y-119560449D01*
X168519498Y-119748502D01*
X168668762Y-119871000D01*
X168519498Y-119993498D01*
X168365167Y-120181551D01*
X168250489Y-120396099D01*
X168179870Y-120628898D01*
X168156025Y-120871000D01*
X168179870Y-121113102D01*
X168220653Y-121247546D01*
X168181199Y-121287000D01*
X164854178Y-121287000D01*
X164729475Y-121100368D01*
X164522632Y-120893525D01*
X164348240Y-120777000D01*
X164522632Y-120660475D01*
X164729475Y-120453632D01*
X164891990Y-120210411D01*
X165003932Y-119940158D01*
X165061000Y-119653260D01*
X165061000Y-119360740D01*
X165003932Y-119073842D01*
X164891990Y-118803589D01*
X164729475Y-118560368D01*
X164597620Y-118428513D01*
X164670180Y-118406502D01*
X164780494Y-118347537D01*
X164877185Y-118268185D01*
X164956537Y-118171494D01*
X165015502Y-118061180D01*
X165051812Y-117941482D01*
X165064072Y-117817000D01*
X165064072Y-116117000D01*
X165051812Y-115992518D01*
X165015502Y-115872820D01*
X164956537Y-115762506D01*
X164877185Y-115665815D01*
X164780494Y-115586463D01*
X164670180Y-115527498D01*
X164550482Y-115491188D01*
X164426000Y-115478928D01*
X162726000Y-115478928D01*
X162601518Y-115491188D01*
X162481820Y-115527498D01*
X162371506Y-115586463D01*
X162274815Y-115665815D01*
X162195463Y-115762506D01*
X162136498Y-115872820D01*
X162100188Y-115992518D01*
X162087928Y-116117000D01*
X162087928Y-116207000D01*
X158607000Y-116207000D01*
X158607000Y-116043967D01*
X158544168Y-115728088D01*
X158420918Y-115430537D01*
X158241987Y-115162748D01*
X158014252Y-114935013D01*
X157746463Y-114756082D01*
X157448912Y-114632832D01*
X157133033Y-114570000D01*
X156810967Y-114570000D01*
X156495088Y-114632832D01*
X156197537Y-114756082D01*
X155929748Y-114935013D01*
X155702013Y-115162748D01*
X155523082Y-115430537D01*
X155399832Y-115728088D01*
X155337000Y-116043967D01*
X155337000Y-116366033D01*
X155399832Y-116681912D01*
X155523082Y-116979463D01*
X155702013Y-117247252D01*
X155929748Y-117474987D01*
X156197537Y-117653918D01*
X156495088Y-117777168D01*
X156810967Y-117840000D01*
X157133033Y-117840000D01*
X157448912Y-117777168D01*
X157594356Y-117716923D01*
X157696667Y-117727000D01*
X157696675Y-117727000D01*
X157734000Y-117730676D01*
X157771325Y-117727000D01*
X162087928Y-117727000D01*
X162087928Y-117817000D01*
X162100188Y-117941482D01*
X162136498Y-118061180D01*
X162195463Y-118171494D01*
X162274815Y-118268185D01*
X162371506Y-118347537D01*
X162481820Y-118406502D01*
X162554380Y-118428513D01*
X162422525Y-118560368D01*
X162260010Y-118803589D01*
X162148068Y-119073842D01*
X162091000Y-119360740D01*
X162091000Y-119653260D01*
X162134790Y-119873407D01*
X160524998Y-121483200D01*
X160495999Y-121506999D01*
X160472201Y-121535997D01*
X158689199Y-123319000D01*
X147380802Y-123319000D01*
X146482215Y-122420413D01*
X156016192Y-122420413D01*
X156111956Y-122684814D01*
X156401571Y-122825704D01*
X156713108Y-122907384D01*
X157034595Y-122926718D01*
X157353675Y-122882961D01*
X157658088Y-122777795D01*
X157832044Y-122684814D01*
X157927808Y-122420413D01*
X156972000Y-121464605D01*
X156016192Y-122420413D01*
X146482215Y-122420413D01*
X145540000Y-121478199D01*
X145540000Y-121347595D01*
X155330282Y-121347595D01*
X155374039Y-121666675D01*
X155479205Y-121971088D01*
X155572186Y-122145044D01*
X155836587Y-122240808D01*
X156792395Y-121285000D01*
X157151605Y-121285000D01*
X158107413Y-122240808D01*
X158371814Y-122145044D01*
X158512704Y-121855429D01*
X158594384Y-121543892D01*
X158613718Y-121222405D01*
X158569961Y-120903325D01*
X158464795Y-120598912D01*
X158371814Y-120424956D01*
X158107413Y-120329192D01*
X157151605Y-121285000D01*
X156792395Y-121285000D01*
X155836587Y-120329192D01*
X155572186Y-120424956D01*
X155431296Y-120714571D01*
X155349616Y-121026108D01*
X155330282Y-121347595D01*
X145540000Y-121347595D01*
X145540000Y-120149587D01*
X156016192Y-120149587D01*
X156972000Y-121105395D01*
X157927808Y-120149587D01*
X157832044Y-119885186D01*
X157542429Y-119744296D01*
X157230892Y-119662616D01*
X156909405Y-119643282D01*
X156590325Y-119687039D01*
X156285912Y-119792205D01*
X156111956Y-119885186D01*
X156016192Y-120149587D01*
X145540000Y-120149587D01*
X145540000Y-117512322D01*
X145543676Y-117474999D01*
X145540000Y-117437676D01*
X145540000Y-117437667D01*
X145529003Y-117326014D01*
X145485546Y-117182753D01*
X145414974Y-117050724D01*
X145356492Y-116979463D01*
X145343799Y-116963996D01*
X145343795Y-116963992D01*
X145320001Y-116934999D01*
X145291008Y-116911205D01*
X144399000Y-116019198D01*
X144399000Y-115810981D01*
X144753697Y-115810981D01*
X144791019Y-115814657D01*
X144828341Y-115810981D01*
X144828352Y-115810981D01*
X144940005Y-115799984D01*
X145083266Y-115756527D01*
X145215295Y-115685955D01*
X145331020Y-115590982D01*
X145354823Y-115561978D01*
X156086004Y-104830798D01*
X156115001Y-104807001D01*
X156209974Y-104691276D01*
X156280546Y-104559247D01*
X156324003Y-104415986D01*
X156335000Y-104304333D01*
X156335000Y-104304324D01*
X156338676Y-104267001D01*
X156335000Y-104229678D01*
X156335000Y-103618000D01*
X162337928Y-103618000D01*
X162350188Y-103742482D01*
X162386498Y-103862180D01*
X162445463Y-103972494D01*
X162524815Y-104069185D01*
X162621506Y-104148537D01*
X162731820Y-104207502D01*
X162851518Y-104243812D01*
X162976000Y-104256072D01*
X163290250Y-104253000D01*
X163449000Y-104094250D01*
X163449000Y-102870000D01*
X162499750Y-102870000D01*
X162341000Y-103028750D01*
X162337928Y-103618000D01*
X156335000Y-103618000D01*
X156335000Y-101868000D01*
X162337928Y-101868000D01*
X162341000Y-102457250D01*
X162499750Y-102616000D01*
X163449000Y-102616000D01*
X163449000Y-101391750D01*
X163290250Y-101233000D01*
X162976000Y-101229928D01*
X162851518Y-101242188D01*
X162731820Y-101278498D01*
X162621506Y-101337463D01*
X162524815Y-101416815D01*
X162445463Y-101513506D01*
X162386498Y-101623820D01*
X162350188Y-101743518D01*
X162337928Y-101868000D01*
X156335000Y-101868000D01*
X156335000Y-88300913D01*
X156338676Y-88263590D01*
X156335000Y-88226267D01*
X156335000Y-88226257D01*
X156324003Y-88114604D01*
X156280546Y-87971343D01*
X156209974Y-87839313D01*
X156138799Y-87752587D01*
X156115001Y-87723589D01*
X156086003Y-87699791D01*
X152309914Y-83923702D01*
X164366903Y-83923702D01*
X164438486Y-84167671D01*
X164693996Y-84288571D01*
X164968184Y-84357300D01*
X165250512Y-84371217D01*
X165530130Y-84329787D01*
X165796292Y-84234603D01*
X165921514Y-84167671D01*
X165993097Y-83923702D01*
X165180000Y-83110605D01*
X164366903Y-83923702D01*
X152309914Y-83923702D01*
X151971215Y-83585004D01*
X151947412Y-83556000D01*
X151831687Y-83461027D01*
X151699658Y-83390455D01*
X151556397Y-83346998D01*
X151444744Y-83336001D01*
X151444733Y-83336001D01*
X151407411Y-83332325D01*
X151370089Y-83336001D01*
X149053803Y-83336001D01*
X148773802Y-83056000D01*
X151854678Y-83056000D01*
X151892000Y-83059676D01*
X151929322Y-83056000D01*
X151929333Y-83056000D01*
X152040986Y-83045003D01*
X152184247Y-83001546D01*
X152184310Y-83001512D01*
X163739783Y-83001512D01*
X163781213Y-83281130D01*
X163876397Y-83547292D01*
X163943329Y-83672514D01*
X164187298Y-83744097D01*
X165000395Y-82931000D01*
X165359605Y-82931000D01*
X166172702Y-83744097D01*
X166416671Y-83672514D01*
X166537571Y-83417004D01*
X166606300Y-83142816D01*
X166620217Y-82860488D01*
X166578787Y-82580870D01*
X166483603Y-82314708D01*
X166416671Y-82189486D01*
X166172702Y-82117903D01*
X165359605Y-82931000D01*
X165000395Y-82931000D01*
X164187298Y-82117903D01*
X163943329Y-82189486D01*
X163822429Y-82444996D01*
X163753700Y-82719184D01*
X163739783Y-83001512D01*
X152184310Y-83001512D01*
X152316276Y-82930974D01*
X152432001Y-82836001D01*
X152455804Y-82806997D01*
X153637203Y-81625599D01*
X153771241Y-81759637D01*
X154006273Y-81916680D01*
X154267426Y-82024853D01*
X154544665Y-82080000D01*
X154827335Y-82080000D01*
X155104574Y-82024853D01*
X155365727Y-81916680D01*
X155600759Y-81759637D01*
X155800637Y-81559759D01*
X155957680Y-81324727D01*
X156065853Y-81063574D01*
X156121000Y-80786335D01*
X156121000Y-80503665D01*
X156065853Y-80226426D01*
X155957680Y-79965273D01*
X155800637Y-79730241D01*
X155600759Y-79530363D01*
X155365727Y-79373320D01*
X155364954Y-79373000D01*
X161627046Y-79373000D01*
X161626273Y-79373320D01*
G37*
%TD.AperFunction*%
D37*
X149046903Y-79478298D02*
X149860000Y-80291395D01*
X150673097Y-79478298D01*
X150642201Y-79373000D01*
X153359378Y-79373000D01*
X153289026Y-79458724D01*
X153258947Y-79514998D01*
X153218454Y-79590754D01*
X153174997Y-79734015D01*
X153164000Y-79845668D01*
X153164000Y-79845678D01*
X153160324Y-79883000D01*
X153164000Y-79920322D01*
X153164000Y-79949198D01*
X151577199Y-81536000D01*
X150651884Y-81536000D01*
X150673097Y-81463702D01*
X149860000Y-80650605D01*
X149845858Y-80664748D01*
X149666253Y-80485143D01*
X149680395Y-80471000D01*
X150039605Y-80471000D01*
X150852702Y-81284097D01*
X151096671Y-81212514D01*
X151217571Y-80957004D01*
X151286300Y-80682816D01*
X151300217Y-80400488D01*
X151258787Y-80120870D01*
X151163603Y-79854708D01*
X151096671Y-79729486D01*
X150852702Y-79657903D01*
X150039605Y-80471000D01*
X149680395Y-80471000D01*
X148867298Y-79657903D01*
X148623329Y-79729486D01*
X148502429Y-79984996D01*
X148433700Y-80259184D01*
X148419783Y-80541512D01*
X148461213Y-80821130D01*
X148541535Y-81045733D01*
X146868801Y-79373000D01*
X149077799Y-79373000D01*
X149046903Y-79478298D01*
%TA.AperFunction,Conductor*%
D38*
G36*
X149046903Y-79478298D02*
G01*
X149860000Y-80291395D01*
X150673097Y-79478298D01*
X150642201Y-79373000D01*
X153359378Y-79373000D01*
X153289026Y-79458724D01*
X153258947Y-79514998D01*
X153218454Y-79590754D01*
X153174997Y-79734015D01*
X153164000Y-79845668D01*
X153164000Y-79845678D01*
X153160324Y-79883000D01*
X153164000Y-79920322D01*
X153164000Y-79949198D01*
X151577199Y-81536000D01*
X150651884Y-81536000D01*
X150673097Y-81463702D01*
X149860000Y-80650605D01*
X149845858Y-80664748D01*
X149666253Y-80485143D01*
X149680395Y-80471000D01*
X150039605Y-80471000D01*
X150852702Y-81284097D01*
X151096671Y-81212514D01*
X151217571Y-80957004D01*
X151286300Y-80682816D01*
X151300217Y-80400488D01*
X151258787Y-80120870D01*
X151163603Y-79854708D01*
X151096671Y-79729486D01*
X150852702Y-79657903D01*
X150039605Y-80471000D01*
X149680395Y-80471000D01*
X148867298Y-79657903D01*
X148623329Y-79729486D01*
X148502429Y-79984996D01*
X148433700Y-80259184D01*
X148419783Y-80541512D01*
X148461213Y-80821130D01*
X148541535Y-81045733D01*
X146868801Y-79373000D01*
X149077799Y-79373000D01*
X149046903Y-79478298D01*
G37*
%TD.AperFunction*%
%TD*%
D37*
%TO.N,HOT*%
X109871000Y-87217250D02*
X110029750Y-87376000D01*
X111379000Y-87376000D01*
X111379000Y-87356000D01*
X111633000Y-87356000D01*
X111633000Y-87376000D01*
X112982250Y-87376000D01*
X113141000Y-87217250D01*
X113143194Y-86741000D01*
X114681000Y-86741000D01*
X114681000Y-98425000D01*
X109855000Y-98425000D01*
X109855000Y-97764584D01*
X110314021Y-97764584D01*
X110406766Y-98026429D01*
X110692120Y-98164820D01*
X110998990Y-98244883D01*
X111315584Y-98263540D01*
X111629733Y-98220074D01*
X111929367Y-98116156D01*
X112097234Y-98026429D01*
X112189979Y-97764584D01*
X111252000Y-96826605D01*
X110314021Y-97764584D01*
X109855000Y-97764584D01*
X109855000Y-97459361D01*
X109872571Y-97492234D01*
X110134416Y-97584979D01*
X111072395Y-96647000D01*
X111431605Y-96647000D01*
X112369584Y-97584979D01*
X112631429Y-97492234D01*
X112769820Y-97206880D01*
X112849883Y-96900010D01*
X112868540Y-96583416D01*
X112825074Y-96269267D01*
X112721156Y-95969633D01*
X112631429Y-95801766D01*
X112369584Y-95709021D01*
X111431605Y-96647000D01*
X111072395Y-96647000D01*
X110134416Y-95709021D01*
X109872571Y-95801766D01*
X109855000Y-95837996D01*
X109855000Y-95529416D01*
X110314021Y-95529416D01*
X111252000Y-96467395D01*
X112189979Y-95529416D01*
X112097234Y-95267571D01*
X111811880Y-95129180D01*
X111505010Y-95049117D01*
X111188416Y-95030460D01*
X110874267Y-95073926D01*
X110574633Y-95177844D01*
X110406766Y-95267571D01*
X110314021Y-95529416D01*
X109855000Y-95529416D01*
X109855000Y-88455500D01*
X109867928Y-88455500D01*
X109880188Y-88579982D01*
X109916498Y-88699680D01*
X109975463Y-88809994D01*
X110054815Y-88906685D01*
X110151506Y-88986037D01*
X110261820Y-89045002D01*
X110381518Y-89081312D01*
X110506000Y-89093572D01*
X111220250Y-89090500D01*
X111379000Y-88931750D01*
X111379000Y-87630000D01*
X111633000Y-87630000D01*
X111633000Y-88931750D01*
X111791750Y-89090500D01*
X112506000Y-89093572D01*
X112630482Y-89081312D01*
X112750180Y-89045002D01*
X112860494Y-88986037D01*
X112957185Y-88906685D01*
X113036537Y-88809994D01*
X113095502Y-88699680D01*
X113131812Y-88579982D01*
X113144072Y-88455500D01*
X113141000Y-87788750D01*
X112982250Y-87630000D01*
X111633000Y-87630000D01*
X111379000Y-87630000D01*
X110029750Y-87630000D01*
X109871000Y-87788750D01*
X109867928Y-88455500D01*
X109855000Y-88455500D01*
X109855000Y-86741000D01*
X109868806Y-86741000D01*
X109871000Y-87217250D01*
%TA.AperFunction,Conductor*%
D38*
G36*
X109871000Y-87217250D02*
G01*
X110029750Y-87376000D01*
X111379000Y-87376000D01*
X111379000Y-87356000D01*
X111633000Y-87356000D01*
X111633000Y-87376000D01*
X112982250Y-87376000D01*
X113141000Y-87217250D01*
X113143194Y-86741000D01*
X114681000Y-86741000D01*
X114681000Y-98425000D01*
X109855000Y-98425000D01*
X109855000Y-97764584D01*
X110314021Y-97764584D01*
X110406766Y-98026429D01*
X110692120Y-98164820D01*
X110998990Y-98244883D01*
X111315584Y-98263540D01*
X111629733Y-98220074D01*
X111929367Y-98116156D01*
X112097234Y-98026429D01*
X112189979Y-97764584D01*
X111252000Y-96826605D01*
X110314021Y-97764584D01*
X109855000Y-97764584D01*
X109855000Y-97459361D01*
X109872571Y-97492234D01*
X110134416Y-97584979D01*
X111072395Y-96647000D01*
X111431605Y-96647000D01*
X112369584Y-97584979D01*
X112631429Y-97492234D01*
X112769820Y-97206880D01*
X112849883Y-96900010D01*
X112868540Y-96583416D01*
X112825074Y-96269267D01*
X112721156Y-95969633D01*
X112631429Y-95801766D01*
X112369584Y-95709021D01*
X111431605Y-96647000D01*
X111072395Y-96647000D01*
X110134416Y-95709021D01*
X109872571Y-95801766D01*
X109855000Y-95837996D01*
X109855000Y-95529416D01*
X110314021Y-95529416D01*
X111252000Y-96467395D01*
X112189979Y-95529416D01*
X112097234Y-95267571D01*
X111811880Y-95129180D01*
X111505010Y-95049117D01*
X111188416Y-95030460D01*
X110874267Y-95073926D01*
X110574633Y-95177844D01*
X110406766Y-95267571D01*
X110314021Y-95529416D01*
X109855000Y-95529416D01*
X109855000Y-88455500D01*
X109867928Y-88455500D01*
X109880188Y-88579982D01*
X109916498Y-88699680D01*
X109975463Y-88809994D01*
X110054815Y-88906685D01*
X110151506Y-88986037D01*
X110261820Y-89045002D01*
X110381518Y-89081312D01*
X110506000Y-89093572D01*
X111220250Y-89090500D01*
X111379000Y-88931750D01*
X111379000Y-87630000D01*
X111633000Y-87630000D01*
X111633000Y-88931750D01*
X111791750Y-89090500D01*
X112506000Y-89093572D01*
X112630482Y-89081312D01*
X112750180Y-89045002D01*
X112860494Y-88986037D01*
X112957185Y-88906685D01*
X113036537Y-88809994D01*
X113095502Y-88699680D01*
X113131812Y-88579982D01*
X113144072Y-88455500D01*
X113141000Y-87788750D01*
X112982250Y-87630000D01*
X111633000Y-87630000D01*
X111379000Y-87630000D01*
X110029750Y-87630000D01*
X109871000Y-87788750D01*
X109867928Y-88455500D01*
X109855000Y-88455500D01*
X109855000Y-86741000D01*
X109868806Y-86741000D01*
X109871000Y-87217250D01*
G37*
%TD.AperFunction*%
%TD*%
D37*
%TO.N,VAC*%
X110130031Y-84096077D02*
X109986429Y-84371906D01*
X109915437Y-84590020D01*
X110035406Y-84836000D01*
X111379000Y-84836000D01*
X111379000Y-84816000D01*
X111633000Y-84816000D01*
X111633000Y-84836000D01*
X112976594Y-84836000D01*
X113096563Y-84590020D01*
X113025571Y-84371906D01*
X112881969Y-84096077D01*
X112762312Y-83947000D01*
X113411000Y-83947000D01*
X113411000Y-85979000D01*
X112783858Y-85979000D01*
X112768781Y-85970941D01*
X112881969Y-85829923D01*
X113025571Y-85554094D01*
X113096563Y-85335980D01*
X112976594Y-85090000D01*
X111633000Y-85090000D01*
X111633000Y-85110000D01*
X111379000Y-85110000D01*
X111379000Y-85090000D01*
X110035406Y-85090000D01*
X109915437Y-85335980D01*
X109986429Y-85554094D01*
X110130031Y-85829923D01*
X110243219Y-85970941D01*
X110228142Y-85979000D01*
X108712000Y-85979000D01*
X108687224Y-85981440D01*
X108663399Y-85988667D01*
X108641443Y-86000403D01*
X108622197Y-86016197D01*
X108606403Y-86035443D01*
X108594667Y-86057399D01*
X108587440Y-86081224D01*
X108585000Y-86106000D01*
X108585000Y-102616000D01*
X108587440Y-102640776D01*
X108594667Y-102664601D01*
X108606403Y-102686557D01*
X108628370Y-102711577D01*
X110660370Y-104489577D01*
X110680623Y-104504056D01*
X110703312Y-104514306D01*
X110727564Y-104519932D01*
X110744000Y-104521000D01*
X112977394Y-104521000D01*
X114173000Y-105716606D01*
X114173000Y-108585000D01*
X105537000Y-108585000D01*
X105537000Y-107924584D01*
X110314021Y-107924584D01*
X110406766Y-108186429D01*
X110692120Y-108324820D01*
X110998990Y-108404883D01*
X111315584Y-108423540D01*
X111629733Y-108380074D01*
X111929367Y-108276156D01*
X112097234Y-108186429D01*
X112189979Y-107924584D01*
X111252000Y-106986605D01*
X110314021Y-107924584D01*
X105537000Y-107924584D01*
X105537000Y-106870584D01*
X109635460Y-106870584D01*
X109678926Y-107184733D01*
X109782844Y-107484367D01*
X109872571Y-107652234D01*
X110134416Y-107744979D01*
X111072395Y-106807000D01*
X111431605Y-106807000D01*
X112369584Y-107744979D01*
X112631429Y-107652234D01*
X112769820Y-107366880D01*
X112849883Y-107060010D01*
X112868540Y-106743416D01*
X112825074Y-106429267D01*
X112721156Y-106129633D01*
X112631429Y-105961766D01*
X112369584Y-105869021D01*
X111431605Y-106807000D01*
X111072395Y-106807000D01*
X110134416Y-105869021D01*
X109872571Y-105961766D01*
X109734180Y-106247120D01*
X109654117Y-106553990D01*
X109635460Y-106870584D01*
X105537000Y-106870584D01*
X105537000Y-105689416D01*
X110314021Y-105689416D01*
X111252000Y-106627395D01*
X112189979Y-105689416D01*
X112097234Y-105427571D01*
X111811880Y-105289180D01*
X111505010Y-105209117D01*
X111188416Y-105190460D01*
X110874267Y-105233926D01*
X110574633Y-105337844D01*
X110406766Y-105427571D01*
X110314021Y-105689416D01*
X105537000Y-105689416D01*
X105537000Y-83947000D01*
X110249688Y-83947000D01*
X110130031Y-84096077D01*
%TA.AperFunction,Conductor*%
D38*
G36*
X110130031Y-84096077D02*
G01*
X109986429Y-84371906D01*
X109915437Y-84590020D01*
X110035406Y-84836000D01*
X111379000Y-84836000D01*
X111379000Y-84816000D01*
X111633000Y-84816000D01*
X111633000Y-84836000D01*
X112976594Y-84836000D01*
X113096563Y-84590020D01*
X113025571Y-84371906D01*
X112881969Y-84096077D01*
X112762312Y-83947000D01*
X113411000Y-83947000D01*
X113411000Y-85979000D01*
X112783858Y-85979000D01*
X112768781Y-85970941D01*
X112881969Y-85829923D01*
X113025571Y-85554094D01*
X113096563Y-85335980D01*
X112976594Y-85090000D01*
X111633000Y-85090000D01*
X111633000Y-85110000D01*
X111379000Y-85110000D01*
X111379000Y-85090000D01*
X110035406Y-85090000D01*
X109915437Y-85335980D01*
X109986429Y-85554094D01*
X110130031Y-85829923D01*
X110243219Y-85970941D01*
X110228142Y-85979000D01*
X108712000Y-85979000D01*
X108687224Y-85981440D01*
X108663399Y-85988667D01*
X108641443Y-86000403D01*
X108622197Y-86016197D01*
X108606403Y-86035443D01*
X108594667Y-86057399D01*
X108587440Y-86081224D01*
X108585000Y-86106000D01*
X108585000Y-102616000D01*
X108587440Y-102640776D01*
X108594667Y-102664601D01*
X108606403Y-102686557D01*
X108628370Y-102711577D01*
X110660370Y-104489577D01*
X110680623Y-104504056D01*
X110703312Y-104514306D01*
X110727564Y-104519932D01*
X110744000Y-104521000D01*
X112977394Y-104521000D01*
X114173000Y-105716606D01*
X114173000Y-108585000D01*
X105537000Y-108585000D01*
X105537000Y-107924584D01*
X110314021Y-107924584D01*
X110406766Y-108186429D01*
X110692120Y-108324820D01*
X110998990Y-108404883D01*
X111315584Y-108423540D01*
X111629733Y-108380074D01*
X111929367Y-108276156D01*
X112097234Y-108186429D01*
X112189979Y-107924584D01*
X111252000Y-106986605D01*
X110314021Y-107924584D01*
X105537000Y-107924584D01*
X105537000Y-106870584D01*
X109635460Y-106870584D01*
X109678926Y-107184733D01*
X109782844Y-107484367D01*
X109872571Y-107652234D01*
X110134416Y-107744979D01*
X111072395Y-106807000D01*
X111431605Y-106807000D01*
X112369584Y-107744979D01*
X112631429Y-107652234D01*
X112769820Y-107366880D01*
X112849883Y-107060010D01*
X112868540Y-106743416D01*
X112825074Y-106429267D01*
X112721156Y-106129633D01*
X112631429Y-105961766D01*
X112369584Y-105869021D01*
X111431605Y-106807000D01*
X111072395Y-106807000D01*
X110134416Y-105869021D01*
X109872571Y-105961766D01*
X109734180Y-106247120D01*
X109654117Y-106553990D01*
X109635460Y-106870584D01*
X105537000Y-106870584D01*
X105537000Y-105689416D01*
X110314021Y-105689416D01*
X111252000Y-106627395D01*
X112189979Y-105689416D01*
X112097234Y-105427571D01*
X111811880Y-105289180D01*
X111505010Y-105209117D01*
X111188416Y-105190460D01*
X110874267Y-105233926D01*
X110574633Y-105337844D01*
X110406766Y-105427571D01*
X110314021Y-105689416D01*
X105537000Y-105689416D01*
X105537000Y-83947000D01*
X110249688Y-83947000D01*
X110130031Y-84096077D01*
G37*
%TD.AperFunction*%
%TD*%
M02*
