M48
; DRILL file {KiCad (5.1.10)-1} date 12/14/21 14:45:47
; FORMAT={-:-/ absolute / inch / decimal}
; #@! TF.CreationDate,2021-12-14T14:45:47+00:00
; #@! TF.GenerationSoftware,Kicad,Pcbnew,(5.1.10)-1
; #@! TF.FileFunction,Plated,1,2,PTH
FMAT,2
INCH
T1C0.0157
T2C0.0236
T3C0.0276
T4C0.0295
T5C0.0315
T6C0.0354
T7C0.0394
T8C0.0433
T9C0.0512
%
G90
G05
T1
X6.57Y-4.315
X6.68Y-3.975
T2
X4.7052Y-3.9919
X4.78Y-3.795
T3
X6.99Y-4.14
X6.99Y-4.24
X6.99Y-4.6439
X6.99Y-4.74
X7.29Y-4.14
X7.29Y-4.24
X7.29Y-4.6439
X7.29Y-4.74
T4
X6.44Y-4.045
X6.5187Y-4.045
X6.5975Y-4.045
X6.68Y-4.365
X6.68Y-4.4437
X6.68Y-4.5225
X6.68Y-4.6012
X6.68Y-4.68
X6.68Y-4.7587
X7.14Y-3.405
X7.19Y-3.405
X7.24Y-3.405
X7.5Y-4.105
X7.5Y-4.1837
T5
X4.66Y-3.195
X4.66Y-3.495
X4.735Y-4.145
X4.735Y-4.445
X4.76Y-3.195
X4.76Y-3.495
X4.86Y-3.195
X4.86Y-3.495
X4.88Y-3.625
X5.0Y-4.775
X5.18Y-3.625
X5.1969Y-4.775
X5.4Y-3.225
X5.4Y-3.365
X5.7Y-3.225
X5.7Y-3.365
X5.9Y-3.1681
X5.9Y-3.365
X6.09Y-3.175
X6.39Y-3.175
X6.45Y-3.495
X6.45Y-3.795
X6.5031Y-3.265
X6.61Y-3.495
X6.61Y-3.595
X6.61Y-3.695
X6.61Y-3.795
X6.7Y-3.265
X6.91Y-3.195
X6.91Y-3.495
X6.91Y-3.595
X6.91Y-3.695
X6.91Y-3.795
X7.04Y-3.685
X7.04Y-3.815
X7.21Y-3.195
X7.34Y-3.685
X7.34Y-3.815
T6
X7.47Y-3.195
X7.47Y-3.295
X7.47Y-3.425
X7.47Y-3.525
T7
X5.48Y-3.575
X5.48Y-3.775
X5.48Y-4.775
X6.18Y-4.575
X6.18Y-4.775
X6.44Y-4.605
X6.44Y-4.705
X6.44Y-4.805
T8
X4.39Y-3.245
X4.39Y-3.345
X4.39Y-3.445
X5.0Y-3.785
X5.0Y-4.3756
T9
X4.38Y-3.805
X4.38Y-4.005
X4.38Y-4.205
X4.38Y-4.405
X4.38Y-4.605
X4.38Y-4.805
T0
M30
