%TF.GenerationSoftware,KiCad,Pcbnew,(5.1.10)-1*%
%TF.CreationDate,2021-12-15T20:23:36+00:00*%
%TF.ProjectId,vacSwitch,76616353-7769-4746-9368-2e6b69636164,rev?*%
%TF.SameCoordinates,Original*%
%TF.FileFunction,Copper,L2,Bot*%
%TF.FilePolarity,Positive*%
%FSLAX46Y46*%
G04 Gerber Fmt 4.6, Leading zero omitted, Abs format (unit mm)*
G04 Created by KiCad (PCBNEW (5.1.10)-1) date 2021-12-15 20:23:36*
%MOMM*%
%LPD*%
G01*
G04 APERTURE LIST*
%TA.AperFunction,ComponentPad*%
%ADD10C,1.600000*%
%TD*%
%TA.AperFunction,ComponentPad*%
%ADD11R,1.600000X1.600000*%
%TD*%
%TA.AperFunction,ComponentPad*%
%ADD12C,1.950000*%
%TD*%
%TA.AperFunction,ComponentPad*%
%ADD13O,1.750000X1.200000*%
%TD*%
%TA.AperFunction,ComponentPad*%
%ADD14C,2.200000*%
%TD*%
%TA.AperFunction,ComponentPad*%
%ADD15O,1.600000X1.600000*%
%TD*%
%TA.AperFunction,ComponentPad*%
%ADD16C,1.800000*%
%TD*%
%TA.AperFunction,ComponentPad*%
%ADD17R,1.800000X1.800000*%
%TD*%
%TA.AperFunction,ComponentPad*%
%ADD18R,2.000000X1.905000*%
%TD*%
%TA.AperFunction,ComponentPad*%
%ADD19O,2.000000X1.905000*%
%TD*%
%TA.AperFunction,ComponentPad*%
%ADD20O,1.200000X1.750000*%
%TD*%
%TA.AperFunction,ComponentPad*%
%ADD21R,1.700000X1.700000*%
%TD*%
%TA.AperFunction,ComponentPad*%
%ADD22O,1.700000X1.700000*%
%TD*%
%TA.AperFunction,ComponentPad*%
%ADD23C,1.400000*%
%TD*%
%TA.AperFunction,ComponentPad*%
%ADD24R,1.400000X1.400000*%
%TD*%
%TA.AperFunction,ComponentPad*%
%ADD25R,2.000000X2.000000*%
%TD*%
%TA.AperFunction,ComponentPad*%
%ADD26C,2.000000*%
%TD*%
%TA.AperFunction,ComponentPad*%
%ADD27O,1.050000X1.500000*%
%TD*%
%TA.AperFunction,ComponentPad*%
%ADD28R,1.050000X1.500000*%
%TD*%
%TA.AperFunction,ComponentPad*%
%ADD29R,2.400000X1.600000*%
%TD*%
%TA.AperFunction,ComponentPad*%
%ADD30O,2.400000X1.600000*%
%TD*%
%TA.AperFunction,ComponentPad*%
%ADD31R,1.600000X2.400000*%
%TD*%
%TA.AperFunction,ComponentPad*%
%ADD32O,1.600000X2.400000*%
%TD*%
%TA.AperFunction,ViaPad*%
%ADD33C,0.800000*%
%TD*%
%TA.AperFunction,Conductor*%
%ADD34C,0.250000*%
%TD*%
%TA.AperFunction,Conductor*%
%ADD35C,2.000000*%
%TD*%
%TA.AperFunction,Conductor*%
%ADD36C,0.254000*%
%TD*%
%TA.AperFunction,Conductor*%
%ADD37C,0.100000*%
%TD*%
G04 APERTURE END LIST*
D10*
%TO.P,C4,2*%
%TO.N,0V*%
X149860000Y-80471000D03*
D11*
%TO.P,C4,1*%
%TO.N,SCL*%
X149860000Y-85471000D03*
%TD*%
%TO.P,C3,1*%
%TO.N,Net-(C3-Pad1)*%
X127000000Y-121285000D03*
D10*
%TO.P,C3,2*%
%TO.N,0V*%
X132000000Y-121285000D03*
%TD*%
D12*
%TO.P,J1,1*%
%TO.N,HOT*%
X111252000Y-96647000D03*
%TO.P,J1,2*%
%TO.N,NEUTRAL*%
X111252000Y-101727000D03*
%TO.P,J1,3*%
%TO.N,VAC*%
X111252000Y-106807000D03*
%TO.P,J1,4*%
%TO.N,NEUTRAL*%
X111252000Y-111887000D03*
%TO.P,J1,5*%
%TO.N,LOAD1*%
X111252000Y-116967000D03*
%TO.P,J1,6*%
%TO.N,LOAD*%
X111252000Y-122047000D03*
%TD*%
D13*
%TO.P,J3,6*%
%TO.N,+5V*%
X169672000Y-120871000D03*
%TO.P,J3,5*%
%TO.N,RESET*%
X169672000Y-118871000D03*
%TO.P,J3,4*%
%TO.N,SCL*%
X169672000Y-116871000D03*
%TO.P,J3,3*%
%TO.N,MOSI*%
X169672000Y-114871000D03*
%TO.P,J3,2*%
%TO.N,MISO*%
X169672000Y-112871000D03*
%TO.P,J3,1*%
%TO.N,0V*%
%TA.AperFunction,ComponentPad*%
G36*
G01*
X169046999Y-110271000D02*
X170297001Y-110271000D01*
G75*
G02*
X170547000Y-110520999I0J-249999D01*
G01*
X170547000Y-111221001D01*
G75*
G02*
X170297001Y-111471000I-249999J0D01*
G01*
X169046999Y-111471000D01*
G75*
G02*
X168797000Y-111221001I0J249999D01*
G01*
X168797000Y-110520999D01*
G75*
G02*
X169046999Y-110271000I249999J0D01*
G01*
G37*
%TD.AperFunction*%
%TD*%
D11*
%TO.P,C1,1*%
%TO.N,VCC*%
X170180000Y-82931000D03*
D10*
%TO.P,C1,2*%
%TO.N,0V*%
X165180000Y-82931000D03*
%TD*%
D14*
%TO.P,C6,1*%
%TO.N,VAC*%
X130810000Y-112268000D03*
%TO.P,C6,2*%
%TO.N,HOT*%
X130810000Y-97268000D03*
%TD*%
D11*
%TO.P,D1,1*%
%TO.N,SCL*%
X144780000Y-85471000D03*
D15*
%TO.P,D1,2*%
%TO.N,Net-(D1-Pad2)*%
X137160000Y-85471000D03*
%TD*%
D16*
%TO.P,D6,2*%
%TO.N,Net-(D6-Pad2)*%
X189738000Y-81153000D03*
D17*
%TO.P,D6,1*%
%TO.N,Net-(D6-Pad1)*%
X189738000Y-83693000D03*
%TD*%
%TO.P,D7,1*%
%TO.N,0V*%
X189738000Y-86995000D03*
D16*
%TO.P,D7,2*%
%TO.N,Net-(D7-Pad2)*%
X189738000Y-89535000D03*
%TD*%
D18*
%TO.P,D9,1*%
%TO.N,HOT*%
X111506000Y-87503000D03*
D19*
%TO.P,D9,2*%
%TO.N,VAC*%
X111506000Y-84963000D03*
%TO.P,D9,3*%
%TO.N,Net-(D9-Pad3)*%
X111506000Y-82423000D03*
%TD*%
%TO.P,J2,1*%
%TO.N,0V*%
%TA.AperFunction,ComponentPad*%
G36*
G01*
X162976000Y-103368001D02*
X162976000Y-102117999D01*
G75*
G02*
X163225999Y-101868000I249999J0D01*
G01*
X163926001Y-101868000D01*
G75*
G02*
X164176000Y-102117999I0J-249999D01*
G01*
X164176000Y-103368001D01*
G75*
G02*
X163926001Y-103618000I-249999J0D01*
G01*
X163225999Y-103618000D01*
G75*
G02*
X162976000Y-103368001I0J249999D01*
G01*
G37*
%TD.AperFunction*%
D20*
%TO.P,J2,2*%
%TO.N,TX*%
X165576000Y-102743000D03*
%TO.P,J2,3*%
%TO.N,RX*%
X167576000Y-102743000D03*
%TD*%
%TO.P,J4,1*%
%TO.N,SW2*%
%TA.AperFunction,ComponentPad*%
G36*
G01*
X189874999Y-103667000D02*
X191125001Y-103667000D01*
G75*
G02*
X191375000Y-103916999I0J-249999D01*
G01*
X191375000Y-104617001D01*
G75*
G02*
X191125001Y-104867000I-249999J0D01*
G01*
X189874999Y-104867000D01*
G75*
G02*
X189625000Y-104617001I0J249999D01*
G01*
X189625000Y-103916999D01*
G75*
G02*
X189874999Y-103667000I249999J0D01*
G01*
G37*
%TD.AperFunction*%
D13*
%TO.P,J4,2*%
%TO.N,SW1*%
X190500000Y-106267000D03*
%TD*%
D21*
%TO.P,JP1,1*%
%TO.N,Net-(JP1-Pad1)*%
X163576000Y-116967000D03*
D22*
%TO.P,JP1,2*%
%TO.N,VCC*%
X163576000Y-119507000D03*
%TO.P,JP1,3*%
%TO.N,+5V*%
X163576000Y-122047000D03*
%TD*%
D23*
%TO.P,K1,13*%
%TO.N,N/C*%
X185166000Y-107696000D03*
%TO.P,K1,9*%
X185166000Y-117956000D03*
%TO.P,K1,6*%
%TO.N,Net-(D6-Pad1)*%
X177546000Y-117956000D03*
%TO.P,K1,2*%
%TO.N,VCC*%
X177546000Y-107696000D03*
D24*
%TO.P,K1,1*%
%TO.N,N/C*%
X177546000Y-105156000D03*
D23*
%TO.P,K1,8*%
%TO.N,SW1*%
X185166000Y-120396000D03*
%TO.P,K1,7*%
%TO.N,N/C*%
X177546000Y-120396000D03*
%TO.P,K1,14*%
%TO.N,SW2*%
X185166000Y-105156000D03*
%TD*%
D25*
%TO.P,PS1,1*%
%TO.N,HOT*%
X139192000Y-90805000D03*
D26*
%TO.P,PS1,2*%
%TO.N,NEUTRAL*%
X139192000Y-95885000D03*
%TO.P,PS1,4*%
%TO.N,0V*%
X156972000Y-121285000D03*
%TO.P,PS1,3*%
%TO.N,Net-(PS1-Pad3)*%
X139192000Y-121285000D03*
%TO.P,PS1,5*%
%TO.N,Net-(JP1-Pad1)*%
X156972000Y-116205000D03*
%TD*%
D27*
%TO.P,Q1,2*%
%TO.N,Net-(Q1-Pad2)*%
X182626000Y-86487000D03*
%TO.P,Q1,3*%
%TO.N,0V*%
X181356000Y-86487000D03*
D28*
%TO.P,Q1,1*%
%TO.N,Net-(D6-Pad1)*%
X183896000Y-86487000D03*
%TD*%
D15*
%TO.P,R3,2*%
%TO.N,VCC*%
X163830000Y-96393000D03*
D10*
%TO.P,R3,1*%
%TO.N,RESET*%
X163830000Y-88773000D03*
%TD*%
%TO.P,R4,1*%
%TO.N,Net-(D1-Pad2)*%
X144780000Y-81915000D03*
D15*
%TO.P,R4,2*%
%TO.N,Net-(R4-Pad2)*%
X137160000Y-81915000D03*
%TD*%
D10*
%TO.P,R7,1*%
%TO.N,MOSI*%
X178816000Y-96901000D03*
D15*
%TO.P,R7,2*%
%TO.N,Net-(D7-Pad2)*%
X186436000Y-96901000D03*
%TD*%
%TO.P,R8,2*%
%TO.N,Net-(Q1-Pad2)*%
X186436000Y-93599000D03*
D10*
%TO.P,R8,1*%
%TO.N,MISO*%
X178816000Y-93599000D03*
%TD*%
D15*
%TO.P,R9,2*%
%TO.N,Net-(D6-Pad2)*%
X183134000Y-81153000D03*
D10*
%TO.P,R9,1*%
%TO.N,VCC*%
X175514000Y-81153000D03*
%TD*%
%TO.P,R10,1*%
%TO.N,VCC*%
X162306000Y-80645000D03*
D15*
%TO.P,R10,2*%
%TO.N,Net-(R10-Pad2)*%
X154686000Y-80645000D03*
%TD*%
D10*
%TO.P,R11,1*%
%TO.N,Net-(D9-Pad3)*%
X124968000Y-96520000D03*
D15*
%TO.P,R11,2*%
%TO.N,HOT*%
X117348000Y-96520000D03*
%TD*%
%TO.P,R12,2*%
%TO.N,VAC*%
X131826000Y-92202000D03*
D10*
%TO.P,R12,1*%
%TO.N,Net-(R12-Pad1)*%
X124206000Y-92202000D03*
%TD*%
%TO.P,RV1,1*%
%TO.N,HOT*%
X119380000Y-100584000D03*
%TO.P,RV1,2*%
%TO.N,NEUTRAL*%
X124380000Y-102484000D03*
%TD*%
D29*
%TO.P,U1,1*%
%TO.N,RESET*%
X167894000Y-88773000D03*
D30*
%TO.P,U1,5*%
%TO.N,MOSI*%
X175514000Y-96393000D03*
%TO.P,U1,2*%
%TO.N,TX*%
X167894000Y-91313000D03*
%TO.P,U1,6*%
%TO.N,MISO*%
X175514000Y-93853000D03*
%TO.P,U1,3*%
%TO.N,RX*%
X167894000Y-93853000D03*
%TO.P,U1,7*%
%TO.N,SCL*%
X175514000Y-91313000D03*
%TO.P,U1,4*%
%TO.N,0V*%
X167894000Y-96393000D03*
%TO.P,U1,8*%
%TO.N,VCC*%
X175514000Y-88773000D03*
%TD*%
D31*
%TO.P,U3,1*%
%TO.N,Net-(R10-Pad2)*%
X123444000Y-81153000D03*
D32*
%TO.P,U3,4*%
%TO.N,Net-(D9-Pad3)*%
X118364000Y-88773000D03*
%TO.P,U3,2*%
%TO.N,Net-(D6-Pad1)*%
X120904000Y-81153000D03*
%TO.P,U3,5*%
%TO.N,Net-(U3-Pad5)*%
X120904000Y-88773000D03*
%TO.P,U3,3*%
%TO.N,Net-(U3-Pad3)*%
X118364000Y-81153000D03*
%TO.P,U3,6*%
%TO.N,Net-(R12-Pad1)*%
X123444000Y-88773000D03*
%TD*%
D33*
%TO.N,VAC*%
X124841000Y-106807000D03*
%TO.N,MISO*%
X166878000Y-109601000D03*
X169672000Y-100965000D03*
%TD*%
D34*
%TO.N,0V*%
X189738000Y-86995000D02*
X187960000Y-86995000D01*
X187960000Y-86995000D02*
X185674000Y-89281000D01*
X181356000Y-87487000D02*
X181356000Y-86487000D01*
X183150000Y-89281000D02*
X181356000Y-87487000D01*
X185674000Y-89281000D02*
X183150000Y-89281000D01*
X181356000Y-86487000D02*
X165434000Y-86487000D01*
X165180000Y-86233000D02*
X165434000Y-86487000D01*
X165180000Y-82931000D02*
X165180000Y-86233000D01*
X149860000Y-80471000D02*
X152320000Y-82931000D01*
X152320000Y-82931000D02*
X165180000Y-82931000D01*
%TO.N,SCL*%
X175514000Y-91313000D02*
X171450000Y-87249000D01*
X153924000Y-87249000D02*
X152146000Y-85471000D01*
X171450000Y-87249000D02*
X153924000Y-87249000D01*
X152146000Y-85471000D02*
X149860000Y-85471000D01*
X144780000Y-85471000D02*
X149860000Y-85471000D01*
X174848000Y-116871000D02*
X172116000Y-116871000D01*
X180721000Y-110998000D02*
X174848000Y-116871000D01*
X180086000Y-91313000D02*
X180721000Y-91948000D01*
X175514000Y-91313000D02*
X180086000Y-91313000D01*
X172116000Y-116871000D02*
X172562000Y-116871000D01*
X180721000Y-91948000D02*
X180721000Y-110998000D01*
X169672000Y-116871000D02*
X172116000Y-116871000D01*
%TO.N,HOT*%
X111506000Y-96393000D02*
X111252000Y-96647000D01*
%TO.N,VAC*%
X130302000Y-112268000D02*
X130810000Y-112268000D01*
X131826000Y-92202000D02*
X130048000Y-92202000D01*
X130048000Y-92202000D02*
X127508000Y-94742000D01*
X127508000Y-104394000D02*
X124968000Y-106934000D01*
X127508000Y-94742000D02*
X127508000Y-104394000D01*
X124841000Y-106807000D02*
X124968000Y-106934000D01*
%TO.N,NEUTRAL*%
X111252000Y-111125000D02*
X111252000Y-111887000D01*
D35*
X111252000Y-101727000D02*
X108458000Y-104521000D01*
X108458000Y-104521000D02*
X108458000Y-108331000D01*
X108458000Y-108331000D02*
X111252000Y-111125000D01*
D34*
%TO.N,RX*%
X167576000Y-102743000D02*
X165608000Y-100775000D01*
X165608000Y-96139000D02*
X167894000Y-93853000D01*
X165608000Y-100775000D02*
X165608000Y-96139000D01*
%TO.N,MISO*%
X169672000Y-112871000D02*
X167862000Y-112871000D01*
X167862000Y-112871000D02*
X166878000Y-111887000D01*
X166878000Y-111887000D02*
X166878000Y-109601000D01*
X169672000Y-100965000D02*
X169672000Y-98679000D01*
X174498000Y-93853000D02*
X175514000Y-93853000D01*
X169672000Y-98679000D02*
X174498000Y-93853000D01*
%TO.N,MOSI*%
X179705000Y-97790000D02*
X178816000Y-96901000D01*
X175451000Y-114871000D02*
X179705000Y-110617000D01*
X179705000Y-110617000D02*
X179705000Y-97790000D01*
X169672000Y-114871000D02*
X175451000Y-114871000D01*
%TO.N,Net-(Q1-Pad2)*%
X182626000Y-85487000D02*
X182626000Y-86487000D01*
X185674000Y-84709000D02*
X183404000Y-84709000D01*
X186376999Y-85411999D02*
X185674000Y-84709000D01*
X190540001Y-85411999D02*
X186376999Y-85411999D01*
X192278000Y-87149998D02*
X190540001Y-85411999D01*
X192278000Y-91313000D02*
X192278000Y-87149998D01*
X183404000Y-84709000D02*
X182626000Y-85487000D01*
X189992000Y-93599000D02*
X192278000Y-91313000D01*
X186436000Y-93599000D02*
X189992000Y-93599000D01*
%TD*%
D36*
%TO.N,0V*%
X149664227Y-79049343D02*
X149509870Y-79072213D01*
X149243708Y-79167397D01*
X149118486Y-79234329D01*
X149046903Y-79478298D01*
X149860000Y-80291395D01*
X150673097Y-79478298D01*
X150601514Y-79234329D01*
X150346004Y-79113429D01*
X150093189Y-79050057D01*
X192532000Y-79120789D01*
X192532000Y-86329196D01*
X191160315Y-84957512D01*
X191168537Y-84947494D01*
X191227502Y-84837180D01*
X191263812Y-84717482D01*
X191276072Y-84593000D01*
X191276072Y-82793000D01*
X191263812Y-82668518D01*
X191227502Y-82548820D01*
X191168537Y-82438506D01*
X191089185Y-82341815D01*
X190992494Y-82262463D01*
X190882180Y-82203498D01*
X190863873Y-82197944D01*
X190930312Y-82131505D01*
X191098299Y-81880095D01*
X191214011Y-81600743D01*
X191273000Y-81304184D01*
X191273000Y-81001816D01*
X191214011Y-80705257D01*
X191098299Y-80425905D01*
X190930312Y-80174495D01*
X190716505Y-79960688D01*
X190465095Y-79792701D01*
X190185743Y-79676989D01*
X189889184Y-79618000D01*
X189586816Y-79618000D01*
X189290257Y-79676989D01*
X189010905Y-79792701D01*
X188759495Y-79960688D01*
X188545688Y-80174495D01*
X188377701Y-80425905D01*
X188261989Y-80705257D01*
X188203000Y-81001816D01*
X188203000Y-81304184D01*
X188261989Y-81600743D01*
X188377701Y-81880095D01*
X188545688Y-82131505D01*
X188612127Y-82197944D01*
X188593820Y-82203498D01*
X188483506Y-82262463D01*
X188386815Y-82341815D01*
X188307463Y-82438506D01*
X188248498Y-82548820D01*
X188212188Y-82668518D01*
X188199928Y-82793000D01*
X188199928Y-84593000D01*
X188205739Y-84651999D01*
X186691801Y-84651999D01*
X186237803Y-84198002D01*
X186214001Y-84168999D01*
X186098276Y-84074026D01*
X185966247Y-84003454D01*
X185822986Y-83959997D01*
X185711333Y-83949000D01*
X185711322Y-83949000D01*
X185674000Y-83945324D01*
X185636678Y-83949000D01*
X183441322Y-83949000D01*
X183403999Y-83945324D01*
X183366676Y-83949000D01*
X183366667Y-83949000D01*
X183255014Y-83959997D01*
X183111753Y-84003454D01*
X182979723Y-84074026D01*
X182898770Y-84140463D01*
X182863999Y-84168999D01*
X182840201Y-84197998D01*
X182115002Y-84923197D01*
X182085999Y-84946999D01*
X182052578Y-84987723D01*
X181991026Y-85062724D01*
X181948098Y-85143036D01*
X181920454Y-85194754D01*
X181908569Y-85233935D01*
X181723337Y-85151728D01*
X181661810Y-85143036D01*
X181483000Y-85268837D01*
X181483000Y-86033891D01*
X181482785Y-86034600D01*
X181466000Y-86205021D01*
X181466000Y-86768978D01*
X181482785Y-86939399D01*
X181483000Y-86940108D01*
X181483000Y-87705163D01*
X181661810Y-87830964D01*
X181723337Y-87822272D01*
X181932882Y-87729275D01*
X181991331Y-87688071D01*
X182179940Y-87788885D01*
X182398600Y-87855215D01*
X182626000Y-87877612D01*
X182853399Y-87855215D01*
X183062098Y-87791907D01*
X183126820Y-87826502D01*
X183246518Y-87862812D01*
X183371000Y-87875072D01*
X184421000Y-87875072D01*
X184545482Y-87862812D01*
X184665180Y-87826502D01*
X184775494Y-87767537D01*
X184872185Y-87688185D01*
X184951537Y-87591494D01*
X185010502Y-87481180D01*
X185046812Y-87361482D01*
X185059072Y-87237000D01*
X185059072Y-85737000D01*
X185046812Y-85612518D01*
X185010502Y-85492820D01*
X184997770Y-85469000D01*
X185359199Y-85469000D01*
X185813200Y-85923001D01*
X185836998Y-85952000D01*
X185952723Y-86046973D01*
X186084752Y-86117545D01*
X186228013Y-86161002D01*
X186339666Y-86171999D01*
X186339674Y-86171999D01*
X186376999Y-86175675D01*
X186414324Y-86171999D01*
X188200313Y-86171999D01*
X188203000Y-86709250D01*
X188361750Y-86868000D01*
X189611000Y-86868000D01*
X189611000Y-86848000D01*
X189865000Y-86848000D01*
X189865000Y-86868000D01*
X189885000Y-86868000D01*
X189885000Y-87122000D01*
X189865000Y-87122000D01*
X189865000Y-87142000D01*
X189611000Y-87142000D01*
X189611000Y-87122000D01*
X188361750Y-87122000D01*
X188203000Y-87280750D01*
X188199928Y-87895000D01*
X188212188Y-88019482D01*
X188248498Y-88139180D01*
X188307463Y-88249494D01*
X188386815Y-88346185D01*
X188483506Y-88425537D01*
X188593820Y-88484502D01*
X188612127Y-88490056D01*
X188545688Y-88556495D01*
X188377701Y-88807905D01*
X188261989Y-89087257D01*
X188203000Y-89383816D01*
X188203000Y-89686184D01*
X188261989Y-89982743D01*
X188377701Y-90262095D01*
X188545688Y-90513505D01*
X188759495Y-90727312D01*
X189010905Y-90895299D01*
X189290257Y-91011011D01*
X189586816Y-91070000D01*
X189889184Y-91070000D01*
X190185743Y-91011011D01*
X190465095Y-90895299D01*
X190716505Y-90727312D01*
X190930312Y-90513505D01*
X191098299Y-90262095D01*
X191214011Y-89982743D01*
X191273000Y-89686184D01*
X191273000Y-89383816D01*
X191214011Y-89087257D01*
X191098299Y-88807905D01*
X190930312Y-88556495D01*
X190863873Y-88490056D01*
X190882180Y-88484502D01*
X190992494Y-88425537D01*
X191089185Y-88346185D01*
X191168537Y-88249494D01*
X191227502Y-88139180D01*
X191263812Y-88019482D01*
X191276072Y-87895000D01*
X191273000Y-87280750D01*
X191114252Y-87122002D01*
X191175202Y-87122002D01*
X191518001Y-87464801D01*
X191518000Y-90998198D01*
X189677199Y-92839000D01*
X187654043Y-92839000D01*
X187550637Y-92684241D01*
X187350759Y-92484363D01*
X187115727Y-92327320D01*
X186854574Y-92219147D01*
X186577335Y-92164000D01*
X186294665Y-92164000D01*
X186017426Y-92219147D01*
X185756273Y-92327320D01*
X185521241Y-92484363D01*
X185321363Y-92684241D01*
X185164320Y-92919273D01*
X185056147Y-93180426D01*
X185001000Y-93457665D01*
X185001000Y-93740335D01*
X185056147Y-94017574D01*
X185164320Y-94278727D01*
X185321363Y-94513759D01*
X185521241Y-94713637D01*
X185756273Y-94870680D01*
X186017426Y-94978853D01*
X186294665Y-95034000D01*
X186577335Y-95034000D01*
X186854574Y-94978853D01*
X187115727Y-94870680D01*
X187350759Y-94713637D01*
X187550637Y-94513759D01*
X187654043Y-94359000D01*
X189954678Y-94359000D01*
X189992000Y-94362676D01*
X190029322Y-94359000D01*
X190029333Y-94359000D01*
X190140986Y-94348003D01*
X190284247Y-94304546D01*
X190416276Y-94233974D01*
X190532001Y-94139001D01*
X190555804Y-94109997D01*
X192532000Y-92133802D01*
X192532000Y-127000000D01*
X144399000Y-127000000D01*
X144399000Y-122420413D01*
X156016192Y-122420413D01*
X156111956Y-122684814D01*
X156401571Y-122825704D01*
X156713108Y-122907384D01*
X157034595Y-122926718D01*
X157353675Y-122882961D01*
X157658088Y-122777795D01*
X157832044Y-122684814D01*
X157927808Y-122420413D01*
X156972000Y-121464605D01*
X156016192Y-122420413D01*
X144399000Y-122420413D01*
X144399000Y-121347595D01*
X155330282Y-121347595D01*
X155374039Y-121666675D01*
X155479205Y-121971088D01*
X155572186Y-122145044D01*
X155836587Y-122240808D01*
X156792395Y-121285000D01*
X157151605Y-121285000D01*
X158107413Y-122240808D01*
X158371814Y-122145044D01*
X158512704Y-121855429D01*
X158594384Y-121543892D01*
X158613718Y-121222405D01*
X158569961Y-120903325D01*
X158464795Y-120598912D01*
X158371814Y-120424956D01*
X158107413Y-120329192D01*
X157151605Y-121285000D01*
X156792395Y-121285000D01*
X155836587Y-120329192D01*
X155572186Y-120424956D01*
X155431296Y-120714571D01*
X155349616Y-121026108D01*
X155330282Y-121347595D01*
X144399000Y-121347595D01*
X144399000Y-120149587D01*
X156016192Y-120149587D01*
X156972000Y-121105395D01*
X157927808Y-120149587D01*
X157832044Y-119885186D01*
X157542429Y-119744296D01*
X157230892Y-119662616D01*
X156909405Y-119643282D01*
X156590325Y-119687039D01*
X156285912Y-119792205D01*
X156111956Y-119885186D01*
X156016192Y-120149587D01*
X144399000Y-120149587D01*
X144399000Y-116205000D01*
X144396560Y-116180224D01*
X144389333Y-116156399D01*
X144377597Y-116134443D01*
X144361803Y-116115197D01*
X144342557Y-116099403D01*
X144320601Y-116087667D01*
X144296776Y-116080440D01*
X144272000Y-116078000D01*
X134112000Y-116078000D01*
X134087224Y-116080440D01*
X134063399Y-116087667D01*
X134041443Y-116099403D01*
X134022197Y-116115197D01*
X134006403Y-116134443D01*
X133994667Y-116156399D01*
X133987440Y-116180224D01*
X133985000Y-116205000D01*
X133985000Y-126238000D01*
X120904000Y-126238000D01*
X120904000Y-120485000D01*
X125561928Y-120485000D01*
X125561928Y-122085000D01*
X125574188Y-122209482D01*
X125610498Y-122329180D01*
X125669463Y-122439494D01*
X125748815Y-122536185D01*
X125845506Y-122615537D01*
X125955820Y-122674502D01*
X126075518Y-122710812D01*
X126200000Y-122723072D01*
X127800000Y-122723072D01*
X127924482Y-122710812D01*
X128044180Y-122674502D01*
X128154494Y-122615537D01*
X128251185Y-122536185D01*
X128330537Y-122439494D01*
X128389502Y-122329180D01*
X128405117Y-122277702D01*
X131186903Y-122277702D01*
X131258486Y-122521671D01*
X131513996Y-122642571D01*
X131788184Y-122711300D01*
X132070512Y-122725217D01*
X132350130Y-122683787D01*
X132616292Y-122588603D01*
X132741514Y-122521671D01*
X132813097Y-122277702D01*
X132000000Y-121464605D01*
X131186903Y-122277702D01*
X128405117Y-122277702D01*
X128425812Y-122209482D01*
X128438072Y-122085000D01*
X128438072Y-121355512D01*
X130559783Y-121355512D01*
X130601213Y-121635130D01*
X130696397Y-121901292D01*
X130763329Y-122026514D01*
X131007298Y-122098097D01*
X131820395Y-121285000D01*
X132179605Y-121285000D01*
X132992702Y-122098097D01*
X133236671Y-122026514D01*
X133357571Y-121771004D01*
X133426300Y-121496816D01*
X133440217Y-121214488D01*
X133398787Y-120934870D01*
X133303603Y-120668708D01*
X133236671Y-120543486D01*
X132992702Y-120471903D01*
X132179605Y-121285000D01*
X131820395Y-121285000D01*
X131007298Y-120471903D01*
X130763329Y-120543486D01*
X130642429Y-120798996D01*
X130573700Y-121073184D01*
X130559783Y-121355512D01*
X128438072Y-121355512D01*
X128438072Y-120485000D01*
X128425812Y-120360518D01*
X128405118Y-120292298D01*
X131186903Y-120292298D01*
X132000000Y-121105395D01*
X132813097Y-120292298D01*
X132741514Y-120048329D01*
X132486004Y-119927429D01*
X132211816Y-119858700D01*
X131929488Y-119844783D01*
X131649870Y-119886213D01*
X131383708Y-119981397D01*
X131258486Y-120048329D01*
X131186903Y-120292298D01*
X128405118Y-120292298D01*
X128389502Y-120240820D01*
X128330537Y-120130506D01*
X128251185Y-120033815D01*
X128154494Y-119954463D01*
X128044180Y-119895498D01*
X127924482Y-119859188D01*
X127800000Y-119846928D01*
X126200000Y-119846928D01*
X126075518Y-119859188D01*
X125955820Y-119895498D01*
X125845506Y-119954463D01*
X125748815Y-120033815D01*
X125669463Y-120130506D01*
X125610498Y-120240820D01*
X125574188Y-120360518D01*
X125561928Y-120485000D01*
X120904000Y-120485000D01*
X120904000Y-118584923D01*
X129199474Y-116043967D01*
X155337000Y-116043967D01*
X155337000Y-116366033D01*
X155399832Y-116681912D01*
X155523082Y-116979463D01*
X155702013Y-117247252D01*
X155929748Y-117474987D01*
X156197537Y-117653918D01*
X156495088Y-117777168D01*
X156810967Y-117840000D01*
X157133033Y-117840000D01*
X157448912Y-117777168D01*
X157746463Y-117653918D01*
X158014252Y-117474987D01*
X158241987Y-117247252D01*
X158420918Y-116979463D01*
X158544168Y-116681912D01*
X158607000Y-116366033D01*
X158607000Y-116117000D01*
X162087928Y-116117000D01*
X162087928Y-117817000D01*
X162100188Y-117941482D01*
X162136498Y-118061180D01*
X162195463Y-118171494D01*
X162274815Y-118268185D01*
X162371506Y-118347537D01*
X162481820Y-118406502D01*
X162554380Y-118428513D01*
X162422525Y-118560368D01*
X162260010Y-118803589D01*
X162148068Y-119073842D01*
X162091000Y-119360740D01*
X162091000Y-119653260D01*
X162148068Y-119940158D01*
X162260010Y-120210411D01*
X162422525Y-120453632D01*
X162629368Y-120660475D01*
X162803760Y-120777000D01*
X162629368Y-120893525D01*
X162422525Y-121100368D01*
X162260010Y-121343589D01*
X162148068Y-121613842D01*
X162091000Y-121900740D01*
X162091000Y-122193260D01*
X162148068Y-122480158D01*
X162260010Y-122750411D01*
X162422525Y-122993632D01*
X162629368Y-123200475D01*
X162872589Y-123362990D01*
X163142842Y-123474932D01*
X163429740Y-123532000D01*
X163722260Y-123532000D01*
X164009158Y-123474932D01*
X164279411Y-123362990D01*
X164522632Y-123200475D01*
X164729475Y-122993632D01*
X164891990Y-122750411D01*
X165003932Y-122480158D01*
X165061000Y-122193260D01*
X165061000Y-121900740D01*
X165003932Y-121613842D01*
X164891990Y-121343589D01*
X164729475Y-121100368D01*
X164522632Y-120893525D01*
X164348240Y-120777000D01*
X164522632Y-120660475D01*
X164729475Y-120453632D01*
X164891990Y-120210411D01*
X165003932Y-119940158D01*
X165061000Y-119653260D01*
X165061000Y-119360740D01*
X165003932Y-119073842D01*
X164891990Y-118803589D01*
X164729475Y-118560368D01*
X164597620Y-118428513D01*
X164670180Y-118406502D01*
X164780494Y-118347537D01*
X164877185Y-118268185D01*
X164956537Y-118171494D01*
X165015502Y-118061180D01*
X165051812Y-117941482D01*
X165064072Y-117817000D01*
X165064072Y-116117000D01*
X165051812Y-115992518D01*
X165015502Y-115872820D01*
X164956537Y-115762506D01*
X164877185Y-115665815D01*
X164780494Y-115586463D01*
X164670180Y-115527498D01*
X164550482Y-115491188D01*
X164426000Y-115478928D01*
X162726000Y-115478928D01*
X162601518Y-115491188D01*
X162481820Y-115527498D01*
X162371506Y-115586463D01*
X162274815Y-115665815D01*
X162195463Y-115762506D01*
X162136498Y-115872820D01*
X162100188Y-115992518D01*
X162087928Y-116117000D01*
X158607000Y-116117000D01*
X158607000Y-116043967D01*
X158544168Y-115728088D01*
X158420918Y-115430537D01*
X158241987Y-115162748D01*
X158014252Y-114935013D01*
X157746463Y-114756082D01*
X157448912Y-114632832D01*
X157133033Y-114570000D01*
X156810967Y-114570000D01*
X156495088Y-114632832D01*
X156197537Y-114756082D01*
X155929748Y-114935013D01*
X155702013Y-115162748D01*
X155523082Y-115430537D01*
X155399832Y-115728088D01*
X155337000Y-116043967D01*
X129199474Y-116043967D01*
X134893014Y-114300000D01*
X144145000Y-114300000D01*
X144169776Y-114297560D01*
X144193601Y-114290333D01*
X144215557Y-114278597D01*
X144234803Y-114262803D01*
X144250597Y-114243557D01*
X144262333Y-114221601D01*
X144269560Y-114197776D01*
X144272000Y-114173000D01*
X144272000Y-104456000D01*
X176207928Y-104456000D01*
X176207928Y-105856000D01*
X176220188Y-105980482D01*
X176256498Y-106100180D01*
X176315463Y-106210494D01*
X176394815Y-106307185D01*
X176491506Y-106386537D01*
X176601820Y-106445502D01*
X176721518Y-106481812D01*
X176846000Y-106494072D01*
X176959190Y-106494072D01*
X176913641Y-106512939D01*
X176694987Y-106659038D01*
X176509038Y-106844987D01*
X176362939Y-107063641D01*
X176262304Y-107306595D01*
X176211000Y-107564514D01*
X176211000Y-107827486D01*
X176262304Y-108085405D01*
X176362939Y-108328359D01*
X176509038Y-108547013D01*
X176694987Y-108732962D01*
X176913641Y-108879061D01*
X177156595Y-108979696D01*
X177414514Y-109031000D01*
X177677486Y-109031000D01*
X177935405Y-108979696D01*
X178178359Y-108879061D01*
X178397013Y-108732962D01*
X178582962Y-108547013D01*
X178729061Y-108328359D01*
X178829696Y-108085405D01*
X178881000Y-107827486D01*
X178881000Y-107564514D01*
X178829696Y-107306595D01*
X178729061Y-107063641D01*
X178582962Y-106844987D01*
X178397013Y-106659038D01*
X178178359Y-106512939D01*
X178132810Y-106494072D01*
X178246000Y-106494072D01*
X178370482Y-106481812D01*
X178490180Y-106445502D01*
X178600494Y-106386537D01*
X178697185Y-106307185D01*
X178776537Y-106210494D01*
X178835502Y-106100180D01*
X178871812Y-105980482D01*
X178884072Y-105856000D01*
X178884072Y-104456000D01*
X178871812Y-104331518D01*
X178835502Y-104211820D01*
X178776537Y-104101506D01*
X178697185Y-104004815D01*
X178600494Y-103925463D01*
X178490180Y-103866498D01*
X178370482Y-103830188D01*
X178246000Y-103817928D01*
X176846000Y-103817928D01*
X176721518Y-103830188D01*
X176601820Y-103866498D01*
X176491506Y-103925463D01*
X176394815Y-104004815D01*
X176315463Y-104101506D01*
X176256498Y-104211820D01*
X176220188Y-104331518D01*
X176207928Y-104456000D01*
X144272000Y-104456000D01*
X144272000Y-103618000D01*
X162337928Y-103618000D01*
X162350188Y-103742482D01*
X162386498Y-103862180D01*
X162445463Y-103972494D01*
X162524815Y-104069185D01*
X162621506Y-104148537D01*
X162731820Y-104207502D01*
X162851518Y-104243812D01*
X162976000Y-104256072D01*
X163290250Y-104253000D01*
X163449000Y-104094250D01*
X163449000Y-102870000D01*
X162499750Y-102870000D01*
X162341000Y-103028750D01*
X162337928Y-103618000D01*
X144272000Y-103618000D01*
X144272000Y-101868000D01*
X162337928Y-101868000D01*
X162341000Y-102457250D01*
X162499750Y-102616000D01*
X163449000Y-102616000D01*
X163449000Y-101391750D01*
X163290250Y-101233000D01*
X162976000Y-101229928D01*
X162851518Y-101242188D01*
X162731820Y-101278498D01*
X162621506Y-101337463D01*
X162524815Y-101416815D01*
X162445463Y-101513506D01*
X162386498Y-101623820D01*
X162350188Y-101743518D01*
X162337928Y-101868000D01*
X144272000Y-101868000D01*
X144272000Y-90170000D01*
X144269560Y-90145224D01*
X144262333Y-90121399D01*
X144250597Y-90099443D01*
X144236776Y-90082215D01*
X141442776Y-87161215D01*
X141423886Y-87144997D01*
X141402196Y-87132776D01*
X141378538Y-87125021D01*
X141351000Y-87122000D01*
X131020267Y-87122000D01*
X130240991Y-85329665D01*
X135725000Y-85329665D01*
X135725000Y-85612335D01*
X135780147Y-85889574D01*
X135888320Y-86150727D01*
X136045363Y-86385759D01*
X136245241Y-86585637D01*
X136480273Y-86742680D01*
X136741426Y-86850853D01*
X137018665Y-86906000D01*
X137301335Y-86906000D01*
X137578574Y-86850853D01*
X137839727Y-86742680D01*
X138074759Y-86585637D01*
X138274637Y-86385759D01*
X138431680Y-86150727D01*
X138539853Y-85889574D01*
X138595000Y-85612335D01*
X138595000Y-85329665D01*
X138539853Y-85052426D01*
X138431680Y-84791273D01*
X138351317Y-84671000D01*
X143341928Y-84671000D01*
X143341928Y-86271000D01*
X143354188Y-86395482D01*
X143390498Y-86515180D01*
X143449463Y-86625494D01*
X143528815Y-86722185D01*
X143625506Y-86801537D01*
X143735820Y-86860502D01*
X143855518Y-86896812D01*
X143980000Y-86909072D01*
X145580000Y-86909072D01*
X145704482Y-86896812D01*
X145824180Y-86860502D01*
X145934494Y-86801537D01*
X146031185Y-86722185D01*
X146110537Y-86625494D01*
X146169502Y-86515180D01*
X146205812Y-86395482D01*
X146218072Y-86271000D01*
X146218072Y-86231000D01*
X148421928Y-86231000D01*
X148421928Y-86271000D01*
X148434188Y-86395482D01*
X148470498Y-86515180D01*
X148529463Y-86625494D01*
X148608815Y-86722185D01*
X148705506Y-86801537D01*
X148815820Y-86860502D01*
X148935518Y-86896812D01*
X149060000Y-86909072D01*
X150660000Y-86909072D01*
X150784482Y-86896812D01*
X150904180Y-86860502D01*
X151014494Y-86801537D01*
X151111185Y-86722185D01*
X151190537Y-86625494D01*
X151249502Y-86515180D01*
X151285812Y-86395482D01*
X151298072Y-86271000D01*
X151298072Y-86231000D01*
X151831199Y-86231000D01*
X153360200Y-87760002D01*
X153383999Y-87789001D01*
X153499724Y-87883974D01*
X153631753Y-87954546D01*
X153775014Y-87998003D01*
X153886667Y-88009000D01*
X153886675Y-88009000D01*
X153924000Y-88012676D01*
X153961325Y-88009000D01*
X162614629Y-88009000D01*
X162558320Y-88093273D01*
X162450147Y-88354426D01*
X162395000Y-88631665D01*
X162395000Y-88914335D01*
X162450147Y-89191574D01*
X162558320Y-89452727D01*
X162715363Y-89687759D01*
X162915241Y-89887637D01*
X163150273Y-90044680D01*
X163411426Y-90152853D01*
X163688665Y-90208000D01*
X163971335Y-90208000D01*
X164248574Y-90152853D01*
X164509727Y-90044680D01*
X164744759Y-89887637D01*
X164944637Y-89687759D01*
X165101680Y-89452727D01*
X165209853Y-89191574D01*
X165265000Y-88914335D01*
X165265000Y-88631665D01*
X165209853Y-88354426D01*
X165101680Y-88093273D01*
X165045371Y-88009000D01*
X166055928Y-88009000D01*
X166055928Y-89573000D01*
X166068188Y-89697482D01*
X166104498Y-89817180D01*
X166163463Y-89927494D01*
X166242815Y-90024185D01*
X166339506Y-90103537D01*
X166449820Y-90162502D01*
X166569518Y-90198812D01*
X166587482Y-90200581D01*
X166474392Y-90293392D01*
X166295068Y-90511899D01*
X166161818Y-90761192D01*
X166079764Y-91031691D01*
X166052057Y-91313000D01*
X166079764Y-91594309D01*
X166161818Y-91864808D01*
X166295068Y-92114101D01*
X166474392Y-92332608D01*
X166692899Y-92511932D01*
X166825858Y-92583000D01*
X166692899Y-92654068D01*
X166474392Y-92833392D01*
X166295068Y-93051899D01*
X166161818Y-93301192D01*
X166079764Y-93571691D01*
X166052057Y-93853000D01*
X166079764Y-94134309D01*
X166161818Y-94404808D01*
X166198592Y-94473607D01*
X165096998Y-95575201D01*
X165068000Y-95598999D01*
X165044477Y-95627662D01*
X164944637Y-95478241D01*
X164744759Y-95278363D01*
X164509727Y-95121320D01*
X164248574Y-95013147D01*
X163971335Y-94958000D01*
X163688665Y-94958000D01*
X163411426Y-95013147D01*
X163150273Y-95121320D01*
X162915241Y-95278363D01*
X162715363Y-95478241D01*
X162558320Y-95713273D01*
X162450147Y-95974426D01*
X162395000Y-96251665D01*
X162395000Y-96534335D01*
X162450147Y-96811574D01*
X162558320Y-97072727D01*
X162715363Y-97307759D01*
X162915241Y-97507637D01*
X163150273Y-97664680D01*
X163411426Y-97772853D01*
X163688665Y-97828000D01*
X163971335Y-97828000D01*
X164248574Y-97772853D01*
X164509727Y-97664680D01*
X164744759Y-97507637D01*
X164848001Y-97404395D01*
X164848000Y-100737677D01*
X164844324Y-100775000D01*
X164848000Y-100812322D01*
X164848000Y-100812332D01*
X164858997Y-100923985D01*
X164896919Y-101049000D01*
X164902454Y-101067246D01*
X164973026Y-101199276D01*
X164998182Y-101229928D01*
X165067999Y-101315001D01*
X165085842Y-101329644D01*
X164886551Y-101436167D01*
X164732691Y-101562436D01*
X164706537Y-101513506D01*
X164627185Y-101416815D01*
X164530494Y-101337463D01*
X164420180Y-101278498D01*
X164300482Y-101242188D01*
X164176000Y-101229928D01*
X163861750Y-101233000D01*
X163703000Y-101391750D01*
X163703000Y-102616000D01*
X163723000Y-102616000D01*
X163723000Y-102870000D01*
X163703000Y-102870000D01*
X163703000Y-104094250D01*
X163861750Y-104253000D01*
X164176000Y-104256072D01*
X164300482Y-104243812D01*
X164420180Y-104207502D01*
X164530494Y-104148537D01*
X164627185Y-104069185D01*
X164706537Y-103972494D01*
X164732692Y-103923563D01*
X164886552Y-104049833D01*
X165101100Y-104164511D01*
X165333899Y-104235130D01*
X165576000Y-104258975D01*
X165818102Y-104235130D01*
X166050901Y-104164511D01*
X166265449Y-104049833D01*
X166453502Y-103895502D01*
X166576001Y-103746237D01*
X166698499Y-103895502D01*
X166886552Y-104049833D01*
X167101100Y-104164511D01*
X167333899Y-104235130D01*
X167576000Y-104258975D01*
X167818102Y-104235130D01*
X168050901Y-104164511D01*
X168265449Y-104049833D01*
X168453502Y-103895502D01*
X168607833Y-103707449D01*
X168722511Y-103492900D01*
X168793130Y-103260101D01*
X168811000Y-103078664D01*
X168811000Y-102407335D01*
X168793130Y-102225898D01*
X168722511Y-101993099D01*
X168607833Y-101778551D01*
X168453502Y-101590498D01*
X168265448Y-101436167D01*
X168050900Y-101321489D01*
X167818101Y-101250870D01*
X167576000Y-101227025D01*
X167333898Y-101250870D01*
X167199455Y-101291653D01*
X166368000Y-100460199D01*
X166368000Y-97286398D01*
X166389500Y-97317895D01*
X166591161Y-97515601D01*
X166827517Y-97670166D01*
X167089486Y-97775650D01*
X167367000Y-97828000D01*
X167767000Y-97828000D01*
X167767000Y-96520000D01*
X168021000Y-96520000D01*
X168021000Y-97828000D01*
X168421000Y-97828000D01*
X168698514Y-97775650D01*
X168960483Y-97670166D01*
X169196839Y-97515601D01*
X169398500Y-97317895D01*
X169557715Y-97084646D01*
X169668367Y-96824818D01*
X169685904Y-96742039D01*
X169563915Y-96520000D01*
X168021000Y-96520000D01*
X167767000Y-96520000D01*
X167747000Y-96520000D01*
X167747000Y-96266000D01*
X167767000Y-96266000D01*
X167767000Y-96246000D01*
X168021000Y-96246000D01*
X168021000Y-96266000D01*
X169563915Y-96266000D01*
X169685904Y-96043961D01*
X169668367Y-95961182D01*
X169557715Y-95701354D01*
X169398500Y-95468105D01*
X169196839Y-95270399D01*
X168967259Y-95120265D01*
X169095101Y-95051932D01*
X169313608Y-94872608D01*
X169492932Y-94654101D01*
X169626182Y-94404808D01*
X169708236Y-94134309D01*
X169735943Y-93853000D01*
X169708236Y-93571691D01*
X169626182Y-93301192D01*
X169492932Y-93051899D01*
X169313608Y-92833392D01*
X169095101Y-92654068D01*
X168962142Y-92583000D01*
X169095101Y-92511932D01*
X169313608Y-92332608D01*
X169492932Y-92114101D01*
X169626182Y-91864808D01*
X169708236Y-91594309D01*
X169735943Y-91313000D01*
X169708236Y-91031691D01*
X169626182Y-90761192D01*
X169492932Y-90511899D01*
X169313608Y-90293392D01*
X169200518Y-90200581D01*
X169218482Y-90198812D01*
X169338180Y-90162502D01*
X169448494Y-90103537D01*
X169545185Y-90024185D01*
X169624537Y-89927494D01*
X169683502Y-89817180D01*
X169719812Y-89697482D01*
X169732072Y-89573000D01*
X169732072Y-88009000D01*
X171135199Y-88009000D01*
X173818592Y-90692393D01*
X173781818Y-90761192D01*
X173699764Y-91031691D01*
X173672057Y-91313000D01*
X173699764Y-91594309D01*
X173781818Y-91864808D01*
X173915068Y-92114101D01*
X174094392Y-92332608D01*
X174312899Y-92511932D01*
X174445858Y-92583000D01*
X174312899Y-92654068D01*
X174094392Y-92833392D01*
X173915068Y-93051899D01*
X173781818Y-93301192D01*
X173699764Y-93571691D01*
X173699246Y-93576952D01*
X169160998Y-98115201D01*
X169132000Y-98138999D01*
X169108202Y-98167997D01*
X169108201Y-98167998D01*
X169037026Y-98254724D01*
X168966454Y-98386754D01*
X168954861Y-98424974D01*
X168922998Y-98530014D01*
X168914562Y-98615663D01*
X168908324Y-98679000D01*
X168912001Y-98716332D01*
X168912000Y-100261289D01*
X168868063Y-100305226D01*
X168754795Y-100474744D01*
X168676774Y-100663102D01*
X168637000Y-100863061D01*
X168637000Y-101066939D01*
X168676774Y-101266898D01*
X168754795Y-101455256D01*
X168868063Y-101624774D01*
X169012226Y-101768937D01*
X169181744Y-101882205D01*
X169370102Y-101960226D01*
X169570061Y-102000000D01*
X169773939Y-102000000D01*
X169973898Y-101960226D01*
X170162256Y-101882205D01*
X170331774Y-101768937D01*
X170475937Y-101624774D01*
X170589205Y-101455256D01*
X170667226Y-101266898D01*
X170707000Y-101066939D01*
X170707000Y-100863061D01*
X170667226Y-100663102D01*
X170589205Y-100474744D01*
X170475937Y-100305226D01*
X170432000Y-100261289D01*
X170432000Y-98993801D01*
X174352632Y-95073170D01*
X174445858Y-95123000D01*
X174312899Y-95194068D01*
X174094392Y-95373392D01*
X173915068Y-95591899D01*
X173781818Y-95841192D01*
X173699764Y-96111691D01*
X173672057Y-96393000D01*
X173699764Y-96674309D01*
X173781818Y-96944808D01*
X173915068Y-97194101D01*
X174094392Y-97412608D01*
X174312899Y-97591932D01*
X174562192Y-97725182D01*
X174832691Y-97807236D01*
X175043508Y-97828000D01*
X175984492Y-97828000D01*
X176195309Y-97807236D01*
X176465808Y-97725182D01*
X176715101Y-97591932D01*
X176933608Y-97412608D01*
X177112932Y-97194101D01*
X177246182Y-96944808D01*
X177328236Y-96674309D01*
X177355943Y-96393000D01*
X177328236Y-96111691D01*
X177246182Y-95841192D01*
X177112932Y-95591899D01*
X176933608Y-95373392D01*
X176715101Y-95194068D01*
X176582142Y-95123000D01*
X176715101Y-95051932D01*
X176933608Y-94872608D01*
X177112932Y-94654101D01*
X177246182Y-94404808D01*
X177328236Y-94134309D01*
X177355943Y-93853000D01*
X177328236Y-93571691D01*
X177246182Y-93301192D01*
X177112932Y-93051899D01*
X176933608Y-92833392D01*
X176715101Y-92654068D01*
X176582142Y-92583000D01*
X176715101Y-92511932D01*
X176933608Y-92332608D01*
X177112932Y-92114101D01*
X177134901Y-92073000D01*
X179771199Y-92073000D01*
X179961000Y-92262802D01*
X179961000Y-92729683D01*
X179930637Y-92684241D01*
X179730759Y-92484363D01*
X179495727Y-92327320D01*
X179234574Y-92219147D01*
X178957335Y-92164000D01*
X178674665Y-92164000D01*
X178397426Y-92219147D01*
X178136273Y-92327320D01*
X177901241Y-92484363D01*
X177701363Y-92684241D01*
X177544320Y-92919273D01*
X177436147Y-93180426D01*
X177381000Y-93457665D01*
X177381000Y-93740335D01*
X177436147Y-94017574D01*
X177544320Y-94278727D01*
X177701363Y-94513759D01*
X177901241Y-94713637D01*
X178136273Y-94870680D01*
X178397426Y-94978853D01*
X178674665Y-95034000D01*
X178957335Y-95034000D01*
X179234574Y-94978853D01*
X179495727Y-94870680D01*
X179730759Y-94713637D01*
X179930637Y-94513759D01*
X179961000Y-94468317D01*
X179961000Y-96031683D01*
X179930637Y-95986241D01*
X179730759Y-95786363D01*
X179495727Y-95629320D01*
X179234574Y-95521147D01*
X178957335Y-95466000D01*
X178674665Y-95466000D01*
X178397426Y-95521147D01*
X178136273Y-95629320D01*
X177901241Y-95786363D01*
X177701363Y-95986241D01*
X177544320Y-96221273D01*
X177436147Y-96482426D01*
X177381000Y-96759665D01*
X177381000Y-97042335D01*
X177436147Y-97319574D01*
X177544320Y-97580727D01*
X177701363Y-97815759D01*
X177901241Y-98015637D01*
X178136273Y-98172680D01*
X178397426Y-98280853D01*
X178674665Y-98336000D01*
X178945001Y-98336000D01*
X178945000Y-110302197D01*
X175136199Y-114111000D01*
X170920933Y-114111000D01*
X170824502Y-113993498D01*
X170675238Y-113871000D01*
X170824502Y-113748502D01*
X170978833Y-113560449D01*
X171093511Y-113345901D01*
X171164130Y-113113102D01*
X171187975Y-112871000D01*
X171164130Y-112628898D01*
X171093511Y-112396099D01*
X170978833Y-112181551D01*
X170852564Y-112027691D01*
X170901494Y-112001537D01*
X170998185Y-111922185D01*
X171077537Y-111825494D01*
X171136502Y-111715180D01*
X171172812Y-111595482D01*
X171185072Y-111471000D01*
X171182000Y-111156750D01*
X171023250Y-110998000D01*
X169799000Y-110998000D01*
X169799000Y-111018000D01*
X169545000Y-111018000D01*
X169545000Y-110998000D01*
X168320750Y-110998000D01*
X168162000Y-111156750D01*
X168158928Y-111471000D01*
X168171188Y-111595482D01*
X168207498Y-111715180D01*
X168266463Y-111825494D01*
X168345815Y-111922185D01*
X168442506Y-112001537D01*
X168491436Y-112027691D01*
X168423067Y-112111000D01*
X168176802Y-112111000D01*
X167638000Y-111572199D01*
X167638000Y-110304711D01*
X167671711Y-110271000D01*
X168158928Y-110271000D01*
X168162000Y-110585250D01*
X168320750Y-110744000D01*
X169545000Y-110744000D01*
X169545000Y-109794750D01*
X169799000Y-109794750D01*
X169799000Y-110744000D01*
X171023250Y-110744000D01*
X171182000Y-110585250D01*
X171185072Y-110271000D01*
X171172812Y-110146518D01*
X171136502Y-110026820D01*
X171077537Y-109916506D01*
X170998185Y-109819815D01*
X170901494Y-109740463D01*
X170791180Y-109681498D01*
X170671482Y-109645188D01*
X170547000Y-109632928D01*
X169957750Y-109636000D01*
X169799000Y-109794750D01*
X169545000Y-109794750D01*
X169386250Y-109636000D01*
X168797000Y-109632928D01*
X168672518Y-109645188D01*
X168552820Y-109681498D01*
X168442506Y-109740463D01*
X168345815Y-109819815D01*
X168266463Y-109916506D01*
X168207498Y-110026820D01*
X168171188Y-110146518D01*
X168158928Y-110271000D01*
X167671711Y-110271000D01*
X167681937Y-110260774D01*
X167795205Y-110091256D01*
X167873226Y-109902898D01*
X167913000Y-109702939D01*
X167913000Y-109499061D01*
X167873226Y-109299102D01*
X167795205Y-109110744D01*
X167681937Y-108941226D01*
X167537774Y-108797063D01*
X167368256Y-108683795D01*
X167179898Y-108605774D01*
X166979939Y-108566000D01*
X166776061Y-108566000D01*
X166576102Y-108605774D01*
X166387744Y-108683795D01*
X166218226Y-108797063D01*
X166074063Y-108941226D01*
X165960795Y-109110744D01*
X165882774Y-109299102D01*
X165843000Y-109499061D01*
X165843000Y-109702939D01*
X165882774Y-109902898D01*
X165960795Y-110091256D01*
X166074063Y-110260774D01*
X166118001Y-110304712D01*
X166118000Y-111849677D01*
X166114324Y-111887000D01*
X166118000Y-111924322D01*
X166118000Y-111924332D01*
X166128997Y-112035985D01*
X166155088Y-112121997D01*
X166172454Y-112179246D01*
X166243026Y-112311276D01*
X166282871Y-112359826D01*
X166337999Y-112427001D01*
X166367002Y-112450804D01*
X167298201Y-113382003D01*
X167321999Y-113411001D01*
X167350997Y-113434799D01*
X167437723Y-113505974D01*
X167539638Y-113560449D01*
X167569753Y-113576546D01*
X167713014Y-113620003D01*
X167824667Y-113631000D01*
X167824676Y-113631000D01*
X167861999Y-113634676D01*
X167899322Y-113631000D01*
X168423067Y-113631000D01*
X168519498Y-113748502D01*
X168668762Y-113871000D01*
X168519498Y-113993498D01*
X168365167Y-114181551D01*
X168250489Y-114396099D01*
X168179870Y-114628898D01*
X168156025Y-114871000D01*
X168179870Y-115113102D01*
X168250489Y-115345901D01*
X168365167Y-115560449D01*
X168519498Y-115748502D01*
X168668762Y-115871000D01*
X168519498Y-115993498D01*
X168365167Y-116181551D01*
X168250489Y-116396099D01*
X168179870Y-116628898D01*
X168156025Y-116871000D01*
X168179870Y-117113102D01*
X168250489Y-117345901D01*
X168365167Y-117560449D01*
X168519498Y-117748502D01*
X168668762Y-117871000D01*
X168519498Y-117993498D01*
X168365167Y-118181551D01*
X168250489Y-118396099D01*
X168179870Y-118628898D01*
X168156025Y-118871000D01*
X168179870Y-119113102D01*
X168250489Y-119345901D01*
X168365167Y-119560449D01*
X168519498Y-119748502D01*
X168668762Y-119871000D01*
X168519498Y-119993498D01*
X168365167Y-120181551D01*
X168250489Y-120396099D01*
X168179870Y-120628898D01*
X168156025Y-120871000D01*
X168179870Y-121113102D01*
X168250489Y-121345901D01*
X168365167Y-121560449D01*
X168519498Y-121748502D01*
X168707551Y-121902833D01*
X168922099Y-122017511D01*
X169154898Y-122088130D01*
X169336335Y-122106000D01*
X170007665Y-122106000D01*
X170189102Y-122088130D01*
X170421901Y-122017511D01*
X170636449Y-121902833D01*
X170824502Y-121748502D01*
X170978833Y-121560449D01*
X171093511Y-121345901D01*
X171164130Y-121113102D01*
X171187975Y-120871000D01*
X171164130Y-120628898D01*
X171093511Y-120396099D01*
X170978833Y-120181551D01*
X170824502Y-119993498D01*
X170675238Y-119871000D01*
X170824502Y-119748502D01*
X170978833Y-119560449D01*
X171093511Y-119345901D01*
X171164130Y-119113102D01*
X171187975Y-118871000D01*
X171164130Y-118628898D01*
X171093511Y-118396099D01*
X170978833Y-118181551D01*
X170824502Y-117993498D01*
X170675238Y-117871000D01*
X170731881Y-117824514D01*
X176211000Y-117824514D01*
X176211000Y-118087486D01*
X176262304Y-118345405D01*
X176362939Y-118588359D01*
X176509038Y-118807013D01*
X176694987Y-118992962D01*
X176913641Y-119139061D01*
X177002819Y-119176000D01*
X176913641Y-119212939D01*
X176694987Y-119359038D01*
X176509038Y-119544987D01*
X176362939Y-119763641D01*
X176262304Y-120006595D01*
X176211000Y-120264514D01*
X176211000Y-120527486D01*
X176262304Y-120785405D01*
X176362939Y-121028359D01*
X176509038Y-121247013D01*
X176694987Y-121432962D01*
X176913641Y-121579061D01*
X177156595Y-121679696D01*
X177414514Y-121731000D01*
X177677486Y-121731000D01*
X177935405Y-121679696D01*
X178178359Y-121579061D01*
X178397013Y-121432962D01*
X178582962Y-121247013D01*
X178729061Y-121028359D01*
X178829696Y-120785405D01*
X178881000Y-120527486D01*
X178881000Y-120264514D01*
X178829696Y-120006595D01*
X178729061Y-119763641D01*
X178582962Y-119544987D01*
X178397013Y-119359038D01*
X178178359Y-119212939D01*
X178089181Y-119176000D01*
X178178359Y-119139061D01*
X178397013Y-118992962D01*
X178582962Y-118807013D01*
X178729061Y-118588359D01*
X178829696Y-118345405D01*
X178881000Y-118087486D01*
X178881000Y-117824514D01*
X183831000Y-117824514D01*
X183831000Y-118087486D01*
X183882304Y-118345405D01*
X183982939Y-118588359D01*
X184129038Y-118807013D01*
X184314987Y-118992962D01*
X184533641Y-119139061D01*
X184622819Y-119176000D01*
X184533641Y-119212939D01*
X184314987Y-119359038D01*
X184129038Y-119544987D01*
X183982939Y-119763641D01*
X183882304Y-120006595D01*
X183831000Y-120264514D01*
X183831000Y-120527486D01*
X183882304Y-120785405D01*
X183982939Y-121028359D01*
X184129038Y-121247013D01*
X184314987Y-121432962D01*
X184533641Y-121579061D01*
X184776595Y-121679696D01*
X185034514Y-121731000D01*
X185297486Y-121731000D01*
X185555405Y-121679696D01*
X185798359Y-121579061D01*
X186017013Y-121432962D01*
X186202962Y-121247013D01*
X186349061Y-121028359D01*
X186449696Y-120785405D01*
X186501000Y-120527486D01*
X186501000Y-120264514D01*
X186449696Y-120006595D01*
X186349061Y-119763641D01*
X186202962Y-119544987D01*
X186017013Y-119359038D01*
X185798359Y-119212939D01*
X185709181Y-119176000D01*
X185798359Y-119139061D01*
X186017013Y-118992962D01*
X186202962Y-118807013D01*
X186349061Y-118588359D01*
X186449696Y-118345405D01*
X186501000Y-118087486D01*
X186501000Y-117824514D01*
X186449696Y-117566595D01*
X186349061Y-117323641D01*
X186202962Y-117104987D01*
X186017013Y-116919038D01*
X185798359Y-116772939D01*
X185555405Y-116672304D01*
X185297486Y-116621000D01*
X185034514Y-116621000D01*
X184776595Y-116672304D01*
X184533641Y-116772939D01*
X184314987Y-116919038D01*
X184129038Y-117104987D01*
X183982939Y-117323641D01*
X183882304Y-117566595D01*
X183831000Y-117824514D01*
X178881000Y-117824514D01*
X178829696Y-117566595D01*
X178729061Y-117323641D01*
X178582962Y-117104987D01*
X178397013Y-116919038D01*
X178178359Y-116772939D01*
X177935405Y-116672304D01*
X177677486Y-116621000D01*
X177414514Y-116621000D01*
X177156595Y-116672304D01*
X176913641Y-116772939D01*
X176694987Y-116919038D01*
X176509038Y-117104987D01*
X176362939Y-117323641D01*
X176262304Y-117566595D01*
X176211000Y-117824514D01*
X170731881Y-117824514D01*
X170824502Y-117748502D01*
X170920933Y-117631000D01*
X174810678Y-117631000D01*
X174848000Y-117634676D01*
X174885322Y-117631000D01*
X174885333Y-117631000D01*
X174996986Y-117620003D01*
X175140247Y-117576546D01*
X175272276Y-117505974D01*
X175388001Y-117411001D01*
X175411804Y-117381997D01*
X181232003Y-111561799D01*
X181261001Y-111538001D01*
X181355974Y-111422276D01*
X181426546Y-111290247D01*
X181470003Y-111146986D01*
X181481000Y-111035333D01*
X181481000Y-111035324D01*
X181484676Y-110998001D01*
X181481000Y-110960678D01*
X181481000Y-105024514D01*
X183831000Y-105024514D01*
X183831000Y-105287486D01*
X183882304Y-105545405D01*
X183982939Y-105788359D01*
X184129038Y-106007013D01*
X184314987Y-106192962D01*
X184533641Y-106339061D01*
X184743530Y-106426000D01*
X184533641Y-106512939D01*
X184314987Y-106659038D01*
X184129038Y-106844987D01*
X183982939Y-107063641D01*
X183882304Y-107306595D01*
X183831000Y-107564514D01*
X183831000Y-107827486D01*
X183882304Y-108085405D01*
X183982939Y-108328359D01*
X184129038Y-108547013D01*
X184314987Y-108732962D01*
X184533641Y-108879061D01*
X184776595Y-108979696D01*
X185034514Y-109031000D01*
X185297486Y-109031000D01*
X185555405Y-108979696D01*
X185798359Y-108879061D01*
X186017013Y-108732962D01*
X186202962Y-108547013D01*
X186349061Y-108328359D01*
X186449696Y-108085405D01*
X186501000Y-107827486D01*
X186501000Y-107564514D01*
X186449696Y-107306595D01*
X186349061Y-107063641D01*
X186202962Y-106844987D01*
X186017013Y-106659038D01*
X185798359Y-106512939D01*
X185588470Y-106426000D01*
X185798359Y-106339061D01*
X185906206Y-106267000D01*
X188984025Y-106267000D01*
X189007870Y-106509102D01*
X189078489Y-106741901D01*
X189193167Y-106956449D01*
X189347498Y-107144502D01*
X189535551Y-107298833D01*
X189750099Y-107413511D01*
X189982898Y-107484130D01*
X190164335Y-107502000D01*
X190835665Y-107502000D01*
X191017102Y-107484130D01*
X191249901Y-107413511D01*
X191464449Y-107298833D01*
X191652502Y-107144502D01*
X191806833Y-106956449D01*
X191921511Y-106741901D01*
X191992130Y-106509102D01*
X192015975Y-106267000D01*
X191992130Y-106024898D01*
X191921511Y-105792099D01*
X191806833Y-105577551D01*
X191652502Y-105389498D01*
X191613889Y-105357809D01*
X191618387Y-105355405D01*
X191752962Y-105244962D01*
X191863405Y-105110387D01*
X191945472Y-104956851D01*
X191996008Y-104790255D01*
X192013072Y-104617001D01*
X192013072Y-103916999D01*
X191996008Y-103743745D01*
X191945472Y-103577149D01*
X191863405Y-103423613D01*
X191752962Y-103289038D01*
X191618387Y-103178595D01*
X191464851Y-103096528D01*
X191298255Y-103045992D01*
X191125001Y-103028928D01*
X189874999Y-103028928D01*
X189701745Y-103045992D01*
X189535149Y-103096528D01*
X189381613Y-103178595D01*
X189247038Y-103289038D01*
X189136595Y-103423613D01*
X189054528Y-103577149D01*
X189003992Y-103743745D01*
X188986928Y-103916999D01*
X188986928Y-104617001D01*
X189003992Y-104790255D01*
X189054528Y-104956851D01*
X189136595Y-105110387D01*
X189247038Y-105244962D01*
X189381613Y-105355405D01*
X189386111Y-105357809D01*
X189347498Y-105389498D01*
X189193167Y-105577551D01*
X189078489Y-105792099D01*
X189007870Y-106024898D01*
X188984025Y-106267000D01*
X185906206Y-106267000D01*
X186017013Y-106192962D01*
X186202962Y-106007013D01*
X186349061Y-105788359D01*
X186449696Y-105545405D01*
X186501000Y-105287486D01*
X186501000Y-105024514D01*
X186449696Y-104766595D01*
X186349061Y-104523641D01*
X186202962Y-104304987D01*
X186017013Y-104119038D01*
X185798359Y-103972939D01*
X185555405Y-103872304D01*
X185297486Y-103821000D01*
X185034514Y-103821000D01*
X184776595Y-103872304D01*
X184533641Y-103972939D01*
X184314987Y-104119038D01*
X184129038Y-104304987D01*
X183982939Y-104523641D01*
X183882304Y-104766595D01*
X183831000Y-105024514D01*
X181481000Y-105024514D01*
X181481000Y-96759665D01*
X185001000Y-96759665D01*
X185001000Y-97042335D01*
X185056147Y-97319574D01*
X185164320Y-97580727D01*
X185321363Y-97815759D01*
X185521241Y-98015637D01*
X185756273Y-98172680D01*
X186017426Y-98280853D01*
X186294665Y-98336000D01*
X186577335Y-98336000D01*
X186854574Y-98280853D01*
X187115727Y-98172680D01*
X187350759Y-98015637D01*
X187550637Y-97815759D01*
X187707680Y-97580727D01*
X187815853Y-97319574D01*
X187871000Y-97042335D01*
X187871000Y-96759665D01*
X187815853Y-96482426D01*
X187707680Y-96221273D01*
X187550637Y-95986241D01*
X187350759Y-95786363D01*
X187115727Y-95629320D01*
X186854574Y-95521147D01*
X186577335Y-95466000D01*
X186294665Y-95466000D01*
X186017426Y-95521147D01*
X185756273Y-95629320D01*
X185521241Y-95786363D01*
X185321363Y-95986241D01*
X185164320Y-96221273D01*
X185056147Y-96482426D01*
X185001000Y-96759665D01*
X181481000Y-96759665D01*
X181481000Y-91985333D01*
X181484677Y-91948000D01*
X181470003Y-91799014D01*
X181426546Y-91655753D01*
X181355974Y-91523724D01*
X181284799Y-91436997D01*
X181261001Y-91407999D01*
X181232004Y-91384202D01*
X180649803Y-90802002D01*
X180626001Y-90772999D01*
X180510276Y-90678026D01*
X180378247Y-90607454D01*
X180234986Y-90563997D01*
X180123333Y-90553000D01*
X180123322Y-90553000D01*
X180086000Y-90549324D01*
X180048678Y-90553000D01*
X177134901Y-90553000D01*
X177112932Y-90511899D01*
X176933608Y-90293392D01*
X176715101Y-90114068D01*
X176582142Y-90043000D01*
X176715101Y-89971932D01*
X176933608Y-89792608D01*
X177112932Y-89574101D01*
X177246182Y-89324808D01*
X177328236Y-89054309D01*
X177355943Y-88773000D01*
X177328236Y-88491691D01*
X177246182Y-88221192D01*
X177112932Y-87971899D01*
X176933608Y-87753392D01*
X176715101Y-87574068D01*
X176465808Y-87440818D01*
X176195309Y-87358764D01*
X175984492Y-87338000D01*
X175043508Y-87338000D01*
X174832691Y-87358764D01*
X174562192Y-87440818D01*
X174312899Y-87574068D01*
X174094392Y-87753392D01*
X173915068Y-87971899D01*
X173781818Y-88221192D01*
X173715527Y-88439726D01*
X172073308Y-86797507D01*
X180189669Y-86797507D01*
X180228761Y-87023404D01*
X180311172Y-87237334D01*
X180433736Y-87431076D01*
X180591742Y-87597184D01*
X180779118Y-87729275D01*
X180988663Y-87822272D01*
X181050190Y-87830964D01*
X181229000Y-87705163D01*
X181229000Y-86614000D01*
X180349402Y-86614000D01*
X180189669Y-86797507D01*
X172073308Y-86797507D01*
X172013804Y-86738003D01*
X171990001Y-86708999D01*
X171874276Y-86614026D01*
X171742247Y-86543454D01*
X171598986Y-86499997D01*
X171487333Y-86489000D01*
X171487322Y-86489000D01*
X171450000Y-86485324D01*
X171412678Y-86489000D01*
X154238802Y-86489000D01*
X153926295Y-86176493D01*
X180189669Y-86176493D01*
X180349402Y-86360000D01*
X181229000Y-86360000D01*
X181229000Y-85268837D01*
X181050190Y-85143036D01*
X180988663Y-85151728D01*
X180779118Y-85244725D01*
X180591742Y-85376816D01*
X180433736Y-85542924D01*
X180311172Y-85736666D01*
X180228761Y-85950596D01*
X180189669Y-86176493D01*
X153926295Y-86176493D01*
X152709804Y-84960003D01*
X152686001Y-84930999D01*
X152570276Y-84836026D01*
X152438247Y-84765454D01*
X152294986Y-84721997D01*
X152183333Y-84711000D01*
X152183322Y-84711000D01*
X152146000Y-84707324D01*
X152108678Y-84711000D01*
X151298072Y-84711000D01*
X151298072Y-84671000D01*
X151285812Y-84546518D01*
X151249502Y-84426820D01*
X151190537Y-84316506D01*
X151111185Y-84219815D01*
X151014494Y-84140463D01*
X150904180Y-84081498D01*
X150784482Y-84045188D01*
X150660000Y-84032928D01*
X149060000Y-84032928D01*
X148935518Y-84045188D01*
X148815820Y-84081498D01*
X148705506Y-84140463D01*
X148608815Y-84219815D01*
X148529463Y-84316506D01*
X148470498Y-84426820D01*
X148434188Y-84546518D01*
X148421928Y-84671000D01*
X148421928Y-84711000D01*
X146218072Y-84711000D01*
X146218072Y-84671000D01*
X146205812Y-84546518D01*
X146169502Y-84426820D01*
X146110537Y-84316506D01*
X146031185Y-84219815D01*
X145934494Y-84140463D01*
X145824180Y-84081498D01*
X145704482Y-84045188D01*
X145580000Y-84032928D01*
X143980000Y-84032928D01*
X143855518Y-84045188D01*
X143735820Y-84081498D01*
X143625506Y-84140463D01*
X143528815Y-84219815D01*
X143449463Y-84316506D01*
X143390498Y-84426820D01*
X143354188Y-84546518D01*
X143341928Y-84671000D01*
X138351317Y-84671000D01*
X138274637Y-84556241D01*
X138074759Y-84356363D01*
X137839727Y-84199320D01*
X137578574Y-84091147D01*
X137301335Y-84036000D01*
X137018665Y-84036000D01*
X136741426Y-84091147D01*
X136480273Y-84199320D01*
X136245241Y-84356363D01*
X136045363Y-84556241D01*
X135888320Y-84791273D01*
X135780147Y-85052426D01*
X135725000Y-85329665D01*
X130240991Y-85329665D01*
X129783468Y-84277362D01*
X129771351Y-84255613D01*
X129755224Y-84236646D01*
X129735706Y-84221190D01*
X129713549Y-84209838D01*
X129689602Y-84203027D01*
X129668477Y-84201009D01*
X118796113Y-84074586D01*
X118636354Y-83923702D01*
X164366903Y-83923702D01*
X164438486Y-84167671D01*
X164693996Y-84288571D01*
X164968184Y-84357300D01*
X165250512Y-84371217D01*
X165530130Y-84329787D01*
X165796292Y-84234603D01*
X165921514Y-84167671D01*
X165993097Y-83923702D01*
X165180000Y-83110605D01*
X164366903Y-83923702D01*
X118636354Y-83923702D01*
X116586000Y-81987257D01*
X116586000Y-80682508D01*
X116929000Y-80682508D01*
X116929000Y-81623491D01*
X116949764Y-81834308D01*
X117031818Y-82104807D01*
X117165068Y-82354100D01*
X117344392Y-82572607D01*
X117562899Y-82751932D01*
X117812192Y-82885182D01*
X118082691Y-82967236D01*
X118364000Y-82994943D01*
X118645308Y-82967236D01*
X118915807Y-82885182D01*
X119165100Y-82751932D01*
X119383607Y-82572608D01*
X119562932Y-82354101D01*
X119634000Y-82221142D01*
X119705068Y-82354100D01*
X119884392Y-82572607D01*
X120102899Y-82751932D01*
X120352192Y-82885182D01*
X120622691Y-82967236D01*
X120904000Y-82994943D01*
X121185308Y-82967236D01*
X121455807Y-82885182D01*
X121705100Y-82751932D01*
X121923607Y-82572608D01*
X122016419Y-82459517D01*
X122018188Y-82477482D01*
X122054498Y-82597180D01*
X122113463Y-82707494D01*
X122192815Y-82804185D01*
X122289506Y-82883537D01*
X122399820Y-82942502D01*
X122519518Y-82978812D01*
X122644000Y-82991072D01*
X124244000Y-82991072D01*
X124368482Y-82978812D01*
X124488180Y-82942502D01*
X124598494Y-82883537D01*
X124695185Y-82804185D01*
X124774537Y-82707494D01*
X124833502Y-82597180D01*
X124869812Y-82477482D01*
X124882072Y-82353000D01*
X124882072Y-81773665D01*
X135725000Y-81773665D01*
X135725000Y-82056335D01*
X135780147Y-82333574D01*
X135888320Y-82594727D01*
X136045363Y-82829759D01*
X136245241Y-83029637D01*
X136480273Y-83186680D01*
X136741426Y-83294853D01*
X137018665Y-83350000D01*
X137301335Y-83350000D01*
X137578574Y-83294853D01*
X137839727Y-83186680D01*
X138074759Y-83029637D01*
X138274637Y-82829759D01*
X138431680Y-82594727D01*
X138539853Y-82333574D01*
X138595000Y-82056335D01*
X138595000Y-81773665D01*
X143345000Y-81773665D01*
X143345000Y-82056335D01*
X143400147Y-82333574D01*
X143508320Y-82594727D01*
X143665363Y-82829759D01*
X143865241Y-83029637D01*
X144100273Y-83186680D01*
X144361426Y-83294853D01*
X144638665Y-83350000D01*
X144921335Y-83350000D01*
X145198574Y-83294853D01*
X145459727Y-83186680D01*
X145694759Y-83029637D01*
X145722884Y-83001512D01*
X163739783Y-83001512D01*
X163781213Y-83281130D01*
X163876397Y-83547292D01*
X163943329Y-83672514D01*
X164187298Y-83744097D01*
X165000395Y-82931000D01*
X165359605Y-82931000D01*
X166172702Y-83744097D01*
X166416671Y-83672514D01*
X166537571Y-83417004D01*
X166606300Y-83142816D01*
X166620217Y-82860488D01*
X166578787Y-82580870D01*
X166483603Y-82314708D01*
X166416671Y-82189486D01*
X166217340Y-82131000D01*
X168741928Y-82131000D01*
X168741928Y-83731000D01*
X168754188Y-83855482D01*
X168790498Y-83975180D01*
X168849463Y-84085494D01*
X168928815Y-84182185D01*
X169025506Y-84261537D01*
X169135820Y-84320502D01*
X169255518Y-84356812D01*
X169380000Y-84369072D01*
X170980000Y-84369072D01*
X171104482Y-84356812D01*
X171224180Y-84320502D01*
X171334494Y-84261537D01*
X171431185Y-84182185D01*
X171510537Y-84085494D01*
X171569502Y-83975180D01*
X171605812Y-83855482D01*
X171618072Y-83731000D01*
X171618072Y-82131000D01*
X171605812Y-82006518D01*
X171569502Y-81886820D01*
X171510537Y-81776506D01*
X171431185Y-81679815D01*
X171334494Y-81600463D01*
X171224180Y-81541498D01*
X171104482Y-81505188D01*
X170980000Y-81492928D01*
X169380000Y-81492928D01*
X169255518Y-81505188D01*
X169135820Y-81541498D01*
X169025506Y-81600463D01*
X168928815Y-81679815D01*
X168849463Y-81776506D01*
X168790498Y-81886820D01*
X168754188Y-82006518D01*
X168741928Y-82131000D01*
X166217340Y-82131000D01*
X166172702Y-82117903D01*
X165359605Y-82931000D01*
X165000395Y-82931000D01*
X164187298Y-82117903D01*
X163943329Y-82189486D01*
X163822429Y-82444996D01*
X163753700Y-82719184D01*
X163739783Y-83001512D01*
X145722884Y-83001512D01*
X145894637Y-82829759D01*
X146051680Y-82594727D01*
X146159853Y-82333574D01*
X146215000Y-82056335D01*
X146215000Y-81773665D01*
X146159853Y-81496426D01*
X146146299Y-81463702D01*
X149046903Y-81463702D01*
X149118486Y-81707671D01*
X149373996Y-81828571D01*
X149648184Y-81897300D01*
X149930512Y-81911217D01*
X150210130Y-81869787D01*
X150476292Y-81774603D01*
X150601514Y-81707671D01*
X150673097Y-81463702D01*
X149860000Y-80650605D01*
X149046903Y-81463702D01*
X146146299Y-81463702D01*
X146051680Y-81235273D01*
X145894637Y-81000241D01*
X145694759Y-80800363D01*
X145459727Y-80643320D01*
X145213941Y-80541512D01*
X148419783Y-80541512D01*
X148461213Y-80821130D01*
X148556397Y-81087292D01*
X148623329Y-81212514D01*
X148867298Y-81284097D01*
X149680395Y-80471000D01*
X150039605Y-80471000D01*
X150852702Y-81284097D01*
X151096671Y-81212514D01*
X151217571Y-80957004D01*
X151286300Y-80682816D01*
X151295131Y-80503665D01*
X153251000Y-80503665D01*
X153251000Y-80786335D01*
X153306147Y-81063574D01*
X153414320Y-81324727D01*
X153571363Y-81559759D01*
X153771241Y-81759637D01*
X154006273Y-81916680D01*
X154267426Y-82024853D01*
X154544665Y-82080000D01*
X154827335Y-82080000D01*
X155104574Y-82024853D01*
X155365727Y-81916680D01*
X155600759Y-81759637D01*
X155800637Y-81559759D01*
X155957680Y-81324727D01*
X156065853Y-81063574D01*
X156121000Y-80786335D01*
X156121000Y-80503665D01*
X160871000Y-80503665D01*
X160871000Y-80786335D01*
X160926147Y-81063574D01*
X161034320Y-81324727D01*
X161191363Y-81559759D01*
X161391241Y-81759637D01*
X161626273Y-81916680D01*
X161887426Y-82024853D01*
X162164665Y-82080000D01*
X162447335Y-82080000D01*
X162724574Y-82024853D01*
X162933536Y-81938298D01*
X164366903Y-81938298D01*
X165180000Y-82751395D01*
X165993097Y-81938298D01*
X165921514Y-81694329D01*
X165666004Y-81573429D01*
X165391816Y-81504700D01*
X165109488Y-81490783D01*
X164829870Y-81532213D01*
X164563708Y-81627397D01*
X164438486Y-81694329D01*
X164366903Y-81938298D01*
X162933536Y-81938298D01*
X162985727Y-81916680D01*
X163220759Y-81759637D01*
X163420637Y-81559759D01*
X163577680Y-81324727D01*
X163685853Y-81063574D01*
X163696178Y-81011665D01*
X174079000Y-81011665D01*
X174079000Y-81294335D01*
X174134147Y-81571574D01*
X174242320Y-81832727D01*
X174399363Y-82067759D01*
X174599241Y-82267637D01*
X174834273Y-82424680D01*
X175095426Y-82532853D01*
X175372665Y-82588000D01*
X175655335Y-82588000D01*
X175932574Y-82532853D01*
X176193727Y-82424680D01*
X176428759Y-82267637D01*
X176628637Y-82067759D01*
X176785680Y-81832727D01*
X176893853Y-81571574D01*
X176949000Y-81294335D01*
X176949000Y-81011665D01*
X181699000Y-81011665D01*
X181699000Y-81294335D01*
X181754147Y-81571574D01*
X181862320Y-81832727D01*
X182019363Y-82067759D01*
X182219241Y-82267637D01*
X182454273Y-82424680D01*
X182715426Y-82532853D01*
X182992665Y-82588000D01*
X183275335Y-82588000D01*
X183552574Y-82532853D01*
X183813727Y-82424680D01*
X184048759Y-82267637D01*
X184248637Y-82067759D01*
X184405680Y-81832727D01*
X184513853Y-81571574D01*
X184569000Y-81294335D01*
X184569000Y-81011665D01*
X184513853Y-80734426D01*
X184405680Y-80473273D01*
X184248637Y-80238241D01*
X184048759Y-80038363D01*
X183813727Y-79881320D01*
X183552574Y-79773147D01*
X183275335Y-79718000D01*
X182992665Y-79718000D01*
X182715426Y-79773147D01*
X182454273Y-79881320D01*
X182219241Y-80038363D01*
X182019363Y-80238241D01*
X181862320Y-80473273D01*
X181754147Y-80734426D01*
X181699000Y-81011665D01*
X176949000Y-81011665D01*
X176893853Y-80734426D01*
X176785680Y-80473273D01*
X176628637Y-80238241D01*
X176428759Y-80038363D01*
X176193727Y-79881320D01*
X175932574Y-79773147D01*
X175655335Y-79718000D01*
X175372665Y-79718000D01*
X175095426Y-79773147D01*
X174834273Y-79881320D01*
X174599241Y-80038363D01*
X174399363Y-80238241D01*
X174242320Y-80473273D01*
X174134147Y-80734426D01*
X174079000Y-81011665D01*
X163696178Y-81011665D01*
X163741000Y-80786335D01*
X163741000Y-80503665D01*
X163685853Y-80226426D01*
X163577680Y-79965273D01*
X163420637Y-79730241D01*
X163220759Y-79530363D01*
X162985727Y-79373320D01*
X162724574Y-79265147D01*
X162447335Y-79210000D01*
X162164665Y-79210000D01*
X161887426Y-79265147D01*
X161626273Y-79373320D01*
X161391241Y-79530363D01*
X161191363Y-79730241D01*
X161034320Y-79965273D01*
X160926147Y-80226426D01*
X160871000Y-80503665D01*
X156121000Y-80503665D01*
X156065853Y-80226426D01*
X155957680Y-79965273D01*
X155800637Y-79730241D01*
X155600759Y-79530363D01*
X155365727Y-79373320D01*
X155104574Y-79265147D01*
X154827335Y-79210000D01*
X154544665Y-79210000D01*
X154267426Y-79265147D01*
X154006273Y-79373320D01*
X153771241Y-79530363D01*
X153571363Y-79730241D01*
X153414320Y-79965273D01*
X153306147Y-80226426D01*
X153251000Y-80503665D01*
X151295131Y-80503665D01*
X151300217Y-80400488D01*
X151258787Y-80120870D01*
X151163603Y-79854708D01*
X151096671Y-79729486D01*
X150852702Y-79657903D01*
X150039605Y-80471000D01*
X149680395Y-80471000D01*
X148867298Y-79657903D01*
X148623329Y-79729486D01*
X148502429Y-79984996D01*
X148433700Y-80259184D01*
X148419783Y-80541512D01*
X145213941Y-80541512D01*
X145198574Y-80535147D01*
X144921335Y-80480000D01*
X144638665Y-80480000D01*
X144361426Y-80535147D01*
X144100273Y-80643320D01*
X143865241Y-80800363D01*
X143665363Y-81000241D01*
X143508320Y-81235273D01*
X143400147Y-81496426D01*
X143345000Y-81773665D01*
X138595000Y-81773665D01*
X138539853Y-81496426D01*
X138431680Y-81235273D01*
X138274637Y-81000241D01*
X138074759Y-80800363D01*
X137839727Y-80643320D01*
X137578574Y-80535147D01*
X137301335Y-80480000D01*
X137018665Y-80480000D01*
X136741426Y-80535147D01*
X136480273Y-80643320D01*
X136245241Y-80800363D01*
X136045363Y-81000241D01*
X135888320Y-81235273D01*
X135780147Y-81496426D01*
X135725000Y-81773665D01*
X124882072Y-81773665D01*
X124882072Y-79953000D01*
X124869812Y-79828518D01*
X124833502Y-79708820D01*
X124774537Y-79598506D01*
X124695185Y-79501815D01*
X124598494Y-79422463D01*
X124488180Y-79363498D01*
X124368482Y-79327188D01*
X124244000Y-79314928D01*
X122644000Y-79314928D01*
X122519518Y-79327188D01*
X122399820Y-79363498D01*
X122289506Y-79422463D01*
X122192815Y-79501815D01*
X122113463Y-79598506D01*
X122054498Y-79708820D01*
X122018188Y-79828518D01*
X122016419Y-79846482D01*
X121923608Y-79733392D01*
X121705101Y-79554068D01*
X121455808Y-79420818D01*
X121185309Y-79338764D01*
X120904000Y-79311057D01*
X120622692Y-79338764D01*
X120352193Y-79420818D01*
X120102900Y-79554068D01*
X119884393Y-79733392D01*
X119705068Y-79951899D01*
X119634000Y-80084858D01*
X119562932Y-79951899D01*
X119383608Y-79733392D01*
X119165101Y-79554068D01*
X118915808Y-79420818D01*
X118645309Y-79338764D01*
X118364000Y-79311057D01*
X118082692Y-79338764D01*
X117812193Y-79420818D01*
X117562900Y-79554068D01*
X117344393Y-79733392D01*
X117165068Y-79951899D01*
X117031818Y-80201192D01*
X116949764Y-80471691D01*
X116929000Y-80682508D01*
X116586000Y-80682508D01*
X116586000Y-78994212D01*
X149664227Y-79049343D01*
%TA.AperFunction,Conductor*%
D37*
G36*
X149664227Y-79049343D02*
G01*
X149509870Y-79072213D01*
X149243708Y-79167397D01*
X149118486Y-79234329D01*
X149046903Y-79478298D01*
X149860000Y-80291395D01*
X150673097Y-79478298D01*
X150601514Y-79234329D01*
X150346004Y-79113429D01*
X150093189Y-79050057D01*
X192532000Y-79120789D01*
X192532000Y-86329196D01*
X191160315Y-84957512D01*
X191168537Y-84947494D01*
X191227502Y-84837180D01*
X191263812Y-84717482D01*
X191276072Y-84593000D01*
X191276072Y-82793000D01*
X191263812Y-82668518D01*
X191227502Y-82548820D01*
X191168537Y-82438506D01*
X191089185Y-82341815D01*
X190992494Y-82262463D01*
X190882180Y-82203498D01*
X190863873Y-82197944D01*
X190930312Y-82131505D01*
X191098299Y-81880095D01*
X191214011Y-81600743D01*
X191273000Y-81304184D01*
X191273000Y-81001816D01*
X191214011Y-80705257D01*
X191098299Y-80425905D01*
X190930312Y-80174495D01*
X190716505Y-79960688D01*
X190465095Y-79792701D01*
X190185743Y-79676989D01*
X189889184Y-79618000D01*
X189586816Y-79618000D01*
X189290257Y-79676989D01*
X189010905Y-79792701D01*
X188759495Y-79960688D01*
X188545688Y-80174495D01*
X188377701Y-80425905D01*
X188261989Y-80705257D01*
X188203000Y-81001816D01*
X188203000Y-81304184D01*
X188261989Y-81600743D01*
X188377701Y-81880095D01*
X188545688Y-82131505D01*
X188612127Y-82197944D01*
X188593820Y-82203498D01*
X188483506Y-82262463D01*
X188386815Y-82341815D01*
X188307463Y-82438506D01*
X188248498Y-82548820D01*
X188212188Y-82668518D01*
X188199928Y-82793000D01*
X188199928Y-84593000D01*
X188205739Y-84651999D01*
X186691801Y-84651999D01*
X186237803Y-84198002D01*
X186214001Y-84168999D01*
X186098276Y-84074026D01*
X185966247Y-84003454D01*
X185822986Y-83959997D01*
X185711333Y-83949000D01*
X185711322Y-83949000D01*
X185674000Y-83945324D01*
X185636678Y-83949000D01*
X183441322Y-83949000D01*
X183403999Y-83945324D01*
X183366676Y-83949000D01*
X183366667Y-83949000D01*
X183255014Y-83959997D01*
X183111753Y-84003454D01*
X182979723Y-84074026D01*
X182898770Y-84140463D01*
X182863999Y-84168999D01*
X182840201Y-84197998D01*
X182115002Y-84923197D01*
X182085999Y-84946999D01*
X182052578Y-84987723D01*
X181991026Y-85062724D01*
X181948098Y-85143036D01*
X181920454Y-85194754D01*
X181908569Y-85233935D01*
X181723337Y-85151728D01*
X181661810Y-85143036D01*
X181483000Y-85268837D01*
X181483000Y-86033891D01*
X181482785Y-86034600D01*
X181466000Y-86205021D01*
X181466000Y-86768978D01*
X181482785Y-86939399D01*
X181483000Y-86940108D01*
X181483000Y-87705163D01*
X181661810Y-87830964D01*
X181723337Y-87822272D01*
X181932882Y-87729275D01*
X181991331Y-87688071D01*
X182179940Y-87788885D01*
X182398600Y-87855215D01*
X182626000Y-87877612D01*
X182853399Y-87855215D01*
X183062098Y-87791907D01*
X183126820Y-87826502D01*
X183246518Y-87862812D01*
X183371000Y-87875072D01*
X184421000Y-87875072D01*
X184545482Y-87862812D01*
X184665180Y-87826502D01*
X184775494Y-87767537D01*
X184872185Y-87688185D01*
X184951537Y-87591494D01*
X185010502Y-87481180D01*
X185046812Y-87361482D01*
X185059072Y-87237000D01*
X185059072Y-85737000D01*
X185046812Y-85612518D01*
X185010502Y-85492820D01*
X184997770Y-85469000D01*
X185359199Y-85469000D01*
X185813200Y-85923001D01*
X185836998Y-85952000D01*
X185952723Y-86046973D01*
X186084752Y-86117545D01*
X186228013Y-86161002D01*
X186339666Y-86171999D01*
X186339674Y-86171999D01*
X186376999Y-86175675D01*
X186414324Y-86171999D01*
X188200313Y-86171999D01*
X188203000Y-86709250D01*
X188361750Y-86868000D01*
X189611000Y-86868000D01*
X189611000Y-86848000D01*
X189865000Y-86848000D01*
X189865000Y-86868000D01*
X189885000Y-86868000D01*
X189885000Y-87122000D01*
X189865000Y-87122000D01*
X189865000Y-87142000D01*
X189611000Y-87142000D01*
X189611000Y-87122000D01*
X188361750Y-87122000D01*
X188203000Y-87280750D01*
X188199928Y-87895000D01*
X188212188Y-88019482D01*
X188248498Y-88139180D01*
X188307463Y-88249494D01*
X188386815Y-88346185D01*
X188483506Y-88425537D01*
X188593820Y-88484502D01*
X188612127Y-88490056D01*
X188545688Y-88556495D01*
X188377701Y-88807905D01*
X188261989Y-89087257D01*
X188203000Y-89383816D01*
X188203000Y-89686184D01*
X188261989Y-89982743D01*
X188377701Y-90262095D01*
X188545688Y-90513505D01*
X188759495Y-90727312D01*
X189010905Y-90895299D01*
X189290257Y-91011011D01*
X189586816Y-91070000D01*
X189889184Y-91070000D01*
X190185743Y-91011011D01*
X190465095Y-90895299D01*
X190716505Y-90727312D01*
X190930312Y-90513505D01*
X191098299Y-90262095D01*
X191214011Y-89982743D01*
X191273000Y-89686184D01*
X191273000Y-89383816D01*
X191214011Y-89087257D01*
X191098299Y-88807905D01*
X190930312Y-88556495D01*
X190863873Y-88490056D01*
X190882180Y-88484502D01*
X190992494Y-88425537D01*
X191089185Y-88346185D01*
X191168537Y-88249494D01*
X191227502Y-88139180D01*
X191263812Y-88019482D01*
X191276072Y-87895000D01*
X191273000Y-87280750D01*
X191114252Y-87122002D01*
X191175202Y-87122002D01*
X191518001Y-87464801D01*
X191518000Y-90998198D01*
X189677199Y-92839000D01*
X187654043Y-92839000D01*
X187550637Y-92684241D01*
X187350759Y-92484363D01*
X187115727Y-92327320D01*
X186854574Y-92219147D01*
X186577335Y-92164000D01*
X186294665Y-92164000D01*
X186017426Y-92219147D01*
X185756273Y-92327320D01*
X185521241Y-92484363D01*
X185321363Y-92684241D01*
X185164320Y-92919273D01*
X185056147Y-93180426D01*
X185001000Y-93457665D01*
X185001000Y-93740335D01*
X185056147Y-94017574D01*
X185164320Y-94278727D01*
X185321363Y-94513759D01*
X185521241Y-94713637D01*
X185756273Y-94870680D01*
X186017426Y-94978853D01*
X186294665Y-95034000D01*
X186577335Y-95034000D01*
X186854574Y-94978853D01*
X187115727Y-94870680D01*
X187350759Y-94713637D01*
X187550637Y-94513759D01*
X187654043Y-94359000D01*
X189954678Y-94359000D01*
X189992000Y-94362676D01*
X190029322Y-94359000D01*
X190029333Y-94359000D01*
X190140986Y-94348003D01*
X190284247Y-94304546D01*
X190416276Y-94233974D01*
X190532001Y-94139001D01*
X190555804Y-94109997D01*
X192532000Y-92133802D01*
X192532000Y-127000000D01*
X144399000Y-127000000D01*
X144399000Y-122420413D01*
X156016192Y-122420413D01*
X156111956Y-122684814D01*
X156401571Y-122825704D01*
X156713108Y-122907384D01*
X157034595Y-122926718D01*
X157353675Y-122882961D01*
X157658088Y-122777795D01*
X157832044Y-122684814D01*
X157927808Y-122420413D01*
X156972000Y-121464605D01*
X156016192Y-122420413D01*
X144399000Y-122420413D01*
X144399000Y-121347595D01*
X155330282Y-121347595D01*
X155374039Y-121666675D01*
X155479205Y-121971088D01*
X155572186Y-122145044D01*
X155836587Y-122240808D01*
X156792395Y-121285000D01*
X157151605Y-121285000D01*
X158107413Y-122240808D01*
X158371814Y-122145044D01*
X158512704Y-121855429D01*
X158594384Y-121543892D01*
X158613718Y-121222405D01*
X158569961Y-120903325D01*
X158464795Y-120598912D01*
X158371814Y-120424956D01*
X158107413Y-120329192D01*
X157151605Y-121285000D01*
X156792395Y-121285000D01*
X155836587Y-120329192D01*
X155572186Y-120424956D01*
X155431296Y-120714571D01*
X155349616Y-121026108D01*
X155330282Y-121347595D01*
X144399000Y-121347595D01*
X144399000Y-120149587D01*
X156016192Y-120149587D01*
X156972000Y-121105395D01*
X157927808Y-120149587D01*
X157832044Y-119885186D01*
X157542429Y-119744296D01*
X157230892Y-119662616D01*
X156909405Y-119643282D01*
X156590325Y-119687039D01*
X156285912Y-119792205D01*
X156111956Y-119885186D01*
X156016192Y-120149587D01*
X144399000Y-120149587D01*
X144399000Y-116205000D01*
X144396560Y-116180224D01*
X144389333Y-116156399D01*
X144377597Y-116134443D01*
X144361803Y-116115197D01*
X144342557Y-116099403D01*
X144320601Y-116087667D01*
X144296776Y-116080440D01*
X144272000Y-116078000D01*
X134112000Y-116078000D01*
X134087224Y-116080440D01*
X134063399Y-116087667D01*
X134041443Y-116099403D01*
X134022197Y-116115197D01*
X134006403Y-116134443D01*
X133994667Y-116156399D01*
X133987440Y-116180224D01*
X133985000Y-116205000D01*
X133985000Y-126238000D01*
X120904000Y-126238000D01*
X120904000Y-120485000D01*
X125561928Y-120485000D01*
X125561928Y-122085000D01*
X125574188Y-122209482D01*
X125610498Y-122329180D01*
X125669463Y-122439494D01*
X125748815Y-122536185D01*
X125845506Y-122615537D01*
X125955820Y-122674502D01*
X126075518Y-122710812D01*
X126200000Y-122723072D01*
X127800000Y-122723072D01*
X127924482Y-122710812D01*
X128044180Y-122674502D01*
X128154494Y-122615537D01*
X128251185Y-122536185D01*
X128330537Y-122439494D01*
X128389502Y-122329180D01*
X128405117Y-122277702D01*
X131186903Y-122277702D01*
X131258486Y-122521671D01*
X131513996Y-122642571D01*
X131788184Y-122711300D01*
X132070512Y-122725217D01*
X132350130Y-122683787D01*
X132616292Y-122588603D01*
X132741514Y-122521671D01*
X132813097Y-122277702D01*
X132000000Y-121464605D01*
X131186903Y-122277702D01*
X128405117Y-122277702D01*
X128425812Y-122209482D01*
X128438072Y-122085000D01*
X128438072Y-121355512D01*
X130559783Y-121355512D01*
X130601213Y-121635130D01*
X130696397Y-121901292D01*
X130763329Y-122026514D01*
X131007298Y-122098097D01*
X131820395Y-121285000D01*
X132179605Y-121285000D01*
X132992702Y-122098097D01*
X133236671Y-122026514D01*
X133357571Y-121771004D01*
X133426300Y-121496816D01*
X133440217Y-121214488D01*
X133398787Y-120934870D01*
X133303603Y-120668708D01*
X133236671Y-120543486D01*
X132992702Y-120471903D01*
X132179605Y-121285000D01*
X131820395Y-121285000D01*
X131007298Y-120471903D01*
X130763329Y-120543486D01*
X130642429Y-120798996D01*
X130573700Y-121073184D01*
X130559783Y-121355512D01*
X128438072Y-121355512D01*
X128438072Y-120485000D01*
X128425812Y-120360518D01*
X128405118Y-120292298D01*
X131186903Y-120292298D01*
X132000000Y-121105395D01*
X132813097Y-120292298D01*
X132741514Y-120048329D01*
X132486004Y-119927429D01*
X132211816Y-119858700D01*
X131929488Y-119844783D01*
X131649870Y-119886213D01*
X131383708Y-119981397D01*
X131258486Y-120048329D01*
X131186903Y-120292298D01*
X128405118Y-120292298D01*
X128389502Y-120240820D01*
X128330537Y-120130506D01*
X128251185Y-120033815D01*
X128154494Y-119954463D01*
X128044180Y-119895498D01*
X127924482Y-119859188D01*
X127800000Y-119846928D01*
X126200000Y-119846928D01*
X126075518Y-119859188D01*
X125955820Y-119895498D01*
X125845506Y-119954463D01*
X125748815Y-120033815D01*
X125669463Y-120130506D01*
X125610498Y-120240820D01*
X125574188Y-120360518D01*
X125561928Y-120485000D01*
X120904000Y-120485000D01*
X120904000Y-118584923D01*
X129199474Y-116043967D01*
X155337000Y-116043967D01*
X155337000Y-116366033D01*
X155399832Y-116681912D01*
X155523082Y-116979463D01*
X155702013Y-117247252D01*
X155929748Y-117474987D01*
X156197537Y-117653918D01*
X156495088Y-117777168D01*
X156810967Y-117840000D01*
X157133033Y-117840000D01*
X157448912Y-117777168D01*
X157746463Y-117653918D01*
X158014252Y-117474987D01*
X158241987Y-117247252D01*
X158420918Y-116979463D01*
X158544168Y-116681912D01*
X158607000Y-116366033D01*
X158607000Y-116117000D01*
X162087928Y-116117000D01*
X162087928Y-117817000D01*
X162100188Y-117941482D01*
X162136498Y-118061180D01*
X162195463Y-118171494D01*
X162274815Y-118268185D01*
X162371506Y-118347537D01*
X162481820Y-118406502D01*
X162554380Y-118428513D01*
X162422525Y-118560368D01*
X162260010Y-118803589D01*
X162148068Y-119073842D01*
X162091000Y-119360740D01*
X162091000Y-119653260D01*
X162148068Y-119940158D01*
X162260010Y-120210411D01*
X162422525Y-120453632D01*
X162629368Y-120660475D01*
X162803760Y-120777000D01*
X162629368Y-120893525D01*
X162422525Y-121100368D01*
X162260010Y-121343589D01*
X162148068Y-121613842D01*
X162091000Y-121900740D01*
X162091000Y-122193260D01*
X162148068Y-122480158D01*
X162260010Y-122750411D01*
X162422525Y-122993632D01*
X162629368Y-123200475D01*
X162872589Y-123362990D01*
X163142842Y-123474932D01*
X163429740Y-123532000D01*
X163722260Y-123532000D01*
X164009158Y-123474932D01*
X164279411Y-123362990D01*
X164522632Y-123200475D01*
X164729475Y-122993632D01*
X164891990Y-122750411D01*
X165003932Y-122480158D01*
X165061000Y-122193260D01*
X165061000Y-121900740D01*
X165003932Y-121613842D01*
X164891990Y-121343589D01*
X164729475Y-121100368D01*
X164522632Y-120893525D01*
X164348240Y-120777000D01*
X164522632Y-120660475D01*
X164729475Y-120453632D01*
X164891990Y-120210411D01*
X165003932Y-119940158D01*
X165061000Y-119653260D01*
X165061000Y-119360740D01*
X165003932Y-119073842D01*
X164891990Y-118803589D01*
X164729475Y-118560368D01*
X164597620Y-118428513D01*
X164670180Y-118406502D01*
X164780494Y-118347537D01*
X164877185Y-118268185D01*
X164956537Y-118171494D01*
X165015502Y-118061180D01*
X165051812Y-117941482D01*
X165064072Y-117817000D01*
X165064072Y-116117000D01*
X165051812Y-115992518D01*
X165015502Y-115872820D01*
X164956537Y-115762506D01*
X164877185Y-115665815D01*
X164780494Y-115586463D01*
X164670180Y-115527498D01*
X164550482Y-115491188D01*
X164426000Y-115478928D01*
X162726000Y-115478928D01*
X162601518Y-115491188D01*
X162481820Y-115527498D01*
X162371506Y-115586463D01*
X162274815Y-115665815D01*
X162195463Y-115762506D01*
X162136498Y-115872820D01*
X162100188Y-115992518D01*
X162087928Y-116117000D01*
X158607000Y-116117000D01*
X158607000Y-116043967D01*
X158544168Y-115728088D01*
X158420918Y-115430537D01*
X158241987Y-115162748D01*
X158014252Y-114935013D01*
X157746463Y-114756082D01*
X157448912Y-114632832D01*
X157133033Y-114570000D01*
X156810967Y-114570000D01*
X156495088Y-114632832D01*
X156197537Y-114756082D01*
X155929748Y-114935013D01*
X155702013Y-115162748D01*
X155523082Y-115430537D01*
X155399832Y-115728088D01*
X155337000Y-116043967D01*
X129199474Y-116043967D01*
X134893014Y-114300000D01*
X144145000Y-114300000D01*
X144169776Y-114297560D01*
X144193601Y-114290333D01*
X144215557Y-114278597D01*
X144234803Y-114262803D01*
X144250597Y-114243557D01*
X144262333Y-114221601D01*
X144269560Y-114197776D01*
X144272000Y-114173000D01*
X144272000Y-104456000D01*
X176207928Y-104456000D01*
X176207928Y-105856000D01*
X176220188Y-105980482D01*
X176256498Y-106100180D01*
X176315463Y-106210494D01*
X176394815Y-106307185D01*
X176491506Y-106386537D01*
X176601820Y-106445502D01*
X176721518Y-106481812D01*
X176846000Y-106494072D01*
X176959190Y-106494072D01*
X176913641Y-106512939D01*
X176694987Y-106659038D01*
X176509038Y-106844987D01*
X176362939Y-107063641D01*
X176262304Y-107306595D01*
X176211000Y-107564514D01*
X176211000Y-107827486D01*
X176262304Y-108085405D01*
X176362939Y-108328359D01*
X176509038Y-108547013D01*
X176694987Y-108732962D01*
X176913641Y-108879061D01*
X177156595Y-108979696D01*
X177414514Y-109031000D01*
X177677486Y-109031000D01*
X177935405Y-108979696D01*
X178178359Y-108879061D01*
X178397013Y-108732962D01*
X178582962Y-108547013D01*
X178729061Y-108328359D01*
X178829696Y-108085405D01*
X178881000Y-107827486D01*
X178881000Y-107564514D01*
X178829696Y-107306595D01*
X178729061Y-107063641D01*
X178582962Y-106844987D01*
X178397013Y-106659038D01*
X178178359Y-106512939D01*
X178132810Y-106494072D01*
X178246000Y-106494072D01*
X178370482Y-106481812D01*
X178490180Y-106445502D01*
X178600494Y-106386537D01*
X178697185Y-106307185D01*
X178776537Y-106210494D01*
X178835502Y-106100180D01*
X178871812Y-105980482D01*
X178884072Y-105856000D01*
X178884072Y-104456000D01*
X178871812Y-104331518D01*
X178835502Y-104211820D01*
X178776537Y-104101506D01*
X178697185Y-104004815D01*
X178600494Y-103925463D01*
X178490180Y-103866498D01*
X178370482Y-103830188D01*
X178246000Y-103817928D01*
X176846000Y-103817928D01*
X176721518Y-103830188D01*
X176601820Y-103866498D01*
X176491506Y-103925463D01*
X176394815Y-104004815D01*
X176315463Y-104101506D01*
X176256498Y-104211820D01*
X176220188Y-104331518D01*
X176207928Y-104456000D01*
X144272000Y-104456000D01*
X144272000Y-103618000D01*
X162337928Y-103618000D01*
X162350188Y-103742482D01*
X162386498Y-103862180D01*
X162445463Y-103972494D01*
X162524815Y-104069185D01*
X162621506Y-104148537D01*
X162731820Y-104207502D01*
X162851518Y-104243812D01*
X162976000Y-104256072D01*
X163290250Y-104253000D01*
X163449000Y-104094250D01*
X163449000Y-102870000D01*
X162499750Y-102870000D01*
X162341000Y-103028750D01*
X162337928Y-103618000D01*
X144272000Y-103618000D01*
X144272000Y-101868000D01*
X162337928Y-101868000D01*
X162341000Y-102457250D01*
X162499750Y-102616000D01*
X163449000Y-102616000D01*
X163449000Y-101391750D01*
X163290250Y-101233000D01*
X162976000Y-101229928D01*
X162851518Y-101242188D01*
X162731820Y-101278498D01*
X162621506Y-101337463D01*
X162524815Y-101416815D01*
X162445463Y-101513506D01*
X162386498Y-101623820D01*
X162350188Y-101743518D01*
X162337928Y-101868000D01*
X144272000Y-101868000D01*
X144272000Y-90170000D01*
X144269560Y-90145224D01*
X144262333Y-90121399D01*
X144250597Y-90099443D01*
X144236776Y-90082215D01*
X141442776Y-87161215D01*
X141423886Y-87144997D01*
X141402196Y-87132776D01*
X141378538Y-87125021D01*
X141351000Y-87122000D01*
X131020267Y-87122000D01*
X130240991Y-85329665D01*
X135725000Y-85329665D01*
X135725000Y-85612335D01*
X135780147Y-85889574D01*
X135888320Y-86150727D01*
X136045363Y-86385759D01*
X136245241Y-86585637D01*
X136480273Y-86742680D01*
X136741426Y-86850853D01*
X137018665Y-86906000D01*
X137301335Y-86906000D01*
X137578574Y-86850853D01*
X137839727Y-86742680D01*
X138074759Y-86585637D01*
X138274637Y-86385759D01*
X138431680Y-86150727D01*
X138539853Y-85889574D01*
X138595000Y-85612335D01*
X138595000Y-85329665D01*
X138539853Y-85052426D01*
X138431680Y-84791273D01*
X138351317Y-84671000D01*
X143341928Y-84671000D01*
X143341928Y-86271000D01*
X143354188Y-86395482D01*
X143390498Y-86515180D01*
X143449463Y-86625494D01*
X143528815Y-86722185D01*
X143625506Y-86801537D01*
X143735820Y-86860502D01*
X143855518Y-86896812D01*
X143980000Y-86909072D01*
X145580000Y-86909072D01*
X145704482Y-86896812D01*
X145824180Y-86860502D01*
X145934494Y-86801537D01*
X146031185Y-86722185D01*
X146110537Y-86625494D01*
X146169502Y-86515180D01*
X146205812Y-86395482D01*
X146218072Y-86271000D01*
X146218072Y-86231000D01*
X148421928Y-86231000D01*
X148421928Y-86271000D01*
X148434188Y-86395482D01*
X148470498Y-86515180D01*
X148529463Y-86625494D01*
X148608815Y-86722185D01*
X148705506Y-86801537D01*
X148815820Y-86860502D01*
X148935518Y-86896812D01*
X149060000Y-86909072D01*
X150660000Y-86909072D01*
X150784482Y-86896812D01*
X150904180Y-86860502D01*
X151014494Y-86801537D01*
X151111185Y-86722185D01*
X151190537Y-86625494D01*
X151249502Y-86515180D01*
X151285812Y-86395482D01*
X151298072Y-86271000D01*
X151298072Y-86231000D01*
X151831199Y-86231000D01*
X153360200Y-87760002D01*
X153383999Y-87789001D01*
X153499724Y-87883974D01*
X153631753Y-87954546D01*
X153775014Y-87998003D01*
X153886667Y-88009000D01*
X153886675Y-88009000D01*
X153924000Y-88012676D01*
X153961325Y-88009000D01*
X162614629Y-88009000D01*
X162558320Y-88093273D01*
X162450147Y-88354426D01*
X162395000Y-88631665D01*
X162395000Y-88914335D01*
X162450147Y-89191574D01*
X162558320Y-89452727D01*
X162715363Y-89687759D01*
X162915241Y-89887637D01*
X163150273Y-90044680D01*
X163411426Y-90152853D01*
X163688665Y-90208000D01*
X163971335Y-90208000D01*
X164248574Y-90152853D01*
X164509727Y-90044680D01*
X164744759Y-89887637D01*
X164944637Y-89687759D01*
X165101680Y-89452727D01*
X165209853Y-89191574D01*
X165265000Y-88914335D01*
X165265000Y-88631665D01*
X165209853Y-88354426D01*
X165101680Y-88093273D01*
X165045371Y-88009000D01*
X166055928Y-88009000D01*
X166055928Y-89573000D01*
X166068188Y-89697482D01*
X166104498Y-89817180D01*
X166163463Y-89927494D01*
X166242815Y-90024185D01*
X166339506Y-90103537D01*
X166449820Y-90162502D01*
X166569518Y-90198812D01*
X166587482Y-90200581D01*
X166474392Y-90293392D01*
X166295068Y-90511899D01*
X166161818Y-90761192D01*
X166079764Y-91031691D01*
X166052057Y-91313000D01*
X166079764Y-91594309D01*
X166161818Y-91864808D01*
X166295068Y-92114101D01*
X166474392Y-92332608D01*
X166692899Y-92511932D01*
X166825858Y-92583000D01*
X166692899Y-92654068D01*
X166474392Y-92833392D01*
X166295068Y-93051899D01*
X166161818Y-93301192D01*
X166079764Y-93571691D01*
X166052057Y-93853000D01*
X166079764Y-94134309D01*
X166161818Y-94404808D01*
X166198592Y-94473607D01*
X165096998Y-95575201D01*
X165068000Y-95598999D01*
X165044477Y-95627662D01*
X164944637Y-95478241D01*
X164744759Y-95278363D01*
X164509727Y-95121320D01*
X164248574Y-95013147D01*
X163971335Y-94958000D01*
X163688665Y-94958000D01*
X163411426Y-95013147D01*
X163150273Y-95121320D01*
X162915241Y-95278363D01*
X162715363Y-95478241D01*
X162558320Y-95713273D01*
X162450147Y-95974426D01*
X162395000Y-96251665D01*
X162395000Y-96534335D01*
X162450147Y-96811574D01*
X162558320Y-97072727D01*
X162715363Y-97307759D01*
X162915241Y-97507637D01*
X163150273Y-97664680D01*
X163411426Y-97772853D01*
X163688665Y-97828000D01*
X163971335Y-97828000D01*
X164248574Y-97772853D01*
X164509727Y-97664680D01*
X164744759Y-97507637D01*
X164848001Y-97404395D01*
X164848000Y-100737677D01*
X164844324Y-100775000D01*
X164848000Y-100812322D01*
X164848000Y-100812332D01*
X164858997Y-100923985D01*
X164896919Y-101049000D01*
X164902454Y-101067246D01*
X164973026Y-101199276D01*
X164998182Y-101229928D01*
X165067999Y-101315001D01*
X165085842Y-101329644D01*
X164886551Y-101436167D01*
X164732691Y-101562436D01*
X164706537Y-101513506D01*
X164627185Y-101416815D01*
X164530494Y-101337463D01*
X164420180Y-101278498D01*
X164300482Y-101242188D01*
X164176000Y-101229928D01*
X163861750Y-101233000D01*
X163703000Y-101391750D01*
X163703000Y-102616000D01*
X163723000Y-102616000D01*
X163723000Y-102870000D01*
X163703000Y-102870000D01*
X163703000Y-104094250D01*
X163861750Y-104253000D01*
X164176000Y-104256072D01*
X164300482Y-104243812D01*
X164420180Y-104207502D01*
X164530494Y-104148537D01*
X164627185Y-104069185D01*
X164706537Y-103972494D01*
X164732692Y-103923563D01*
X164886552Y-104049833D01*
X165101100Y-104164511D01*
X165333899Y-104235130D01*
X165576000Y-104258975D01*
X165818102Y-104235130D01*
X166050901Y-104164511D01*
X166265449Y-104049833D01*
X166453502Y-103895502D01*
X166576001Y-103746237D01*
X166698499Y-103895502D01*
X166886552Y-104049833D01*
X167101100Y-104164511D01*
X167333899Y-104235130D01*
X167576000Y-104258975D01*
X167818102Y-104235130D01*
X168050901Y-104164511D01*
X168265449Y-104049833D01*
X168453502Y-103895502D01*
X168607833Y-103707449D01*
X168722511Y-103492900D01*
X168793130Y-103260101D01*
X168811000Y-103078664D01*
X168811000Y-102407335D01*
X168793130Y-102225898D01*
X168722511Y-101993099D01*
X168607833Y-101778551D01*
X168453502Y-101590498D01*
X168265448Y-101436167D01*
X168050900Y-101321489D01*
X167818101Y-101250870D01*
X167576000Y-101227025D01*
X167333898Y-101250870D01*
X167199455Y-101291653D01*
X166368000Y-100460199D01*
X166368000Y-97286398D01*
X166389500Y-97317895D01*
X166591161Y-97515601D01*
X166827517Y-97670166D01*
X167089486Y-97775650D01*
X167367000Y-97828000D01*
X167767000Y-97828000D01*
X167767000Y-96520000D01*
X168021000Y-96520000D01*
X168021000Y-97828000D01*
X168421000Y-97828000D01*
X168698514Y-97775650D01*
X168960483Y-97670166D01*
X169196839Y-97515601D01*
X169398500Y-97317895D01*
X169557715Y-97084646D01*
X169668367Y-96824818D01*
X169685904Y-96742039D01*
X169563915Y-96520000D01*
X168021000Y-96520000D01*
X167767000Y-96520000D01*
X167747000Y-96520000D01*
X167747000Y-96266000D01*
X167767000Y-96266000D01*
X167767000Y-96246000D01*
X168021000Y-96246000D01*
X168021000Y-96266000D01*
X169563915Y-96266000D01*
X169685904Y-96043961D01*
X169668367Y-95961182D01*
X169557715Y-95701354D01*
X169398500Y-95468105D01*
X169196839Y-95270399D01*
X168967259Y-95120265D01*
X169095101Y-95051932D01*
X169313608Y-94872608D01*
X169492932Y-94654101D01*
X169626182Y-94404808D01*
X169708236Y-94134309D01*
X169735943Y-93853000D01*
X169708236Y-93571691D01*
X169626182Y-93301192D01*
X169492932Y-93051899D01*
X169313608Y-92833392D01*
X169095101Y-92654068D01*
X168962142Y-92583000D01*
X169095101Y-92511932D01*
X169313608Y-92332608D01*
X169492932Y-92114101D01*
X169626182Y-91864808D01*
X169708236Y-91594309D01*
X169735943Y-91313000D01*
X169708236Y-91031691D01*
X169626182Y-90761192D01*
X169492932Y-90511899D01*
X169313608Y-90293392D01*
X169200518Y-90200581D01*
X169218482Y-90198812D01*
X169338180Y-90162502D01*
X169448494Y-90103537D01*
X169545185Y-90024185D01*
X169624537Y-89927494D01*
X169683502Y-89817180D01*
X169719812Y-89697482D01*
X169732072Y-89573000D01*
X169732072Y-88009000D01*
X171135199Y-88009000D01*
X173818592Y-90692393D01*
X173781818Y-90761192D01*
X173699764Y-91031691D01*
X173672057Y-91313000D01*
X173699764Y-91594309D01*
X173781818Y-91864808D01*
X173915068Y-92114101D01*
X174094392Y-92332608D01*
X174312899Y-92511932D01*
X174445858Y-92583000D01*
X174312899Y-92654068D01*
X174094392Y-92833392D01*
X173915068Y-93051899D01*
X173781818Y-93301192D01*
X173699764Y-93571691D01*
X173699246Y-93576952D01*
X169160998Y-98115201D01*
X169132000Y-98138999D01*
X169108202Y-98167997D01*
X169108201Y-98167998D01*
X169037026Y-98254724D01*
X168966454Y-98386754D01*
X168954861Y-98424974D01*
X168922998Y-98530014D01*
X168914562Y-98615663D01*
X168908324Y-98679000D01*
X168912001Y-98716332D01*
X168912000Y-100261289D01*
X168868063Y-100305226D01*
X168754795Y-100474744D01*
X168676774Y-100663102D01*
X168637000Y-100863061D01*
X168637000Y-101066939D01*
X168676774Y-101266898D01*
X168754795Y-101455256D01*
X168868063Y-101624774D01*
X169012226Y-101768937D01*
X169181744Y-101882205D01*
X169370102Y-101960226D01*
X169570061Y-102000000D01*
X169773939Y-102000000D01*
X169973898Y-101960226D01*
X170162256Y-101882205D01*
X170331774Y-101768937D01*
X170475937Y-101624774D01*
X170589205Y-101455256D01*
X170667226Y-101266898D01*
X170707000Y-101066939D01*
X170707000Y-100863061D01*
X170667226Y-100663102D01*
X170589205Y-100474744D01*
X170475937Y-100305226D01*
X170432000Y-100261289D01*
X170432000Y-98993801D01*
X174352632Y-95073170D01*
X174445858Y-95123000D01*
X174312899Y-95194068D01*
X174094392Y-95373392D01*
X173915068Y-95591899D01*
X173781818Y-95841192D01*
X173699764Y-96111691D01*
X173672057Y-96393000D01*
X173699764Y-96674309D01*
X173781818Y-96944808D01*
X173915068Y-97194101D01*
X174094392Y-97412608D01*
X174312899Y-97591932D01*
X174562192Y-97725182D01*
X174832691Y-97807236D01*
X175043508Y-97828000D01*
X175984492Y-97828000D01*
X176195309Y-97807236D01*
X176465808Y-97725182D01*
X176715101Y-97591932D01*
X176933608Y-97412608D01*
X177112932Y-97194101D01*
X177246182Y-96944808D01*
X177328236Y-96674309D01*
X177355943Y-96393000D01*
X177328236Y-96111691D01*
X177246182Y-95841192D01*
X177112932Y-95591899D01*
X176933608Y-95373392D01*
X176715101Y-95194068D01*
X176582142Y-95123000D01*
X176715101Y-95051932D01*
X176933608Y-94872608D01*
X177112932Y-94654101D01*
X177246182Y-94404808D01*
X177328236Y-94134309D01*
X177355943Y-93853000D01*
X177328236Y-93571691D01*
X177246182Y-93301192D01*
X177112932Y-93051899D01*
X176933608Y-92833392D01*
X176715101Y-92654068D01*
X176582142Y-92583000D01*
X176715101Y-92511932D01*
X176933608Y-92332608D01*
X177112932Y-92114101D01*
X177134901Y-92073000D01*
X179771199Y-92073000D01*
X179961000Y-92262802D01*
X179961000Y-92729683D01*
X179930637Y-92684241D01*
X179730759Y-92484363D01*
X179495727Y-92327320D01*
X179234574Y-92219147D01*
X178957335Y-92164000D01*
X178674665Y-92164000D01*
X178397426Y-92219147D01*
X178136273Y-92327320D01*
X177901241Y-92484363D01*
X177701363Y-92684241D01*
X177544320Y-92919273D01*
X177436147Y-93180426D01*
X177381000Y-93457665D01*
X177381000Y-93740335D01*
X177436147Y-94017574D01*
X177544320Y-94278727D01*
X177701363Y-94513759D01*
X177901241Y-94713637D01*
X178136273Y-94870680D01*
X178397426Y-94978853D01*
X178674665Y-95034000D01*
X178957335Y-95034000D01*
X179234574Y-94978853D01*
X179495727Y-94870680D01*
X179730759Y-94713637D01*
X179930637Y-94513759D01*
X179961000Y-94468317D01*
X179961000Y-96031683D01*
X179930637Y-95986241D01*
X179730759Y-95786363D01*
X179495727Y-95629320D01*
X179234574Y-95521147D01*
X178957335Y-95466000D01*
X178674665Y-95466000D01*
X178397426Y-95521147D01*
X178136273Y-95629320D01*
X177901241Y-95786363D01*
X177701363Y-95986241D01*
X177544320Y-96221273D01*
X177436147Y-96482426D01*
X177381000Y-96759665D01*
X177381000Y-97042335D01*
X177436147Y-97319574D01*
X177544320Y-97580727D01*
X177701363Y-97815759D01*
X177901241Y-98015637D01*
X178136273Y-98172680D01*
X178397426Y-98280853D01*
X178674665Y-98336000D01*
X178945001Y-98336000D01*
X178945000Y-110302197D01*
X175136199Y-114111000D01*
X170920933Y-114111000D01*
X170824502Y-113993498D01*
X170675238Y-113871000D01*
X170824502Y-113748502D01*
X170978833Y-113560449D01*
X171093511Y-113345901D01*
X171164130Y-113113102D01*
X171187975Y-112871000D01*
X171164130Y-112628898D01*
X171093511Y-112396099D01*
X170978833Y-112181551D01*
X170852564Y-112027691D01*
X170901494Y-112001537D01*
X170998185Y-111922185D01*
X171077537Y-111825494D01*
X171136502Y-111715180D01*
X171172812Y-111595482D01*
X171185072Y-111471000D01*
X171182000Y-111156750D01*
X171023250Y-110998000D01*
X169799000Y-110998000D01*
X169799000Y-111018000D01*
X169545000Y-111018000D01*
X169545000Y-110998000D01*
X168320750Y-110998000D01*
X168162000Y-111156750D01*
X168158928Y-111471000D01*
X168171188Y-111595482D01*
X168207498Y-111715180D01*
X168266463Y-111825494D01*
X168345815Y-111922185D01*
X168442506Y-112001537D01*
X168491436Y-112027691D01*
X168423067Y-112111000D01*
X168176802Y-112111000D01*
X167638000Y-111572199D01*
X167638000Y-110304711D01*
X167671711Y-110271000D01*
X168158928Y-110271000D01*
X168162000Y-110585250D01*
X168320750Y-110744000D01*
X169545000Y-110744000D01*
X169545000Y-109794750D01*
X169799000Y-109794750D01*
X169799000Y-110744000D01*
X171023250Y-110744000D01*
X171182000Y-110585250D01*
X171185072Y-110271000D01*
X171172812Y-110146518D01*
X171136502Y-110026820D01*
X171077537Y-109916506D01*
X170998185Y-109819815D01*
X170901494Y-109740463D01*
X170791180Y-109681498D01*
X170671482Y-109645188D01*
X170547000Y-109632928D01*
X169957750Y-109636000D01*
X169799000Y-109794750D01*
X169545000Y-109794750D01*
X169386250Y-109636000D01*
X168797000Y-109632928D01*
X168672518Y-109645188D01*
X168552820Y-109681498D01*
X168442506Y-109740463D01*
X168345815Y-109819815D01*
X168266463Y-109916506D01*
X168207498Y-110026820D01*
X168171188Y-110146518D01*
X168158928Y-110271000D01*
X167671711Y-110271000D01*
X167681937Y-110260774D01*
X167795205Y-110091256D01*
X167873226Y-109902898D01*
X167913000Y-109702939D01*
X167913000Y-109499061D01*
X167873226Y-109299102D01*
X167795205Y-109110744D01*
X167681937Y-108941226D01*
X167537774Y-108797063D01*
X167368256Y-108683795D01*
X167179898Y-108605774D01*
X166979939Y-108566000D01*
X166776061Y-108566000D01*
X166576102Y-108605774D01*
X166387744Y-108683795D01*
X166218226Y-108797063D01*
X166074063Y-108941226D01*
X165960795Y-109110744D01*
X165882774Y-109299102D01*
X165843000Y-109499061D01*
X165843000Y-109702939D01*
X165882774Y-109902898D01*
X165960795Y-110091256D01*
X166074063Y-110260774D01*
X166118001Y-110304712D01*
X166118000Y-111849677D01*
X166114324Y-111887000D01*
X166118000Y-111924322D01*
X166118000Y-111924332D01*
X166128997Y-112035985D01*
X166155088Y-112121997D01*
X166172454Y-112179246D01*
X166243026Y-112311276D01*
X166282871Y-112359826D01*
X166337999Y-112427001D01*
X166367002Y-112450804D01*
X167298201Y-113382003D01*
X167321999Y-113411001D01*
X167350997Y-113434799D01*
X167437723Y-113505974D01*
X167539638Y-113560449D01*
X167569753Y-113576546D01*
X167713014Y-113620003D01*
X167824667Y-113631000D01*
X167824676Y-113631000D01*
X167861999Y-113634676D01*
X167899322Y-113631000D01*
X168423067Y-113631000D01*
X168519498Y-113748502D01*
X168668762Y-113871000D01*
X168519498Y-113993498D01*
X168365167Y-114181551D01*
X168250489Y-114396099D01*
X168179870Y-114628898D01*
X168156025Y-114871000D01*
X168179870Y-115113102D01*
X168250489Y-115345901D01*
X168365167Y-115560449D01*
X168519498Y-115748502D01*
X168668762Y-115871000D01*
X168519498Y-115993498D01*
X168365167Y-116181551D01*
X168250489Y-116396099D01*
X168179870Y-116628898D01*
X168156025Y-116871000D01*
X168179870Y-117113102D01*
X168250489Y-117345901D01*
X168365167Y-117560449D01*
X168519498Y-117748502D01*
X168668762Y-117871000D01*
X168519498Y-117993498D01*
X168365167Y-118181551D01*
X168250489Y-118396099D01*
X168179870Y-118628898D01*
X168156025Y-118871000D01*
X168179870Y-119113102D01*
X168250489Y-119345901D01*
X168365167Y-119560449D01*
X168519498Y-119748502D01*
X168668762Y-119871000D01*
X168519498Y-119993498D01*
X168365167Y-120181551D01*
X168250489Y-120396099D01*
X168179870Y-120628898D01*
X168156025Y-120871000D01*
X168179870Y-121113102D01*
X168250489Y-121345901D01*
X168365167Y-121560449D01*
X168519498Y-121748502D01*
X168707551Y-121902833D01*
X168922099Y-122017511D01*
X169154898Y-122088130D01*
X169336335Y-122106000D01*
X170007665Y-122106000D01*
X170189102Y-122088130D01*
X170421901Y-122017511D01*
X170636449Y-121902833D01*
X170824502Y-121748502D01*
X170978833Y-121560449D01*
X171093511Y-121345901D01*
X171164130Y-121113102D01*
X171187975Y-120871000D01*
X171164130Y-120628898D01*
X171093511Y-120396099D01*
X170978833Y-120181551D01*
X170824502Y-119993498D01*
X170675238Y-119871000D01*
X170824502Y-119748502D01*
X170978833Y-119560449D01*
X171093511Y-119345901D01*
X171164130Y-119113102D01*
X171187975Y-118871000D01*
X171164130Y-118628898D01*
X171093511Y-118396099D01*
X170978833Y-118181551D01*
X170824502Y-117993498D01*
X170675238Y-117871000D01*
X170731881Y-117824514D01*
X176211000Y-117824514D01*
X176211000Y-118087486D01*
X176262304Y-118345405D01*
X176362939Y-118588359D01*
X176509038Y-118807013D01*
X176694987Y-118992962D01*
X176913641Y-119139061D01*
X177002819Y-119176000D01*
X176913641Y-119212939D01*
X176694987Y-119359038D01*
X176509038Y-119544987D01*
X176362939Y-119763641D01*
X176262304Y-120006595D01*
X176211000Y-120264514D01*
X176211000Y-120527486D01*
X176262304Y-120785405D01*
X176362939Y-121028359D01*
X176509038Y-121247013D01*
X176694987Y-121432962D01*
X176913641Y-121579061D01*
X177156595Y-121679696D01*
X177414514Y-121731000D01*
X177677486Y-121731000D01*
X177935405Y-121679696D01*
X178178359Y-121579061D01*
X178397013Y-121432962D01*
X178582962Y-121247013D01*
X178729061Y-121028359D01*
X178829696Y-120785405D01*
X178881000Y-120527486D01*
X178881000Y-120264514D01*
X178829696Y-120006595D01*
X178729061Y-119763641D01*
X178582962Y-119544987D01*
X178397013Y-119359038D01*
X178178359Y-119212939D01*
X178089181Y-119176000D01*
X178178359Y-119139061D01*
X178397013Y-118992962D01*
X178582962Y-118807013D01*
X178729061Y-118588359D01*
X178829696Y-118345405D01*
X178881000Y-118087486D01*
X178881000Y-117824514D01*
X183831000Y-117824514D01*
X183831000Y-118087486D01*
X183882304Y-118345405D01*
X183982939Y-118588359D01*
X184129038Y-118807013D01*
X184314987Y-118992962D01*
X184533641Y-119139061D01*
X184622819Y-119176000D01*
X184533641Y-119212939D01*
X184314987Y-119359038D01*
X184129038Y-119544987D01*
X183982939Y-119763641D01*
X183882304Y-120006595D01*
X183831000Y-120264514D01*
X183831000Y-120527486D01*
X183882304Y-120785405D01*
X183982939Y-121028359D01*
X184129038Y-121247013D01*
X184314987Y-121432962D01*
X184533641Y-121579061D01*
X184776595Y-121679696D01*
X185034514Y-121731000D01*
X185297486Y-121731000D01*
X185555405Y-121679696D01*
X185798359Y-121579061D01*
X186017013Y-121432962D01*
X186202962Y-121247013D01*
X186349061Y-121028359D01*
X186449696Y-120785405D01*
X186501000Y-120527486D01*
X186501000Y-120264514D01*
X186449696Y-120006595D01*
X186349061Y-119763641D01*
X186202962Y-119544987D01*
X186017013Y-119359038D01*
X185798359Y-119212939D01*
X185709181Y-119176000D01*
X185798359Y-119139061D01*
X186017013Y-118992962D01*
X186202962Y-118807013D01*
X186349061Y-118588359D01*
X186449696Y-118345405D01*
X186501000Y-118087486D01*
X186501000Y-117824514D01*
X186449696Y-117566595D01*
X186349061Y-117323641D01*
X186202962Y-117104987D01*
X186017013Y-116919038D01*
X185798359Y-116772939D01*
X185555405Y-116672304D01*
X185297486Y-116621000D01*
X185034514Y-116621000D01*
X184776595Y-116672304D01*
X184533641Y-116772939D01*
X184314987Y-116919038D01*
X184129038Y-117104987D01*
X183982939Y-117323641D01*
X183882304Y-117566595D01*
X183831000Y-117824514D01*
X178881000Y-117824514D01*
X178829696Y-117566595D01*
X178729061Y-117323641D01*
X178582962Y-117104987D01*
X178397013Y-116919038D01*
X178178359Y-116772939D01*
X177935405Y-116672304D01*
X177677486Y-116621000D01*
X177414514Y-116621000D01*
X177156595Y-116672304D01*
X176913641Y-116772939D01*
X176694987Y-116919038D01*
X176509038Y-117104987D01*
X176362939Y-117323641D01*
X176262304Y-117566595D01*
X176211000Y-117824514D01*
X170731881Y-117824514D01*
X170824502Y-117748502D01*
X170920933Y-117631000D01*
X174810678Y-117631000D01*
X174848000Y-117634676D01*
X174885322Y-117631000D01*
X174885333Y-117631000D01*
X174996986Y-117620003D01*
X175140247Y-117576546D01*
X175272276Y-117505974D01*
X175388001Y-117411001D01*
X175411804Y-117381997D01*
X181232003Y-111561799D01*
X181261001Y-111538001D01*
X181355974Y-111422276D01*
X181426546Y-111290247D01*
X181470003Y-111146986D01*
X181481000Y-111035333D01*
X181481000Y-111035324D01*
X181484676Y-110998001D01*
X181481000Y-110960678D01*
X181481000Y-105024514D01*
X183831000Y-105024514D01*
X183831000Y-105287486D01*
X183882304Y-105545405D01*
X183982939Y-105788359D01*
X184129038Y-106007013D01*
X184314987Y-106192962D01*
X184533641Y-106339061D01*
X184743530Y-106426000D01*
X184533641Y-106512939D01*
X184314987Y-106659038D01*
X184129038Y-106844987D01*
X183982939Y-107063641D01*
X183882304Y-107306595D01*
X183831000Y-107564514D01*
X183831000Y-107827486D01*
X183882304Y-108085405D01*
X183982939Y-108328359D01*
X184129038Y-108547013D01*
X184314987Y-108732962D01*
X184533641Y-108879061D01*
X184776595Y-108979696D01*
X185034514Y-109031000D01*
X185297486Y-109031000D01*
X185555405Y-108979696D01*
X185798359Y-108879061D01*
X186017013Y-108732962D01*
X186202962Y-108547013D01*
X186349061Y-108328359D01*
X186449696Y-108085405D01*
X186501000Y-107827486D01*
X186501000Y-107564514D01*
X186449696Y-107306595D01*
X186349061Y-107063641D01*
X186202962Y-106844987D01*
X186017013Y-106659038D01*
X185798359Y-106512939D01*
X185588470Y-106426000D01*
X185798359Y-106339061D01*
X185906206Y-106267000D01*
X188984025Y-106267000D01*
X189007870Y-106509102D01*
X189078489Y-106741901D01*
X189193167Y-106956449D01*
X189347498Y-107144502D01*
X189535551Y-107298833D01*
X189750099Y-107413511D01*
X189982898Y-107484130D01*
X190164335Y-107502000D01*
X190835665Y-107502000D01*
X191017102Y-107484130D01*
X191249901Y-107413511D01*
X191464449Y-107298833D01*
X191652502Y-107144502D01*
X191806833Y-106956449D01*
X191921511Y-106741901D01*
X191992130Y-106509102D01*
X192015975Y-106267000D01*
X191992130Y-106024898D01*
X191921511Y-105792099D01*
X191806833Y-105577551D01*
X191652502Y-105389498D01*
X191613889Y-105357809D01*
X191618387Y-105355405D01*
X191752962Y-105244962D01*
X191863405Y-105110387D01*
X191945472Y-104956851D01*
X191996008Y-104790255D01*
X192013072Y-104617001D01*
X192013072Y-103916999D01*
X191996008Y-103743745D01*
X191945472Y-103577149D01*
X191863405Y-103423613D01*
X191752962Y-103289038D01*
X191618387Y-103178595D01*
X191464851Y-103096528D01*
X191298255Y-103045992D01*
X191125001Y-103028928D01*
X189874999Y-103028928D01*
X189701745Y-103045992D01*
X189535149Y-103096528D01*
X189381613Y-103178595D01*
X189247038Y-103289038D01*
X189136595Y-103423613D01*
X189054528Y-103577149D01*
X189003992Y-103743745D01*
X188986928Y-103916999D01*
X188986928Y-104617001D01*
X189003992Y-104790255D01*
X189054528Y-104956851D01*
X189136595Y-105110387D01*
X189247038Y-105244962D01*
X189381613Y-105355405D01*
X189386111Y-105357809D01*
X189347498Y-105389498D01*
X189193167Y-105577551D01*
X189078489Y-105792099D01*
X189007870Y-106024898D01*
X188984025Y-106267000D01*
X185906206Y-106267000D01*
X186017013Y-106192962D01*
X186202962Y-106007013D01*
X186349061Y-105788359D01*
X186449696Y-105545405D01*
X186501000Y-105287486D01*
X186501000Y-105024514D01*
X186449696Y-104766595D01*
X186349061Y-104523641D01*
X186202962Y-104304987D01*
X186017013Y-104119038D01*
X185798359Y-103972939D01*
X185555405Y-103872304D01*
X185297486Y-103821000D01*
X185034514Y-103821000D01*
X184776595Y-103872304D01*
X184533641Y-103972939D01*
X184314987Y-104119038D01*
X184129038Y-104304987D01*
X183982939Y-104523641D01*
X183882304Y-104766595D01*
X183831000Y-105024514D01*
X181481000Y-105024514D01*
X181481000Y-96759665D01*
X185001000Y-96759665D01*
X185001000Y-97042335D01*
X185056147Y-97319574D01*
X185164320Y-97580727D01*
X185321363Y-97815759D01*
X185521241Y-98015637D01*
X185756273Y-98172680D01*
X186017426Y-98280853D01*
X186294665Y-98336000D01*
X186577335Y-98336000D01*
X186854574Y-98280853D01*
X187115727Y-98172680D01*
X187350759Y-98015637D01*
X187550637Y-97815759D01*
X187707680Y-97580727D01*
X187815853Y-97319574D01*
X187871000Y-97042335D01*
X187871000Y-96759665D01*
X187815853Y-96482426D01*
X187707680Y-96221273D01*
X187550637Y-95986241D01*
X187350759Y-95786363D01*
X187115727Y-95629320D01*
X186854574Y-95521147D01*
X186577335Y-95466000D01*
X186294665Y-95466000D01*
X186017426Y-95521147D01*
X185756273Y-95629320D01*
X185521241Y-95786363D01*
X185321363Y-95986241D01*
X185164320Y-96221273D01*
X185056147Y-96482426D01*
X185001000Y-96759665D01*
X181481000Y-96759665D01*
X181481000Y-91985333D01*
X181484677Y-91948000D01*
X181470003Y-91799014D01*
X181426546Y-91655753D01*
X181355974Y-91523724D01*
X181284799Y-91436997D01*
X181261001Y-91407999D01*
X181232004Y-91384202D01*
X180649803Y-90802002D01*
X180626001Y-90772999D01*
X180510276Y-90678026D01*
X180378247Y-90607454D01*
X180234986Y-90563997D01*
X180123333Y-90553000D01*
X180123322Y-90553000D01*
X180086000Y-90549324D01*
X180048678Y-90553000D01*
X177134901Y-90553000D01*
X177112932Y-90511899D01*
X176933608Y-90293392D01*
X176715101Y-90114068D01*
X176582142Y-90043000D01*
X176715101Y-89971932D01*
X176933608Y-89792608D01*
X177112932Y-89574101D01*
X177246182Y-89324808D01*
X177328236Y-89054309D01*
X177355943Y-88773000D01*
X177328236Y-88491691D01*
X177246182Y-88221192D01*
X177112932Y-87971899D01*
X176933608Y-87753392D01*
X176715101Y-87574068D01*
X176465808Y-87440818D01*
X176195309Y-87358764D01*
X175984492Y-87338000D01*
X175043508Y-87338000D01*
X174832691Y-87358764D01*
X174562192Y-87440818D01*
X174312899Y-87574068D01*
X174094392Y-87753392D01*
X173915068Y-87971899D01*
X173781818Y-88221192D01*
X173715527Y-88439726D01*
X172073308Y-86797507D01*
X180189669Y-86797507D01*
X180228761Y-87023404D01*
X180311172Y-87237334D01*
X180433736Y-87431076D01*
X180591742Y-87597184D01*
X180779118Y-87729275D01*
X180988663Y-87822272D01*
X181050190Y-87830964D01*
X181229000Y-87705163D01*
X181229000Y-86614000D01*
X180349402Y-86614000D01*
X180189669Y-86797507D01*
X172073308Y-86797507D01*
X172013804Y-86738003D01*
X171990001Y-86708999D01*
X171874276Y-86614026D01*
X171742247Y-86543454D01*
X171598986Y-86499997D01*
X171487333Y-86489000D01*
X171487322Y-86489000D01*
X171450000Y-86485324D01*
X171412678Y-86489000D01*
X154238802Y-86489000D01*
X153926295Y-86176493D01*
X180189669Y-86176493D01*
X180349402Y-86360000D01*
X181229000Y-86360000D01*
X181229000Y-85268837D01*
X181050190Y-85143036D01*
X180988663Y-85151728D01*
X180779118Y-85244725D01*
X180591742Y-85376816D01*
X180433736Y-85542924D01*
X180311172Y-85736666D01*
X180228761Y-85950596D01*
X180189669Y-86176493D01*
X153926295Y-86176493D01*
X152709804Y-84960003D01*
X152686001Y-84930999D01*
X152570276Y-84836026D01*
X152438247Y-84765454D01*
X152294986Y-84721997D01*
X152183333Y-84711000D01*
X152183322Y-84711000D01*
X152146000Y-84707324D01*
X152108678Y-84711000D01*
X151298072Y-84711000D01*
X151298072Y-84671000D01*
X151285812Y-84546518D01*
X151249502Y-84426820D01*
X151190537Y-84316506D01*
X151111185Y-84219815D01*
X151014494Y-84140463D01*
X150904180Y-84081498D01*
X150784482Y-84045188D01*
X150660000Y-84032928D01*
X149060000Y-84032928D01*
X148935518Y-84045188D01*
X148815820Y-84081498D01*
X148705506Y-84140463D01*
X148608815Y-84219815D01*
X148529463Y-84316506D01*
X148470498Y-84426820D01*
X148434188Y-84546518D01*
X148421928Y-84671000D01*
X148421928Y-84711000D01*
X146218072Y-84711000D01*
X146218072Y-84671000D01*
X146205812Y-84546518D01*
X146169502Y-84426820D01*
X146110537Y-84316506D01*
X146031185Y-84219815D01*
X145934494Y-84140463D01*
X145824180Y-84081498D01*
X145704482Y-84045188D01*
X145580000Y-84032928D01*
X143980000Y-84032928D01*
X143855518Y-84045188D01*
X143735820Y-84081498D01*
X143625506Y-84140463D01*
X143528815Y-84219815D01*
X143449463Y-84316506D01*
X143390498Y-84426820D01*
X143354188Y-84546518D01*
X143341928Y-84671000D01*
X138351317Y-84671000D01*
X138274637Y-84556241D01*
X138074759Y-84356363D01*
X137839727Y-84199320D01*
X137578574Y-84091147D01*
X137301335Y-84036000D01*
X137018665Y-84036000D01*
X136741426Y-84091147D01*
X136480273Y-84199320D01*
X136245241Y-84356363D01*
X136045363Y-84556241D01*
X135888320Y-84791273D01*
X135780147Y-85052426D01*
X135725000Y-85329665D01*
X130240991Y-85329665D01*
X129783468Y-84277362D01*
X129771351Y-84255613D01*
X129755224Y-84236646D01*
X129735706Y-84221190D01*
X129713549Y-84209838D01*
X129689602Y-84203027D01*
X129668477Y-84201009D01*
X118796113Y-84074586D01*
X118636354Y-83923702D01*
X164366903Y-83923702D01*
X164438486Y-84167671D01*
X164693996Y-84288571D01*
X164968184Y-84357300D01*
X165250512Y-84371217D01*
X165530130Y-84329787D01*
X165796292Y-84234603D01*
X165921514Y-84167671D01*
X165993097Y-83923702D01*
X165180000Y-83110605D01*
X164366903Y-83923702D01*
X118636354Y-83923702D01*
X116586000Y-81987257D01*
X116586000Y-80682508D01*
X116929000Y-80682508D01*
X116929000Y-81623491D01*
X116949764Y-81834308D01*
X117031818Y-82104807D01*
X117165068Y-82354100D01*
X117344392Y-82572607D01*
X117562899Y-82751932D01*
X117812192Y-82885182D01*
X118082691Y-82967236D01*
X118364000Y-82994943D01*
X118645308Y-82967236D01*
X118915807Y-82885182D01*
X119165100Y-82751932D01*
X119383607Y-82572608D01*
X119562932Y-82354101D01*
X119634000Y-82221142D01*
X119705068Y-82354100D01*
X119884392Y-82572607D01*
X120102899Y-82751932D01*
X120352192Y-82885182D01*
X120622691Y-82967236D01*
X120904000Y-82994943D01*
X121185308Y-82967236D01*
X121455807Y-82885182D01*
X121705100Y-82751932D01*
X121923607Y-82572608D01*
X122016419Y-82459517D01*
X122018188Y-82477482D01*
X122054498Y-82597180D01*
X122113463Y-82707494D01*
X122192815Y-82804185D01*
X122289506Y-82883537D01*
X122399820Y-82942502D01*
X122519518Y-82978812D01*
X122644000Y-82991072D01*
X124244000Y-82991072D01*
X124368482Y-82978812D01*
X124488180Y-82942502D01*
X124598494Y-82883537D01*
X124695185Y-82804185D01*
X124774537Y-82707494D01*
X124833502Y-82597180D01*
X124869812Y-82477482D01*
X124882072Y-82353000D01*
X124882072Y-81773665D01*
X135725000Y-81773665D01*
X135725000Y-82056335D01*
X135780147Y-82333574D01*
X135888320Y-82594727D01*
X136045363Y-82829759D01*
X136245241Y-83029637D01*
X136480273Y-83186680D01*
X136741426Y-83294853D01*
X137018665Y-83350000D01*
X137301335Y-83350000D01*
X137578574Y-83294853D01*
X137839727Y-83186680D01*
X138074759Y-83029637D01*
X138274637Y-82829759D01*
X138431680Y-82594727D01*
X138539853Y-82333574D01*
X138595000Y-82056335D01*
X138595000Y-81773665D01*
X143345000Y-81773665D01*
X143345000Y-82056335D01*
X143400147Y-82333574D01*
X143508320Y-82594727D01*
X143665363Y-82829759D01*
X143865241Y-83029637D01*
X144100273Y-83186680D01*
X144361426Y-83294853D01*
X144638665Y-83350000D01*
X144921335Y-83350000D01*
X145198574Y-83294853D01*
X145459727Y-83186680D01*
X145694759Y-83029637D01*
X145722884Y-83001512D01*
X163739783Y-83001512D01*
X163781213Y-83281130D01*
X163876397Y-83547292D01*
X163943329Y-83672514D01*
X164187298Y-83744097D01*
X165000395Y-82931000D01*
X165359605Y-82931000D01*
X166172702Y-83744097D01*
X166416671Y-83672514D01*
X166537571Y-83417004D01*
X166606300Y-83142816D01*
X166620217Y-82860488D01*
X166578787Y-82580870D01*
X166483603Y-82314708D01*
X166416671Y-82189486D01*
X166217340Y-82131000D01*
X168741928Y-82131000D01*
X168741928Y-83731000D01*
X168754188Y-83855482D01*
X168790498Y-83975180D01*
X168849463Y-84085494D01*
X168928815Y-84182185D01*
X169025506Y-84261537D01*
X169135820Y-84320502D01*
X169255518Y-84356812D01*
X169380000Y-84369072D01*
X170980000Y-84369072D01*
X171104482Y-84356812D01*
X171224180Y-84320502D01*
X171334494Y-84261537D01*
X171431185Y-84182185D01*
X171510537Y-84085494D01*
X171569502Y-83975180D01*
X171605812Y-83855482D01*
X171618072Y-83731000D01*
X171618072Y-82131000D01*
X171605812Y-82006518D01*
X171569502Y-81886820D01*
X171510537Y-81776506D01*
X171431185Y-81679815D01*
X171334494Y-81600463D01*
X171224180Y-81541498D01*
X171104482Y-81505188D01*
X170980000Y-81492928D01*
X169380000Y-81492928D01*
X169255518Y-81505188D01*
X169135820Y-81541498D01*
X169025506Y-81600463D01*
X168928815Y-81679815D01*
X168849463Y-81776506D01*
X168790498Y-81886820D01*
X168754188Y-82006518D01*
X168741928Y-82131000D01*
X166217340Y-82131000D01*
X166172702Y-82117903D01*
X165359605Y-82931000D01*
X165000395Y-82931000D01*
X164187298Y-82117903D01*
X163943329Y-82189486D01*
X163822429Y-82444996D01*
X163753700Y-82719184D01*
X163739783Y-83001512D01*
X145722884Y-83001512D01*
X145894637Y-82829759D01*
X146051680Y-82594727D01*
X146159853Y-82333574D01*
X146215000Y-82056335D01*
X146215000Y-81773665D01*
X146159853Y-81496426D01*
X146146299Y-81463702D01*
X149046903Y-81463702D01*
X149118486Y-81707671D01*
X149373996Y-81828571D01*
X149648184Y-81897300D01*
X149930512Y-81911217D01*
X150210130Y-81869787D01*
X150476292Y-81774603D01*
X150601514Y-81707671D01*
X150673097Y-81463702D01*
X149860000Y-80650605D01*
X149046903Y-81463702D01*
X146146299Y-81463702D01*
X146051680Y-81235273D01*
X145894637Y-81000241D01*
X145694759Y-80800363D01*
X145459727Y-80643320D01*
X145213941Y-80541512D01*
X148419783Y-80541512D01*
X148461213Y-80821130D01*
X148556397Y-81087292D01*
X148623329Y-81212514D01*
X148867298Y-81284097D01*
X149680395Y-80471000D01*
X150039605Y-80471000D01*
X150852702Y-81284097D01*
X151096671Y-81212514D01*
X151217571Y-80957004D01*
X151286300Y-80682816D01*
X151295131Y-80503665D01*
X153251000Y-80503665D01*
X153251000Y-80786335D01*
X153306147Y-81063574D01*
X153414320Y-81324727D01*
X153571363Y-81559759D01*
X153771241Y-81759637D01*
X154006273Y-81916680D01*
X154267426Y-82024853D01*
X154544665Y-82080000D01*
X154827335Y-82080000D01*
X155104574Y-82024853D01*
X155365727Y-81916680D01*
X155600759Y-81759637D01*
X155800637Y-81559759D01*
X155957680Y-81324727D01*
X156065853Y-81063574D01*
X156121000Y-80786335D01*
X156121000Y-80503665D01*
X160871000Y-80503665D01*
X160871000Y-80786335D01*
X160926147Y-81063574D01*
X161034320Y-81324727D01*
X161191363Y-81559759D01*
X161391241Y-81759637D01*
X161626273Y-81916680D01*
X161887426Y-82024853D01*
X162164665Y-82080000D01*
X162447335Y-82080000D01*
X162724574Y-82024853D01*
X162933536Y-81938298D01*
X164366903Y-81938298D01*
X165180000Y-82751395D01*
X165993097Y-81938298D01*
X165921514Y-81694329D01*
X165666004Y-81573429D01*
X165391816Y-81504700D01*
X165109488Y-81490783D01*
X164829870Y-81532213D01*
X164563708Y-81627397D01*
X164438486Y-81694329D01*
X164366903Y-81938298D01*
X162933536Y-81938298D01*
X162985727Y-81916680D01*
X163220759Y-81759637D01*
X163420637Y-81559759D01*
X163577680Y-81324727D01*
X163685853Y-81063574D01*
X163696178Y-81011665D01*
X174079000Y-81011665D01*
X174079000Y-81294335D01*
X174134147Y-81571574D01*
X174242320Y-81832727D01*
X174399363Y-82067759D01*
X174599241Y-82267637D01*
X174834273Y-82424680D01*
X175095426Y-82532853D01*
X175372665Y-82588000D01*
X175655335Y-82588000D01*
X175932574Y-82532853D01*
X176193727Y-82424680D01*
X176428759Y-82267637D01*
X176628637Y-82067759D01*
X176785680Y-81832727D01*
X176893853Y-81571574D01*
X176949000Y-81294335D01*
X176949000Y-81011665D01*
X181699000Y-81011665D01*
X181699000Y-81294335D01*
X181754147Y-81571574D01*
X181862320Y-81832727D01*
X182019363Y-82067759D01*
X182219241Y-82267637D01*
X182454273Y-82424680D01*
X182715426Y-82532853D01*
X182992665Y-82588000D01*
X183275335Y-82588000D01*
X183552574Y-82532853D01*
X183813727Y-82424680D01*
X184048759Y-82267637D01*
X184248637Y-82067759D01*
X184405680Y-81832727D01*
X184513853Y-81571574D01*
X184569000Y-81294335D01*
X184569000Y-81011665D01*
X184513853Y-80734426D01*
X184405680Y-80473273D01*
X184248637Y-80238241D01*
X184048759Y-80038363D01*
X183813727Y-79881320D01*
X183552574Y-79773147D01*
X183275335Y-79718000D01*
X182992665Y-79718000D01*
X182715426Y-79773147D01*
X182454273Y-79881320D01*
X182219241Y-80038363D01*
X182019363Y-80238241D01*
X181862320Y-80473273D01*
X181754147Y-80734426D01*
X181699000Y-81011665D01*
X176949000Y-81011665D01*
X176893853Y-80734426D01*
X176785680Y-80473273D01*
X176628637Y-80238241D01*
X176428759Y-80038363D01*
X176193727Y-79881320D01*
X175932574Y-79773147D01*
X175655335Y-79718000D01*
X175372665Y-79718000D01*
X175095426Y-79773147D01*
X174834273Y-79881320D01*
X174599241Y-80038363D01*
X174399363Y-80238241D01*
X174242320Y-80473273D01*
X174134147Y-80734426D01*
X174079000Y-81011665D01*
X163696178Y-81011665D01*
X163741000Y-80786335D01*
X163741000Y-80503665D01*
X163685853Y-80226426D01*
X163577680Y-79965273D01*
X163420637Y-79730241D01*
X163220759Y-79530363D01*
X162985727Y-79373320D01*
X162724574Y-79265147D01*
X162447335Y-79210000D01*
X162164665Y-79210000D01*
X161887426Y-79265147D01*
X161626273Y-79373320D01*
X161391241Y-79530363D01*
X161191363Y-79730241D01*
X161034320Y-79965273D01*
X160926147Y-80226426D01*
X160871000Y-80503665D01*
X156121000Y-80503665D01*
X156065853Y-80226426D01*
X155957680Y-79965273D01*
X155800637Y-79730241D01*
X155600759Y-79530363D01*
X155365727Y-79373320D01*
X155104574Y-79265147D01*
X154827335Y-79210000D01*
X154544665Y-79210000D01*
X154267426Y-79265147D01*
X154006273Y-79373320D01*
X153771241Y-79530363D01*
X153571363Y-79730241D01*
X153414320Y-79965273D01*
X153306147Y-80226426D01*
X153251000Y-80503665D01*
X151295131Y-80503665D01*
X151300217Y-80400488D01*
X151258787Y-80120870D01*
X151163603Y-79854708D01*
X151096671Y-79729486D01*
X150852702Y-79657903D01*
X150039605Y-80471000D01*
X149680395Y-80471000D01*
X148867298Y-79657903D01*
X148623329Y-79729486D01*
X148502429Y-79984996D01*
X148433700Y-80259184D01*
X148419783Y-80541512D01*
X145213941Y-80541512D01*
X145198574Y-80535147D01*
X144921335Y-80480000D01*
X144638665Y-80480000D01*
X144361426Y-80535147D01*
X144100273Y-80643320D01*
X143865241Y-80800363D01*
X143665363Y-81000241D01*
X143508320Y-81235273D01*
X143400147Y-81496426D01*
X143345000Y-81773665D01*
X138595000Y-81773665D01*
X138539853Y-81496426D01*
X138431680Y-81235273D01*
X138274637Y-81000241D01*
X138074759Y-80800363D01*
X137839727Y-80643320D01*
X137578574Y-80535147D01*
X137301335Y-80480000D01*
X137018665Y-80480000D01*
X136741426Y-80535147D01*
X136480273Y-80643320D01*
X136245241Y-80800363D01*
X136045363Y-81000241D01*
X135888320Y-81235273D01*
X135780147Y-81496426D01*
X135725000Y-81773665D01*
X124882072Y-81773665D01*
X124882072Y-79953000D01*
X124869812Y-79828518D01*
X124833502Y-79708820D01*
X124774537Y-79598506D01*
X124695185Y-79501815D01*
X124598494Y-79422463D01*
X124488180Y-79363498D01*
X124368482Y-79327188D01*
X124244000Y-79314928D01*
X122644000Y-79314928D01*
X122519518Y-79327188D01*
X122399820Y-79363498D01*
X122289506Y-79422463D01*
X122192815Y-79501815D01*
X122113463Y-79598506D01*
X122054498Y-79708820D01*
X122018188Y-79828518D01*
X122016419Y-79846482D01*
X121923608Y-79733392D01*
X121705101Y-79554068D01*
X121455808Y-79420818D01*
X121185309Y-79338764D01*
X120904000Y-79311057D01*
X120622692Y-79338764D01*
X120352193Y-79420818D01*
X120102900Y-79554068D01*
X119884393Y-79733392D01*
X119705068Y-79951899D01*
X119634000Y-80084858D01*
X119562932Y-79951899D01*
X119383608Y-79733392D01*
X119165101Y-79554068D01*
X118915808Y-79420818D01*
X118645309Y-79338764D01*
X118364000Y-79311057D01*
X118082692Y-79338764D01*
X117812193Y-79420818D01*
X117562900Y-79554068D01*
X117344393Y-79733392D01*
X117165068Y-79951899D01*
X117031818Y-80201192D01*
X116949764Y-80471691D01*
X116929000Y-80682508D01*
X116586000Y-80682508D01*
X116586000Y-78994212D01*
X149664227Y-79049343D01*
G37*
%TD.AperFunction*%
%TD*%
D36*
%TO.N,NEUTRAL*%
X115189000Y-114427000D02*
X105537000Y-114427000D01*
X105537000Y-113004584D01*
X110314021Y-113004584D01*
X110406766Y-113266429D01*
X110692120Y-113404820D01*
X110998990Y-113484883D01*
X111315584Y-113503540D01*
X111629733Y-113460074D01*
X111929367Y-113356156D01*
X112097234Y-113266429D01*
X112189979Y-113004584D01*
X111252000Y-112066605D01*
X110314021Y-113004584D01*
X105537000Y-113004584D01*
X105537000Y-111950584D01*
X109635460Y-111950584D01*
X109678926Y-112264733D01*
X109782844Y-112564367D01*
X109872571Y-112732234D01*
X110134416Y-112824979D01*
X111072395Y-111887000D01*
X111431605Y-111887000D01*
X112369584Y-112824979D01*
X112631429Y-112732234D01*
X112769820Y-112446880D01*
X112849883Y-112140010D01*
X112868540Y-111823416D01*
X112825074Y-111509267D01*
X112721156Y-111209633D01*
X112631429Y-111041766D01*
X112369584Y-110949021D01*
X111431605Y-111887000D01*
X111072395Y-111887000D01*
X110134416Y-110949021D01*
X109872571Y-111041766D01*
X109734180Y-111327120D01*
X109654117Y-111633990D01*
X109635460Y-111950584D01*
X105537000Y-111950584D01*
X105537000Y-110769416D01*
X110314021Y-110769416D01*
X111252000Y-111707395D01*
X112189979Y-110769416D01*
X112097234Y-110507571D01*
X111811880Y-110369180D01*
X111505010Y-110289117D01*
X111188416Y-110270460D01*
X110874267Y-110313926D01*
X110574633Y-110417844D01*
X110406766Y-110507571D01*
X110314021Y-110769416D01*
X105537000Y-110769416D01*
X105537000Y-106624594D01*
X109400000Y-106624594D01*
X109400000Y-106989406D01*
X109471171Y-107347208D01*
X109610779Y-107684251D01*
X109813458Y-107987581D01*
X110071419Y-108245542D01*
X110374749Y-108448221D01*
X110711792Y-108587829D01*
X111069594Y-108659000D01*
X111434406Y-108659000D01*
X111792208Y-108587829D01*
X112129251Y-108448221D01*
X112432581Y-108245542D01*
X112690542Y-107987581D01*
X112893221Y-107684251D01*
X113032829Y-107347208D01*
X113104000Y-106989406D01*
X113104000Y-106624594D01*
X113032829Y-106266792D01*
X112893221Y-105929749D01*
X112690542Y-105626419D01*
X112432581Y-105368458D01*
X112129251Y-105165779D01*
X111792208Y-105026171D01*
X111434406Y-104955000D01*
X111069594Y-104955000D01*
X110711792Y-105026171D01*
X110374749Y-105165779D01*
X110071419Y-105368458D01*
X109813458Y-105626419D01*
X109610779Y-105929749D01*
X109471171Y-106266792D01*
X109400000Y-106624594D01*
X105537000Y-106624594D01*
X105537000Y-102844584D01*
X110314021Y-102844584D01*
X110406766Y-103106429D01*
X110692120Y-103244820D01*
X110998990Y-103324883D01*
X111315584Y-103343540D01*
X111629733Y-103300074D01*
X111929367Y-103196156D01*
X112097234Y-103106429D01*
X112189979Y-102844584D01*
X111252000Y-101906605D01*
X110314021Y-102844584D01*
X105537000Y-102844584D01*
X105537000Y-101790584D01*
X109635460Y-101790584D01*
X109678926Y-102104733D01*
X109782844Y-102404367D01*
X109872571Y-102572234D01*
X110134416Y-102664979D01*
X111072395Y-101727000D01*
X111431605Y-101727000D01*
X112369584Y-102664979D01*
X112631429Y-102572234D01*
X112769820Y-102286880D01*
X112849883Y-101980010D01*
X112868540Y-101663416D01*
X112825074Y-101349267D01*
X112721156Y-101049633D01*
X112631429Y-100881766D01*
X112369584Y-100789021D01*
X111431605Y-101727000D01*
X111072395Y-101727000D01*
X110134416Y-100789021D01*
X109872571Y-100881766D01*
X109734180Y-101167120D01*
X109654117Y-101473990D01*
X109635460Y-101790584D01*
X105537000Y-101790584D01*
X105537000Y-100609416D01*
X110314021Y-100609416D01*
X111252000Y-101547395D01*
X112189979Y-100609416D01*
X112097234Y-100347571D01*
X111811880Y-100209180D01*
X111505010Y-100129117D01*
X111188416Y-100110460D01*
X110874267Y-100153926D01*
X110574633Y-100257844D01*
X110406766Y-100347571D01*
X110314021Y-100609416D01*
X105537000Y-100609416D01*
X105537000Y-99187000D01*
X115189000Y-99187000D01*
X115189000Y-114427000D01*
%TA.AperFunction,Conductor*%
D37*
G36*
X115189000Y-114427000D02*
G01*
X105537000Y-114427000D01*
X105537000Y-113004584D01*
X110314021Y-113004584D01*
X110406766Y-113266429D01*
X110692120Y-113404820D01*
X110998990Y-113484883D01*
X111315584Y-113503540D01*
X111629733Y-113460074D01*
X111929367Y-113356156D01*
X112097234Y-113266429D01*
X112189979Y-113004584D01*
X111252000Y-112066605D01*
X110314021Y-113004584D01*
X105537000Y-113004584D01*
X105537000Y-111950584D01*
X109635460Y-111950584D01*
X109678926Y-112264733D01*
X109782844Y-112564367D01*
X109872571Y-112732234D01*
X110134416Y-112824979D01*
X111072395Y-111887000D01*
X111431605Y-111887000D01*
X112369584Y-112824979D01*
X112631429Y-112732234D01*
X112769820Y-112446880D01*
X112849883Y-112140010D01*
X112868540Y-111823416D01*
X112825074Y-111509267D01*
X112721156Y-111209633D01*
X112631429Y-111041766D01*
X112369584Y-110949021D01*
X111431605Y-111887000D01*
X111072395Y-111887000D01*
X110134416Y-110949021D01*
X109872571Y-111041766D01*
X109734180Y-111327120D01*
X109654117Y-111633990D01*
X109635460Y-111950584D01*
X105537000Y-111950584D01*
X105537000Y-110769416D01*
X110314021Y-110769416D01*
X111252000Y-111707395D01*
X112189979Y-110769416D01*
X112097234Y-110507571D01*
X111811880Y-110369180D01*
X111505010Y-110289117D01*
X111188416Y-110270460D01*
X110874267Y-110313926D01*
X110574633Y-110417844D01*
X110406766Y-110507571D01*
X110314021Y-110769416D01*
X105537000Y-110769416D01*
X105537000Y-106624594D01*
X109400000Y-106624594D01*
X109400000Y-106989406D01*
X109471171Y-107347208D01*
X109610779Y-107684251D01*
X109813458Y-107987581D01*
X110071419Y-108245542D01*
X110374749Y-108448221D01*
X110711792Y-108587829D01*
X111069594Y-108659000D01*
X111434406Y-108659000D01*
X111792208Y-108587829D01*
X112129251Y-108448221D01*
X112432581Y-108245542D01*
X112690542Y-107987581D01*
X112893221Y-107684251D01*
X113032829Y-107347208D01*
X113104000Y-106989406D01*
X113104000Y-106624594D01*
X113032829Y-106266792D01*
X112893221Y-105929749D01*
X112690542Y-105626419D01*
X112432581Y-105368458D01*
X112129251Y-105165779D01*
X111792208Y-105026171D01*
X111434406Y-104955000D01*
X111069594Y-104955000D01*
X110711792Y-105026171D01*
X110374749Y-105165779D01*
X110071419Y-105368458D01*
X109813458Y-105626419D01*
X109610779Y-105929749D01*
X109471171Y-106266792D01*
X109400000Y-106624594D01*
X105537000Y-106624594D01*
X105537000Y-102844584D01*
X110314021Y-102844584D01*
X110406766Y-103106429D01*
X110692120Y-103244820D01*
X110998990Y-103324883D01*
X111315584Y-103343540D01*
X111629733Y-103300074D01*
X111929367Y-103196156D01*
X112097234Y-103106429D01*
X112189979Y-102844584D01*
X111252000Y-101906605D01*
X110314021Y-102844584D01*
X105537000Y-102844584D01*
X105537000Y-101790584D01*
X109635460Y-101790584D01*
X109678926Y-102104733D01*
X109782844Y-102404367D01*
X109872571Y-102572234D01*
X110134416Y-102664979D01*
X111072395Y-101727000D01*
X111431605Y-101727000D01*
X112369584Y-102664979D01*
X112631429Y-102572234D01*
X112769820Y-102286880D01*
X112849883Y-101980010D01*
X112868540Y-101663416D01*
X112825074Y-101349267D01*
X112721156Y-101049633D01*
X112631429Y-100881766D01*
X112369584Y-100789021D01*
X111431605Y-101727000D01*
X111072395Y-101727000D01*
X110134416Y-100789021D01*
X109872571Y-100881766D01*
X109734180Y-101167120D01*
X109654117Y-101473990D01*
X109635460Y-101790584D01*
X105537000Y-101790584D01*
X105537000Y-100609416D01*
X110314021Y-100609416D01*
X111252000Y-101547395D01*
X112189979Y-100609416D01*
X112097234Y-100347571D01*
X111811880Y-100209180D01*
X111505010Y-100129117D01*
X111188416Y-100110460D01*
X110874267Y-100153926D01*
X110574633Y-100257844D01*
X110406766Y-100347571D01*
X110314021Y-100609416D01*
X105537000Y-100609416D01*
X105537000Y-99187000D01*
X115189000Y-99187000D01*
X115189000Y-114427000D01*
G37*
%TD.AperFunction*%
%TD*%
M02*
