%TF.GenerationSoftware,KiCad,Pcbnew,(5.1.10)-1*%
%TF.CreationDate,2021-11-25T21:10:27+00:00*%
%TF.ProjectId,vacSwitch,76616353-7769-4746-9368-2e6b69636164,rev?*%
%TF.SameCoordinates,Original*%
%TF.FileFunction,Legend,Top*%
%TF.FilePolarity,Positive*%
%FSLAX46Y46*%
G04 Gerber Fmt 4.6, Leading zero omitted, Abs format (unit mm)*
G04 Created by KiCad (PCBNEW (5.1.10)-1) date 2021-11-25 21:10:27*
%MOMM*%
%LPD*%
G01*
G04 APERTURE LIST*
%ADD10C,0.150000*%
%ADD11C,0.120000*%
%ADD12C,0.100000*%
%ADD13C,0.254000*%
G04 APERTURE END LIST*
D10*
X105719619Y-121031142D02*
X105719619Y-120554952D01*
X106719619Y-120554952D01*
X106719619Y-121554952D02*
X106719619Y-121745428D01*
X106672000Y-121840666D01*
X106576761Y-121935904D01*
X106386285Y-121983523D01*
X106052952Y-121983523D01*
X105862476Y-121935904D01*
X105767238Y-121840666D01*
X105719619Y-121745428D01*
X105719619Y-121554952D01*
X105767238Y-121459714D01*
X105862476Y-121364476D01*
X106052952Y-121316857D01*
X106386285Y-121316857D01*
X106576761Y-121364476D01*
X106672000Y-121459714D01*
X106719619Y-121554952D01*
X106005333Y-122364476D02*
X106005333Y-122840666D01*
X105719619Y-122269238D02*
X106719619Y-122602571D01*
X105719619Y-122935904D01*
X105719619Y-123269238D02*
X106719619Y-123269238D01*
X106719619Y-123507333D01*
X106672000Y-123650190D01*
X106576761Y-123745428D01*
X106481523Y-123793047D01*
X106291047Y-123840666D01*
X106148190Y-123840666D01*
X105957714Y-123793047D01*
X105862476Y-123745428D01*
X105767238Y-123650190D01*
X105719619Y-123507333D01*
X105719619Y-123269238D01*
X106751380Y-112045714D02*
X105751380Y-112045714D01*
X106751380Y-111474285D01*
X105751380Y-111474285D01*
X106751380Y-101885714D02*
X105751380Y-101885714D01*
X106751380Y-101314285D01*
X105751380Y-101314285D01*
X105973619Y-97083523D02*
X105973619Y-96607333D01*
X106973619Y-96607333D01*
X106719619Y-105418095D02*
X105719619Y-105751428D01*
X106719619Y-106084761D01*
X106005333Y-106370476D02*
X106005333Y-106846666D01*
X105719619Y-106275238D02*
X106719619Y-106608571D01*
X105719619Y-106941904D01*
X105814857Y-107846666D02*
X105767238Y-107799047D01*
X105719619Y-107656190D01*
X105719619Y-107560952D01*
X105767238Y-107418095D01*
X105862476Y-107322857D01*
X105957714Y-107275238D01*
X106148190Y-107227619D01*
X106291047Y-107227619D01*
X106481523Y-107275238D01*
X106576761Y-107322857D01*
X106672000Y-107418095D01*
X106719619Y-107560952D01*
X106719619Y-107656190D01*
X106672000Y-107799047D01*
X106624380Y-107846666D01*
X105719619Y-115824142D02*
X105719619Y-115347952D01*
X106719619Y-115347952D01*
X106719619Y-116347952D02*
X106719619Y-116538428D01*
X106672000Y-116633666D01*
X106576761Y-116728904D01*
X106386285Y-116776523D01*
X106052952Y-116776523D01*
X105862476Y-116728904D01*
X105767238Y-116633666D01*
X105719619Y-116538428D01*
X105719619Y-116347952D01*
X105767238Y-116252714D01*
X105862476Y-116157476D01*
X106052952Y-116109857D01*
X106386285Y-116109857D01*
X106576761Y-116157476D01*
X106672000Y-116252714D01*
X106719619Y-116347952D01*
X106005333Y-117157476D02*
X106005333Y-117633666D01*
X105719619Y-117062238D02*
X106719619Y-117395571D01*
X105719619Y-117728904D01*
X105719619Y-118062238D02*
X106719619Y-118062238D01*
X106719619Y-118300333D01*
X106672000Y-118443190D01*
X106576761Y-118538428D01*
X106481523Y-118586047D01*
X106291047Y-118633666D01*
X106148190Y-118633666D01*
X105957714Y-118586047D01*
X105862476Y-118538428D01*
X105767238Y-118443190D01*
X105719619Y-118300333D01*
X105719619Y-118062238D01*
X171997809Y-113101380D02*
X171997809Y-112101380D01*
X172426380Y-113053761D02*
X172569238Y-113101380D01*
X172807333Y-113101380D01*
X172902571Y-113053761D01*
X172950190Y-113006142D01*
X172997809Y-112910904D01*
X172997809Y-112815666D01*
X172950190Y-112720428D01*
X172902571Y-112672809D01*
X172807333Y-112625190D01*
X172616857Y-112577571D01*
X172521619Y-112529952D01*
X172474000Y-112482333D01*
X172426380Y-112387095D01*
X172426380Y-112291857D01*
X172474000Y-112196619D01*
X172521619Y-112149000D01*
X172616857Y-112101380D01*
X172854952Y-112101380D01*
X172997809Y-112149000D01*
X173426380Y-113101380D02*
X173426380Y-112101380D01*
X173807333Y-112101380D01*
X173902571Y-112149000D01*
X173950190Y-112196619D01*
X173997809Y-112291857D01*
X173997809Y-112434714D01*
X173950190Y-112529952D01*
X173902571Y-112577571D01*
X173807333Y-112625190D01*
X173426380Y-112625190D01*
X188873380Y-115577476D02*
X189873380Y-115244142D01*
X188873380Y-114910809D01*
X189873380Y-114434619D02*
X189825761Y-114529857D01*
X189778142Y-114577476D01*
X189682904Y-114625095D01*
X189397190Y-114625095D01*
X189301952Y-114577476D01*
X189254333Y-114529857D01*
X189206714Y-114434619D01*
X189206714Y-114291761D01*
X189254333Y-114196523D01*
X189301952Y-114148904D01*
X189397190Y-114101285D01*
X189682904Y-114101285D01*
X189778142Y-114148904D01*
X189825761Y-114196523D01*
X189873380Y-114291761D01*
X189873380Y-114434619D01*
X189873380Y-113529857D02*
X189825761Y-113625095D01*
X189730523Y-113672714D01*
X188873380Y-113672714D01*
X189206714Y-113291761D02*
X189206714Y-112910809D01*
X188873380Y-113148904D02*
X189730523Y-113148904D01*
X189825761Y-113101285D01*
X189873380Y-113006047D01*
X189873380Y-112910809D01*
X189349571Y-111482238D02*
X189349571Y-111815571D01*
X189873380Y-111815571D02*
X188873380Y-111815571D01*
X188873380Y-111339380D01*
X189873380Y-110958428D02*
X189206714Y-110958428D01*
X189397190Y-110958428D02*
X189301952Y-110910809D01*
X189254333Y-110863190D01*
X189206714Y-110767952D01*
X189206714Y-110672714D01*
X189825761Y-109958428D02*
X189873380Y-110053666D01*
X189873380Y-110244142D01*
X189825761Y-110339380D01*
X189730523Y-110387000D01*
X189349571Y-110387000D01*
X189254333Y-110339380D01*
X189206714Y-110244142D01*
X189206714Y-110053666D01*
X189254333Y-109958428D01*
X189349571Y-109910809D01*
X189444809Y-109910809D01*
X189540047Y-110387000D01*
X189825761Y-109101285D02*
X189873380Y-109196523D01*
X189873380Y-109387000D01*
X189825761Y-109482238D01*
X189730523Y-109529857D01*
X189349571Y-109529857D01*
X189254333Y-109482238D01*
X189206714Y-109387000D01*
X189206714Y-109196523D01*
X189254333Y-109101285D01*
X189349571Y-109053666D01*
X189444809Y-109053666D01*
X189540047Y-109529857D01*
X191428142Y-113934619D02*
X191475761Y-113982238D01*
X191523380Y-114125095D01*
X191523380Y-114220333D01*
X191475761Y-114363190D01*
X191380523Y-114458428D01*
X191285285Y-114506047D01*
X191094809Y-114553666D01*
X190951952Y-114553666D01*
X190761476Y-114506047D01*
X190666238Y-114458428D01*
X190571000Y-114363190D01*
X190523380Y-114220333D01*
X190523380Y-114125095D01*
X190571000Y-113982238D01*
X190618619Y-113934619D01*
X191523380Y-113363190D02*
X191475761Y-113458428D01*
X191428142Y-113506047D01*
X191332904Y-113553666D01*
X191047190Y-113553666D01*
X190951952Y-113506047D01*
X190904333Y-113458428D01*
X190856714Y-113363190D01*
X190856714Y-113220333D01*
X190904333Y-113125095D01*
X190951952Y-113077476D01*
X191047190Y-113029857D01*
X191332904Y-113029857D01*
X191428142Y-113077476D01*
X191475761Y-113125095D01*
X191523380Y-113220333D01*
X191523380Y-113363190D01*
X190856714Y-112601285D02*
X191523380Y-112601285D01*
X190951952Y-112601285D02*
X190904333Y-112553666D01*
X190856714Y-112458428D01*
X190856714Y-112315571D01*
X190904333Y-112220333D01*
X190999571Y-112172714D01*
X191523380Y-112172714D01*
X190856714Y-111839380D02*
X190856714Y-111458428D01*
X190523380Y-111696523D02*
X191380523Y-111696523D01*
X191475761Y-111648904D01*
X191523380Y-111553666D01*
X191523380Y-111458428D01*
X191523380Y-110696523D02*
X190999571Y-110696523D01*
X190904333Y-110744142D01*
X190856714Y-110839380D01*
X190856714Y-111029857D01*
X190904333Y-111125095D01*
X191475761Y-110696523D02*
X191523380Y-110791761D01*
X191523380Y-111029857D01*
X191475761Y-111125095D01*
X191380523Y-111172714D01*
X191285285Y-111172714D01*
X191190047Y-111125095D01*
X191142428Y-111029857D01*
X191142428Y-110791761D01*
X191094809Y-110696523D01*
X191475761Y-109791761D02*
X191523380Y-109887000D01*
X191523380Y-110077476D01*
X191475761Y-110172714D01*
X191428142Y-110220333D01*
X191332904Y-110267952D01*
X191047190Y-110267952D01*
X190951952Y-110220333D01*
X190904333Y-110172714D01*
X190856714Y-110077476D01*
X190856714Y-109887000D01*
X190904333Y-109791761D01*
X190856714Y-109506047D02*
X190856714Y-109125095D01*
X190523380Y-109363190D02*
X191380523Y-109363190D01*
X191475761Y-109315571D01*
X191523380Y-109220333D01*
X191523380Y-109125095D01*
X162711142Y-99147380D02*
X162806380Y-99147380D01*
X162901619Y-99195000D01*
X162949238Y-99242619D01*
X162996857Y-99337857D01*
X163044476Y-99528333D01*
X163044476Y-99766428D01*
X162996857Y-99956904D01*
X162949238Y-100052142D01*
X162901619Y-100099761D01*
X162806380Y-100147380D01*
X162711142Y-100147380D01*
X162615904Y-100099761D01*
X162568285Y-100052142D01*
X162520666Y-99956904D01*
X162473047Y-99766428D01*
X162473047Y-99528333D01*
X162520666Y-99337857D01*
X162568285Y-99242619D01*
X162615904Y-99195000D01*
X162711142Y-99147380D01*
X164806380Y-100147380D02*
X164473047Y-99671190D01*
X164234952Y-100147380D02*
X164234952Y-99147380D01*
X164615904Y-99147380D01*
X164711142Y-99195000D01*
X164758761Y-99242619D01*
X164806380Y-99337857D01*
X164806380Y-99480714D01*
X164758761Y-99575952D01*
X164711142Y-99623571D01*
X164615904Y-99671190D01*
X164234952Y-99671190D01*
X165139714Y-99147380D02*
X165806380Y-100147380D01*
X165806380Y-99147380D02*
X165139714Y-100147380D01*
X166806380Y-99147380D02*
X167377809Y-99147380D01*
X167092095Y-100147380D02*
X167092095Y-99147380D01*
X167615904Y-99147380D02*
X168282571Y-100147380D01*
X168282571Y-99147380D02*
X167615904Y-100147380D01*
X164012761Y-107005380D02*
X163679428Y-106529190D01*
X163441333Y-107005380D02*
X163441333Y-106005380D01*
X163822285Y-106005380D01*
X163917523Y-106053000D01*
X163965142Y-106100619D01*
X164012761Y-106195857D01*
X164012761Y-106338714D01*
X163965142Y-106433952D01*
X163917523Y-106481571D01*
X163822285Y-106529190D01*
X163441333Y-106529190D01*
X164393714Y-106957761D02*
X164536571Y-107005380D01*
X164774666Y-107005380D01*
X164869904Y-106957761D01*
X164917523Y-106910142D01*
X164965142Y-106814904D01*
X164965142Y-106719666D01*
X164917523Y-106624428D01*
X164869904Y-106576809D01*
X164774666Y-106529190D01*
X164584190Y-106481571D01*
X164488952Y-106433952D01*
X164441333Y-106386333D01*
X164393714Y-106291095D01*
X164393714Y-106195857D01*
X164441333Y-106100619D01*
X164488952Y-106053000D01*
X164584190Y-106005380D01*
X164822285Y-106005380D01*
X164965142Y-106053000D01*
X165346095Y-106100619D02*
X165393714Y-106053000D01*
X165488952Y-106005380D01*
X165727047Y-106005380D01*
X165822285Y-106053000D01*
X165869904Y-106100619D01*
X165917523Y-106195857D01*
X165917523Y-106291095D01*
X165869904Y-106433952D01*
X165298476Y-107005380D01*
X165917523Y-107005380D01*
X166250857Y-106005380D02*
X166869904Y-106005380D01*
X166536571Y-106386333D01*
X166679428Y-106386333D01*
X166774666Y-106433952D01*
X166822285Y-106481571D01*
X166869904Y-106576809D01*
X166869904Y-106814904D01*
X166822285Y-106910142D01*
X166774666Y-106957761D01*
X166679428Y-107005380D01*
X166393714Y-107005380D01*
X166298476Y-106957761D01*
X166250857Y-106910142D01*
X167250857Y-106100619D02*
X167298476Y-106053000D01*
X167393714Y-106005380D01*
X167631809Y-106005380D01*
X167727047Y-106053000D01*
X167774666Y-106100619D01*
X167822285Y-106195857D01*
X167822285Y-106291095D01*
X167774666Y-106433952D01*
X167203238Y-107005380D01*
X167822285Y-107005380D01*
D11*
%TO.C,C3*%
X126160251Y-119530000D02*
X126760251Y-119530000D01*
X126460251Y-119230000D02*
X126460251Y-119830000D01*
X132434417Y-120225000D02*
G75*
G03*
X126565584Y-120225000I-2934417J-1060000D01*
G01*
X132434417Y-122345000D02*
G75*
G02*
X126565584Y-122345000I-2934417J1060000D01*
G01*
D12*
%TO.C,J1*%
X115302000Y-94107000D02*
X115302000Y-124587000D01*
X115302000Y-124587000D02*
X107202000Y-124587000D01*
X107202000Y-124587000D02*
X107202000Y-94107000D01*
X107202000Y-94107000D02*
X115302000Y-94107000D01*
D11*
%TO.C,J3*%
X171782000Y-108511000D02*
X170532000Y-108511000D01*
X171782000Y-109761000D02*
X171782000Y-108511000D01*
X167372000Y-119871000D02*
X167872000Y-119871000D01*
X167872000Y-119971000D02*
X167372000Y-119971000D01*
X167872000Y-119771000D02*
X167872000Y-119971000D01*
X167372000Y-119771000D02*
X167872000Y-119771000D01*
X167372000Y-117871000D02*
X167872000Y-117871000D01*
X167872000Y-117971000D02*
X167372000Y-117971000D01*
X167872000Y-117771000D02*
X167872000Y-117971000D01*
X167372000Y-117771000D02*
X167872000Y-117771000D01*
X167372000Y-115871000D02*
X167872000Y-115871000D01*
X167872000Y-115971000D02*
X167372000Y-115971000D01*
X167872000Y-115771000D02*
X167872000Y-115971000D01*
X167372000Y-115771000D02*
X167872000Y-115771000D01*
X167372000Y-113871000D02*
X167872000Y-113871000D01*
X167872000Y-113971000D02*
X167372000Y-113971000D01*
X167872000Y-113771000D02*
X167872000Y-113971000D01*
X167372000Y-113771000D02*
X167872000Y-113771000D01*
X167372000Y-111871000D02*
X167872000Y-111871000D01*
X167872000Y-111971000D02*
X167372000Y-111971000D01*
X167872000Y-111771000D02*
X167872000Y-111971000D01*
X167372000Y-111771000D02*
X167872000Y-111771000D01*
X168872000Y-122931000D02*
X168872000Y-122321000D01*
X170172000Y-122931000D02*
X170172000Y-122321000D01*
X168872000Y-108811000D02*
X168872000Y-109421000D01*
X170172000Y-108811000D02*
X170172000Y-109421000D01*
X170872000Y-120371000D02*
X171482000Y-120371000D01*
X170872000Y-122321000D02*
X170872000Y-120371000D01*
X167372000Y-122321000D02*
X170872000Y-122321000D01*
X167372000Y-109421000D02*
X167372000Y-122321000D01*
X170872000Y-109421000D02*
X167372000Y-109421000D01*
X170872000Y-111371000D02*
X170872000Y-109421000D01*
X171482000Y-111371000D02*
X170872000Y-111371000D01*
X171582000Y-110571000D02*
X171582000Y-110271000D01*
X171682000Y-110271000D02*
X171482000Y-110271000D01*
X171682000Y-110571000D02*
X171682000Y-110271000D01*
X171482000Y-110571000D02*
X171682000Y-110571000D01*
X171482000Y-122931000D02*
X171482000Y-108811000D01*
X166762000Y-122931000D02*
X171482000Y-122931000D01*
X166762000Y-108811000D02*
X166762000Y-122931000D01*
X171482000Y-108811000D02*
X166762000Y-108811000D01*
%TO.C,C1*%
X170484775Y-84406000D02*
X169984775Y-84406000D01*
X170234775Y-84656000D02*
X170234775Y-84156000D01*
X165284003Y-83991000D02*
G75*
G03*
X170075997Y-83991000I2395997J1060000D01*
G01*
X165284003Y-81871000D02*
G75*
G02*
X170075997Y-81871000I2395997J-1060000D01*
G01*
%TO.C,C4*%
X152480000Y-84221000D02*
G75*
G03*
X152480000Y-84221000I-2620000J0D01*
G01*
X148385000Y-87025775D02*
X148385000Y-86525775D01*
X148135000Y-86775775D02*
X148635000Y-86775775D01*
%TO.C,C6*%
X130620000Y-95269000D02*
X130620000Y-112009000D01*
X123380000Y-95269000D02*
X123380000Y-112009000D01*
X130620000Y-95269000D02*
X128104000Y-95269000D01*
X125896000Y-95269000D02*
X123380000Y-95269000D01*
X130620000Y-112009000D02*
X128104000Y-112009000D01*
X125896000Y-112009000D02*
X123380000Y-112009000D01*
%TO.C,D1*%
X143090000Y-86591000D02*
X143090000Y-84351000D01*
X143090000Y-84351000D02*
X138850000Y-84351000D01*
X138850000Y-84351000D02*
X138850000Y-86591000D01*
X138850000Y-86591000D02*
X143090000Y-86591000D01*
X143740000Y-85471000D02*
X143090000Y-85471000D01*
X138200000Y-85471000D02*
X138850000Y-85471000D01*
X142370000Y-86591000D02*
X142370000Y-84351000D01*
X142250000Y-86591000D02*
X142250000Y-84351000D01*
X142490000Y-86591000D02*
X142490000Y-84351000D01*
%TO.C,D6*%
X190818000Y-83983000D02*
X190974000Y-83983000D01*
X188502000Y-83983000D02*
X188658000Y-83983000D01*
X190817837Y-81381870D02*
G75*
G02*
X190818000Y-83463961I-1079837J-1041130D01*
G01*
X188658163Y-81381870D02*
G75*
G03*
X188658000Y-83463961I1079837J-1041130D01*
G01*
X190816608Y-80750665D02*
G75*
G02*
X190973516Y-83983000I-1078608J-1672335D01*
G01*
X188659392Y-80750665D02*
G75*
G03*
X188502484Y-83983000I1078608J-1672335D01*
G01*
%TO.C,D7*%
X190974000Y-86705000D02*
X190818000Y-86705000D01*
X188658000Y-86705000D02*
X188502000Y-86705000D01*
X190816608Y-89937335D02*
G75*
G03*
X190973516Y-86705000I-1078608J1672335D01*
G01*
X188659392Y-89937335D02*
G75*
G02*
X188502484Y-86705000I1078608J1672335D01*
G01*
X190817837Y-89306130D02*
G75*
G03*
X190818000Y-87224039I-1079837J1041130D01*
G01*
X188658163Y-89306130D02*
G75*
G02*
X188658000Y-87224039I1079837J1041130D01*
G01*
%TO.C,D9*%
X108236000Y-90083000D02*
X108236000Y-79843000D01*
X112877000Y-90083000D02*
X112877000Y-79843000D01*
X108236000Y-90083000D02*
X112877000Y-90083000D01*
X108236000Y-79843000D02*
X112877000Y-79843000D01*
X109746000Y-90083000D02*
X109746000Y-79843000D01*
X108236000Y-86813000D02*
X109746000Y-86813000D01*
X108236000Y-83112000D02*
X109746000Y-83112000D01*
%TO.C,J2*%
X161516000Y-100933000D02*
X161516000Y-105653000D01*
X161516000Y-105653000D02*
X169636000Y-105653000D01*
X169636000Y-105653000D02*
X169636000Y-100933000D01*
X169636000Y-100933000D02*
X161516000Y-100933000D01*
X163276000Y-100933000D02*
X163276000Y-100733000D01*
X163276000Y-100733000D02*
X162976000Y-100733000D01*
X162976000Y-100733000D02*
X162976000Y-100933000D01*
X163276000Y-100833000D02*
X162976000Y-100833000D01*
X164076000Y-100933000D02*
X164076000Y-101543000D01*
X164076000Y-101543000D02*
X162126000Y-101543000D01*
X162126000Y-101543000D02*
X162126000Y-105043000D01*
X162126000Y-105043000D02*
X169026000Y-105043000D01*
X169026000Y-105043000D02*
X169026000Y-101543000D01*
X169026000Y-101543000D02*
X167076000Y-101543000D01*
X167076000Y-101543000D02*
X167076000Y-100933000D01*
X161516000Y-102243000D02*
X162126000Y-102243000D01*
X161516000Y-103543000D02*
X162126000Y-103543000D01*
X169636000Y-102243000D02*
X169026000Y-102243000D01*
X169636000Y-103543000D02*
X169026000Y-103543000D01*
X164476000Y-105043000D02*
X164476000Y-104543000D01*
X164476000Y-104543000D02*
X164676000Y-104543000D01*
X164676000Y-104543000D02*
X164676000Y-105043000D01*
X164576000Y-105043000D02*
X164576000Y-104543000D01*
X166476000Y-105043000D02*
X166476000Y-104543000D01*
X166476000Y-104543000D02*
X166676000Y-104543000D01*
X166676000Y-104543000D02*
X166676000Y-105043000D01*
X166576000Y-105043000D02*
X166576000Y-104543000D01*
X162466000Y-100633000D02*
X161216000Y-100633000D01*
X161216000Y-100633000D02*
X161216000Y-101883000D01*
%TO.C,J4*%
X192310000Y-102207000D02*
X187590000Y-102207000D01*
X187590000Y-102207000D02*
X187590000Y-108327000D01*
X187590000Y-108327000D02*
X192310000Y-108327000D01*
X192310000Y-108327000D02*
X192310000Y-102207000D01*
X192310000Y-103967000D02*
X192510000Y-103967000D01*
X192510000Y-103967000D02*
X192510000Y-103667000D01*
X192510000Y-103667000D02*
X192310000Y-103667000D01*
X192410000Y-103967000D02*
X192410000Y-103667000D01*
X192310000Y-104767000D02*
X191700000Y-104767000D01*
X191700000Y-104767000D02*
X191700000Y-102817000D01*
X191700000Y-102817000D02*
X188200000Y-102817000D01*
X188200000Y-102817000D02*
X188200000Y-107717000D01*
X188200000Y-107717000D02*
X191700000Y-107717000D01*
X191700000Y-107717000D02*
X191700000Y-105767000D01*
X191700000Y-105767000D02*
X192310000Y-105767000D01*
X191000000Y-102207000D02*
X191000000Y-102817000D01*
X189700000Y-102207000D02*
X189700000Y-102817000D01*
X191000000Y-108327000D02*
X191000000Y-107717000D01*
X189700000Y-108327000D02*
X189700000Y-107717000D01*
X188200000Y-105167000D02*
X188700000Y-105167000D01*
X188700000Y-105167000D02*
X188700000Y-105367000D01*
X188700000Y-105367000D02*
X188200000Y-105367000D01*
X188200000Y-105267000D02*
X188700000Y-105267000D01*
X192610000Y-103157000D02*
X192610000Y-101907000D01*
X192610000Y-101907000D02*
X191360000Y-101907000D01*
%TO.C,JP1*%
X162246000Y-123377000D02*
X164906000Y-123377000D01*
X162246000Y-118237000D02*
X162246000Y-123377000D01*
X164906000Y-118237000D02*
X164906000Y-123377000D01*
X162246000Y-118237000D02*
X164906000Y-118237000D01*
X162246000Y-116967000D02*
X162246000Y-115637000D01*
X162246000Y-115637000D02*
X163576000Y-115637000D01*
%TO.C,K1*%
X178578000Y-102893000D02*
X176808000Y-102893000D01*
X176808000Y-102893000D02*
X176808000Y-122913000D01*
X176808000Y-122913000D02*
X182348000Y-122913000D01*
X182348000Y-122913000D02*
X182348000Y-102893000D01*
X182348000Y-102893000D02*
X180578000Y-102893000D01*
X180578000Y-102893000D02*
G75*
G02*
X178578000Y-102893000I-1000000J0D01*
G01*
%TO.C,PS1*%
X135952000Y-124675000D02*
X135942000Y-87415000D01*
X135952000Y-87415000D02*
X160212000Y-87415000D01*
X160212000Y-87415000D02*
X160212000Y-124675000D01*
X135952000Y-124675000D02*
X160212000Y-124675000D01*
X135692000Y-91805000D02*
X135692000Y-89805000D01*
%TO.C,Q1*%
X184426000Y-84637000D02*
X180826000Y-84637000D01*
X184464478Y-84648522D02*
G75*
G02*
X182626000Y-89087000I-1838478J-1838478D01*
G01*
X180787522Y-84648522D02*
G75*
G03*
X182626000Y-89087000I1838478J-1838478D01*
G01*
%TO.C,R3*%
X162460000Y-95853000D02*
X162790000Y-95853000D01*
X162460000Y-89313000D02*
X162460000Y-95853000D01*
X162790000Y-89313000D02*
X162460000Y-89313000D01*
X165200000Y-95853000D02*
X164870000Y-95853000D01*
X165200000Y-89313000D02*
X165200000Y-95853000D01*
X164870000Y-89313000D02*
X165200000Y-89313000D01*
%TO.C,R4*%
X144240000Y-82955000D02*
X144240000Y-83285000D01*
X144240000Y-83285000D02*
X137700000Y-83285000D01*
X137700000Y-83285000D02*
X137700000Y-82955000D01*
X144240000Y-80875000D02*
X144240000Y-80545000D01*
X144240000Y-80545000D02*
X137700000Y-80545000D01*
X137700000Y-80545000D02*
X137700000Y-80875000D01*
%TO.C,R7*%
X179356000Y-95861000D02*
X179356000Y-95531000D01*
X179356000Y-95531000D02*
X185896000Y-95531000D01*
X185896000Y-95531000D02*
X185896000Y-95861000D01*
X179356000Y-97941000D02*
X179356000Y-98271000D01*
X179356000Y-98271000D02*
X185896000Y-98271000D01*
X185896000Y-98271000D02*
X185896000Y-97941000D01*
%TO.C,R8*%
X185896000Y-94969000D02*
X185896000Y-94639000D01*
X179356000Y-94969000D02*
X185896000Y-94969000D01*
X179356000Y-94639000D02*
X179356000Y-94969000D01*
X185896000Y-92229000D02*
X185896000Y-92559000D01*
X179356000Y-92229000D02*
X185896000Y-92229000D01*
X179356000Y-92559000D02*
X179356000Y-92229000D01*
%TO.C,R9*%
X182594000Y-82523000D02*
X182594000Y-82193000D01*
X176054000Y-82523000D02*
X182594000Y-82523000D01*
X176054000Y-82193000D02*
X176054000Y-82523000D01*
X182594000Y-79783000D02*
X182594000Y-80113000D01*
X176054000Y-79783000D02*
X182594000Y-79783000D01*
X176054000Y-80113000D02*
X176054000Y-79783000D01*
%TO.C,R10*%
X161766000Y-81685000D02*
X161766000Y-82015000D01*
X161766000Y-82015000D02*
X155226000Y-82015000D01*
X155226000Y-82015000D02*
X155226000Y-81685000D01*
X161766000Y-79605000D02*
X161766000Y-79275000D01*
X161766000Y-79275000D02*
X155226000Y-79275000D01*
X155226000Y-79275000D02*
X155226000Y-79605000D01*
%TO.C,R11*%
X121309000Y-105823000D02*
X121639000Y-105823000D01*
X121639000Y-105823000D02*
X121639000Y-112363000D01*
X121639000Y-112363000D02*
X121309000Y-112363000D01*
X119229000Y-105823000D02*
X118899000Y-105823000D01*
X118899000Y-105823000D02*
X118899000Y-112363000D01*
X118899000Y-112363000D02*
X119229000Y-112363000D01*
%TO.C,R12*%
X131032000Y-93445000D02*
X131032000Y-93115000D01*
X124492000Y-93445000D02*
X131032000Y-93445000D01*
X124492000Y-93115000D02*
X124492000Y-93445000D01*
X131032000Y-90705000D02*
X131032000Y-91035000D01*
X124492000Y-90705000D02*
X131032000Y-90705000D01*
X124492000Y-91035000D02*
X124492000Y-90705000D01*
D10*
%TO.C,RV1*%
X118512000Y-95393000D02*
X118512000Y-102393000D01*
X122412000Y-95393000D02*
X122412000Y-102393000D01*
X122412000Y-102393000D02*
X118512000Y-102393000D01*
X122412000Y-95393000D02*
X118512000Y-95393000D01*
D11*
%TO.C,U1*%
X170704000Y-87443000D02*
X169454000Y-87443000D01*
X169454000Y-87443000D02*
X169454000Y-97723000D01*
X169454000Y-97723000D02*
X173954000Y-97723000D01*
X173954000Y-97723000D02*
X173954000Y-87443000D01*
X173954000Y-87443000D02*
X172704000Y-87443000D01*
X172704000Y-87443000D02*
G75*
G02*
X170704000Y-87443000I-1000000J0D01*
G01*
%TO.C,U2*%
X120777000Y-123464000D02*
X122727000Y-123464000D01*
X120777000Y-123464000D02*
X118827000Y-123464000D01*
X120777000Y-118344000D02*
X122727000Y-118344000D01*
X120777000Y-118344000D02*
X117327000Y-118344000D01*
%TO.C,U3*%
X124774000Y-83963000D02*
X124774000Y-82713000D01*
X124774000Y-82713000D02*
X117034000Y-82713000D01*
X117034000Y-82713000D02*
X117034000Y-87213000D01*
X117034000Y-87213000D02*
X124774000Y-87213000D01*
X124774000Y-87213000D02*
X124774000Y-85963000D01*
X124774000Y-85963000D02*
G75*
G02*
X124774000Y-83963000I0J1000000D01*
G01*
%TO.C,C3*%
D10*
X129333333Y-117392142D02*
X129285714Y-117439761D01*
X129142857Y-117487380D01*
X129047619Y-117487380D01*
X128904761Y-117439761D01*
X128809523Y-117344523D01*
X128761904Y-117249285D01*
X128714285Y-117058809D01*
X128714285Y-116915952D01*
X128761904Y-116725476D01*
X128809523Y-116630238D01*
X128904761Y-116535000D01*
X129047619Y-116487380D01*
X129142857Y-116487380D01*
X129285714Y-116535000D01*
X129333333Y-116582619D01*
X129666666Y-116487380D02*
X130285714Y-116487380D01*
X129952380Y-116868333D01*
X130095238Y-116868333D01*
X130190476Y-116915952D01*
X130238095Y-116963571D01*
X130285714Y-117058809D01*
X130285714Y-117296904D01*
X130238095Y-117392142D01*
X130190476Y-117439761D01*
X130095238Y-117487380D01*
X129809523Y-117487380D01*
X129714285Y-117439761D01*
X129666666Y-117392142D01*
X128904761Y-125987380D02*
X128333333Y-125987380D01*
X128619047Y-125987380D02*
X128619047Y-124987380D01*
X128523809Y-125130238D01*
X128428571Y-125225476D01*
X128333333Y-125273095D01*
X129333333Y-125320714D02*
X129333333Y-125987380D01*
X129333333Y-125415952D02*
X129380952Y-125368333D01*
X129476190Y-125320714D01*
X129619047Y-125320714D01*
X129714285Y-125368333D01*
X129761904Y-125463571D01*
X129761904Y-125987380D01*
X130571428Y-125463571D02*
X130238095Y-125463571D01*
X130238095Y-125987380D02*
X130238095Y-124987380D01*
X130714285Y-124987380D01*
%TO.C,J1*%
D13*
X110556523Y-97070333D02*
X111463666Y-97070333D01*
X111645095Y-97130809D01*
X111766047Y-97251761D01*
X111826523Y-97433190D01*
X111826523Y-97554142D01*
X111826523Y-95800333D02*
X111826523Y-96526047D01*
X111826523Y-96163190D02*
X110556523Y-96163190D01*
X110737952Y-96284142D01*
X110858904Y-96405095D01*
X110919380Y-96526047D01*
%TO.C,J3*%
D10*
X168616380Y-124412333D02*
X169330666Y-124412333D01*
X169473523Y-124459952D01*
X169568761Y-124555190D01*
X169616380Y-124698047D01*
X169616380Y-124793285D01*
X168616380Y-124031380D02*
X168616380Y-123412333D01*
X168997333Y-123745666D01*
X168997333Y-123602809D01*
X169044952Y-123507571D01*
X169092571Y-123459952D01*
X169187809Y-123412333D01*
X169425904Y-123412333D01*
X169521142Y-123459952D01*
X169568761Y-123507571D01*
X169616380Y-123602809D01*
X169616380Y-123888523D01*
X169568761Y-123983761D01*
X169521142Y-124031380D01*
%TO.C,C1*%
X167513333Y-87038142D02*
X167465714Y-87085761D01*
X167322857Y-87133380D01*
X167227619Y-87133380D01*
X167084761Y-87085761D01*
X166989523Y-86990523D01*
X166941904Y-86895285D01*
X166894285Y-86704809D01*
X166894285Y-86561952D01*
X166941904Y-86371476D01*
X166989523Y-86276238D01*
X167084761Y-86181000D01*
X167227619Y-86133380D01*
X167322857Y-86133380D01*
X167465714Y-86181000D01*
X167513333Y-86228619D01*
X168465714Y-87133380D02*
X167894285Y-87133380D01*
X168180000Y-87133380D02*
X168180000Y-86133380D01*
X168084761Y-86276238D01*
X167989523Y-86371476D01*
X167894285Y-86419095D01*
%TO.C,C4*%
X147661333Y-81510142D02*
X147613714Y-81557761D01*
X147470857Y-81605380D01*
X147375619Y-81605380D01*
X147232761Y-81557761D01*
X147137523Y-81462523D01*
X147089904Y-81367285D01*
X147042285Y-81176809D01*
X147042285Y-81033952D01*
X147089904Y-80843476D01*
X147137523Y-80748238D01*
X147232761Y-80653000D01*
X147375619Y-80605380D01*
X147470857Y-80605380D01*
X147613714Y-80653000D01*
X147661333Y-80700619D01*
X148518476Y-80938714D02*
X148518476Y-81605380D01*
X148280380Y-80557761D02*
X148042285Y-81272047D01*
X148661333Y-81272047D01*
X154062380Y-85292428D02*
X154062380Y-85863857D01*
X154062380Y-85578142D02*
X153062380Y-85578142D01*
X153205238Y-85673380D01*
X153300476Y-85768619D01*
X153348095Y-85863857D01*
X153062380Y-84673380D02*
X153062380Y-84578142D01*
X153110000Y-84482904D01*
X153157619Y-84435285D01*
X153252857Y-84387666D01*
X153443333Y-84340047D01*
X153681428Y-84340047D01*
X153871904Y-84387666D01*
X153967142Y-84435285D01*
X154014761Y-84482904D01*
X154062380Y-84578142D01*
X154062380Y-84673380D01*
X154014761Y-84768619D01*
X153967142Y-84816238D01*
X153871904Y-84863857D01*
X153681428Y-84911476D01*
X153443333Y-84911476D01*
X153252857Y-84863857D01*
X153157619Y-84816238D01*
X153110000Y-84768619D01*
X153062380Y-84673380D01*
X153395714Y-83911476D02*
X154395714Y-83911476D01*
X153443333Y-83911476D02*
X153395714Y-83816238D01*
X153395714Y-83625761D01*
X153443333Y-83530523D01*
X153490952Y-83482904D01*
X153586190Y-83435285D01*
X153871904Y-83435285D01*
X153967142Y-83482904D01*
X154014761Y-83530523D01*
X154062380Y-83625761D01*
X154062380Y-83816238D01*
X154014761Y-83911476D01*
X153538571Y-82673380D02*
X153538571Y-83006714D01*
X154062380Y-83006714D02*
X153062380Y-83006714D01*
X153062380Y-82530523D01*
%TO.C,C6*%
X132183142Y-97829666D02*
X132230761Y-97877285D01*
X132278380Y-98020142D01*
X132278380Y-98115380D01*
X132230761Y-98258238D01*
X132135523Y-98353476D01*
X132040285Y-98401095D01*
X131849809Y-98448714D01*
X131706952Y-98448714D01*
X131516476Y-98401095D01*
X131421238Y-98353476D01*
X131326000Y-98258238D01*
X131278380Y-98115380D01*
X131278380Y-98020142D01*
X131326000Y-97877285D01*
X131373619Y-97829666D01*
X131278380Y-96972523D02*
X131278380Y-97163000D01*
X131326000Y-97258238D01*
X131373619Y-97305857D01*
X131516476Y-97401095D01*
X131706952Y-97448714D01*
X132087904Y-97448714D01*
X132183142Y-97401095D01*
X132230761Y-97353476D01*
X132278380Y-97258238D01*
X132278380Y-97067761D01*
X132230761Y-96972523D01*
X132183142Y-96924904D01*
X132087904Y-96877285D01*
X131849809Y-96877285D01*
X131754571Y-96924904D01*
X131706952Y-96972523D01*
X131659333Y-97067761D01*
X131659333Y-97258238D01*
X131706952Y-97353476D01*
X131754571Y-97401095D01*
X131849809Y-97448714D01*
X131786380Y-110981571D02*
X131786380Y-110886333D01*
X131834000Y-110791095D01*
X131881619Y-110743476D01*
X131976857Y-110695857D01*
X132167333Y-110648238D01*
X132405428Y-110648238D01*
X132595904Y-110695857D01*
X132691142Y-110743476D01*
X132738761Y-110791095D01*
X132786380Y-110886333D01*
X132786380Y-110981571D01*
X132738761Y-111076809D01*
X132691142Y-111124428D01*
X132595904Y-111172047D01*
X132405428Y-111219666D01*
X132167333Y-111219666D01*
X131976857Y-111172047D01*
X131881619Y-111124428D01*
X131834000Y-111076809D01*
X131786380Y-110981571D01*
X132691142Y-110219666D02*
X132738761Y-110172047D01*
X132786380Y-110219666D01*
X132738761Y-110267285D01*
X132691142Y-110219666D01*
X132786380Y-110219666D01*
X131786380Y-109553000D02*
X131786380Y-109457761D01*
X131834000Y-109362523D01*
X131881619Y-109314904D01*
X131976857Y-109267285D01*
X132167333Y-109219666D01*
X132405428Y-109219666D01*
X132595904Y-109267285D01*
X132691142Y-109314904D01*
X132738761Y-109362523D01*
X132786380Y-109457761D01*
X132786380Y-109553000D01*
X132738761Y-109648238D01*
X132691142Y-109695857D01*
X132595904Y-109743476D01*
X132405428Y-109791095D01*
X132167333Y-109791095D01*
X131976857Y-109743476D01*
X131881619Y-109695857D01*
X131834000Y-109648238D01*
X131786380Y-109553000D01*
X132119714Y-108362523D02*
X132786380Y-108362523D01*
X131738761Y-108600619D02*
X132453047Y-108838714D01*
X132453047Y-108219666D01*
X131786380Y-107933952D02*
X131786380Y-107267285D01*
X132786380Y-107695857D01*
X132119714Y-106457761D02*
X132786380Y-106457761D01*
X132119714Y-106886333D02*
X132643523Y-106886333D01*
X132738761Y-106838714D01*
X132786380Y-106743476D01*
X132786380Y-106600619D01*
X132738761Y-106505380D01*
X132691142Y-106457761D01*
X132262571Y-105648238D02*
X132262571Y-105981571D01*
X132786380Y-105981571D02*
X131786380Y-105981571D01*
X131786380Y-105505380D01*
X132119714Y-103933952D02*
X132786380Y-103933952D01*
X131738761Y-104172047D02*
X132453047Y-104410142D01*
X132453047Y-103791095D01*
X131786380Y-103505380D02*
X131786380Y-102838714D01*
X132786380Y-103267285D01*
X132786380Y-101886333D02*
X132310190Y-102219666D01*
X132786380Y-102457761D02*
X131786380Y-102457761D01*
X131786380Y-102076809D01*
X131834000Y-101981571D01*
X131881619Y-101933952D01*
X131976857Y-101886333D01*
X132119714Y-101886333D01*
X132214952Y-101933952D01*
X132262571Y-101981571D01*
X132310190Y-102076809D01*
X132310190Y-102457761D01*
%TO.C,D1*%
X140231904Y-85923380D02*
X140231904Y-84923380D01*
X140470000Y-84923380D01*
X140612857Y-84971000D01*
X140708095Y-85066238D01*
X140755714Y-85161476D01*
X140803333Y-85351952D01*
X140803333Y-85494809D01*
X140755714Y-85685285D01*
X140708095Y-85780523D01*
X140612857Y-85875761D01*
X140470000Y-85923380D01*
X140231904Y-85923380D01*
X141755714Y-85923380D02*
X141184285Y-85923380D01*
X141470000Y-85923380D02*
X141470000Y-84923380D01*
X141374761Y-85066238D01*
X141279523Y-85161476D01*
X141184285Y-85209095D01*
X138700142Y-87193380D02*
X138128714Y-87193380D01*
X138414428Y-87193380D02*
X138414428Y-86193380D01*
X138319190Y-86336238D01*
X138223952Y-86431476D01*
X138128714Y-86479095D01*
X139128714Y-87193380D02*
X139128714Y-86193380D01*
X139700142Y-87193380D01*
X139700142Y-86193380D01*
X140604904Y-86526714D02*
X140604904Y-87193380D01*
X140366809Y-86145761D02*
X140128714Y-86860047D01*
X140747761Y-86860047D01*
X141652523Y-87193380D02*
X141081095Y-87193380D01*
X141366809Y-87193380D02*
X141366809Y-86193380D01*
X141271571Y-86336238D01*
X141176333Y-86431476D01*
X141081095Y-86479095D01*
X142509666Y-86526714D02*
X142509666Y-87193380D01*
X142271571Y-86145761D02*
X142033476Y-86860047D01*
X142652523Y-86860047D01*
X143176333Y-86621952D02*
X143081095Y-86574333D01*
X143033476Y-86526714D01*
X142985857Y-86431476D01*
X142985857Y-86383857D01*
X143033476Y-86288619D01*
X143081095Y-86241000D01*
X143176333Y-86193380D01*
X143366809Y-86193380D01*
X143462047Y-86241000D01*
X143509666Y-86288619D01*
X143557285Y-86383857D01*
X143557285Y-86431476D01*
X143509666Y-86526714D01*
X143462047Y-86574333D01*
X143366809Y-86621952D01*
X143176333Y-86621952D01*
X143081095Y-86669571D01*
X143033476Y-86717190D01*
X142985857Y-86812428D01*
X142985857Y-87002904D01*
X143033476Y-87098142D01*
X143081095Y-87145761D01*
X143176333Y-87193380D01*
X143366809Y-87193380D01*
X143462047Y-87145761D01*
X143509666Y-87098142D01*
X143557285Y-87002904D01*
X143557285Y-86812428D01*
X143509666Y-86717190D01*
X143462047Y-86669571D01*
X143366809Y-86621952D01*
X143502095Y-84653380D02*
X143502095Y-83653380D01*
X144073523Y-84653380D02*
X143644952Y-84081952D01*
X144073523Y-83653380D02*
X143502095Y-84224809D01*
%TO.C,D6*%
X187230380Y-83161095D02*
X186230380Y-83161095D01*
X186230380Y-82923000D01*
X186278000Y-82780142D01*
X186373238Y-82684904D01*
X186468476Y-82637285D01*
X186658952Y-82589666D01*
X186801809Y-82589666D01*
X186992285Y-82637285D01*
X187087523Y-82684904D01*
X187182761Y-82780142D01*
X187230380Y-82923000D01*
X187230380Y-83161095D01*
X186230380Y-81732523D02*
X186230380Y-81923000D01*
X186278000Y-82018238D01*
X186325619Y-82065857D01*
X186468476Y-82161095D01*
X186658952Y-82208714D01*
X187039904Y-82208714D01*
X187135142Y-82161095D01*
X187182761Y-82113476D01*
X187230380Y-82018238D01*
X187230380Y-81827761D01*
X187182761Y-81732523D01*
X187135142Y-81684904D01*
X187039904Y-81637285D01*
X186801809Y-81637285D01*
X186706571Y-81684904D01*
X186658952Y-81732523D01*
X186611333Y-81827761D01*
X186611333Y-82018238D01*
X186658952Y-82113476D01*
X186706571Y-82161095D01*
X186801809Y-82208714D01*
%TO.C,D7*%
X193150380Y-89003095D02*
X192150380Y-89003095D01*
X192150380Y-88765000D01*
X192198000Y-88622142D01*
X192293238Y-88526904D01*
X192388476Y-88479285D01*
X192578952Y-88431666D01*
X192721809Y-88431666D01*
X192912285Y-88479285D01*
X193007523Y-88526904D01*
X193102761Y-88622142D01*
X193150380Y-88765000D01*
X193150380Y-89003095D01*
X192150380Y-88098333D02*
X192150380Y-87431666D01*
X193150380Y-87860238D01*
%TO.C,D9*%
X107688380Y-85701095D02*
X106688380Y-85701095D01*
X106688380Y-85463000D01*
X106736000Y-85320142D01*
X106831238Y-85224904D01*
X106926476Y-85177285D01*
X107116952Y-85129666D01*
X107259809Y-85129666D01*
X107450285Y-85177285D01*
X107545523Y-85224904D01*
X107640761Y-85320142D01*
X107688380Y-85463000D01*
X107688380Y-85701095D01*
X107688380Y-84653476D02*
X107688380Y-84463000D01*
X107640761Y-84367761D01*
X107593142Y-84320142D01*
X107450285Y-84224904D01*
X107259809Y-84177285D01*
X106878857Y-84177285D01*
X106783619Y-84224904D01*
X106736000Y-84272523D01*
X106688380Y-84367761D01*
X106688380Y-84558238D01*
X106736000Y-84653476D01*
X106783619Y-84701095D01*
X106878857Y-84748714D01*
X107116952Y-84748714D01*
X107212190Y-84701095D01*
X107259809Y-84653476D01*
X107307428Y-84558238D01*
X107307428Y-84367761D01*
X107259809Y-84272523D01*
X107212190Y-84224904D01*
X107116952Y-84177285D01*
X114458380Y-88248714D02*
X113458380Y-88248714D01*
X114172666Y-87915380D01*
X113458380Y-87582047D01*
X114458380Y-87582047D01*
X114172666Y-87153476D02*
X114172666Y-86677285D01*
X114458380Y-87248714D02*
X113458380Y-86915380D01*
X114458380Y-86582047D01*
X114363142Y-85677285D02*
X114410761Y-85724904D01*
X114458380Y-85867761D01*
X114458380Y-85963000D01*
X114410761Y-86105857D01*
X114315523Y-86201095D01*
X114220285Y-86248714D01*
X114029809Y-86296333D01*
X113886952Y-86296333D01*
X113696476Y-86248714D01*
X113601238Y-86201095D01*
X113506000Y-86105857D01*
X113458380Y-85963000D01*
X113458380Y-85867761D01*
X113506000Y-85724904D01*
X113553619Y-85677285D01*
X114458380Y-84724904D02*
X114458380Y-85296333D01*
X114458380Y-85010619D02*
X113458380Y-85010619D01*
X113601238Y-85105857D01*
X113696476Y-85201095D01*
X113744095Y-85296333D01*
X113553619Y-84343952D02*
X113506000Y-84296333D01*
X113458380Y-84201095D01*
X113458380Y-83963000D01*
X113506000Y-83867761D01*
X113553619Y-83820142D01*
X113648857Y-83772523D01*
X113744095Y-83772523D01*
X113886952Y-83820142D01*
X114458380Y-84391571D01*
X114458380Y-83772523D01*
X114458380Y-83343952D02*
X113458380Y-83343952D01*
X114172666Y-83010619D01*
X113458380Y-82677285D01*
X114458380Y-82677285D01*
X113506000Y-81677285D02*
X113458380Y-81772523D01*
X113458380Y-81915380D01*
X113506000Y-82058238D01*
X113601238Y-82153476D01*
X113696476Y-82201095D01*
X113886952Y-82248714D01*
X114029809Y-82248714D01*
X114220285Y-82201095D01*
X114315523Y-82153476D01*
X114410761Y-82058238D01*
X114458380Y-81915380D01*
X114458380Y-81820142D01*
X114410761Y-81677285D01*
X114363142Y-81629666D01*
X114029809Y-81629666D01*
X114029809Y-81820142D01*
%TO.C,J2*%
X170354666Y-102703380D02*
X170354666Y-103417666D01*
X170307047Y-103560523D01*
X170211809Y-103655761D01*
X170068952Y-103703380D01*
X169973714Y-103703380D01*
X170783238Y-102798619D02*
X170830857Y-102751000D01*
X170926095Y-102703380D01*
X171164190Y-102703380D01*
X171259428Y-102751000D01*
X171307047Y-102798619D01*
X171354666Y-102893857D01*
X171354666Y-102989095D01*
X171307047Y-103131952D01*
X170735619Y-103703380D01*
X171354666Y-103703380D01*
%TO.C,J4*%
X192852380Y-105600333D02*
X193566666Y-105600333D01*
X193709523Y-105647952D01*
X193804761Y-105743190D01*
X193852380Y-105886047D01*
X193852380Y-105981285D01*
X193185714Y-104695571D02*
X193852380Y-104695571D01*
X192804761Y-104933666D02*
X193519047Y-105171761D01*
X193519047Y-104552714D01*
%TO.C,JP1*%
X162742666Y-114089380D02*
X162742666Y-114803666D01*
X162695047Y-114946523D01*
X162599809Y-115041761D01*
X162456952Y-115089380D01*
X162361714Y-115089380D01*
X163218857Y-115089380D02*
X163218857Y-114089380D01*
X163599809Y-114089380D01*
X163695047Y-114137000D01*
X163742666Y-114184619D01*
X163790285Y-114279857D01*
X163790285Y-114422714D01*
X163742666Y-114517952D01*
X163695047Y-114565571D01*
X163599809Y-114613190D01*
X163218857Y-114613190D01*
X164742666Y-115089380D02*
X164171238Y-115089380D01*
X164456952Y-115089380D02*
X164456952Y-114089380D01*
X164361714Y-114232238D01*
X164266476Y-114327476D01*
X164171238Y-114375095D01*
%TO.C,K1*%
X178839904Y-102345380D02*
X178839904Y-101345380D01*
X179411333Y-102345380D02*
X178982761Y-101773952D01*
X179411333Y-101345380D02*
X178839904Y-101916809D01*
X180363714Y-102345380D02*
X179792285Y-102345380D01*
X180078000Y-102345380D02*
X180078000Y-101345380D01*
X179982761Y-101488238D01*
X179887523Y-101583476D01*
X179792285Y-101631095D01*
%TO.C,PS1*%
X132643714Y-88463380D02*
X132643714Y-87463380D01*
X133024666Y-87463380D01*
X133119904Y-87511000D01*
X133167523Y-87558619D01*
X133215142Y-87653857D01*
X133215142Y-87796714D01*
X133167523Y-87891952D01*
X133119904Y-87939571D01*
X133024666Y-87987190D01*
X132643714Y-87987190D01*
X133596095Y-88415761D02*
X133738952Y-88463380D01*
X133977047Y-88463380D01*
X134072285Y-88415761D01*
X134119904Y-88368142D01*
X134167523Y-88272904D01*
X134167523Y-88177666D01*
X134119904Y-88082428D01*
X134072285Y-88034809D01*
X133977047Y-87987190D01*
X133786571Y-87939571D01*
X133691333Y-87891952D01*
X133643714Y-87844333D01*
X133596095Y-87749095D01*
X133596095Y-87653857D01*
X133643714Y-87558619D01*
X133691333Y-87511000D01*
X133786571Y-87463380D01*
X134024666Y-87463380D01*
X134167523Y-87511000D01*
X135119904Y-88463380D02*
X134548476Y-88463380D01*
X134834190Y-88463380D02*
X134834190Y-87463380D01*
X134738952Y-87606238D01*
X134643714Y-87701476D01*
X134548476Y-87749095D01*
X153739619Y-101257380D02*
X154215809Y-100924047D01*
X153739619Y-100685952D02*
X154739619Y-100685952D01*
X154739619Y-101066904D01*
X154692000Y-101162142D01*
X154644380Y-101209761D01*
X154549142Y-101257380D01*
X154406285Y-101257380D01*
X154311047Y-101209761D01*
X154263428Y-101162142D01*
X154215809Y-101066904D01*
X154215809Y-100685952D01*
X154025333Y-101638333D02*
X154025333Y-102114523D01*
X153739619Y-101543095D02*
X154739619Y-101876428D01*
X153739619Y-102209761D01*
X153834857Y-103114523D02*
X153787238Y-103066904D01*
X153739619Y-102924047D01*
X153739619Y-102828809D01*
X153787238Y-102685952D01*
X153882476Y-102590714D01*
X153977714Y-102543095D01*
X154168190Y-102495476D01*
X154311047Y-102495476D01*
X154501523Y-102543095D01*
X154596761Y-102590714D01*
X154692000Y-102685952D01*
X154739619Y-102828809D01*
X154739619Y-102924047D01*
X154692000Y-103066904D01*
X154644380Y-103114523D01*
X154739619Y-103733571D02*
X154739619Y-103828809D01*
X154692000Y-103924047D01*
X154644380Y-103971666D01*
X154549142Y-104019285D01*
X154358666Y-104066904D01*
X154120571Y-104066904D01*
X153930095Y-104019285D01*
X153834857Y-103971666D01*
X153787238Y-103924047D01*
X153739619Y-103828809D01*
X153739619Y-103733571D01*
X153787238Y-103638333D01*
X153834857Y-103590714D01*
X153930095Y-103543095D01*
X154120571Y-103495476D01*
X154358666Y-103495476D01*
X154549142Y-103543095D01*
X154644380Y-103590714D01*
X154692000Y-103638333D01*
X154739619Y-103733571D01*
X154406285Y-104924047D02*
X153739619Y-104924047D01*
X154787238Y-104685952D02*
X154072952Y-104447857D01*
X154072952Y-105066904D01*
X154120571Y-105447857D02*
X154120571Y-106209761D01*
X154739619Y-106876428D02*
X154739619Y-106971666D01*
X154692000Y-107066904D01*
X154644380Y-107114523D01*
X154549142Y-107162142D01*
X154358666Y-107209761D01*
X154120571Y-107209761D01*
X153930095Y-107162142D01*
X153834857Y-107114523D01*
X153787238Y-107066904D01*
X153739619Y-106971666D01*
X153739619Y-106876428D01*
X153787238Y-106781190D01*
X153834857Y-106733571D01*
X153930095Y-106685952D01*
X154120571Y-106638333D01*
X154358666Y-106638333D01*
X154549142Y-106685952D01*
X154644380Y-106733571D01*
X154692000Y-106781190D01*
X154739619Y-106876428D01*
X154739619Y-108114523D02*
X154739619Y-107638333D01*
X154263428Y-107590714D01*
X154311047Y-107638333D01*
X154358666Y-107733571D01*
X154358666Y-107971666D01*
X154311047Y-108066904D01*
X154263428Y-108114523D01*
X154168190Y-108162142D01*
X153930095Y-108162142D01*
X153834857Y-108114523D01*
X153787238Y-108066904D01*
X153739619Y-107971666D01*
X153739619Y-107733571D01*
X153787238Y-107638333D01*
X153834857Y-107590714D01*
X153787238Y-108543095D02*
X153739619Y-108685952D01*
X153739619Y-108924047D01*
X153787238Y-109019285D01*
X153834857Y-109066904D01*
X153930095Y-109114523D01*
X154025333Y-109114523D01*
X154120571Y-109066904D01*
X154168190Y-109019285D01*
X154215809Y-108924047D01*
X154263428Y-108733571D01*
X154311047Y-108638333D01*
X154358666Y-108590714D01*
X154453904Y-108543095D01*
X154549142Y-108543095D01*
X154644380Y-108590714D01*
X154692000Y-108638333D01*
X154739619Y-108733571D01*
X154739619Y-108971666D01*
X154692000Y-109114523D01*
X154692000Y-110066904D02*
X154739619Y-109971666D01*
X154739619Y-109828809D01*
X154692000Y-109685952D01*
X154596761Y-109590714D01*
X154501523Y-109543095D01*
X154311047Y-109495476D01*
X154168190Y-109495476D01*
X153977714Y-109543095D01*
X153882476Y-109590714D01*
X153787238Y-109685952D01*
X153739619Y-109828809D01*
X153739619Y-109924047D01*
X153787238Y-110066904D01*
X153834857Y-110114523D01*
X154168190Y-110114523D01*
X154168190Y-109924047D01*
X154025333Y-110495476D02*
X154025333Y-110971666D01*
X153739619Y-110400238D02*
X154739619Y-110733571D01*
X153739619Y-111066904D01*
%TO.C,Q1*%
X182530761Y-90594619D02*
X182435523Y-90547000D01*
X182340285Y-90451761D01*
X182197428Y-90308904D01*
X182102190Y-90261285D01*
X182006952Y-90261285D01*
X182054571Y-90499380D02*
X181959333Y-90451761D01*
X181864095Y-90356523D01*
X181816476Y-90166047D01*
X181816476Y-89832714D01*
X181864095Y-89642238D01*
X181959333Y-89547000D01*
X182054571Y-89499380D01*
X182245047Y-89499380D01*
X182340285Y-89547000D01*
X182435523Y-89642238D01*
X182483142Y-89832714D01*
X182483142Y-90166047D01*
X182435523Y-90356523D01*
X182340285Y-90451761D01*
X182245047Y-90499380D01*
X182054571Y-90499380D01*
X183435523Y-90499380D02*
X182864095Y-90499380D01*
X183149809Y-90499380D02*
X183149809Y-89499380D01*
X183054571Y-89642238D01*
X182959333Y-89737476D01*
X182864095Y-89785095D01*
X180768857Y-83625571D02*
X180911714Y-83673190D01*
X180959333Y-83720809D01*
X181006952Y-83816047D01*
X181006952Y-83958904D01*
X180959333Y-84054142D01*
X180911714Y-84101761D01*
X180816476Y-84149380D01*
X180435523Y-84149380D01*
X180435523Y-83149380D01*
X180768857Y-83149380D01*
X180864095Y-83197000D01*
X180911714Y-83244619D01*
X180959333Y-83339857D01*
X180959333Y-83435095D01*
X180911714Y-83530333D01*
X180864095Y-83577952D01*
X180768857Y-83625571D01*
X180435523Y-83625571D01*
X182006952Y-84054142D02*
X181959333Y-84101761D01*
X181816476Y-84149380D01*
X181721238Y-84149380D01*
X181578380Y-84101761D01*
X181483142Y-84006523D01*
X181435523Y-83911285D01*
X181387904Y-83720809D01*
X181387904Y-83577952D01*
X181435523Y-83387476D01*
X181483142Y-83292238D01*
X181578380Y-83197000D01*
X181721238Y-83149380D01*
X181816476Y-83149380D01*
X181959333Y-83197000D01*
X182006952Y-83244619D01*
X182911714Y-83149380D02*
X182435523Y-83149380D01*
X182387904Y-83625571D01*
X182435523Y-83577952D01*
X182530761Y-83530333D01*
X182768857Y-83530333D01*
X182864095Y-83577952D01*
X182911714Y-83625571D01*
X182959333Y-83720809D01*
X182959333Y-83958904D01*
X182911714Y-84054142D01*
X182864095Y-84101761D01*
X182768857Y-84149380D01*
X182530761Y-84149380D01*
X182435523Y-84101761D01*
X182387904Y-84054142D01*
X183816476Y-83482714D02*
X183816476Y-84149380D01*
X183578380Y-83101761D02*
X183340285Y-83816047D01*
X183959333Y-83816047D01*
X184245047Y-83149380D02*
X184911714Y-83149380D01*
X184483142Y-84149380D01*
%TO.C,R3*%
X166652380Y-92749666D02*
X166176190Y-93083000D01*
X166652380Y-93321095D02*
X165652380Y-93321095D01*
X165652380Y-92940142D01*
X165700000Y-92844904D01*
X165747619Y-92797285D01*
X165842857Y-92749666D01*
X165985714Y-92749666D01*
X166080952Y-92797285D01*
X166128571Y-92844904D01*
X166176190Y-92940142D01*
X166176190Y-93321095D01*
X165652380Y-92416333D02*
X165652380Y-91797285D01*
X166033333Y-92130619D01*
X166033333Y-91987761D01*
X166080952Y-91892523D01*
X166128571Y-91844904D01*
X166223809Y-91797285D01*
X166461904Y-91797285D01*
X166557142Y-91844904D01*
X166604761Y-91892523D01*
X166652380Y-91987761D01*
X166652380Y-92273476D01*
X166604761Y-92368714D01*
X166557142Y-92416333D01*
X161912380Y-93273476D02*
X161912380Y-93844904D01*
X161912380Y-93559190D02*
X160912380Y-93559190D01*
X161055238Y-93654428D01*
X161150476Y-93749666D01*
X161198095Y-93844904D01*
X160912380Y-92654428D02*
X160912380Y-92559190D01*
X160960000Y-92463952D01*
X161007619Y-92416333D01*
X161102857Y-92368714D01*
X161293333Y-92321095D01*
X161531428Y-92321095D01*
X161721904Y-92368714D01*
X161817142Y-92416333D01*
X161864761Y-92463952D01*
X161912380Y-92559190D01*
X161912380Y-92654428D01*
X161864761Y-92749666D01*
X161817142Y-92797285D01*
X161721904Y-92844904D01*
X161531428Y-92892523D01*
X161293333Y-92892523D01*
X161102857Y-92844904D01*
X161007619Y-92797285D01*
X160960000Y-92749666D01*
X160912380Y-92654428D01*
X161912380Y-91892523D02*
X160912380Y-91892523D01*
X161912380Y-91321095D02*
X161340952Y-91749666D01*
X160912380Y-91321095D02*
X161483809Y-91892523D01*
%TO.C,R4*%
X140549333Y-82367380D02*
X140216000Y-81891190D01*
X139977904Y-82367380D02*
X139977904Y-81367380D01*
X140358857Y-81367380D01*
X140454095Y-81415000D01*
X140501714Y-81462619D01*
X140549333Y-81557857D01*
X140549333Y-81700714D01*
X140501714Y-81795952D01*
X140454095Y-81843571D01*
X140358857Y-81891190D01*
X139977904Y-81891190D01*
X141406476Y-81700714D02*
X141406476Y-82367380D01*
X141168380Y-81319761D02*
X140930285Y-82034047D01*
X141549333Y-82034047D01*
X139708095Y-79092619D02*
X139755714Y-79045000D01*
X139850952Y-78997380D01*
X140089047Y-78997380D01*
X140184285Y-79045000D01*
X140231904Y-79092619D01*
X140279523Y-79187857D01*
X140279523Y-79283095D01*
X140231904Y-79425952D01*
X139660476Y-79997380D01*
X140279523Y-79997380D01*
X140708095Y-79997380D02*
X140708095Y-78997380D01*
X141279523Y-79997380D02*
X140850952Y-79425952D01*
X141279523Y-78997380D02*
X140708095Y-79568809D01*
X141660476Y-79092619D02*
X141708095Y-79045000D01*
X141803333Y-78997380D01*
X142041428Y-78997380D01*
X142136666Y-79045000D01*
X142184285Y-79092619D01*
X142231904Y-79187857D01*
X142231904Y-79283095D01*
X142184285Y-79425952D01*
X141612857Y-79997380D01*
X142231904Y-79997380D01*
%TO.C,R7*%
X182459333Y-94983380D02*
X182126000Y-94507190D01*
X181887904Y-94983380D02*
X181887904Y-93983380D01*
X182268857Y-93983380D01*
X182364095Y-94031000D01*
X182411714Y-94078619D01*
X182459333Y-94173857D01*
X182459333Y-94316714D01*
X182411714Y-94411952D01*
X182364095Y-94459571D01*
X182268857Y-94507190D01*
X181887904Y-94507190D01*
X182792666Y-93983380D02*
X183459333Y-93983380D01*
X183030761Y-94983380D01*
X181141904Y-96702619D02*
X181189523Y-96655000D01*
X181284761Y-96607380D01*
X181522857Y-96607380D01*
X181618095Y-96655000D01*
X181665714Y-96702619D01*
X181713333Y-96797857D01*
X181713333Y-96893095D01*
X181665714Y-97035952D01*
X181094285Y-97607380D01*
X181713333Y-97607380D01*
X182094285Y-96702619D02*
X182141904Y-96655000D01*
X182237142Y-96607380D01*
X182475238Y-96607380D01*
X182570476Y-96655000D01*
X182618095Y-96702619D01*
X182665714Y-96797857D01*
X182665714Y-96893095D01*
X182618095Y-97035952D01*
X182046666Y-97607380D01*
X182665714Y-97607380D01*
X183284761Y-96607380D02*
X183380000Y-96607380D01*
X183475238Y-96655000D01*
X183522857Y-96702619D01*
X183570476Y-96797857D01*
X183618095Y-96988333D01*
X183618095Y-97226428D01*
X183570476Y-97416904D01*
X183522857Y-97512142D01*
X183475238Y-97559761D01*
X183380000Y-97607380D01*
X183284761Y-97607380D01*
X183189523Y-97559761D01*
X183141904Y-97512142D01*
X183094285Y-97416904D01*
X183046666Y-97226428D01*
X183046666Y-96988333D01*
X183094285Y-96797857D01*
X183141904Y-96702619D01*
X183189523Y-96655000D01*
X183284761Y-96607380D01*
X184618095Y-97607380D02*
X184284761Y-97131190D01*
X184046666Y-97607380D02*
X184046666Y-96607380D01*
X184427619Y-96607380D01*
X184522857Y-96655000D01*
X184570476Y-96702619D01*
X184618095Y-96797857D01*
X184618095Y-96940714D01*
X184570476Y-97035952D01*
X184522857Y-97083571D01*
X184427619Y-97131190D01*
X184046666Y-97131190D01*
%TO.C,R8*%
X182459333Y-91681380D02*
X182126000Y-91205190D01*
X181887904Y-91681380D02*
X181887904Y-90681380D01*
X182268857Y-90681380D01*
X182364095Y-90729000D01*
X182411714Y-90776619D01*
X182459333Y-90871857D01*
X182459333Y-91014714D01*
X182411714Y-91109952D01*
X182364095Y-91157571D01*
X182268857Y-91205190D01*
X181887904Y-91205190D01*
X183030761Y-91109952D02*
X182935523Y-91062333D01*
X182887904Y-91014714D01*
X182840285Y-90919476D01*
X182840285Y-90871857D01*
X182887904Y-90776619D01*
X182935523Y-90729000D01*
X183030761Y-90681380D01*
X183221238Y-90681380D01*
X183316476Y-90729000D01*
X183364095Y-90776619D01*
X183411714Y-90871857D01*
X183411714Y-90919476D01*
X183364095Y-91014714D01*
X183316476Y-91062333D01*
X183221238Y-91109952D01*
X183030761Y-91109952D01*
X182935523Y-91157571D01*
X182887904Y-91205190D01*
X182840285Y-91300428D01*
X182840285Y-91490904D01*
X182887904Y-91586142D01*
X182935523Y-91633761D01*
X183030761Y-91681380D01*
X183221238Y-91681380D01*
X183316476Y-91633761D01*
X183364095Y-91586142D01*
X183411714Y-91490904D01*
X183411714Y-91300428D01*
X183364095Y-91205190D01*
X183316476Y-91157571D01*
X183221238Y-91109952D01*
X181014904Y-92892619D02*
X181062523Y-92845000D01*
X181157761Y-92797380D01*
X181395857Y-92797380D01*
X181491095Y-92845000D01*
X181538714Y-92892619D01*
X181586333Y-92987857D01*
X181586333Y-93083095D01*
X181538714Y-93225952D01*
X180967285Y-93797380D01*
X181586333Y-93797380D01*
X181967285Y-92892619D02*
X182014904Y-92845000D01*
X182110142Y-92797380D01*
X182348238Y-92797380D01*
X182443476Y-92845000D01*
X182491095Y-92892619D01*
X182538714Y-92987857D01*
X182538714Y-93083095D01*
X182491095Y-93225952D01*
X181919666Y-93797380D01*
X182538714Y-93797380D01*
X183157761Y-92797380D02*
X183253000Y-92797380D01*
X183348238Y-92845000D01*
X183395857Y-92892619D01*
X183443476Y-92987857D01*
X183491095Y-93178333D01*
X183491095Y-93416428D01*
X183443476Y-93606904D01*
X183395857Y-93702142D01*
X183348238Y-93749761D01*
X183253000Y-93797380D01*
X183157761Y-93797380D01*
X183062523Y-93749761D01*
X183014904Y-93702142D01*
X182967285Y-93606904D01*
X182919666Y-93416428D01*
X182919666Y-93178333D01*
X182967285Y-92987857D01*
X183014904Y-92892619D01*
X183062523Y-92845000D01*
X183157761Y-92797380D01*
X184491095Y-93797380D02*
X184157761Y-93321190D01*
X183919666Y-93797380D02*
X183919666Y-92797380D01*
X184300619Y-92797380D01*
X184395857Y-92845000D01*
X184443476Y-92892619D01*
X184491095Y-92987857D01*
X184491095Y-93130714D01*
X184443476Y-93225952D01*
X184395857Y-93273571D01*
X184300619Y-93321190D01*
X183919666Y-93321190D01*
%TO.C,R9*%
X181570333Y-79235380D02*
X181237000Y-78759190D01*
X180998904Y-79235380D02*
X180998904Y-78235380D01*
X181379857Y-78235380D01*
X181475095Y-78283000D01*
X181522714Y-78330619D01*
X181570333Y-78425857D01*
X181570333Y-78568714D01*
X181522714Y-78663952D01*
X181475095Y-78711571D01*
X181379857Y-78759190D01*
X180998904Y-78759190D01*
X182046523Y-79235380D02*
X182237000Y-79235380D01*
X182332238Y-79187761D01*
X182379857Y-79140142D01*
X182475095Y-78997285D01*
X182522714Y-78806809D01*
X182522714Y-78425857D01*
X182475095Y-78330619D01*
X182427476Y-78283000D01*
X182332238Y-78235380D01*
X182141761Y-78235380D01*
X182046523Y-78283000D01*
X181998904Y-78330619D01*
X181951285Y-78425857D01*
X181951285Y-78663952D01*
X181998904Y-78759190D01*
X182046523Y-78806809D01*
X182141761Y-78854428D01*
X182332238Y-78854428D01*
X182427476Y-78806809D01*
X182475095Y-78759190D01*
X182522714Y-78663952D01*
X176188904Y-78287619D02*
X176236523Y-78240000D01*
X176331761Y-78192380D01*
X176569857Y-78192380D01*
X176665095Y-78240000D01*
X176712714Y-78287619D01*
X176760333Y-78382857D01*
X176760333Y-78478095D01*
X176712714Y-78620952D01*
X176141285Y-79192380D01*
X176760333Y-79192380D01*
X177141285Y-78287619D02*
X177188904Y-78240000D01*
X177284142Y-78192380D01*
X177522238Y-78192380D01*
X177617476Y-78240000D01*
X177665095Y-78287619D01*
X177712714Y-78382857D01*
X177712714Y-78478095D01*
X177665095Y-78620952D01*
X177093666Y-79192380D01*
X177712714Y-79192380D01*
X178331761Y-78192380D02*
X178427000Y-78192380D01*
X178522238Y-78240000D01*
X178569857Y-78287619D01*
X178617476Y-78382857D01*
X178665095Y-78573333D01*
X178665095Y-78811428D01*
X178617476Y-79001904D01*
X178569857Y-79097142D01*
X178522238Y-79144761D01*
X178427000Y-79192380D01*
X178331761Y-79192380D01*
X178236523Y-79144761D01*
X178188904Y-79097142D01*
X178141285Y-79001904D01*
X178093666Y-78811428D01*
X178093666Y-78573333D01*
X178141285Y-78382857D01*
X178188904Y-78287619D01*
X178236523Y-78240000D01*
X178331761Y-78192380D01*
X179665095Y-79192380D02*
X179331761Y-78716190D01*
X179093666Y-79192380D02*
X179093666Y-78192380D01*
X179474619Y-78192380D01*
X179569857Y-78240000D01*
X179617476Y-78287619D01*
X179665095Y-78382857D01*
X179665095Y-78525714D01*
X179617476Y-78620952D01*
X179569857Y-78668571D01*
X179474619Y-78716190D01*
X179093666Y-78716190D01*
%TO.C,R10*%
X157980142Y-83383380D02*
X157646809Y-82907190D01*
X157408714Y-83383380D02*
X157408714Y-82383380D01*
X157789666Y-82383380D01*
X157884904Y-82431000D01*
X157932523Y-82478619D01*
X157980142Y-82573857D01*
X157980142Y-82716714D01*
X157932523Y-82811952D01*
X157884904Y-82859571D01*
X157789666Y-82907190D01*
X157408714Y-82907190D01*
X158932523Y-83383380D02*
X158361095Y-83383380D01*
X158646809Y-83383380D02*
X158646809Y-82383380D01*
X158551571Y-82526238D01*
X158456333Y-82621476D01*
X158361095Y-82669095D01*
X159551571Y-82383380D02*
X159646809Y-82383380D01*
X159742047Y-82431000D01*
X159789666Y-82478619D01*
X159837285Y-82573857D01*
X159884904Y-82764333D01*
X159884904Y-83002428D01*
X159837285Y-83192904D01*
X159789666Y-83288142D01*
X159742047Y-83335761D01*
X159646809Y-83383380D01*
X159551571Y-83383380D01*
X159456333Y-83335761D01*
X159408714Y-83288142D01*
X159361095Y-83192904D01*
X159313476Y-83002428D01*
X159313476Y-82764333D01*
X159361095Y-82573857D01*
X159408714Y-82478619D01*
X159456333Y-82431000D01*
X159551571Y-82383380D01*
X158503952Y-81224380D02*
X157932523Y-81224380D01*
X158218238Y-81224380D02*
X158218238Y-80224380D01*
X158123000Y-80367238D01*
X158027761Y-80462476D01*
X157932523Y-80510095D01*
X158932523Y-81224380D02*
X158932523Y-80224380D01*
X159027761Y-80843428D02*
X159313476Y-81224380D01*
X159313476Y-80557714D02*
X158932523Y-80938666D01*
%TO.C,R11*%
X123091380Y-109735857D02*
X122615190Y-110069190D01*
X123091380Y-110307285D02*
X122091380Y-110307285D01*
X122091380Y-109926333D01*
X122139000Y-109831095D01*
X122186619Y-109783476D01*
X122281857Y-109735857D01*
X122424714Y-109735857D01*
X122519952Y-109783476D01*
X122567571Y-109831095D01*
X122615190Y-109926333D01*
X122615190Y-110307285D01*
X123091380Y-108783476D02*
X123091380Y-109354904D01*
X123091380Y-109069190D02*
X122091380Y-109069190D01*
X122234238Y-109164428D01*
X122329476Y-109259666D01*
X122377095Y-109354904D01*
X123091380Y-107831095D02*
X123091380Y-108402523D01*
X123091380Y-108116809D02*
X122091380Y-108116809D01*
X122234238Y-108212047D01*
X122329476Y-108307285D01*
X122377095Y-108402523D01*
X117351380Y-110878714D02*
X117351380Y-110259666D01*
X117732333Y-110593000D01*
X117732333Y-110450142D01*
X117779952Y-110354904D01*
X117827571Y-110307285D01*
X117922809Y-110259666D01*
X118160904Y-110259666D01*
X118256142Y-110307285D01*
X118303761Y-110354904D01*
X118351380Y-110450142D01*
X118351380Y-110735857D01*
X118303761Y-110831095D01*
X118256142Y-110878714D01*
X117351380Y-109926333D02*
X117351380Y-109307285D01*
X117732333Y-109640619D01*
X117732333Y-109497761D01*
X117779952Y-109402523D01*
X117827571Y-109354904D01*
X117922809Y-109307285D01*
X118160904Y-109307285D01*
X118256142Y-109354904D01*
X118303761Y-109402523D01*
X118351380Y-109497761D01*
X118351380Y-109783476D01*
X118303761Y-109878714D01*
X118256142Y-109926333D01*
X117351380Y-108688238D02*
X117351380Y-108593000D01*
X117399000Y-108497761D01*
X117446619Y-108450142D01*
X117541857Y-108402523D01*
X117732333Y-108354904D01*
X117970428Y-108354904D01*
X118160904Y-108402523D01*
X118256142Y-108450142D01*
X118303761Y-108497761D01*
X118351380Y-108593000D01*
X118351380Y-108688238D01*
X118303761Y-108783476D01*
X118256142Y-108831095D01*
X118160904Y-108878714D01*
X117970428Y-108926333D01*
X117732333Y-108926333D01*
X117541857Y-108878714D01*
X117446619Y-108831095D01*
X117399000Y-108783476D01*
X117351380Y-108688238D01*
X118351380Y-107354904D02*
X117875190Y-107688238D01*
X118351380Y-107926333D02*
X117351380Y-107926333D01*
X117351380Y-107545380D01*
X117399000Y-107450142D01*
X117446619Y-107402523D01*
X117541857Y-107354904D01*
X117684714Y-107354904D01*
X117779952Y-107402523D01*
X117827571Y-107450142D01*
X117875190Y-107545380D01*
X117875190Y-107926333D01*
%TO.C,R12*%
X127119142Y-90157380D02*
X126785809Y-89681190D01*
X126547714Y-90157380D02*
X126547714Y-89157380D01*
X126928666Y-89157380D01*
X127023904Y-89205000D01*
X127071523Y-89252619D01*
X127119142Y-89347857D01*
X127119142Y-89490714D01*
X127071523Y-89585952D01*
X127023904Y-89633571D01*
X126928666Y-89681190D01*
X126547714Y-89681190D01*
X128071523Y-90157380D02*
X127500095Y-90157380D01*
X127785809Y-90157380D02*
X127785809Y-89157380D01*
X127690571Y-89300238D01*
X127595333Y-89395476D01*
X127500095Y-89443095D01*
X128452476Y-89252619D02*
X128500095Y-89205000D01*
X128595333Y-89157380D01*
X128833428Y-89157380D01*
X128928666Y-89205000D01*
X128976285Y-89252619D01*
X129023904Y-89347857D01*
X129023904Y-89443095D01*
X128976285Y-89585952D01*
X128404857Y-90157380D01*
X129023904Y-90157380D01*
X125976285Y-91527380D02*
X126595333Y-91527380D01*
X126262000Y-91908333D01*
X126404857Y-91908333D01*
X126500095Y-91955952D01*
X126547714Y-92003571D01*
X126595333Y-92098809D01*
X126595333Y-92336904D01*
X126547714Y-92432142D01*
X126500095Y-92479761D01*
X126404857Y-92527380D01*
X126119142Y-92527380D01*
X126023904Y-92479761D01*
X125976285Y-92432142D01*
X127452476Y-91527380D02*
X127262000Y-91527380D01*
X127166761Y-91575000D01*
X127119142Y-91622619D01*
X127023904Y-91765476D01*
X126976285Y-91955952D01*
X126976285Y-92336904D01*
X127023904Y-92432142D01*
X127071523Y-92479761D01*
X127166761Y-92527380D01*
X127357238Y-92527380D01*
X127452476Y-92479761D01*
X127500095Y-92432142D01*
X127547714Y-92336904D01*
X127547714Y-92098809D01*
X127500095Y-92003571D01*
X127452476Y-91955952D01*
X127357238Y-91908333D01*
X127166761Y-91908333D01*
X127071523Y-91955952D01*
X127023904Y-92003571D01*
X126976285Y-92098809D01*
X128166761Y-91527380D02*
X128262000Y-91527380D01*
X128357238Y-91575000D01*
X128404857Y-91622619D01*
X128452476Y-91717857D01*
X128500095Y-91908333D01*
X128500095Y-92146428D01*
X128452476Y-92336904D01*
X128404857Y-92432142D01*
X128357238Y-92479761D01*
X128262000Y-92527380D01*
X128166761Y-92527380D01*
X128071523Y-92479761D01*
X128023904Y-92432142D01*
X127976285Y-92336904D01*
X127928666Y-92146428D01*
X127928666Y-91908333D01*
X127976285Y-91717857D01*
X128023904Y-91622619D01*
X128071523Y-91575000D01*
X128166761Y-91527380D01*
X129500095Y-92527380D02*
X129166761Y-92051190D01*
X128928666Y-92527380D02*
X128928666Y-91527380D01*
X129309619Y-91527380D01*
X129404857Y-91575000D01*
X129452476Y-91622619D01*
X129500095Y-91717857D01*
X129500095Y-91860714D01*
X129452476Y-91955952D01*
X129404857Y-92003571D01*
X129309619Y-92051190D01*
X128928666Y-92051190D01*
%TO.C,RV1*%
X120848380Y-99274238D02*
X120372190Y-99607571D01*
X120848380Y-99845666D02*
X119848380Y-99845666D01*
X119848380Y-99464714D01*
X119896000Y-99369476D01*
X119943619Y-99321857D01*
X120038857Y-99274238D01*
X120181714Y-99274238D01*
X120276952Y-99321857D01*
X120324571Y-99369476D01*
X120372190Y-99464714D01*
X120372190Y-99845666D01*
X119848380Y-98988523D02*
X120848380Y-98655190D01*
X119848380Y-98321857D01*
X120848380Y-97464714D02*
X120848380Y-98036142D01*
X120848380Y-97750428D02*
X119848380Y-97750428D01*
X119991238Y-97845666D01*
X120086476Y-97940904D01*
X120134095Y-98036142D01*
X117181380Y-102504428D02*
X118181380Y-102171095D01*
X117181380Y-101837761D01*
X117276619Y-101552047D02*
X117229000Y-101504428D01*
X117181380Y-101409190D01*
X117181380Y-101171095D01*
X117229000Y-101075857D01*
X117276619Y-101028238D01*
X117371857Y-100980619D01*
X117467095Y-100980619D01*
X117609952Y-101028238D01*
X118181380Y-101599666D01*
X118181380Y-100980619D01*
X117181380Y-100075857D02*
X117181380Y-100552047D01*
X117657571Y-100599666D01*
X117609952Y-100552047D01*
X117562333Y-100456809D01*
X117562333Y-100218714D01*
X117609952Y-100123476D01*
X117657571Y-100075857D01*
X117752809Y-100028238D01*
X117990904Y-100028238D01*
X118086142Y-100075857D01*
X118133761Y-100123476D01*
X118181380Y-100218714D01*
X118181380Y-100456809D01*
X118133761Y-100552047D01*
X118086142Y-100599666D01*
X117181380Y-99409190D02*
X117181380Y-99313952D01*
X117229000Y-99218714D01*
X117276619Y-99171095D01*
X117371857Y-99123476D01*
X117562333Y-99075857D01*
X117800428Y-99075857D01*
X117990904Y-99123476D01*
X118086142Y-99171095D01*
X118133761Y-99218714D01*
X118181380Y-99313952D01*
X118181380Y-99409190D01*
X118133761Y-99504428D01*
X118086142Y-99552047D01*
X117990904Y-99599666D01*
X117800428Y-99647285D01*
X117562333Y-99647285D01*
X117371857Y-99599666D01*
X117276619Y-99552047D01*
X117229000Y-99504428D01*
X117181380Y-99409190D01*
X118181380Y-98171095D02*
X118181380Y-98647285D01*
X117181380Y-98647285D01*
X117895666Y-97885380D02*
X117895666Y-97409190D01*
X118181380Y-97980619D02*
X117181380Y-97647285D01*
X118181380Y-97313952D01*
X117276619Y-97028238D02*
X117229000Y-96980619D01*
X117181380Y-96885380D01*
X117181380Y-96647285D01*
X117229000Y-96552047D01*
X117276619Y-96504428D01*
X117371857Y-96456809D01*
X117467095Y-96456809D01*
X117609952Y-96504428D01*
X118181380Y-97075857D01*
X118181380Y-96456809D01*
X118181380Y-96028238D02*
X117181380Y-96028238D01*
X117181380Y-95647285D01*
X117229000Y-95552047D01*
X117276619Y-95504428D01*
X117371857Y-95456809D01*
X117514714Y-95456809D01*
X117609952Y-95504428D01*
X117657571Y-95552047D01*
X117705190Y-95647285D01*
X117705190Y-96028238D01*
%TO.C,U1*%
X170942095Y-85895380D02*
X170942095Y-86704904D01*
X170989714Y-86800142D01*
X171037333Y-86847761D01*
X171132571Y-86895380D01*
X171323047Y-86895380D01*
X171418285Y-86847761D01*
X171465904Y-86800142D01*
X171513523Y-86704904D01*
X171513523Y-85895380D01*
X172513523Y-86895380D02*
X171942095Y-86895380D01*
X172227809Y-86895380D02*
X172227809Y-85895380D01*
X172132571Y-86038238D01*
X172037333Y-86133476D01*
X171942095Y-86181095D01*
X171997666Y-98487809D02*
X171997666Y-98011619D01*
X172283380Y-98583047D02*
X171283380Y-98249714D01*
X172283380Y-97916380D01*
X171283380Y-97725904D02*
X171283380Y-97154476D01*
X172283380Y-97440190D02*
X171283380Y-97440190D01*
X171616714Y-96964000D02*
X171616714Y-96583047D01*
X171283380Y-96821142D02*
X172140523Y-96821142D01*
X172235761Y-96773523D01*
X172283380Y-96678285D01*
X172283380Y-96583047D01*
X172283380Y-96249714D02*
X171616714Y-96249714D01*
X171283380Y-96249714D02*
X171331000Y-96297333D01*
X171378619Y-96249714D01*
X171331000Y-96202095D01*
X171283380Y-96249714D01*
X171378619Y-96249714D01*
X171616714Y-95773523D02*
X172283380Y-95773523D01*
X171711952Y-95773523D02*
X171664333Y-95725904D01*
X171616714Y-95630666D01*
X171616714Y-95487809D01*
X171664333Y-95392571D01*
X171759571Y-95344952D01*
X172283380Y-95344952D01*
X171616714Y-94964000D02*
X172283380Y-94725904D01*
X171616714Y-94487809D02*
X172283380Y-94725904D01*
X172521476Y-94821142D01*
X172569095Y-94868761D01*
X172616714Y-94964000D01*
X171711952Y-93964000D02*
X171664333Y-94059238D01*
X171616714Y-94106857D01*
X171521476Y-94154476D01*
X171473857Y-94154476D01*
X171378619Y-94106857D01*
X171331000Y-94059238D01*
X171283380Y-93964000D01*
X171283380Y-93773523D01*
X171331000Y-93678285D01*
X171378619Y-93630666D01*
X171473857Y-93583047D01*
X171521476Y-93583047D01*
X171616714Y-93630666D01*
X171664333Y-93678285D01*
X171711952Y-93773523D01*
X171711952Y-93964000D01*
X171759571Y-94059238D01*
X171807190Y-94106857D01*
X171902428Y-94154476D01*
X172092904Y-94154476D01*
X172188142Y-94106857D01*
X172235761Y-94059238D01*
X172283380Y-93964000D01*
X172283380Y-93773523D01*
X172235761Y-93678285D01*
X172188142Y-93630666D01*
X172092904Y-93583047D01*
X171902428Y-93583047D01*
X171807190Y-93630666D01*
X171759571Y-93678285D01*
X171711952Y-93773523D01*
X171283380Y-92678285D02*
X171283380Y-93154476D01*
X171759571Y-93202095D01*
X171711952Y-93154476D01*
X171664333Y-93059238D01*
X171664333Y-92821142D01*
X171711952Y-92725904D01*
X171759571Y-92678285D01*
X171854809Y-92630666D01*
X172092904Y-92630666D01*
X172188142Y-92678285D01*
X172235761Y-92725904D01*
X172283380Y-92821142D01*
X172283380Y-93059238D01*
X172235761Y-93154476D01*
X172188142Y-93202095D01*
X171902428Y-92202095D02*
X171902428Y-91440190D01*
X171378619Y-91011619D02*
X171331000Y-90964000D01*
X171283380Y-90868761D01*
X171283380Y-90630666D01*
X171331000Y-90535428D01*
X171378619Y-90487809D01*
X171473857Y-90440190D01*
X171569095Y-90440190D01*
X171711952Y-90487809D01*
X172283380Y-91059238D01*
X172283380Y-90440190D01*
X171283380Y-89821142D02*
X171283380Y-89725904D01*
X171331000Y-89630666D01*
X171378619Y-89583047D01*
X171473857Y-89535428D01*
X171664333Y-89487809D01*
X171902428Y-89487809D01*
X172092904Y-89535428D01*
X172188142Y-89583047D01*
X172235761Y-89630666D01*
X172283380Y-89725904D01*
X172283380Y-89821142D01*
X172235761Y-89916380D01*
X172188142Y-89964000D01*
X172092904Y-90011619D01*
X171902428Y-90059238D01*
X171664333Y-90059238D01*
X171473857Y-90011619D01*
X171378619Y-89964000D01*
X171331000Y-89916380D01*
X171283380Y-89821142D01*
X172283380Y-89059238D02*
X171283380Y-89059238D01*
X171283380Y-88678285D01*
X171331000Y-88583047D01*
X171378619Y-88535428D01*
X171473857Y-88487809D01*
X171616714Y-88487809D01*
X171711952Y-88535428D01*
X171759571Y-88583047D01*
X171807190Y-88678285D01*
X171807190Y-89059238D01*
X171283380Y-88059238D02*
X172092904Y-88059238D01*
X172188142Y-88011619D01*
X172235761Y-87964000D01*
X172283380Y-87868761D01*
X172283380Y-87678285D01*
X172235761Y-87583047D01*
X172188142Y-87535428D01*
X172092904Y-87487809D01*
X171283380Y-87487809D01*
%TO.C,U2*%
X119761095Y-120864380D02*
X119761095Y-121673904D01*
X119808714Y-121769142D01*
X119856333Y-121816761D01*
X119951571Y-121864380D01*
X120142047Y-121864380D01*
X120237285Y-121816761D01*
X120284904Y-121769142D01*
X120332523Y-121673904D01*
X120332523Y-120864380D01*
X120761095Y-120959619D02*
X120808714Y-120912000D01*
X120903952Y-120864380D01*
X121142047Y-120864380D01*
X121237285Y-120912000D01*
X121284904Y-120959619D01*
X121332523Y-121054857D01*
X121332523Y-121150095D01*
X121284904Y-121292952D01*
X120713476Y-121864380D01*
X121332523Y-121864380D01*
X117499666Y-116117666D02*
X117975857Y-116117666D01*
X117404428Y-116403380D02*
X117737761Y-115403380D01*
X118071095Y-116403380D01*
X118975857Y-116308142D02*
X118928238Y-116355761D01*
X118785380Y-116403380D01*
X118690142Y-116403380D01*
X118547285Y-116355761D01*
X118452047Y-116260523D01*
X118404428Y-116165285D01*
X118356809Y-115974809D01*
X118356809Y-115831952D01*
X118404428Y-115641476D01*
X118452047Y-115546238D01*
X118547285Y-115451000D01*
X118690142Y-115403380D01*
X118785380Y-115403380D01*
X118928238Y-115451000D01*
X118975857Y-115498619D01*
X119356809Y-116355761D02*
X119499666Y-116403380D01*
X119737761Y-116403380D01*
X119833000Y-116355761D01*
X119880619Y-116308142D01*
X119928238Y-116212904D01*
X119928238Y-116117666D01*
X119880619Y-116022428D01*
X119833000Y-115974809D01*
X119737761Y-115927190D01*
X119547285Y-115879571D01*
X119452047Y-115831952D01*
X119404428Y-115784333D01*
X119356809Y-115689095D01*
X119356809Y-115593857D01*
X119404428Y-115498619D01*
X119452047Y-115451000D01*
X119547285Y-115403380D01*
X119785380Y-115403380D01*
X119928238Y-115451000D01*
X120261571Y-115403380D02*
X120928238Y-115403380D01*
X120499666Y-116403380D01*
X121833000Y-116403380D02*
X121261571Y-116403380D01*
X121547285Y-116403380D02*
X121547285Y-115403380D01*
X121452047Y-115546238D01*
X121356809Y-115641476D01*
X121261571Y-115689095D01*
X122213952Y-115498619D02*
X122261571Y-115451000D01*
X122356809Y-115403380D01*
X122594904Y-115403380D01*
X122690142Y-115451000D01*
X122737761Y-115498619D01*
X122785380Y-115593857D01*
X122785380Y-115689095D01*
X122737761Y-115831952D01*
X122166333Y-116403380D01*
X122785380Y-116403380D01*
X123118714Y-116403380D02*
X123642523Y-115736714D01*
X123118714Y-115736714D02*
X123642523Y-116403380D01*
X124499666Y-116403380D02*
X124023476Y-116403380D01*
X124023476Y-115403380D01*
X125404428Y-116308142D02*
X125356809Y-116355761D01*
X125213952Y-116403380D01*
X125118714Y-116403380D01*
X124975857Y-116355761D01*
X124880619Y-116260523D01*
X124833000Y-116165285D01*
X124785380Y-115974809D01*
X124785380Y-115831952D01*
X124833000Y-115641476D01*
X124880619Y-115546238D01*
X124975857Y-115451000D01*
X125118714Y-115403380D01*
X125213952Y-115403380D01*
X125356809Y-115451000D01*
X125404428Y-115498619D01*
X125690142Y-115403380D02*
X126261571Y-115403380D01*
X125975857Y-116403380D02*
X125975857Y-115403380D01*
X127166333Y-116403380D02*
X126833000Y-115927190D01*
X126594904Y-116403380D02*
X126594904Y-115403380D01*
X126975857Y-115403380D01*
X127071095Y-115451000D01*
X127118714Y-115498619D01*
X127166333Y-115593857D01*
X127166333Y-115736714D01*
X127118714Y-115831952D01*
X127071095Y-115879571D01*
X126975857Y-115927190D01*
X126594904Y-115927190D01*
X127594904Y-116022428D02*
X128356809Y-116022428D01*
X128785380Y-115498619D02*
X128833000Y-115451000D01*
X128928238Y-115403380D01*
X129166333Y-115403380D01*
X129261571Y-115451000D01*
X129309190Y-115498619D01*
X129356809Y-115593857D01*
X129356809Y-115689095D01*
X129309190Y-115831952D01*
X128737761Y-116403380D01*
X129356809Y-116403380D01*
X129975857Y-115403380D02*
X130071095Y-115403380D01*
X130166333Y-115451000D01*
X130213952Y-115498619D01*
X130261571Y-115593857D01*
X130309190Y-115784333D01*
X130309190Y-116022428D01*
X130261571Y-116212904D01*
X130213952Y-116308142D01*
X130166333Y-116355761D01*
X130071095Y-116403380D01*
X129975857Y-116403380D01*
X129880619Y-116355761D01*
X129833000Y-116308142D01*
X129785380Y-116212904D01*
X129737761Y-116022428D01*
X129737761Y-115784333D01*
X129785380Y-115593857D01*
X129833000Y-115498619D01*
X129880619Y-115451000D01*
X129975857Y-115403380D01*
X130690142Y-116117666D02*
X131166333Y-116117666D01*
X130594904Y-116403380D02*
X130928238Y-115403380D01*
X131261571Y-116403380D01*
%TO.C,U3*%
X125226380Y-85724904D02*
X126035904Y-85724904D01*
X126131142Y-85677285D01*
X126178761Y-85629666D01*
X126226380Y-85534428D01*
X126226380Y-85343952D01*
X126178761Y-85248714D01*
X126131142Y-85201095D01*
X126035904Y-85153476D01*
X125226380Y-85153476D01*
X125226380Y-84772523D02*
X125226380Y-84153476D01*
X125607333Y-84486809D01*
X125607333Y-84343952D01*
X125654952Y-84248714D01*
X125702571Y-84201095D01*
X125797809Y-84153476D01*
X126035904Y-84153476D01*
X126131142Y-84201095D01*
X126178761Y-84248714D01*
X126226380Y-84343952D01*
X126226380Y-84629666D01*
X126178761Y-84724904D01*
X126131142Y-84772523D01*
X116943666Y-85415380D02*
X116943666Y-84415380D01*
X117277000Y-85129666D01*
X117610333Y-84415380D01*
X117610333Y-85415380D01*
X118277000Y-84415380D02*
X118467476Y-84415380D01*
X118562714Y-84463000D01*
X118657952Y-84558238D01*
X118705571Y-84748714D01*
X118705571Y-85082047D01*
X118657952Y-85272523D01*
X118562714Y-85367761D01*
X118467476Y-85415380D01*
X118277000Y-85415380D01*
X118181761Y-85367761D01*
X118086523Y-85272523D01*
X118038904Y-85082047D01*
X118038904Y-84748714D01*
X118086523Y-84558238D01*
X118181761Y-84463000D01*
X118277000Y-84415380D01*
X119705571Y-85320142D02*
X119657952Y-85367761D01*
X119515095Y-85415380D01*
X119419857Y-85415380D01*
X119277000Y-85367761D01*
X119181761Y-85272523D01*
X119134142Y-85177285D01*
X119086523Y-84986809D01*
X119086523Y-84843952D01*
X119134142Y-84653476D01*
X119181761Y-84558238D01*
X119277000Y-84463000D01*
X119419857Y-84415380D01*
X119515095Y-84415380D01*
X119657952Y-84463000D01*
X119705571Y-84510619D01*
X120038904Y-84415380D02*
X120657952Y-84415380D01*
X120324619Y-84796333D01*
X120467476Y-84796333D01*
X120562714Y-84843952D01*
X120610333Y-84891571D01*
X120657952Y-84986809D01*
X120657952Y-85224904D01*
X120610333Y-85320142D01*
X120562714Y-85367761D01*
X120467476Y-85415380D01*
X120181761Y-85415380D01*
X120086523Y-85367761D01*
X120038904Y-85320142D01*
X121277000Y-84415380D02*
X121372238Y-84415380D01*
X121467476Y-84463000D01*
X121515095Y-84510619D01*
X121562714Y-84605857D01*
X121610333Y-84796333D01*
X121610333Y-85034428D01*
X121562714Y-85224904D01*
X121515095Y-85320142D01*
X121467476Y-85367761D01*
X121372238Y-85415380D01*
X121277000Y-85415380D01*
X121181761Y-85367761D01*
X121134142Y-85320142D01*
X121086523Y-85224904D01*
X121038904Y-85034428D01*
X121038904Y-84796333D01*
X121086523Y-84605857D01*
X121134142Y-84510619D01*
X121181761Y-84463000D01*
X121277000Y-84415380D01*
X122467476Y-84748714D02*
X122467476Y-85415380D01*
X122229380Y-84367761D02*
X121991285Y-85082047D01*
X122610333Y-85082047D01*
X122896047Y-84415380D02*
X123515095Y-84415380D01*
X123181761Y-84796333D01*
X123324619Y-84796333D01*
X123419857Y-84843952D01*
X123467476Y-84891571D01*
X123515095Y-84986809D01*
X123515095Y-85224904D01*
X123467476Y-85320142D01*
X123419857Y-85367761D01*
X123324619Y-85415380D01*
X123038904Y-85415380D01*
X122943666Y-85367761D01*
X122896047Y-85320142D01*
X123943666Y-85415380D02*
X123943666Y-84415380D01*
X124277000Y-85129666D01*
X124610333Y-84415380D01*
X124610333Y-85415380D01*
%TD*%
M02*
