%TF.GenerationSoftware,KiCad,Pcbnew,(5.1.10)-1*%
%TF.CreationDate,2021-12-15T20:23:36+00:00*%
%TF.ProjectId,vacSwitch,76616353-7769-4746-9368-2e6b69636164,rev?*%
%TF.SameCoordinates,Original*%
%TF.FileFunction,Legend,Bot*%
%TF.FilePolarity,Positive*%
%FSLAX46Y46*%
G04 Gerber Fmt 4.6, Leading zero omitted, Abs format (unit mm)*
G04 Created by KiCad (PCBNEW (5.1.10)-1) date 2021-12-15 20:23:36*
%MOMM*%
%LPD*%
G01*
G04 APERTURE LIST*
%ADD10C,0.150000*%
%ADD11C,0.120000*%
G04 APERTURE END LIST*
D10*
X165105857Y-110815380D02*
X165105857Y-109815380D01*
X164677285Y-110815380D02*
X164677285Y-110291571D01*
X164724904Y-110196333D01*
X164820142Y-110148714D01*
X164963000Y-110148714D01*
X165058238Y-110196333D01*
X165105857Y-110243952D01*
X164343952Y-110148714D02*
X163963000Y-110148714D01*
X164201095Y-109815380D02*
X164201095Y-110672523D01*
X164153476Y-110767761D01*
X164058238Y-110815380D01*
X163963000Y-110815380D01*
X163772523Y-110148714D02*
X163391571Y-110148714D01*
X163629666Y-109815380D02*
X163629666Y-110672523D01*
X163582047Y-110767761D01*
X163486809Y-110815380D01*
X163391571Y-110815380D01*
X163058238Y-110148714D02*
X163058238Y-111148714D01*
X163058238Y-110196333D02*
X162963000Y-110148714D01*
X162772523Y-110148714D01*
X162677285Y-110196333D01*
X162629666Y-110243952D01*
X162582047Y-110339190D01*
X162582047Y-110624904D01*
X162629666Y-110720142D01*
X162677285Y-110767761D01*
X162772523Y-110815380D01*
X162963000Y-110815380D01*
X163058238Y-110767761D01*
X162201095Y-110767761D02*
X162105857Y-110815380D01*
X161915380Y-110815380D01*
X161820142Y-110767761D01*
X161772523Y-110672523D01*
X161772523Y-110624904D01*
X161820142Y-110529666D01*
X161915380Y-110482047D01*
X162058238Y-110482047D01*
X162153476Y-110434428D01*
X162201095Y-110339190D01*
X162201095Y-110291571D01*
X162153476Y-110196333D01*
X162058238Y-110148714D01*
X161915380Y-110148714D01*
X161820142Y-110196333D01*
X161343952Y-110720142D02*
X161296333Y-110767761D01*
X161343952Y-110815380D01*
X161391571Y-110767761D01*
X161343952Y-110720142D01*
X161343952Y-110815380D01*
X161343952Y-110196333D02*
X161296333Y-110243952D01*
X161343952Y-110291571D01*
X161391571Y-110243952D01*
X161343952Y-110196333D01*
X161343952Y-110291571D01*
X160153476Y-109767761D02*
X161010619Y-111053476D01*
X159105857Y-109767761D02*
X159963000Y-111053476D01*
X158343952Y-110148714D02*
X158343952Y-110958238D01*
X158391571Y-111053476D01*
X158439190Y-111101095D01*
X158534428Y-111148714D01*
X158677285Y-111148714D01*
X158772523Y-111101095D01*
X158343952Y-110767761D02*
X158439190Y-110815380D01*
X158629666Y-110815380D01*
X158724904Y-110767761D01*
X158772523Y-110720142D01*
X158820142Y-110624904D01*
X158820142Y-110339190D01*
X158772523Y-110243952D01*
X158724904Y-110196333D01*
X158629666Y-110148714D01*
X158439190Y-110148714D01*
X158343952Y-110196333D01*
X157867761Y-110815380D02*
X157867761Y-110148714D01*
X157867761Y-109815380D02*
X157915380Y-109863000D01*
X157867761Y-109910619D01*
X157820142Y-109863000D01*
X157867761Y-109815380D01*
X157867761Y-109910619D01*
X157534428Y-110148714D02*
X157153476Y-110148714D01*
X157391571Y-109815380D02*
X157391571Y-110672523D01*
X157343952Y-110767761D01*
X157248714Y-110815380D01*
X157153476Y-110815380D01*
X156820142Y-110815380D02*
X156820142Y-109815380D01*
X156391571Y-110815380D02*
X156391571Y-110291571D01*
X156439190Y-110196333D01*
X156534428Y-110148714D01*
X156677285Y-110148714D01*
X156772523Y-110196333D01*
X156820142Y-110243952D01*
X155486809Y-110148714D02*
X155486809Y-110815380D01*
X155915380Y-110148714D02*
X155915380Y-110672523D01*
X155867761Y-110767761D01*
X155772523Y-110815380D01*
X155629666Y-110815380D01*
X155534428Y-110767761D01*
X155486809Y-110720142D01*
X155010619Y-110815380D02*
X155010619Y-109815380D01*
X155010619Y-110196333D02*
X154915380Y-110148714D01*
X154724904Y-110148714D01*
X154629666Y-110196333D01*
X154582047Y-110243952D01*
X154534428Y-110339190D01*
X154534428Y-110624904D01*
X154582047Y-110720142D01*
X154629666Y-110767761D01*
X154724904Y-110815380D01*
X154915380Y-110815380D01*
X155010619Y-110767761D01*
X154105857Y-110720142D02*
X154058238Y-110767761D01*
X154105857Y-110815380D01*
X154153476Y-110767761D01*
X154105857Y-110720142D01*
X154105857Y-110815380D01*
X153201095Y-110767761D02*
X153296333Y-110815380D01*
X153486809Y-110815380D01*
X153582047Y-110767761D01*
X153629666Y-110720142D01*
X153677285Y-110624904D01*
X153677285Y-110339190D01*
X153629666Y-110243952D01*
X153582047Y-110196333D01*
X153486809Y-110148714D01*
X153296333Y-110148714D01*
X153201095Y-110196333D01*
X152629666Y-110815380D02*
X152724904Y-110767761D01*
X152772523Y-110720142D01*
X152820142Y-110624904D01*
X152820142Y-110339190D01*
X152772523Y-110243952D01*
X152724904Y-110196333D01*
X152629666Y-110148714D01*
X152486809Y-110148714D01*
X152391571Y-110196333D01*
X152343952Y-110243952D01*
X152296333Y-110339190D01*
X152296333Y-110624904D01*
X152343952Y-110720142D01*
X152391571Y-110767761D01*
X152486809Y-110815380D01*
X152629666Y-110815380D01*
X151867761Y-110815380D02*
X151867761Y-110148714D01*
X151867761Y-110243952D02*
X151820142Y-110196333D01*
X151724904Y-110148714D01*
X151582047Y-110148714D01*
X151486809Y-110196333D01*
X151439190Y-110291571D01*
X151439190Y-110815380D01*
X151439190Y-110291571D02*
X151391571Y-110196333D01*
X151296333Y-110148714D01*
X151153476Y-110148714D01*
X151058238Y-110196333D01*
X151010619Y-110291571D01*
X151010619Y-110815380D01*
X149820142Y-109767761D02*
X150677285Y-111053476D01*
X149486809Y-110148714D02*
X149486809Y-111148714D01*
X149486809Y-110196333D02*
X149391571Y-110148714D01*
X149201095Y-110148714D01*
X149105857Y-110196333D01*
X149058238Y-110243952D01*
X149010619Y-110339190D01*
X149010619Y-110624904D01*
X149058238Y-110720142D01*
X149105857Y-110767761D01*
X149201095Y-110815380D01*
X149391571Y-110815380D01*
X149486809Y-110767761D01*
X148439190Y-110815380D02*
X148534428Y-110767761D01*
X148582047Y-110720142D01*
X148629666Y-110624904D01*
X148629666Y-110339190D01*
X148582047Y-110243952D01*
X148534428Y-110196333D01*
X148439190Y-110148714D01*
X148296333Y-110148714D01*
X148201095Y-110196333D01*
X148153476Y-110243952D01*
X148105857Y-110339190D01*
X148105857Y-110624904D01*
X148153476Y-110720142D01*
X148201095Y-110767761D01*
X148296333Y-110815380D01*
X148439190Y-110815380D01*
X147677285Y-110815380D02*
X147677285Y-110148714D01*
X147677285Y-109815380D02*
X147724904Y-109863000D01*
X147677285Y-109910619D01*
X147629666Y-109863000D01*
X147677285Y-109815380D01*
X147677285Y-109910619D01*
X147201095Y-110148714D02*
X147201095Y-110815380D01*
X147201095Y-110243952D02*
X147153476Y-110196333D01*
X147058238Y-110148714D01*
X146915380Y-110148714D01*
X146820142Y-110196333D01*
X146772523Y-110291571D01*
X146772523Y-110815380D01*
X146439190Y-110148714D02*
X146058238Y-110148714D01*
X146296333Y-109815380D02*
X146296333Y-110672523D01*
X146248714Y-110767761D01*
X146153476Y-110815380D01*
X146058238Y-110815380D01*
X145343952Y-110767761D02*
X145439190Y-110815380D01*
X145629666Y-110815380D01*
X145724904Y-110767761D01*
X145772523Y-110672523D01*
X145772523Y-110291571D01*
X145724904Y-110196333D01*
X145629666Y-110148714D01*
X145439190Y-110148714D01*
X145343952Y-110196333D01*
X145296333Y-110291571D01*
X145296333Y-110386809D01*
X145772523Y-110482047D01*
X144867761Y-110815380D02*
X144867761Y-110148714D01*
X144867761Y-110339190D02*
X144820142Y-110243952D01*
X144772523Y-110196333D01*
X144677285Y-110148714D01*
X144582047Y-110148714D01*
X144296333Y-109910619D02*
X144248714Y-109863000D01*
X144153476Y-109815380D01*
X143915380Y-109815380D01*
X143820142Y-109863000D01*
X143772523Y-109910619D01*
X143724904Y-110005857D01*
X143724904Y-110101095D01*
X143772523Y-110243952D01*
X144343952Y-110815380D01*
X143724904Y-110815380D01*
X143296333Y-110148714D02*
X143296333Y-110815380D01*
X143296333Y-110243952D02*
X143248714Y-110196333D01*
X143153476Y-110148714D01*
X143010619Y-110148714D01*
X142915380Y-110196333D01*
X142867761Y-110291571D01*
X142867761Y-110815380D01*
X141963000Y-110148714D02*
X141963000Y-110815380D01*
X142391571Y-110148714D02*
X142391571Y-110672523D01*
X142343952Y-110767761D01*
X142248714Y-110815380D01*
X142105857Y-110815380D01*
X142010619Y-110767761D01*
X141963000Y-110720142D01*
X141343952Y-110815380D02*
X141439190Y-110767761D01*
X141486809Y-110672523D01*
X141486809Y-109815380D01*
X140820142Y-110815380D02*
X140915380Y-110767761D01*
X140963000Y-110672523D01*
X140963000Y-109815380D01*
X139724904Y-109767761D02*
X140582047Y-111053476D01*
X139439190Y-110529666D02*
X138963000Y-110529666D01*
X139534428Y-110815380D02*
X139201095Y-109815380D01*
X138867761Y-110815380D01*
X138105857Y-110148714D02*
X138105857Y-110815380D01*
X138534428Y-110148714D02*
X138534428Y-110672523D01*
X138486809Y-110767761D01*
X138391571Y-110815380D01*
X138248714Y-110815380D01*
X138153476Y-110767761D01*
X138105857Y-110720142D01*
X137772523Y-110148714D02*
X137391571Y-110148714D01*
X137629666Y-109815380D02*
X137629666Y-110672523D01*
X137582047Y-110767761D01*
X137486809Y-110815380D01*
X137391571Y-110815380D01*
X136915380Y-110815380D02*
X137010619Y-110767761D01*
X137058238Y-110720142D01*
X137105857Y-110624904D01*
X137105857Y-110339190D01*
X137058238Y-110243952D01*
X137010619Y-110196333D01*
X136915380Y-110148714D01*
X136772523Y-110148714D01*
X136677285Y-110196333D01*
X136629666Y-110243952D01*
X136582047Y-110339190D01*
X136582047Y-110624904D01*
X136629666Y-110720142D01*
X136677285Y-110767761D01*
X136772523Y-110815380D01*
X136915380Y-110815380D01*
X136201095Y-110767761D02*
X136058238Y-110815380D01*
X135820142Y-110815380D01*
X135724904Y-110767761D01*
X135677285Y-110720142D01*
X135629666Y-110624904D01*
X135629666Y-110529666D01*
X135677285Y-110434428D01*
X135724904Y-110386809D01*
X135820142Y-110339190D01*
X136010619Y-110291571D01*
X136105857Y-110243952D01*
X136153476Y-110196333D01*
X136201095Y-110101095D01*
X136201095Y-110005857D01*
X136153476Y-109910619D01*
X136105857Y-109863000D01*
X136010619Y-109815380D01*
X135772523Y-109815380D01*
X135629666Y-109863000D01*
X135296333Y-110148714D02*
X135105857Y-110815380D01*
X134915380Y-110339190D01*
X134724904Y-110815380D01*
X134534428Y-110148714D01*
X134153476Y-110815380D02*
X134153476Y-110148714D01*
X134153476Y-109815380D02*
X134201095Y-109863000D01*
X134153476Y-109910619D01*
X134105857Y-109863000D01*
X134153476Y-109815380D01*
X134153476Y-109910619D01*
X133820142Y-110148714D02*
X133439190Y-110148714D01*
X133677285Y-109815380D02*
X133677285Y-110672523D01*
X133629666Y-110767761D01*
X133534428Y-110815380D01*
X133439190Y-110815380D01*
X132677285Y-110767761D02*
X132772523Y-110815380D01*
X132963000Y-110815380D01*
X133058238Y-110767761D01*
X133105857Y-110720142D01*
X133153476Y-110624904D01*
X133153476Y-110339190D01*
X133105857Y-110243952D01*
X133058238Y-110196333D01*
X132963000Y-110148714D01*
X132772523Y-110148714D01*
X132677285Y-110196333D01*
X132248714Y-110815380D02*
X132248714Y-109815380D01*
X131820142Y-110815380D02*
X131820142Y-110291571D01*
X131867761Y-110196333D01*
X131963000Y-110148714D01*
X132105857Y-110148714D01*
X132201095Y-110196333D01*
X132248714Y-110243952D01*
D11*
X134112000Y-116332000D02*
X134239000Y-116332000D01*
X134112000Y-126111000D02*
X134112000Y-116332000D01*
X144272000Y-126111000D02*
X134112000Y-126111000D01*
X144272000Y-116332000D02*
X144272000Y-126111000D01*
X134239000Y-116332000D02*
X144272000Y-116332000D01*
D10*
X151359809Y-102625000D02*
X151455047Y-102577380D01*
X151597904Y-102577380D01*
X151740761Y-102625000D01*
X151836000Y-102720238D01*
X151883619Y-102815476D01*
X151931238Y-103005952D01*
X151931238Y-103148809D01*
X151883619Y-103339285D01*
X151836000Y-103434523D01*
X151740761Y-103529761D01*
X151597904Y-103577380D01*
X151502666Y-103577380D01*
X151359809Y-103529761D01*
X151312190Y-103482142D01*
X151312190Y-103148809D01*
X151502666Y-103148809D01*
X150312190Y-103577380D02*
X150645523Y-103101190D01*
X150883619Y-103577380D02*
X150883619Y-102577380D01*
X150502666Y-102577380D01*
X150407428Y-102625000D01*
X150359809Y-102672619D01*
X150312190Y-102767857D01*
X150312190Y-102910714D01*
X150359809Y-103005952D01*
X150407428Y-103053571D01*
X150502666Y-103101190D01*
X150883619Y-103101190D01*
X149550285Y-103053571D02*
X149407428Y-103101190D01*
X149359809Y-103148809D01*
X149312190Y-103244047D01*
X149312190Y-103386904D01*
X149359809Y-103482142D01*
X149407428Y-103529761D01*
X149502666Y-103577380D01*
X149883619Y-103577380D01*
X149883619Y-102577380D01*
X149550285Y-102577380D01*
X149455047Y-102625000D01*
X149407428Y-102672619D01*
X149359809Y-102767857D01*
X149359809Y-102863095D01*
X149407428Y-102958333D01*
X149455047Y-103005952D01*
X149550285Y-103053571D01*
X149883619Y-103053571D01*
X148169333Y-102672619D02*
X148121714Y-102625000D01*
X148026476Y-102577380D01*
X147788380Y-102577380D01*
X147693142Y-102625000D01*
X147645523Y-102672619D01*
X147597904Y-102767857D01*
X147597904Y-102863095D01*
X147645523Y-103005952D01*
X148216952Y-103577380D01*
X147597904Y-103577380D01*
X146978857Y-102577380D02*
X146883619Y-102577380D01*
X146788380Y-102625000D01*
X146740761Y-102672619D01*
X146693142Y-102767857D01*
X146645523Y-102958333D01*
X146645523Y-103196428D01*
X146693142Y-103386904D01*
X146740761Y-103482142D01*
X146788380Y-103529761D01*
X146883619Y-103577380D01*
X146978857Y-103577380D01*
X147074095Y-103529761D01*
X147121714Y-103482142D01*
X147169333Y-103386904D01*
X147216952Y-103196428D01*
X147216952Y-102958333D01*
X147169333Y-102767857D01*
X147121714Y-102672619D01*
X147074095Y-102625000D01*
X146978857Y-102577380D01*
X146264571Y-102672619D02*
X146216952Y-102625000D01*
X146121714Y-102577380D01*
X145883619Y-102577380D01*
X145788380Y-102625000D01*
X145740761Y-102672619D01*
X145693142Y-102767857D01*
X145693142Y-102863095D01*
X145740761Y-103005952D01*
X146312190Y-103577380D01*
X145693142Y-103577380D01*
X144740761Y-103577380D02*
X145312190Y-103577380D01*
X145026476Y-103577380D02*
X145026476Y-102577380D01*
X145121714Y-102720238D01*
X145216952Y-102815476D01*
X145312190Y-102863095D01*
X152550285Y-104941666D02*
X152074095Y-104941666D01*
X152645523Y-105227380D02*
X152312190Y-104227380D01*
X151978857Y-105227380D01*
X151216952Y-104560714D02*
X151216952Y-105227380D01*
X151645523Y-104560714D02*
X151645523Y-105084523D01*
X151597904Y-105179761D01*
X151502666Y-105227380D01*
X151359809Y-105227380D01*
X151264571Y-105179761D01*
X151216952Y-105132142D01*
X150883619Y-104560714D02*
X150502666Y-104560714D01*
X150740761Y-104227380D02*
X150740761Y-105084523D01*
X150693142Y-105179761D01*
X150597904Y-105227380D01*
X150502666Y-105227380D01*
X150026476Y-105227380D02*
X150121714Y-105179761D01*
X150169333Y-105132142D01*
X150216952Y-105036904D01*
X150216952Y-104751190D01*
X150169333Y-104655952D01*
X150121714Y-104608333D01*
X150026476Y-104560714D01*
X149883619Y-104560714D01*
X149788380Y-104608333D01*
X149740761Y-104655952D01*
X149693142Y-104751190D01*
X149693142Y-105036904D01*
X149740761Y-105132142D01*
X149788380Y-105179761D01*
X149883619Y-105227380D01*
X150026476Y-105227380D01*
X149312190Y-105179761D02*
X149169333Y-105227380D01*
X148931238Y-105227380D01*
X148836000Y-105179761D01*
X148788380Y-105132142D01*
X148740761Y-105036904D01*
X148740761Y-104941666D01*
X148788380Y-104846428D01*
X148836000Y-104798809D01*
X148931238Y-104751190D01*
X149121714Y-104703571D01*
X149216952Y-104655952D01*
X149264571Y-104608333D01*
X149312190Y-104513095D01*
X149312190Y-104417857D01*
X149264571Y-104322619D01*
X149216952Y-104275000D01*
X149121714Y-104227380D01*
X148883619Y-104227380D01*
X148740761Y-104275000D01*
X148407428Y-104560714D02*
X148216952Y-105227380D01*
X148026476Y-104751190D01*
X147836000Y-105227380D01*
X147645523Y-104560714D01*
X147264571Y-105227380D02*
X147264571Y-104560714D01*
X147264571Y-104227380D02*
X147312190Y-104275000D01*
X147264571Y-104322619D01*
X147216952Y-104275000D01*
X147264571Y-104227380D01*
X147264571Y-104322619D01*
X146931238Y-104560714D02*
X146550285Y-104560714D01*
X146788380Y-104227380D02*
X146788380Y-105084523D01*
X146740761Y-105179761D01*
X146645523Y-105227380D01*
X146550285Y-105227380D01*
X145788380Y-105179761D02*
X145883619Y-105227380D01*
X146074095Y-105227380D01*
X146169333Y-105179761D01*
X146216952Y-105132142D01*
X146264571Y-105036904D01*
X146264571Y-104751190D01*
X146216952Y-104655952D01*
X146169333Y-104608333D01*
X146074095Y-104560714D01*
X145883619Y-104560714D01*
X145788380Y-104608333D01*
X145359809Y-105227380D02*
X145359809Y-104227380D01*
X144931238Y-105227380D02*
X144931238Y-104703571D01*
X144978857Y-104608333D01*
X145074095Y-104560714D01*
X145216952Y-104560714D01*
X145312190Y-104608333D01*
X145359809Y-104655952D01*
X149859809Y-105877380D02*
X149526476Y-106877380D01*
X149193142Y-105877380D01*
X148336000Y-106877380D02*
X148907428Y-106877380D01*
X148621714Y-106877380D02*
X148621714Y-105877380D01*
X148716952Y-106020238D01*
X148812190Y-106115476D01*
X148907428Y-106163095D01*
X147907428Y-106782142D02*
X147859809Y-106829761D01*
X147907428Y-106877380D01*
X147955047Y-106829761D01*
X147907428Y-106782142D01*
X147907428Y-106877380D01*
X146907428Y-106877380D02*
X147478857Y-106877380D01*
X147193142Y-106877380D02*
X147193142Y-105877380D01*
X147288380Y-106020238D01*
X147383619Y-106115476D01*
X147478857Y-106163095D01*
%TO.C,PS1*%
X135271285Y-116731428D02*
X134521285Y-116731428D01*
X135271285Y-117160000D02*
X134842714Y-116838571D01*
X134521285Y-117160000D02*
X134949857Y-116731428D01*
X134878428Y-117481428D02*
X134878428Y-117731428D01*
X135271285Y-117838571D02*
X135271285Y-117481428D01*
X134521285Y-117481428D01*
X134521285Y-117838571D01*
X134878428Y-118160000D02*
X134878428Y-118410000D01*
X135271285Y-118517142D02*
X135271285Y-118160000D01*
X134521285Y-118160000D01*
X134521285Y-118517142D01*
X135271285Y-118838571D02*
X134521285Y-118838571D01*
X134521285Y-119124285D01*
X134557000Y-119195714D01*
X134592714Y-119231428D01*
X134664142Y-119267142D01*
X134771285Y-119267142D01*
X134842714Y-119231428D01*
X134878428Y-119195714D01*
X134914142Y-119124285D01*
X134914142Y-118838571D01*
X134985571Y-119588571D02*
X134985571Y-120160000D01*
X134521285Y-120660000D02*
X134521285Y-120802857D01*
X134557000Y-120874285D01*
X134628428Y-120945714D01*
X134771285Y-120981428D01*
X135021285Y-120981428D01*
X135164142Y-120945714D01*
X135235571Y-120874285D01*
X135271285Y-120802857D01*
X135271285Y-120660000D01*
X135235571Y-120588571D01*
X135164142Y-120517142D01*
X135021285Y-120481428D01*
X134771285Y-120481428D01*
X134628428Y-120517142D01*
X134557000Y-120588571D01*
X134521285Y-120660000D01*
X134521285Y-121302857D02*
X135128428Y-121302857D01*
X135199857Y-121338571D01*
X135235571Y-121374285D01*
X135271285Y-121445714D01*
X135271285Y-121588571D01*
X135235571Y-121660000D01*
X135199857Y-121695714D01*
X135128428Y-121731428D01*
X134521285Y-121731428D01*
X134521285Y-121981428D02*
X134521285Y-122410000D01*
X135271285Y-122195714D02*
X134521285Y-122195714D01*
X134521285Y-123160000D02*
X134521285Y-123660000D01*
X135271285Y-123160000D01*
X135271285Y-123660000D01*
X134521285Y-124088571D02*
X134521285Y-124231428D01*
X134557000Y-124302857D01*
X134628428Y-124374285D01*
X134771285Y-124409999D01*
X135021285Y-124409999D01*
X135164142Y-124374285D01*
X135235571Y-124302857D01*
X135271285Y-124231428D01*
X135271285Y-124088571D01*
X135235571Y-124017142D01*
X135164142Y-123945714D01*
X135021285Y-123909999D01*
X134771285Y-123909999D01*
X134628428Y-123945714D01*
X134557000Y-124017142D01*
X134521285Y-124088571D01*
X135271285Y-124731428D02*
X134521285Y-124731428D01*
X135271285Y-125159999D01*
X134521285Y-125159999D01*
X134878428Y-125517142D02*
X134878428Y-125767142D01*
X135271285Y-125874285D02*
X135271285Y-125517142D01*
X134521285Y-125517142D01*
X134521285Y-125874285D01*
%TD*%
M02*
