%TF.GenerationSoftware,KiCad,Pcbnew,(5.1.10)-1*%
%TF.CreationDate,2021-12-15T20:23:36+00:00*%
%TF.ProjectId,vacSwitch,76616353-7769-4746-9368-2e6b69636164,rev?*%
%TF.SameCoordinates,Original*%
%TF.FileFunction,Legend,Top*%
%TF.FilePolarity,Positive*%
%FSLAX46Y46*%
G04 Gerber Fmt 4.6, Leading zero omitted, Abs format (unit mm)*
G04 Created by KiCad (PCBNEW (5.1.10)-1) date 2021-12-15 20:23:36*
%MOMM*%
%LPD*%
G01*
G04 APERTURE LIST*
%ADD10C,0.150000*%
%ADD11C,0.120000*%
%ADD12C,0.100000*%
%ADD13C,0.254000*%
G04 APERTURE END LIST*
D10*
X172529523Y-120356380D02*
X172053333Y-120356380D01*
X172005714Y-120832571D01*
X172053333Y-120784952D01*
X172148571Y-120737333D01*
X172386666Y-120737333D01*
X172481904Y-120784952D01*
X172529523Y-120832571D01*
X172577142Y-120927809D01*
X172577142Y-121165904D01*
X172529523Y-121261142D01*
X172481904Y-121308761D01*
X172386666Y-121356380D01*
X172148571Y-121356380D01*
X172053333Y-121308761D01*
X172005714Y-121261142D01*
X172862857Y-120356380D02*
X173196190Y-121356380D01*
X173529523Y-120356380D01*
X125126761Y-119006952D02*
X125031523Y-118959333D01*
X124983904Y-118911714D01*
X124936285Y-118816476D01*
X124936285Y-118768857D01*
X124983904Y-118673619D01*
X125031523Y-118626000D01*
X125126761Y-118578380D01*
X125317238Y-118578380D01*
X125412476Y-118626000D01*
X125460095Y-118673619D01*
X125507714Y-118768857D01*
X125507714Y-118816476D01*
X125460095Y-118911714D01*
X125412476Y-118959333D01*
X125317238Y-119006952D01*
X125126761Y-119006952D01*
X125031523Y-119054571D01*
X124983904Y-119102190D01*
X124936285Y-119197428D01*
X124936285Y-119387904D01*
X124983904Y-119483142D01*
X125031523Y-119530761D01*
X125126761Y-119578380D01*
X125317238Y-119578380D01*
X125412476Y-119530761D01*
X125460095Y-119483142D01*
X125507714Y-119387904D01*
X125507714Y-119197428D01*
X125460095Y-119102190D01*
X125412476Y-119054571D01*
X125317238Y-119006952D01*
X116744714Y-119578380D02*
X116173285Y-119578380D01*
X116459000Y-119578380D02*
X116459000Y-118578380D01*
X116363761Y-118721238D01*
X116268523Y-118816476D01*
X116173285Y-118864095D01*
X125380714Y-81605380D02*
X124809285Y-81605380D01*
X125095000Y-81605380D02*
X125095000Y-80605380D01*
X124999761Y-80748238D01*
X124904523Y-80843476D01*
X124809285Y-80891095D01*
X161790285Y-125166380D02*
X161790285Y-124166380D01*
X162171238Y-124166380D01*
X162266476Y-124214000D01*
X162314095Y-124261619D01*
X162361714Y-124356857D01*
X162361714Y-124499714D01*
X162314095Y-124594952D01*
X162266476Y-124642571D01*
X162171238Y-124690190D01*
X161790285Y-124690190D01*
X163361714Y-125166380D02*
X163028380Y-124690190D01*
X162790285Y-125166380D02*
X162790285Y-124166380D01*
X163171238Y-124166380D01*
X163266476Y-124214000D01*
X163314095Y-124261619D01*
X163361714Y-124356857D01*
X163361714Y-124499714D01*
X163314095Y-124594952D01*
X163266476Y-124642571D01*
X163171238Y-124690190D01*
X162790285Y-124690190D01*
X163980761Y-124166380D02*
X164171238Y-124166380D01*
X164266476Y-124214000D01*
X164361714Y-124309238D01*
X164409333Y-124499714D01*
X164409333Y-124833047D01*
X164361714Y-125023523D01*
X164266476Y-125118761D01*
X164171238Y-125166380D01*
X163980761Y-125166380D01*
X163885523Y-125118761D01*
X163790285Y-125023523D01*
X163742666Y-124833047D01*
X163742666Y-124499714D01*
X163790285Y-124309238D01*
X163885523Y-124214000D01*
X163980761Y-124166380D01*
X165361714Y-124214000D02*
X165266476Y-124166380D01*
X165123619Y-124166380D01*
X164980761Y-124214000D01*
X164885523Y-124309238D01*
X164837904Y-124404476D01*
X164790285Y-124594952D01*
X164790285Y-124737809D01*
X164837904Y-124928285D01*
X164885523Y-125023523D01*
X164980761Y-125118761D01*
X165123619Y-125166380D01*
X165218857Y-125166380D01*
X165361714Y-125118761D01*
X165409333Y-125071142D01*
X165409333Y-124737809D01*
X165218857Y-124737809D01*
X172553380Y-119451380D02*
X172220047Y-118975190D01*
X171981952Y-119451380D02*
X171981952Y-118451380D01*
X172362904Y-118451380D01*
X172458142Y-118499000D01*
X172505761Y-118546619D01*
X172553380Y-118641857D01*
X172553380Y-118784714D01*
X172505761Y-118879952D01*
X172458142Y-118927571D01*
X172362904Y-118975190D01*
X171981952Y-118975190D01*
X172934333Y-119403761D02*
X173077190Y-119451380D01*
X173315285Y-119451380D01*
X173410523Y-119403761D01*
X173458142Y-119356142D01*
X173505761Y-119260904D01*
X173505761Y-119165666D01*
X173458142Y-119070428D01*
X173410523Y-119022809D01*
X173315285Y-118975190D01*
X173124809Y-118927571D01*
X173029571Y-118879952D01*
X172981952Y-118832333D01*
X172934333Y-118737095D01*
X172934333Y-118641857D01*
X172981952Y-118546619D01*
X173029571Y-118499000D01*
X173124809Y-118451380D01*
X173362904Y-118451380D01*
X173505761Y-118499000D01*
X173791476Y-118451380D02*
X174362904Y-118451380D01*
X174077190Y-119451380D02*
X174077190Y-118451380D01*
X171910523Y-117371761D02*
X172053380Y-117419380D01*
X172291476Y-117419380D01*
X172386714Y-117371761D01*
X172434333Y-117324142D01*
X172481952Y-117228904D01*
X172481952Y-117133666D01*
X172434333Y-117038428D01*
X172386714Y-116990809D01*
X172291476Y-116943190D01*
X172101000Y-116895571D01*
X172005761Y-116847952D01*
X171958142Y-116800333D01*
X171910523Y-116705095D01*
X171910523Y-116609857D01*
X171958142Y-116514619D01*
X172005761Y-116467000D01*
X172101000Y-116419380D01*
X172339095Y-116419380D01*
X172481952Y-116467000D01*
X173481952Y-117324142D02*
X173434333Y-117371761D01*
X173291476Y-117419380D01*
X173196238Y-117419380D01*
X173053380Y-117371761D01*
X172958142Y-117276523D01*
X172910523Y-117181285D01*
X172862904Y-116990809D01*
X172862904Y-116847952D01*
X172910523Y-116657476D01*
X172958142Y-116562238D01*
X173053380Y-116467000D01*
X173196238Y-116419380D01*
X173291476Y-116419380D01*
X173434333Y-116467000D01*
X173481952Y-116514619D01*
X174386714Y-117419380D02*
X173910523Y-117419380D01*
X173910523Y-116419380D01*
X171910571Y-115387380D02*
X171910571Y-114387380D01*
X172243904Y-115101666D01*
X172577238Y-114387380D01*
X172577238Y-115387380D01*
X173243904Y-114387380D02*
X173434380Y-114387380D01*
X173529619Y-114435000D01*
X173624857Y-114530238D01*
X173672476Y-114720714D01*
X173672476Y-115054047D01*
X173624857Y-115244523D01*
X173529619Y-115339761D01*
X173434380Y-115387380D01*
X173243904Y-115387380D01*
X173148666Y-115339761D01*
X173053428Y-115244523D01*
X173005809Y-115054047D01*
X173005809Y-114720714D01*
X173053428Y-114530238D01*
X173148666Y-114435000D01*
X173243904Y-114387380D01*
X174053428Y-115339761D02*
X174196285Y-115387380D01*
X174434380Y-115387380D01*
X174529619Y-115339761D01*
X174577238Y-115292142D01*
X174624857Y-115196904D01*
X174624857Y-115101666D01*
X174577238Y-115006428D01*
X174529619Y-114958809D01*
X174434380Y-114911190D01*
X174243904Y-114863571D01*
X174148666Y-114815952D01*
X174101047Y-114768333D01*
X174053428Y-114673095D01*
X174053428Y-114577857D01*
X174101047Y-114482619D01*
X174148666Y-114435000D01*
X174243904Y-114387380D01*
X174482000Y-114387380D01*
X174624857Y-114435000D01*
X175053428Y-115387380D02*
X175053428Y-114387380D01*
X171910571Y-113482380D02*
X171910571Y-112482380D01*
X172243904Y-113196666D01*
X172577238Y-112482380D01*
X172577238Y-113482380D01*
X173053428Y-113482380D02*
X173053428Y-112482380D01*
X173482000Y-113434761D02*
X173624857Y-113482380D01*
X173862952Y-113482380D01*
X173958190Y-113434761D01*
X174005809Y-113387142D01*
X174053428Y-113291904D01*
X174053428Y-113196666D01*
X174005809Y-113101428D01*
X173958190Y-113053809D01*
X173862952Y-113006190D01*
X173672476Y-112958571D01*
X173577238Y-112910952D01*
X173529619Y-112863333D01*
X173482000Y-112768095D01*
X173482000Y-112672857D01*
X173529619Y-112577619D01*
X173577238Y-112530000D01*
X173672476Y-112482380D01*
X173910571Y-112482380D01*
X174053428Y-112530000D01*
X174672476Y-112482380D02*
X174862952Y-112482380D01*
X174958190Y-112530000D01*
X175053428Y-112625238D01*
X175101047Y-112815714D01*
X175101047Y-113149047D01*
X175053428Y-113339523D01*
X174958190Y-113434761D01*
X174862952Y-113482380D01*
X174672476Y-113482380D01*
X174577238Y-113434761D01*
X174482000Y-113339523D01*
X174434380Y-113149047D01*
X174434380Y-112815714D01*
X174482000Y-112625238D01*
X174577238Y-112530000D01*
X174672476Y-112482380D01*
X172164380Y-110323380D02*
X172259619Y-110323380D01*
X172354857Y-110371000D01*
X172402476Y-110418619D01*
X172450095Y-110513857D01*
X172497714Y-110704333D01*
X172497714Y-110942428D01*
X172450095Y-111132904D01*
X172402476Y-111228142D01*
X172354857Y-111275761D01*
X172259619Y-111323380D01*
X172164380Y-111323380D01*
X172069142Y-111275761D01*
X172021523Y-111228142D01*
X171973904Y-111132904D01*
X171926285Y-110942428D01*
X171926285Y-110704333D01*
X171973904Y-110513857D01*
X172021523Y-110418619D01*
X172069142Y-110371000D01*
X172164380Y-110323380D01*
X105719619Y-121031142D02*
X105719619Y-120554952D01*
X106719619Y-120554952D01*
X106719619Y-121554952D02*
X106719619Y-121745428D01*
X106672000Y-121840666D01*
X106576761Y-121935904D01*
X106386285Y-121983523D01*
X106052952Y-121983523D01*
X105862476Y-121935904D01*
X105767238Y-121840666D01*
X105719619Y-121745428D01*
X105719619Y-121554952D01*
X105767238Y-121459714D01*
X105862476Y-121364476D01*
X106052952Y-121316857D01*
X106386285Y-121316857D01*
X106576761Y-121364476D01*
X106672000Y-121459714D01*
X106719619Y-121554952D01*
X106005333Y-122364476D02*
X106005333Y-122840666D01*
X105719619Y-122269238D02*
X106719619Y-122602571D01*
X105719619Y-122935904D01*
X105719619Y-123269238D02*
X106719619Y-123269238D01*
X106719619Y-123507333D01*
X106672000Y-123650190D01*
X106576761Y-123745428D01*
X106481523Y-123793047D01*
X106291047Y-123840666D01*
X106148190Y-123840666D01*
X105957714Y-123793047D01*
X105862476Y-123745428D01*
X105767238Y-123650190D01*
X105719619Y-123507333D01*
X105719619Y-123269238D01*
X106751380Y-112045714D02*
X105751380Y-112045714D01*
X106751380Y-111474285D01*
X105751380Y-111474285D01*
X106751380Y-101885714D02*
X105751380Y-101885714D01*
X106751380Y-101314285D01*
X105751380Y-101314285D01*
X105973619Y-97083523D02*
X105973619Y-96607333D01*
X106973619Y-96607333D01*
X106719619Y-105418095D02*
X105719619Y-105751428D01*
X106719619Y-106084761D01*
X106005333Y-106370476D02*
X106005333Y-106846666D01*
X105719619Y-106275238D02*
X106719619Y-106608571D01*
X105719619Y-106941904D01*
X105814857Y-107846666D02*
X105767238Y-107799047D01*
X105719619Y-107656190D01*
X105719619Y-107560952D01*
X105767238Y-107418095D01*
X105862476Y-107322857D01*
X105957714Y-107275238D01*
X106148190Y-107227619D01*
X106291047Y-107227619D01*
X106481523Y-107275238D01*
X106576761Y-107322857D01*
X106672000Y-107418095D01*
X106719619Y-107560952D01*
X106719619Y-107656190D01*
X106672000Y-107799047D01*
X106624380Y-107846666D01*
X105719619Y-115824142D02*
X105719619Y-115347952D01*
X106719619Y-115347952D01*
X106719619Y-116347952D02*
X106719619Y-116538428D01*
X106672000Y-116633666D01*
X106576761Y-116728904D01*
X106386285Y-116776523D01*
X106052952Y-116776523D01*
X105862476Y-116728904D01*
X105767238Y-116633666D01*
X105719619Y-116538428D01*
X105719619Y-116347952D01*
X105767238Y-116252714D01*
X105862476Y-116157476D01*
X106052952Y-116109857D01*
X106386285Y-116109857D01*
X106576761Y-116157476D01*
X106672000Y-116252714D01*
X106719619Y-116347952D01*
X106005333Y-117157476D02*
X106005333Y-117633666D01*
X105719619Y-117062238D02*
X106719619Y-117395571D01*
X105719619Y-117728904D01*
X105719619Y-118062238D02*
X106719619Y-118062238D01*
X106719619Y-118300333D01*
X106672000Y-118443190D01*
X106576761Y-118538428D01*
X106481523Y-118586047D01*
X106291047Y-118633666D01*
X106148190Y-118633666D01*
X105957714Y-118586047D01*
X105862476Y-118538428D01*
X105767238Y-118443190D01*
X105719619Y-118300333D01*
X105719619Y-118062238D01*
X168822809Y-108402380D02*
X168822809Y-107402380D01*
X169251380Y-108354761D02*
X169394238Y-108402380D01*
X169632333Y-108402380D01*
X169727571Y-108354761D01*
X169775190Y-108307142D01*
X169822809Y-108211904D01*
X169822809Y-108116666D01*
X169775190Y-108021428D01*
X169727571Y-107973809D01*
X169632333Y-107926190D01*
X169441857Y-107878571D01*
X169346619Y-107830952D01*
X169299000Y-107783333D01*
X169251380Y-107688095D01*
X169251380Y-107592857D01*
X169299000Y-107497619D01*
X169346619Y-107450000D01*
X169441857Y-107402380D01*
X169679952Y-107402380D01*
X169822809Y-107450000D01*
X170251380Y-108402380D02*
X170251380Y-107402380D01*
X170632333Y-107402380D01*
X170727571Y-107450000D01*
X170775190Y-107497619D01*
X170822809Y-107592857D01*
X170822809Y-107735714D01*
X170775190Y-107830952D01*
X170727571Y-107878571D01*
X170632333Y-107926190D01*
X170251380Y-107926190D01*
X188873380Y-115577476D02*
X189873380Y-115244142D01*
X188873380Y-114910809D01*
X189873380Y-114434619D02*
X189825761Y-114529857D01*
X189778142Y-114577476D01*
X189682904Y-114625095D01*
X189397190Y-114625095D01*
X189301952Y-114577476D01*
X189254333Y-114529857D01*
X189206714Y-114434619D01*
X189206714Y-114291761D01*
X189254333Y-114196523D01*
X189301952Y-114148904D01*
X189397190Y-114101285D01*
X189682904Y-114101285D01*
X189778142Y-114148904D01*
X189825761Y-114196523D01*
X189873380Y-114291761D01*
X189873380Y-114434619D01*
X189873380Y-113529857D02*
X189825761Y-113625095D01*
X189730523Y-113672714D01*
X188873380Y-113672714D01*
X189206714Y-113291761D02*
X189206714Y-112910809D01*
X188873380Y-113148904D02*
X189730523Y-113148904D01*
X189825761Y-113101285D01*
X189873380Y-113006047D01*
X189873380Y-112910809D01*
X189349571Y-111482238D02*
X189349571Y-111815571D01*
X189873380Y-111815571D02*
X188873380Y-111815571D01*
X188873380Y-111339380D01*
X189873380Y-110958428D02*
X189206714Y-110958428D01*
X189397190Y-110958428D02*
X189301952Y-110910809D01*
X189254333Y-110863190D01*
X189206714Y-110767952D01*
X189206714Y-110672714D01*
X189825761Y-109958428D02*
X189873380Y-110053666D01*
X189873380Y-110244142D01*
X189825761Y-110339380D01*
X189730523Y-110387000D01*
X189349571Y-110387000D01*
X189254333Y-110339380D01*
X189206714Y-110244142D01*
X189206714Y-110053666D01*
X189254333Y-109958428D01*
X189349571Y-109910809D01*
X189444809Y-109910809D01*
X189540047Y-110387000D01*
X189825761Y-109101285D02*
X189873380Y-109196523D01*
X189873380Y-109387000D01*
X189825761Y-109482238D01*
X189730523Y-109529857D01*
X189349571Y-109529857D01*
X189254333Y-109482238D01*
X189206714Y-109387000D01*
X189206714Y-109196523D01*
X189254333Y-109101285D01*
X189349571Y-109053666D01*
X189444809Y-109053666D01*
X189540047Y-109529857D01*
X191428142Y-113934619D02*
X191475761Y-113982238D01*
X191523380Y-114125095D01*
X191523380Y-114220333D01*
X191475761Y-114363190D01*
X191380523Y-114458428D01*
X191285285Y-114506047D01*
X191094809Y-114553666D01*
X190951952Y-114553666D01*
X190761476Y-114506047D01*
X190666238Y-114458428D01*
X190571000Y-114363190D01*
X190523380Y-114220333D01*
X190523380Y-114125095D01*
X190571000Y-113982238D01*
X190618619Y-113934619D01*
X191523380Y-113363190D02*
X191475761Y-113458428D01*
X191428142Y-113506047D01*
X191332904Y-113553666D01*
X191047190Y-113553666D01*
X190951952Y-113506047D01*
X190904333Y-113458428D01*
X190856714Y-113363190D01*
X190856714Y-113220333D01*
X190904333Y-113125095D01*
X190951952Y-113077476D01*
X191047190Y-113029857D01*
X191332904Y-113029857D01*
X191428142Y-113077476D01*
X191475761Y-113125095D01*
X191523380Y-113220333D01*
X191523380Y-113363190D01*
X190856714Y-112601285D02*
X191523380Y-112601285D01*
X190951952Y-112601285D02*
X190904333Y-112553666D01*
X190856714Y-112458428D01*
X190856714Y-112315571D01*
X190904333Y-112220333D01*
X190999571Y-112172714D01*
X191523380Y-112172714D01*
X190856714Y-111839380D02*
X190856714Y-111458428D01*
X190523380Y-111696523D02*
X191380523Y-111696523D01*
X191475761Y-111648904D01*
X191523380Y-111553666D01*
X191523380Y-111458428D01*
X191523380Y-110696523D02*
X190999571Y-110696523D01*
X190904333Y-110744142D01*
X190856714Y-110839380D01*
X190856714Y-111029857D01*
X190904333Y-111125095D01*
X191475761Y-110696523D02*
X191523380Y-110791761D01*
X191523380Y-111029857D01*
X191475761Y-111125095D01*
X191380523Y-111172714D01*
X191285285Y-111172714D01*
X191190047Y-111125095D01*
X191142428Y-111029857D01*
X191142428Y-110791761D01*
X191094809Y-110696523D01*
X191475761Y-109791761D02*
X191523380Y-109887000D01*
X191523380Y-110077476D01*
X191475761Y-110172714D01*
X191428142Y-110220333D01*
X191332904Y-110267952D01*
X191047190Y-110267952D01*
X190951952Y-110220333D01*
X190904333Y-110172714D01*
X190856714Y-110077476D01*
X190856714Y-109887000D01*
X190904333Y-109791761D01*
X190856714Y-109506047D02*
X190856714Y-109125095D01*
X190523380Y-109363190D02*
X191380523Y-109363190D01*
X191475761Y-109315571D01*
X191523380Y-109220333D01*
X191523380Y-109125095D01*
X162711142Y-99147380D02*
X162806380Y-99147380D01*
X162901619Y-99195000D01*
X162949238Y-99242619D01*
X162996857Y-99337857D01*
X163044476Y-99528333D01*
X163044476Y-99766428D01*
X162996857Y-99956904D01*
X162949238Y-100052142D01*
X162901619Y-100099761D01*
X162806380Y-100147380D01*
X162711142Y-100147380D01*
X162615904Y-100099761D01*
X162568285Y-100052142D01*
X162520666Y-99956904D01*
X162473047Y-99766428D01*
X162473047Y-99528333D01*
X162520666Y-99337857D01*
X162568285Y-99242619D01*
X162615904Y-99195000D01*
X162711142Y-99147380D01*
X164806380Y-100147380D02*
X164473047Y-99671190D01*
X164234952Y-100147380D02*
X164234952Y-99147380D01*
X164615904Y-99147380D01*
X164711142Y-99195000D01*
X164758761Y-99242619D01*
X164806380Y-99337857D01*
X164806380Y-99480714D01*
X164758761Y-99575952D01*
X164711142Y-99623571D01*
X164615904Y-99671190D01*
X164234952Y-99671190D01*
X165139714Y-99147380D02*
X165806380Y-100147380D01*
X165806380Y-99147380D02*
X165139714Y-100147380D01*
X166806380Y-99147380D02*
X167377809Y-99147380D01*
X167092095Y-100147380D02*
X167092095Y-99147380D01*
X167615904Y-99147380D02*
X168282571Y-100147380D01*
X168282571Y-99147380D02*
X167615904Y-100147380D01*
X164012761Y-107005380D02*
X163679428Y-106529190D01*
X163441333Y-107005380D02*
X163441333Y-106005380D01*
X163822285Y-106005380D01*
X163917523Y-106053000D01*
X163965142Y-106100619D01*
X164012761Y-106195857D01*
X164012761Y-106338714D01*
X163965142Y-106433952D01*
X163917523Y-106481571D01*
X163822285Y-106529190D01*
X163441333Y-106529190D01*
X164393714Y-106957761D02*
X164536571Y-107005380D01*
X164774666Y-107005380D01*
X164869904Y-106957761D01*
X164917523Y-106910142D01*
X164965142Y-106814904D01*
X164965142Y-106719666D01*
X164917523Y-106624428D01*
X164869904Y-106576809D01*
X164774666Y-106529190D01*
X164584190Y-106481571D01*
X164488952Y-106433952D01*
X164441333Y-106386333D01*
X164393714Y-106291095D01*
X164393714Y-106195857D01*
X164441333Y-106100619D01*
X164488952Y-106053000D01*
X164584190Y-106005380D01*
X164822285Y-106005380D01*
X164965142Y-106053000D01*
X165346095Y-106100619D02*
X165393714Y-106053000D01*
X165488952Y-106005380D01*
X165727047Y-106005380D01*
X165822285Y-106053000D01*
X165869904Y-106100619D01*
X165917523Y-106195857D01*
X165917523Y-106291095D01*
X165869904Y-106433952D01*
X165298476Y-107005380D01*
X165917523Y-107005380D01*
X166250857Y-106005380D02*
X166869904Y-106005380D01*
X166536571Y-106386333D01*
X166679428Y-106386333D01*
X166774666Y-106433952D01*
X166822285Y-106481571D01*
X166869904Y-106576809D01*
X166869904Y-106814904D01*
X166822285Y-106910142D01*
X166774666Y-106957761D01*
X166679428Y-107005380D01*
X166393714Y-107005380D01*
X166298476Y-106957761D01*
X166250857Y-106910142D01*
X167250857Y-106100619D02*
X167298476Y-106053000D01*
X167393714Y-106005380D01*
X167631809Y-106005380D01*
X167727047Y-106053000D01*
X167774666Y-106100619D01*
X167822285Y-106195857D01*
X167822285Y-106291095D01*
X167774666Y-106433952D01*
X167203238Y-107005380D01*
X167822285Y-107005380D01*
D11*
%TO.C,C4*%
X148135000Y-85525775D02*
X148635000Y-85525775D01*
X148385000Y-85775775D02*
X148385000Y-85275775D01*
X150920000Y-80575003D02*
G75*
G02*
X150920000Y-85366997I-1060000J-2395997D01*
G01*
X148800000Y-80575003D02*
G75*
G03*
X148800000Y-85366997I1060000J-2395997D01*
G01*
%TO.C,C3*%
X126160251Y-119530000D02*
X126760251Y-119530000D01*
X126460251Y-119230000D02*
X126460251Y-119830000D01*
X132434417Y-120225000D02*
G75*
G03*
X126565584Y-120225000I-2934417J-1060000D01*
G01*
X132434417Y-122345000D02*
G75*
G02*
X126565584Y-122345000I-2934417J1060000D01*
G01*
D12*
%TO.C,J1*%
X115302000Y-94107000D02*
X115302000Y-124587000D01*
X115302000Y-124587000D02*
X107202000Y-124587000D01*
X107202000Y-124587000D02*
X107202000Y-94107000D01*
X107202000Y-94107000D02*
X115302000Y-94107000D01*
D11*
%TO.C,J3*%
X171782000Y-108511000D02*
X170532000Y-108511000D01*
X171782000Y-109761000D02*
X171782000Y-108511000D01*
X167372000Y-119871000D02*
X167872000Y-119871000D01*
X167872000Y-119971000D02*
X167372000Y-119971000D01*
X167872000Y-119771000D02*
X167872000Y-119971000D01*
X167372000Y-119771000D02*
X167872000Y-119771000D01*
X167372000Y-117871000D02*
X167872000Y-117871000D01*
X167872000Y-117971000D02*
X167372000Y-117971000D01*
X167872000Y-117771000D02*
X167872000Y-117971000D01*
X167372000Y-117771000D02*
X167872000Y-117771000D01*
X167372000Y-115871000D02*
X167872000Y-115871000D01*
X167872000Y-115971000D02*
X167372000Y-115971000D01*
X167872000Y-115771000D02*
X167872000Y-115971000D01*
X167372000Y-115771000D02*
X167872000Y-115771000D01*
X167372000Y-113871000D02*
X167872000Y-113871000D01*
X167872000Y-113971000D02*
X167372000Y-113971000D01*
X167872000Y-113771000D02*
X167872000Y-113971000D01*
X167372000Y-113771000D02*
X167872000Y-113771000D01*
X167372000Y-111871000D02*
X167872000Y-111871000D01*
X167872000Y-111971000D02*
X167372000Y-111971000D01*
X167872000Y-111771000D02*
X167872000Y-111971000D01*
X167372000Y-111771000D02*
X167872000Y-111771000D01*
X168872000Y-122931000D02*
X168872000Y-122321000D01*
X170172000Y-122931000D02*
X170172000Y-122321000D01*
X168872000Y-108811000D02*
X168872000Y-109421000D01*
X170172000Y-108811000D02*
X170172000Y-109421000D01*
X170872000Y-120371000D02*
X171482000Y-120371000D01*
X170872000Y-122321000D02*
X170872000Y-120371000D01*
X167372000Y-122321000D02*
X170872000Y-122321000D01*
X167372000Y-109421000D02*
X167372000Y-122321000D01*
X170872000Y-109421000D02*
X167372000Y-109421000D01*
X170872000Y-111371000D02*
X170872000Y-109421000D01*
X171482000Y-111371000D02*
X170872000Y-111371000D01*
X171582000Y-110571000D02*
X171582000Y-110271000D01*
X171682000Y-110271000D02*
X171482000Y-110271000D01*
X171682000Y-110571000D02*
X171682000Y-110271000D01*
X171482000Y-110571000D02*
X171682000Y-110571000D01*
X171482000Y-122931000D02*
X171482000Y-108811000D01*
X166762000Y-122931000D02*
X171482000Y-122931000D01*
X166762000Y-108811000D02*
X166762000Y-122931000D01*
X171482000Y-108811000D02*
X166762000Y-108811000D01*
%TO.C,C1*%
X170484775Y-84406000D02*
X169984775Y-84406000D01*
X170234775Y-84656000D02*
X170234775Y-84156000D01*
X165284003Y-83991000D02*
G75*
G03*
X170075997Y-83991000I2395997J1060000D01*
G01*
X165284003Y-81871000D02*
G75*
G02*
X170075997Y-81871000I2395997J-1060000D01*
G01*
%TO.C,C6*%
X127190000Y-113138000D02*
X127190000Y-96398000D01*
X134430000Y-113138000D02*
X134430000Y-96398000D01*
X127190000Y-113138000D02*
X129706000Y-113138000D01*
X131914000Y-113138000D02*
X134430000Y-113138000D01*
X127190000Y-96398000D02*
X129706000Y-96398000D01*
X131914000Y-96398000D02*
X134430000Y-96398000D01*
%TO.C,D1*%
X143090000Y-86591000D02*
X143090000Y-84351000D01*
X143090000Y-84351000D02*
X138850000Y-84351000D01*
X138850000Y-84351000D02*
X138850000Y-86591000D01*
X138850000Y-86591000D02*
X143090000Y-86591000D01*
X143740000Y-85471000D02*
X143090000Y-85471000D01*
X138200000Y-85471000D02*
X138850000Y-85471000D01*
X142370000Y-86591000D02*
X142370000Y-84351000D01*
X142250000Y-86591000D02*
X142250000Y-84351000D01*
X142490000Y-86591000D02*
X142490000Y-84351000D01*
%TO.C,D6*%
X190818000Y-83983000D02*
X190974000Y-83983000D01*
X188502000Y-83983000D02*
X188658000Y-83983000D01*
X190817837Y-81381870D02*
G75*
G02*
X190818000Y-83463961I-1079837J-1041130D01*
G01*
X188658163Y-81381870D02*
G75*
G03*
X188658000Y-83463961I1079837J-1041130D01*
G01*
X190816608Y-80750665D02*
G75*
G02*
X190973516Y-83983000I-1078608J-1672335D01*
G01*
X188659392Y-80750665D02*
G75*
G03*
X188502484Y-83983000I1078608J-1672335D01*
G01*
%TO.C,D7*%
X190974000Y-86705000D02*
X190818000Y-86705000D01*
X188658000Y-86705000D02*
X188502000Y-86705000D01*
X190816608Y-89937335D02*
G75*
G03*
X190973516Y-86705000I-1078608J1672335D01*
G01*
X188659392Y-89937335D02*
G75*
G02*
X188502484Y-86705000I1078608J1672335D01*
G01*
X190817837Y-89306130D02*
G75*
G03*
X190818000Y-87224039I-1079837J1041130D01*
G01*
X188658163Y-89306130D02*
G75*
G02*
X188658000Y-87224039I1079837J1041130D01*
G01*
%TO.C,D9*%
X108236000Y-90083000D02*
X108236000Y-79843000D01*
X112877000Y-90083000D02*
X112877000Y-79843000D01*
X108236000Y-90083000D02*
X112877000Y-90083000D01*
X108236000Y-79843000D02*
X112877000Y-79843000D01*
X109746000Y-90083000D02*
X109746000Y-79843000D01*
X108236000Y-86813000D02*
X109746000Y-86813000D01*
X108236000Y-83112000D02*
X109746000Y-83112000D01*
%TO.C,J2*%
X161516000Y-100933000D02*
X161516000Y-105653000D01*
X161516000Y-105653000D02*
X169636000Y-105653000D01*
X169636000Y-105653000D02*
X169636000Y-100933000D01*
X169636000Y-100933000D02*
X161516000Y-100933000D01*
X163276000Y-100933000D02*
X163276000Y-100733000D01*
X163276000Y-100733000D02*
X162976000Y-100733000D01*
X162976000Y-100733000D02*
X162976000Y-100933000D01*
X163276000Y-100833000D02*
X162976000Y-100833000D01*
X164076000Y-100933000D02*
X164076000Y-101543000D01*
X164076000Y-101543000D02*
X162126000Y-101543000D01*
X162126000Y-101543000D02*
X162126000Y-105043000D01*
X162126000Y-105043000D02*
X169026000Y-105043000D01*
X169026000Y-105043000D02*
X169026000Y-101543000D01*
X169026000Y-101543000D02*
X167076000Y-101543000D01*
X167076000Y-101543000D02*
X167076000Y-100933000D01*
X161516000Y-102243000D02*
X162126000Y-102243000D01*
X161516000Y-103543000D02*
X162126000Y-103543000D01*
X169636000Y-102243000D02*
X169026000Y-102243000D01*
X169636000Y-103543000D02*
X169026000Y-103543000D01*
X164476000Y-105043000D02*
X164476000Y-104543000D01*
X164476000Y-104543000D02*
X164676000Y-104543000D01*
X164676000Y-104543000D02*
X164676000Y-105043000D01*
X164576000Y-105043000D02*
X164576000Y-104543000D01*
X166476000Y-105043000D02*
X166476000Y-104543000D01*
X166476000Y-104543000D02*
X166676000Y-104543000D01*
X166676000Y-104543000D02*
X166676000Y-105043000D01*
X166576000Y-105043000D02*
X166576000Y-104543000D01*
X162466000Y-100633000D02*
X161216000Y-100633000D01*
X161216000Y-100633000D02*
X161216000Y-101883000D01*
%TO.C,J4*%
X192310000Y-102207000D02*
X187590000Y-102207000D01*
X187590000Y-102207000D02*
X187590000Y-108327000D01*
X187590000Y-108327000D02*
X192310000Y-108327000D01*
X192310000Y-108327000D02*
X192310000Y-102207000D01*
X192310000Y-103967000D02*
X192510000Y-103967000D01*
X192510000Y-103967000D02*
X192510000Y-103667000D01*
X192510000Y-103667000D02*
X192310000Y-103667000D01*
X192410000Y-103967000D02*
X192410000Y-103667000D01*
X192310000Y-104767000D02*
X191700000Y-104767000D01*
X191700000Y-104767000D02*
X191700000Y-102817000D01*
X191700000Y-102817000D02*
X188200000Y-102817000D01*
X188200000Y-102817000D02*
X188200000Y-107717000D01*
X188200000Y-107717000D02*
X191700000Y-107717000D01*
X191700000Y-107717000D02*
X191700000Y-105767000D01*
X191700000Y-105767000D02*
X192310000Y-105767000D01*
X191000000Y-102207000D02*
X191000000Y-102817000D01*
X189700000Y-102207000D02*
X189700000Y-102817000D01*
X191000000Y-108327000D02*
X191000000Y-107717000D01*
X189700000Y-108327000D02*
X189700000Y-107717000D01*
X188200000Y-105167000D02*
X188700000Y-105167000D01*
X188700000Y-105167000D02*
X188700000Y-105367000D01*
X188700000Y-105367000D02*
X188200000Y-105367000D01*
X188200000Y-105267000D02*
X188700000Y-105267000D01*
X192610000Y-103157000D02*
X192610000Y-101907000D01*
X192610000Y-101907000D02*
X191360000Y-101907000D01*
%TO.C,JP1*%
X162246000Y-123377000D02*
X164906000Y-123377000D01*
X162246000Y-118237000D02*
X162246000Y-123377000D01*
X164906000Y-118237000D02*
X164906000Y-123377000D01*
X162246000Y-118237000D02*
X164906000Y-118237000D01*
X162246000Y-116967000D02*
X162246000Y-115637000D01*
X162246000Y-115637000D02*
X163576000Y-115637000D01*
%TO.C,K1*%
X180356000Y-102766000D02*
X178586000Y-102766000D01*
X178586000Y-102766000D02*
X178586000Y-122786000D01*
X178586000Y-122786000D02*
X184126000Y-122786000D01*
X184126000Y-122786000D02*
X184126000Y-102766000D01*
X184126000Y-102766000D02*
X182356000Y-102766000D01*
X182356000Y-102766000D02*
G75*
G02*
X180356000Y-102766000I-1000000J0D01*
G01*
%TO.C,PS1*%
X135952000Y-124675000D02*
X135942000Y-87415000D01*
X135952000Y-87415000D02*
X160212000Y-87415000D01*
X160212000Y-87415000D02*
X160212000Y-124675000D01*
X135952000Y-124675000D02*
X160212000Y-124675000D01*
X135692000Y-91805000D02*
X135692000Y-89805000D01*
%TO.C,Q1*%
X184426000Y-84637000D02*
X180826000Y-84637000D01*
X184464478Y-84648522D02*
G75*
G02*
X182626000Y-89087000I-1838478J-1838478D01*
G01*
X180787522Y-84648522D02*
G75*
G03*
X182626000Y-89087000I1838478J-1838478D01*
G01*
%TO.C,R3*%
X162460000Y-95853000D02*
X162790000Y-95853000D01*
X162460000Y-89313000D02*
X162460000Y-95853000D01*
X162790000Y-89313000D02*
X162460000Y-89313000D01*
X165200000Y-95853000D02*
X164870000Y-95853000D01*
X165200000Y-89313000D02*
X165200000Y-95853000D01*
X164870000Y-89313000D02*
X165200000Y-89313000D01*
%TO.C,R4*%
X144240000Y-82955000D02*
X144240000Y-83285000D01*
X144240000Y-83285000D02*
X137700000Y-83285000D01*
X137700000Y-83285000D02*
X137700000Y-82955000D01*
X144240000Y-80875000D02*
X144240000Y-80545000D01*
X144240000Y-80545000D02*
X137700000Y-80545000D01*
X137700000Y-80545000D02*
X137700000Y-80875000D01*
%TO.C,R7*%
X179356000Y-95861000D02*
X179356000Y-95531000D01*
X179356000Y-95531000D02*
X185896000Y-95531000D01*
X185896000Y-95531000D02*
X185896000Y-95861000D01*
X179356000Y-97941000D02*
X179356000Y-98271000D01*
X179356000Y-98271000D02*
X185896000Y-98271000D01*
X185896000Y-98271000D02*
X185896000Y-97941000D01*
%TO.C,R8*%
X185896000Y-94969000D02*
X185896000Y-94639000D01*
X179356000Y-94969000D02*
X185896000Y-94969000D01*
X179356000Y-94639000D02*
X179356000Y-94969000D01*
X185896000Y-92229000D02*
X185896000Y-92559000D01*
X179356000Y-92229000D02*
X185896000Y-92229000D01*
X179356000Y-92559000D02*
X179356000Y-92229000D01*
%TO.C,R9*%
X182594000Y-82523000D02*
X182594000Y-82193000D01*
X176054000Y-82523000D02*
X182594000Y-82523000D01*
X176054000Y-82193000D02*
X176054000Y-82523000D01*
X182594000Y-79783000D02*
X182594000Y-80113000D01*
X176054000Y-79783000D02*
X182594000Y-79783000D01*
X176054000Y-80113000D02*
X176054000Y-79783000D01*
%TO.C,R10*%
X161766000Y-81685000D02*
X161766000Y-82015000D01*
X161766000Y-82015000D02*
X155226000Y-82015000D01*
X155226000Y-82015000D02*
X155226000Y-81685000D01*
X161766000Y-79605000D02*
X161766000Y-79275000D01*
X161766000Y-79275000D02*
X155226000Y-79275000D01*
X155226000Y-79275000D02*
X155226000Y-79605000D01*
%TO.C,R11*%
X124428000Y-97560000D02*
X124428000Y-97890000D01*
X124428000Y-97890000D02*
X117888000Y-97890000D01*
X117888000Y-97890000D02*
X117888000Y-97560000D01*
X124428000Y-95480000D02*
X124428000Y-95150000D01*
X124428000Y-95150000D02*
X117888000Y-95150000D01*
X117888000Y-95150000D02*
X117888000Y-95480000D01*
%TO.C,R12*%
X131286000Y-93572000D02*
X131286000Y-93242000D01*
X124746000Y-93572000D02*
X131286000Y-93572000D01*
X124746000Y-93242000D02*
X124746000Y-93572000D01*
X131286000Y-90832000D02*
X131286000Y-91162000D01*
X124746000Y-90832000D02*
X131286000Y-90832000D01*
X124746000Y-91162000D02*
X124746000Y-90832000D01*
D10*
%TO.C,RV1*%
X118380000Y-103484000D02*
X125380000Y-103484000D01*
X118380000Y-99584000D02*
X125380000Y-99584000D01*
X125380000Y-99584000D02*
X125380000Y-103484000D01*
X118380000Y-99584000D02*
X118380000Y-103484000D01*
D11*
%TO.C,U1*%
X170704000Y-87443000D02*
X169454000Y-87443000D01*
X169454000Y-87443000D02*
X169454000Y-97723000D01*
X169454000Y-97723000D02*
X173954000Y-97723000D01*
X173954000Y-97723000D02*
X173954000Y-87443000D01*
X173954000Y-87443000D02*
X172704000Y-87443000D01*
X172704000Y-87443000D02*
G75*
G02*
X170704000Y-87443000I-1000000J0D01*
G01*
%TO.C,U2*%
X120777000Y-123464000D02*
X122727000Y-123464000D01*
X120777000Y-123464000D02*
X118827000Y-123464000D01*
X120777000Y-118344000D02*
X122727000Y-118344000D01*
X120777000Y-118344000D02*
X117327000Y-118344000D01*
%TO.C,U3*%
X124774000Y-83963000D02*
X124774000Y-82713000D01*
X124774000Y-82713000D02*
X117034000Y-82713000D01*
X117034000Y-82713000D02*
X117034000Y-87213000D01*
X117034000Y-87213000D02*
X124774000Y-87213000D01*
X124774000Y-87213000D02*
X124774000Y-85963000D01*
X124774000Y-85963000D02*
G75*
G02*
X124774000Y-83963000I0J1000000D01*
G01*
%TO.C,C4*%
D10*
X146467142Y-83137666D02*
X146514761Y-83185285D01*
X146562380Y-83328142D01*
X146562380Y-83423380D01*
X146514761Y-83566238D01*
X146419523Y-83661476D01*
X146324285Y-83709095D01*
X146133809Y-83756714D01*
X145990952Y-83756714D01*
X145800476Y-83709095D01*
X145705238Y-83661476D01*
X145610000Y-83566238D01*
X145562380Y-83423380D01*
X145562380Y-83328142D01*
X145610000Y-83185285D01*
X145657619Y-83137666D01*
X145895714Y-82280523D02*
X146562380Y-82280523D01*
X145514761Y-82518619D02*
X146229047Y-82756714D01*
X146229047Y-82137666D01*
%TO.C,C3*%
X129627333Y-125833142D02*
X129579714Y-125880761D01*
X129436857Y-125928380D01*
X129341619Y-125928380D01*
X129198761Y-125880761D01*
X129103523Y-125785523D01*
X129055904Y-125690285D01*
X129008285Y-125499809D01*
X129008285Y-125356952D01*
X129055904Y-125166476D01*
X129103523Y-125071238D01*
X129198761Y-124976000D01*
X129341619Y-124928380D01*
X129436857Y-124928380D01*
X129579714Y-124976000D01*
X129627333Y-125023619D01*
X129960666Y-124928380D02*
X130579714Y-124928380D01*
X130246380Y-125309333D01*
X130389238Y-125309333D01*
X130484476Y-125356952D01*
X130532095Y-125404571D01*
X130579714Y-125499809D01*
X130579714Y-125737904D01*
X130532095Y-125833142D01*
X130484476Y-125880761D01*
X130389238Y-125928380D01*
X130103523Y-125928380D01*
X130008285Y-125880761D01*
X129960666Y-125833142D01*
X128944761Y-121737380D02*
X128373333Y-121737380D01*
X128659047Y-121737380D02*
X128659047Y-120737380D01*
X128563809Y-120880238D01*
X128468571Y-120975476D01*
X128373333Y-121023095D01*
X129373333Y-121070714D02*
X129373333Y-121737380D01*
X129373333Y-121165952D02*
X129420952Y-121118333D01*
X129516190Y-121070714D01*
X129659047Y-121070714D01*
X129754285Y-121118333D01*
X129801904Y-121213571D01*
X129801904Y-121737380D01*
X130611428Y-121213571D02*
X130278095Y-121213571D01*
X130278095Y-121737380D02*
X130278095Y-120737380D01*
X130754285Y-120737380D01*
%TO.C,J1*%
D13*
X110683523Y-103928333D02*
X111590666Y-103928333D01*
X111772095Y-103988809D01*
X111893047Y-104109761D01*
X111953523Y-104291190D01*
X111953523Y-104412142D01*
X111953523Y-102658333D02*
X111953523Y-103384047D01*
X111953523Y-103021190D02*
X110683523Y-103021190D01*
X110864952Y-103142142D01*
X110985904Y-103263095D01*
X111046380Y-103384047D01*
%TO.C,J3*%
D10*
X168616380Y-124412333D02*
X169330666Y-124412333D01*
X169473523Y-124459952D01*
X169568761Y-124555190D01*
X169616380Y-124698047D01*
X169616380Y-124793285D01*
X168616380Y-124031380D02*
X168616380Y-123412333D01*
X168997333Y-123745666D01*
X168997333Y-123602809D01*
X169044952Y-123507571D01*
X169092571Y-123459952D01*
X169187809Y-123412333D01*
X169425904Y-123412333D01*
X169521142Y-123459952D01*
X169568761Y-123507571D01*
X169616380Y-123602809D01*
X169616380Y-123888523D01*
X169568761Y-123983761D01*
X169521142Y-124031380D01*
%TO.C,C1*%
X167513333Y-87038142D02*
X167465714Y-87085761D01*
X167322857Y-87133380D01*
X167227619Y-87133380D01*
X167084761Y-87085761D01*
X166989523Y-86990523D01*
X166941904Y-86895285D01*
X166894285Y-86704809D01*
X166894285Y-86561952D01*
X166941904Y-86371476D01*
X166989523Y-86276238D01*
X167084761Y-86181000D01*
X167227619Y-86133380D01*
X167322857Y-86133380D01*
X167465714Y-86181000D01*
X167513333Y-86228619D01*
X168465714Y-87133380D02*
X167894285Y-87133380D01*
X168180000Y-87133380D02*
X168180000Y-86133380D01*
X168084761Y-86276238D01*
X167989523Y-86371476D01*
X167894285Y-86419095D01*
X167219380Y-84573857D02*
X167219380Y-84478619D01*
X167267000Y-84383380D01*
X167314619Y-84335761D01*
X167409857Y-84288142D01*
X167600333Y-84240523D01*
X167838428Y-84240523D01*
X168028904Y-84288142D01*
X168124142Y-84335761D01*
X168171761Y-84383380D01*
X168219380Y-84478619D01*
X168219380Y-84573857D01*
X168171761Y-84669095D01*
X168124142Y-84716714D01*
X168028904Y-84764333D01*
X167838428Y-84811952D01*
X167600333Y-84811952D01*
X167409857Y-84764333D01*
X167314619Y-84716714D01*
X167267000Y-84669095D01*
X167219380Y-84573857D01*
X168124142Y-83811952D02*
X168171761Y-83764333D01*
X168219380Y-83811952D01*
X168171761Y-83859571D01*
X168124142Y-83811952D01*
X168219380Y-83811952D01*
X168219380Y-82811952D02*
X168219380Y-83383380D01*
X168219380Y-83097666D02*
X167219380Y-83097666D01*
X167362238Y-83192904D01*
X167457476Y-83288142D01*
X167505095Y-83383380D01*
X167552714Y-81954809D02*
X168219380Y-81954809D01*
X167552714Y-82383380D02*
X168076523Y-82383380D01*
X168171761Y-82335761D01*
X168219380Y-82240523D01*
X168219380Y-82097666D01*
X168171761Y-82002428D01*
X168124142Y-81954809D01*
X167695571Y-81145285D02*
X167695571Y-81478619D01*
X168219380Y-81478619D02*
X167219380Y-81478619D01*
X167219380Y-81002428D01*
%TO.C,C6*%
X126341142Y-110910666D02*
X126388761Y-110958285D01*
X126436380Y-111101142D01*
X126436380Y-111196380D01*
X126388761Y-111339238D01*
X126293523Y-111434476D01*
X126198285Y-111482095D01*
X126007809Y-111529714D01*
X125864952Y-111529714D01*
X125674476Y-111482095D01*
X125579238Y-111434476D01*
X125484000Y-111339238D01*
X125436380Y-111196380D01*
X125436380Y-111101142D01*
X125484000Y-110958285D01*
X125531619Y-110910666D01*
X125436380Y-110053523D02*
X125436380Y-110244000D01*
X125484000Y-110339238D01*
X125531619Y-110386857D01*
X125674476Y-110482095D01*
X125864952Y-110529714D01*
X126245904Y-110529714D01*
X126341142Y-110482095D01*
X126388761Y-110434476D01*
X126436380Y-110339238D01*
X126436380Y-110148761D01*
X126388761Y-110053523D01*
X126341142Y-110005904D01*
X126245904Y-109958285D01*
X126007809Y-109958285D01*
X125912571Y-110005904D01*
X125864952Y-110053523D01*
X125817333Y-110148761D01*
X125817333Y-110339238D01*
X125864952Y-110434476D01*
X125912571Y-110482095D01*
X126007809Y-110529714D01*
X130008380Y-109203571D02*
X130008380Y-109108333D01*
X130056000Y-109013095D01*
X130103619Y-108965476D01*
X130198857Y-108917857D01*
X130389333Y-108870238D01*
X130627428Y-108870238D01*
X130817904Y-108917857D01*
X130913142Y-108965476D01*
X130960761Y-109013095D01*
X131008380Y-109108333D01*
X131008380Y-109203571D01*
X130960761Y-109298809D01*
X130913142Y-109346428D01*
X130817904Y-109394047D01*
X130627428Y-109441666D01*
X130389333Y-109441666D01*
X130198857Y-109394047D01*
X130103619Y-109346428D01*
X130056000Y-109298809D01*
X130008380Y-109203571D01*
X130913142Y-108441666D02*
X130960761Y-108394047D01*
X131008380Y-108441666D01*
X130960761Y-108489285D01*
X130913142Y-108441666D01*
X131008380Y-108441666D01*
X130008380Y-107775000D02*
X130008380Y-107679761D01*
X130056000Y-107584523D01*
X130103619Y-107536904D01*
X130198857Y-107489285D01*
X130389333Y-107441666D01*
X130627428Y-107441666D01*
X130817904Y-107489285D01*
X130913142Y-107536904D01*
X130960761Y-107584523D01*
X131008380Y-107679761D01*
X131008380Y-107775000D01*
X130960761Y-107870238D01*
X130913142Y-107917857D01*
X130817904Y-107965476D01*
X130627428Y-108013095D01*
X130389333Y-108013095D01*
X130198857Y-107965476D01*
X130103619Y-107917857D01*
X130056000Y-107870238D01*
X130008380Y-107775000D01*
X130341714Y-106584523D02*
X131008380Y-106584523D01*
X129960761Y-106822619D02*
X130675047Y-107060714D01*
X130675047Y-106441666D01*
X130008380Y-106155952D02*
X130008380Y-105489285D01*
X131008380Y-105917857D01*
X130341714Y-104679761D02*
X131008380Y-104679761D01*
X130341714Y-105108333D02*
X130865523Y-105108333D01*
X130960761Y-105060714D01*
X131008380Y-104965476D01*
X131008380Y-104822619D01*
X130960761Y-104727380D01*
X130913142Y-104679761D01*
X130484571Y-103870238D02*
X130484571Y-104203571D01*
X131008380Y-104203571D02*
X130008380Y-104203571D01*
X130008380Y-103727380D01*
X130341714Y-102155952D02*
X131008380Y-102155952D01*
X129960761Y-102394047D02*
X130675047Y-102632142D01*
X130675047Y-102013095D01*
X130008380Y-101727380D02*
X130008380Y-101060714D01*
X131008380Y-101489285D01*
X131008380Y-100108333D02*
X130532190Y-100441666D01*
X131008380Y-100679761D02*
X130008380Y-100679761D01*
X130008380Y-100298809D01*
X130056000Y-100203571D01*
X130103619Y-100155952D01*
X130198857Y-100108333D01*
X130341714Y-100108333D01*
X130436952Y-100155952D01*
X130484571Y-100203571D01*
X130532190Y-100298809D01*
X130532190Y-100679761D01*
%TO.C,D1*%
X140231904Y-85923380D02*
X140231904Y-84923380D01*
X140470000Y-84923380D01*
X140612857Y-84971000D01*
X140708095Y-85066238D01*
X140755714Y-85161476D01*
X140803333Y-85351952D01*
X140803333Y-85494809D01*
X140755714Y-85685285D01*
X140708095Y-85780523D01*
X140612857Y-85875761D01*
X140470000Y-85923380D01*
X140231904Y-85923380D01*
X141755714Y-85923380D02*
X141184285Y-85923380D01*
X141470000Y-85923380D02*
X141470000Y-84923380D01*
X141374761Y-85066238D01*
X141279523Y-85161476D01*
X141184285Y-85209095D01*
X130826142Y-85923380D02*
X130254714Y-85923380D01*
X130540428Y-85923380D02*
X130540428Y-84923380D01*
X130445190Y-85066238D01*
X130349952Y-85161476D01*
X130254714Y-85209095D01*
X131254714Y-85923380D02*
X131254714Y-84923380D01*
X131826142Y-85923380D01*
X131826142Y-84923380D01*
X132730904Y-85256714D02*
X132730904Y-85923380D01*
X132492809Y-84875761D02*
X132254714Y-85590047D01*
X132873761Y-85590047D01*
X133778523Y-85923380D02*
X133207095Y-85923380D01*
X133492809Y-85923380D02*
X133492809Y-84923380D01*
X133397571Y-85066238D01*
X133302333Y-85161476D01*
X133207095Y-85209095D01*
X134635666Y-85256714D02*
X134635666Y-85923380D01*
X134397571Y-84875761D02*
X134159476Y-85590047D01*
X134778523Y-85590047D01*
X135302333Y-85351952D02*
X135207095Y-85304333D01*
X135159476Y-85256714D01*
X135111857Y-85161476D01*
X135111857Y-85113857D01*
X135159476Y-85018619D01*
X135207095Y-84971000D01*
X135302333Y-84923380D01*
X135492809Y-84923380D01*
X135588047Y-84971000D01*
X135635666Y-85018619D01*
X135683285Y-85113857D01*
X135683285Y-85161476D01*
X135635666Y-85256714D01*
X135588047Y-85304333D01*
X135492809Y-85351952D01*
X135302333Y-85351952D01*
X135207095Y-85399571D01*
X135159476Y-85447190D01*
X135111857Y-85542428D01*
X135111857Y-85732904D01*
X135159476Y-85828142D01*
X135207095Y-85875761D01*
X135302333Y-85923380D01*
X135492809Y-85923380D01*
X135588047Y-85875761D01*
X135635666Y-85828142D01*
X135683285Y-85732904D01*
X135683285Y-85542428D01*
X135635666Y-85447190D01*
X135588047Y-85399571D01*
X135492809Y-85351952D01*
X143502095Y-84653380D02*
X143502095Y-83653380D01*
X144073523Y-84653380D02*
X143644952Y-84081952D01*
X144073523Y-83653380D02*
X143502095Y-84224809D01*
%TO.C,D6*%
X193238380Y-83034095D02*
X192238380Y-83034095D01*
X192238380Y-82796000D01*
X192286000Y-82653142D01*
X192381238Y-82557904D01*
X192476476Y-82510285D01*
X192666952Y-82462666D01*
X192809809Y-82462666D01*
X193000285Y-82510285D01*
X193095523Y-82557904D01*
X193190761Y-82653142D01*
X193238380Y-82796000D01*
X193238380Y-83034095D01*
X192238380Y-81605523D02*
X192238380Y-81796000D01*
X192286000Y-81891238D01*
X192333619Y-81938857D01*
X192476476Y-82034095D01*
X192666952Y-82081714D01*
X193047904Y-82081714D01*
X193143142Y-82034095D01*
X193190761Y-81986476D01*
X193238380Y-81891238D01*
X193238380Y-81700761D01*
X193190761Y-81605523D01*
X193143142Y-81557904D01*
X193047904Y-81510285D01*
X192809809Y-81510285D01*
X192714571Y-81557904D01*
X192666952Y-81605523D01*
X192619333Y-81700761D01*
X192619333Y-81891238D01*
X192666952Y-81986476D01*
X192714571Y-82034095D01*
X192809809Y-82081714D01*
%TO.C,D7*%
X193150380Y-89003095D02*
X192150380Y-89003095D01*
X192150380Y-88765000D01*
X192198000Y-88622142D01*
X192293238Y-88526904D01*
X192388476Y-88479285D01*
X192578952Y-88431666D01*
X192721809Y-88431666D01*
X192912285Y-88479285D01*
X193007523Y-88526904D01*
X193102761Y-88622142D01*
X193150380Y-88765000D01*
X193150380Y-89003095D01*
X192150380Y-88098333D02*
X192150380Y-87431666D01*
X193150380Y-87860238D01*
%TO.C,D9*%
X107688380Y-85701095D02*
X106688380Y-85701095D01*
X106688380Y-85463000D01*
X106736000Y-85320142D01*
X106831238Y-85224904D01*
X106926476Y-85177285D01*
X107116952Y-85129666D01*
X107259809Y-85129666D01*
X107450285Y-85177285D01*
X107545523Y-85224904D01*
X107640761Y-85320142D01*
X107688380Y-85463000D01*
X107688380Y-85701095D01*
X107688380Y-84653476D02*
X107688380Y-84463000D01*
X107640761Y-84367761D01*
X107593142Y-84320142D01*
X107450285Y-84224904D01*
X107259809Y-84177285D01*
X106878857Y-84177285D01*
X106783619Y-84224904D01*
X106736000Y-84272523D01*
X106688380Y-84367761D01*
X106688380Y-84558238D01*
X106736000Y-84653476D01*
X106783619Y-84701095D01*
X106878857Y-84748714D01*
X107116952Y-84748714D01*
X107212190Y-84701095D01*
X107259809Y-84653476D01*
X107307428Y-84558238D01*
X107307428Y-84367761D01*
X107259809Y-84272523D01*
X107212190Y-84224904D01*
X107116952Y-84177285D01*
X114458380Y-88248714D02*
X113458380Y-88248714D01*
X114172666Y-87915380D01*
X113458380Y-87582047D01*
X114458380Y-87582047D01*
X114172666Y-87153476D02*
X114172666Y-86677285D01*
X114458380Y-87248714D02*
X113458380Y-86915380D01*
X114458380Y-86582047D01*
X114363142Y-85677285D02*
X114410761Y-85724904D01*
X114458380Y-85867761D01*
X114458380Y-85963000D01*
X114410761Y-86105857D01*
X114315523Y-86201095D01*
X114220285Y-86248714D01*
X114029809Y-86296333D01*
X113886952Y-86296333D01*
X113696476Y-86248714D01*
X113601238Y-86201095D01*
X113506000Y-86105857D01*
X113458380Y-85963000D01*
X113458380Y-85867761D01*
X113506000Y-85724904D01*
X113553619Y-85677285D01*
X114458380Y-84724904D02*
X114458380Y-85296333D01*
X114458380Y-85010619D02*
X113458380Y-85010619D01*
X113601238Y-85105857D01*
X113696476Y-85201095D01*
X113744095Y-85296333D01*
X113553619Y-84343952D02*
X113506000Y-84296333D01*
X113458380Y-84201095D01*
X113458380Y-83963000D01*
X113506000Y-83867761D01*
X113553619Y-83820142D01*
X113648857Y-83772523D01*
X113744095Y-83772523D01*
X113886952Y-83820142D01*
X114458380Y-84391571D01*
X114458380Y-83772523D01*
X114458380Y-83343952D02*
X113458380Y-83343952D01*
X114172666Y-83010619D01*
X113458380Y-82677285D01*
X114458380Y-82677285D01*
X113506000Y-81677285D02*
X113458380Y-81772523D01*
X113458380Y-81915380D01*
X113506000Y-82058238D01*
X113601238Y-82153476D01*
X113696476Y-82201095D01*
X113886952Y-82248714D01*
X114029809Y-82248714D01*
X114220285Y-82201095D01*
X114315523Y-82153476D01*
X114410761Y-82058238D01*
X114458380Y-81915380D01*
X114458380Y-81820142D01*
X114410761Y-81677285D01*
X114363142Y-81629666D01*
X114029809Y-81629666D01*
X114029809Y-81820142D01*
%TO.C,J2*%
X170354666Y-102703380D02*
X170354666Y-103417666D01*
X170307047Y-103560523D01*
X170211809Y-103655761D01*
X170068952Y-103703380D01*
X169973714Y-103703380D01*
X170783238Y-102798619D02*
X170830857Y-102751000D01*
X170926095Y-102703380D01*
X171164190Y-102703380D01*
X171259428Y-102751000D01*
X171307047Y-102798619D01*
X171354666Y-102893857D01*
X171354666Y-102989095D01*
X171307047Y-103131952D01*
X170735619Y-103703380D01*
X171354666Y-103703380D01*
%TO.C,J4*%
X192852380Y-105600333D02*
X193566666Y-105600333D01*
X193709523Y-105647952D01*
X193804761Y-105743190D01*
X193852380Y-105886047D01*
X193852380Y-105981285D01*
X193185714Y-104695571D02*
X193852380Y-104695571D01*
X192804761Y-104933666D02*
X193519047Y-105171761D01*
X193519047Y-104552714D01*
%TO.C,JP1*%
X162742666Y-114089380D02*
X162742666Y-114803666D01*
X162695047Y-114946523D01*
X162599809Y-115041761D01*
X162456952Y-115089380D01*
X162361714Y-115089380D01*
X163218857Y-115089380D02*
X163218857Y-114089380D01*
X163599809Y-114089380D01*
X163695047Y-114137000D01*
X163742666Y-114184619D01*
X163790285Y-114279857D01*
X163790285Y-114422714D01*
X163742666Y-114517952D01*
X163695047Y-114565571D01*
X163599809Y-114613190D01*
X163218857Y-114613190D01*
X164742666Y-115089380D02*
X164171238Y-115089380D01*
X164456952Y-115089380D02*
X164456952Y-114089380D01*
X164361714Y-114232238D01*
X164266476Y-114327476D01*
X164171238Y-114375095D01*
%TO.C,K1*%
X180617904Y-102218380D02*
X180617904Y-101218380D01*
X181189333Y-102218380D02*
X180760761Y-101646952D01*
X181189333Y-101218380D02*
X180617904Y-101789809D01*
X182141714Y-102218380D02*
X181570285Y-102218380D01*
X181856000Y-102218380D02*
X181856000Y-101218380D01*
X181760761Y-101361238D01*
X181665523Y-101456476D01*
X181570285Y-101504095D01*
%TO.C,PS1*%
X132643714Y-88463380D02*
X132643714Y-87463380D01*
X133024666Y-87463380D01*
X133119904Y-87511000D01*
X133167523Y-87558619D01*
X133215142Y-87653857D01*
X133215142Y-87796714D01*
X133167523Y-87891952D01*
X133119904Y-87939571D01*
X133024666Y-87987190D01*
X132643714Y-87987190D01*
X133596095Y-88415761D02*
X133738952Y-88463380D01*
X133977047Y-88463380D01*
X134072285Y-88415761D01*
X134119904Y-88368142D01*
X134167523Y-88272904D01*
X134167523Y-88177666D01*
X134119904Y-88082428D01*
X134072285Y-88034809D01*
X133977047Y-87987190D01*
X133786571Y-87939571D01*
X133691333Y-87891952D01*
X133643714Y-87844333D01*
X133596095Y-87749095D01*
X133596095Y-87653857D01*
X133643714Y-87558619D01*
X133691333Y-87511000D01*
X133786571Y-87463380D01*
X134024666Y-87463380D01*
X134167523Y-87511000D01*
X135119904Y-88463380D02*
X134548476Y-88463380D01*
X134834190Y-88463380D02*
X134834190Y-87463380D01*
X134738952Y-87606238D01*
X134643714Y-87701476D01*
X134548476Y-87749095D01*
X153739619Y-101257380D02*
X154215809Y-100924047D01*
X153739619Y-100685952D02*
X154739619Y-100685952D01*
X154739619Y-101066904D01*
X154692000Y-101162142D01*
X154644380Y-101209761D01*
X154549142Y-101257380D01*
X154406285Y-101257380D01*
X154311047Y-101209761D01*
X154263428Y-101162142D01*
X154215809Y-101066904D01*
X154215809Y-100685952D01*
X154025333Y-101638333D02*
X154025333Y-102114523D01*
X153739619Y-101543095D02*
X154739619Y-101876428D01*
X153739619Y-102209761D01*
X153834857Y-103114523D02*
X153787238Y-103066904D01*
X153739619Y-102924047D01*
X153739619Y-102828809D01*
X153787238Y-102685952D01*
X153882476Y-102590714D01*
X153977714Y-102543095D01*
X154168190Y-102495476D01*
X154311047Y-102495476D01*
X154501523Y-102543095D01*
X154596761Y-102590714D01*
X154692000Y-102685952D01*
X154739619Y-102828809D01*
X154739619Y-102924047D01*
X154692000Y-103066904D01*
X154644380Y-103114523D01*
X154739619Y-103733571D02*
X154739619Y-103828809D01*
X154692000Y-103924047D01*
X154644380Y-103971666D01*
X154549142Y-104019285D01*
X154358666Y-104066904D01*
X154120571Y-104066904D01*
X153930095Y-104019285D01*
X153834857Y-103971666D01*
X153787238Y-103924047D01*
X153739619Y-103828809D01*
X153739619Y-103733571D01*
X153787238Y-103638333D01*
X153834857Y-103590714D01*
X153930095Y-103543095D01*
X154120571Y-103495476D01*
X154358666Y-103495476D01*
X154549142Y-103543095D01*
X154644380Y-103590714D01*
X154692000Y-103638333D01*
X154739619Y-103733571D01*
X154406285Y-104924047D02*
X153739619Y-104924047D01*
X154787238Y-104685952D02*
X154072952Y-104447857D01*
X154072952Y-105066904D01*
X154120571Y-105447857D02*
X154120571Y-106209761D01*
X154739619Y-106876428D02*
X154739619Y-106971666D01*
X154692000Y-107066904D01*
X154644380Y-107114523D01*
X154549142Y-107162142D01*
X154358666Y-107209761D01*
X154120571Y-107209761D01*
X153930095Y-107162142D01*
X153834857Y-107114523D01*
X153787238Y-107066904D01*
X153739619Y-106971666D01*
X153739619Y-106876428D01*
X153787238Y-106781190D01*
X153834857Y-106733571D01*
X153930095Y-106685952D01*
X154120571Y-106638333D01*
X154358666Y-106638333D01*
X154549142Y-106685952D01*
X154644380Y-106733571D01*
X154692000Y-106781190D01*
X154739619Y-106876428D01*
X154739619Y-108114523D02*
X154739619Y-107638333D01*
X154263428Y-107590714D01*
X154311047Y-107638333D01*
X154358666Y-107733571D01*
X154358666Y-107971666D01*
X154311047Y-108066904D01*
X154263428Y-108114523D01*
X154168190Y-108162142D01*
X153930095Y-108162142D01*
X153834857Y-108114523D01*
X153787238Y-108066904D01*
X153739619Y-107971666D01*
X153739619Y-107733571D01*
X153787238Y-107638333D01*
X153834857Y-107590714D01*
X153787238Y-108543095D02*
X153739619Y-108685952D01*
X153739619Y-108924047D01*
X153787238Y-109019285D01*
X153834857Y-109066904D01*
X153930095Y-109114523D01*
X154025333Y-109114523D01*
X154120571Y-109066904D01*
X154168190Y-109019285D01*
X154215809Y-108924047D01*
X154263428Y-108733571D01*
X154311047Y-108638333D01*
X154358666Y-108590714D01*
X154453904Y-108543095D01*
X154549142Y-108543095D01*
X154644380Y-108590714D01*
X154692000Y-108638333D01*
X154739619Y-108733571D01*
X154739619Y-108971666D01*
X154692000Y-109114523D01*
X154692000Y-110066904D02*
X154739619Y-109971666D01*
X154739619Y-109828809D01*
X154692000Y-109685952D01*
X154596761Y-109590714D01*
X154501523Y-109543095D01*
X154311047Y-109495476D01*
X154168190Y-109495476D01*
X153977714Y-109543095D01*
X153882476Y-109590714D01*
X153787238Y-109685952D01*
X153739619Y-109828809D01*
X153739619Y-109924047D01*
X153787238Y-110066904D01*
X153834857Y-110114523D01*
X154168190Y-110114523D01*
X154168190Y-109924047D01*
X154025333Y-110495476D02*
X154025333Y-110971666D01*
X153739619Y-110400238D02*
X154739619Y-110733571D01*
X153739619Y-111066904D01*
%TO.C,Q1*%
X178847761Y-87034619D02*
X178752523Y-86987000D01*
X178657285Y-86891761D01*
X178514428Y-86748904D01*
X178419190Y-86701285D01*
X178323952Y-86701285D01*
X178371571Y-86939380D02*
X178276333Y-86891761D01*
X178181095Y-86796523D01*
X178133476Y-86606047D01*
X178133476Y-86272714D01*
X178181095Y-86082238D01*
X178276333Y-85987000D01*
X178371571Y-85939380D01*
X178562047Y-85939380D01*
X178657285Y-85987000D01*
X178752523Y-86082238D01*
X178800142Y-86272714D01*
X178800142Y-86606047D01*
X178752523Y-86796523D01*
X178657285Y-86891761D01*
X178562047Y-86939380D01*
X178371571Y-86939380D01*
X179752523Y-86939380D02*
X179181095Y-86939380D01*
X179466809Y-86939380D02*
X179466809Y-85939380D01*
X179371571Y-86082238D01*
X179276333Y-86177476D01*
X179181095Y-86225095D01*
X180768857Y-83625571D02*
X180911714Y-83673190D01*
X180959333Y-83720809D01*
X181006952Y-83816047D01*
X181006952Y-83958904D01*
X180959333Y-84054142D01*
X180911714Y-84101761D01*
X180816476Y-84149380D01*
X180435523Y-84149380D01*
X180435523Y-83149380D01*
X180768857Y-83149380D01*
X180864095Y-83197000D01*
X180911714Y-83244619D01*
X180959333Y-83339857D01*
X180959333Y-83435095D01*
X180911714Y-83530333D01*
X180864095Y-83577952D01*
X180768857Y-83625571D01*
X180435523Y-83625571D01*
X182006952Y-84054142D02*
X181959333Y-84101761D01*
X181816476Y-84149380D01*
X181721238Y-84149380D01*
X181578380Y-84101761D01*
X181483142Y-84006523D01*
X181435523Y-83911285D01*
X181387904Y-83720809D01*
X181387904Y-83577952D01*
X181435523Y-83387476D01*
X181483142Y-83292238D01*
X181578380Y-83197000D01*
X181721238Y-83149380D01*
X181816476Y-83149380D01*
X181959333Y-83197000D01*
X182006952Y-83244619D01*
X182911714Y-83149380D02*
X182435523Y-83149380D01*
X182387904Y-83625571D01*
X182435523Y-83577952D01*
X182530761Y-83530333D01*
X182768857Y-83530333D01*
X182864095Y-83577952D01*
X182911714Y-83625571D01*
X182959333Y-83720809D01*
X182959333Y-83958904D01*
X182911714Y-84054142D01*
X182864095Y-84101761D01*
X182768857Y-84149380D01*
X182530761Y-84149380D01*
X182435523Y-84101761D01*
X182387904Y-84054142D01*
X183816476Y-83482714D02*
X183816476Y-84149380D01*
X183578380Y-83101761D02*
X183340285Y-83816047D01*
X183959333Y-83816047D01*
X184245047Y-83149380D02*
X184911714Y-83149380D01*
X184483142Y-84149380D01*
%TO.C,R3*%
X161869380Y-92749666D02*
X161393190Y-93083000D01*
X161869380Y-93321095D02*
X160869380Y-93321095D01*
X160869380Y-92940142D01*
X160917000Y-92844904D01*
X160964619Y-92797285D01*
X161059857Y-92749666D01*
X161202714Y-92749666D01*
X161297952Y-92797285D01*
X161345571Y-92844904D01*
X161393190Y-92940142D01*
X161393190Y-93321095D01*
X160869380Y-92416333D02*
X160869380Y-91797285D01*
X161250333Y-92130619D01*
X161250333Y-91987761D01*
X161297952Y-91892523D01*
X161345571Y-91844904D01*
X161440809Y-91797285D01*
X161678904Y-91797285D01*
X161774142Y-91844904D01*
X161821761Y-91892523D01*
X161869380Y-91987761D01*
X161869380Y-92273476D01*
X161821761Y-92368714D01*
X161774142Y-92416333D01*
X164155380Y-93400476D02*
X164155380Y-93971904D01*
X164155380Y-93686190D02*
X163155380Y-93686190D01*
X163298238Y-93781428D01*
X163393476Y-93876666D01*
X163441095Y-93971904D01*
X163155380Y-92781428D02*
X163155380Y-92686190D01*
X163203000Y-92590952D01*
X163250619Y-92543333D01*
X163345857Y-92495714D01*
X163536333Y-92448095D01*
X163774428Y-92448095D01*
X163964904Y-92495714D01*
X164060142Y-92543333D01*
X164107761Y-92590952D01*
X164155380Y-92686190D01*
X164155380Y-92781428D01*
X164107761Y-92876666D01*
X164060142Y-92924285D01*
X163964904Y-92971904D01*
X163774428Y-93019523D01*
X163536333Y-93019523D01*
X163345857Y-92971904D01*
X163250619Y-92924285D01*
X163203000Y-92876666D01*
X163155380Y-92781428D01*
X164155380Y-92019523D02*
X163155380Y-92019523D01*
X164155380Y-91448095D02*
X163583952Y-91876666D01*
X163155380Y-91448095D02*
X163726809Y-92019523D01*
%TO.C,R4*%
X134707333Y-82494380D02*
X134374000Y-82018190D01*
X134135904Y-82494380D02*
X134135904Y-81494380D01*
X134516857Y-81494380D01*
X134612095Y-81542000D01*
X134659714Y-81589619D01*
X134707333Y-81684857D01*
X134707333Y-81827714D01*
X134659714Y-81922952D01*
X134612095Y-81970571D01*
X134516857Y-82018190D01*
X134135904Y-82018190D01*
X135564476Y-81827714D02*
X135564476Y-82494380D01*
X135326380Y-81446761D02*
X135088285Y-82161047D01*
X135707333Y-82161047D01*
X139581095Y-81589619D02*
X139628714Y-81542000D01*
X139723952Y-81494380D01*
X139962047Y-81494380D01*
X140057285Y-81542000D01*
X140104904Y-81589619D01*
X140152523Y-81684857D01*
X140152523Y-81780095D01*
X140104904Y-81922952D01*
X139533476Y-82494380D01*
X140152523Y-82494380D01*
X140581095Y-82494380D02*
X140581095Y-81494380D01*
X141152523Y-82494380D02*
X140723952Y-81922952D01*
X141152523Y-81494380D02*
X140581095Y-82065809D01*
X141533476Y-81589619D02*
X141581095Y-81542000D01*
X141676333Y-81494380D01*
X141914428Y-81494380D01*
X142009666Y-81542000D01*
X142057285Y-81589619D01*
X142104904Y-81684857D01*
X142104904Y-81780095D01*
X142057285Y-81922952D01*
X141485857Y-82494380D01*
X142104904Y-82494380D01*
%TO.C,R7*%
X182713333Y-99766380D02*
X182380000Y-99290190D01*
X182141904Y-99766380D02*
X182141904Y-98766380D01*
X182522857Y-98766380D01*
X182618095Y-98814000D01*
X182665714Y-98861619D01*
X182713333Y-98956857D01*
X182713333Y-99099714D01*
X182665714Y-99194952D01*
X182618095Y-99242571D01*
X182522857Y-99290190D01*
X182141904Y-99290190D01*
X183046666Y-98766380D02*
X183713333Y-98766380D01*
X183284761Y-99766380D01*
X181141904Y-96702619D02*
X181189523Y-96655000D01*
X181284761Y-96607380D01*
X181522857Y-96607380D01*
X181618095Y-96655000D01*
X181665714Y-96702619D01*
X181713333Y-96797857D01*
X181713333Y-96893095D01*
X181665714Y-97035952D01*
X181094285Y-97607380D01*
X181713333Y-97607380D01*
X182094285Y-96702619D02*
X182141904Y-96655000D01*
X182237142Y-96607380D01*
X182475238Y-96607380D01*
X182570476Y-96655000D01*
X182618095Y-96702619D01*
X182665714Y-96797857D01*
X182665714Y-96893095D01*
X182618095Y-97035952D01*
X182046666Y-97607380D01*
X182665714Y-97607380D01*
X183284761Y-96607380D02*
X183380000Y-96607380D01*
X183475238Y-96655000D01*
X183522857Y-96702619D01*
X183570476Y-96797857D01*
X183618095Y-96988333D01*
X183618095Y-97226428D01*
X183570476Y-97416904D01*
X183522857Y-97512142D01*
X183475238Y-97559761D01*
X183380000Y-97607380D01*
X183284761Y-97607380D01*
X183189523Y-97559761D01*
X183141904Y-97512142D01*
X183094285Y-97416904D01*
X183046666Y-97226428D01*
X183046666Y-96988333D01*
X183094285Y-96797857D01*
X183141904Y-96702619D01*
X183189523Y-96655000D01*
X183284761Y-96607380D01*
X184618095Y-97607380D02*
X184284761Y-97131190D01*
X184046666Y-97607380D02*
X184046666Y-96607380D01*
X184427619Y-96607380D01*
X184522857Y-96655000D01*
X184570476Y-96702619D01*
X184618095Y-96797857D01*
X184618095Y-96940714D01*
X184570476Y-97035952D01*
X184522857Y-97083571D01*
X184427619Y-97131190D01*
X184046666Y-97131190D01*
%TO.C,R8*%
X182459333Y-91681380D02*
X182126000Y-91205190D01*
X181887904Y-91681380D02*
X181887904Y-90681380D01*
X182268857Y-90681380D01*
X182364095Y-90729000D01*
X182411714Y-90776619D01*
X182459333Y-90871857D01*
X182459333Y-91014714D01*
X182411714Y-91109952D01*
X182364095Y-91157571D01*
X182268857Y-91205190D01*
X181887904Y-91205190D01*
X183030761Y-91109952D02*
X182935523Y-91062333D01*
X182887904Y-91014714D01*
X182840285Y-90919476D01*
X182840285Y-90871857D01*
X182887904Y-90776619D01*
X182935523Y-90729000D01*
X183030761Y-90681380D01*
X183221238Y-90681380D01*
X183316476Y-90729000D01*
X183364095Y-90776619D01*
X183411714Y-90871857D01*
X183411714Y-90919476D01*
X183364095Y-91014714D01*
X183316476Y-91062333D01*
X183221238Y-91109952D01*
X183030761Y-91109952D01*
X182935523Y-91157571D01*
X182887904Y-91205190D01*
X182840285Y-91300428D01*
X182840285Y-91490904D01*
X182887904Y-91586142D01*
X182935523Y-91633761D01*
X183030761Y-91681380D01*
X183221238Y-91681380D01*
X183316476Y-91633761D01*
X183364095Y-91586142D01*
X183411714Y-91490904D01*
X183411714Y-91300428D01*
X183364095Y-91205190D01*
X183316476Y-91157571D01*
X183221238Y-91109952D01*
X181014904Y-92892619D02*
X181062523Y-92845000D01*
X181157761Y-92797380D01*
X181395857Y-92797380D01*
X181491095Y-92845000D01*
X181538714Y-92892619D01*
X181586333Y-92987857D01*
X181586333Y-93083095D01*
X181538714Y-93225952D01*
X180967285Y-93797380D01*
X181586333Y-93797380D01*
X181967285Y-92892619D02*
X182014904Y-92845000D01*
X182110142Y-92797380D01*
X182348238Y-92797380D01*
X182443476Y-92845000D01*
X182491095Y-92892619D01*
X182538714Y-92987857D01*
X182538714Y-93083095D01*
X182491095Y-93225952D01*
X181919666Y-93797380D01*
X182538714Y-93797380D01*
X183157761Y-92797380D02*
X183253000Y-92797380D01*
X183348238Y-92845000D01*
X183395857Y-92892619D01*
X183443476Y-92987857D01*
X183491095Y-93178333D01*
X183491095Y-93416428D01*
X183443476Y-93606904D01*
X183395857Y-93702142D01*
X183348238Y-93749761D01*
X183253000Y-93797380D01*
X183157761Y-93797380D01*
X183062523Y-93749761D01*
X183014904Y-93702142D01*
X182967285Y-93606904D01*
X182919666Y-93416428D01*
X182919666Y-93178333D01*
X182967285Y-92987857D01*
X183014904Y-92892619D01*
X183062523Y-92845000D01*
X183157761Y-92797380D01*
X184491095Y-93797380D02*
X184157761Y-93321190D01*
X183919666Y-93797380D02*
X183919666Y-92797380D01*
X184300619Y-92797380D01*
X184395857Y-92845000D01*
X184443476Y-92892619D01*
X184491095Y-92987857D01*
X184491095Y-93130714D01*
X184443476Y-93225952D01*
X184395857Y-93273571D01*
X184300619Y-93321190D01*
X183919666Y-93321190D01*
%TO.C,R9*%
X179030333Y-79065380D02*
X178697000Y-78589190D01*
X178458904Y-79065380D02*
X178458904Y-78065380D01*
X178839857Y-78065380D01*
X178935095Y-78113000D01*
X178982714Y-78160619D01*
X179030333Y-78255857D01*
X179030333Y-78398714D01*
X178982714Y-78493952D01*
X178935095Y-78541571D01*
X178839857Y-78589190D01*
X178458904Y-78589190D01*
X179506523Y-79065380D02*
X179697000Y-79065380D01*
X179792238Y-79017761D01*
X179839857Y-78970142D01*
X179935095Y-78827285D01*
X179982714Y-78636809D01*
X179982714Y-78255857D01*
X179935095Y-78160619D01*
X179887476Y-78113000D01*
X179792238Y-78065380D01*
X179601761Y-78065380D01*
X179506523Y-78113000D01*
X179458904Y-78160619D01*
X179411285Y-78255857D01*
X179411285Y-78493952D01*
X179458904Y-78589190D01*
X179506523Y-78636809D01*
X179601761Y-78684428D01*
X179792238Y-78684428D01*
X179887476Y-78636809D01*
X179935095Y-78589190D01*
X179982714Y-78493952D01*
X177585904Y-80700619D02*
X177633523Y-80653000D01*
X177728761Y-80605380D01*
X177966857Y-80605380D01*
X178062095Y-80653000D01*
X178109714Y-80700619D01*
X178157333Y-80795857D01*
X178157333Y-80891095D01*
X178109714Y-81033952D01*
X177538285Y-81605380D01*
X178157333Y-81605380D01*
X178538285Y-80700619D02*
X178585904Y-80653000D01*
X178681142Y-80605380D01*
X178919238Y-80605380D01*
X179014476Y-80653000D01*
X179062095Y-80700619D01*
X179109714Y-80795857D01*
X179109714Y-80891095D01*
X179062095Y-81033952D01*
X178490666Y-81605380D01*
X179109714Y-81605380D01*
X179728761Y-80605380D02*
X179824000Y-80605380D01*
X179919238Y-80653000D01*
X179966857Y-80700619D01*
X180014476Y-80795857D01*
X180062095Y-80986333D01*
X180062095Y-81224428D01*
X180014476Y-81414904D01*
X179966857Y-81510142D01*
X179919238Y-81557761D01*
X179824000Y-81605380D01*
X179728761Y-81605380D01*
X179633523Y-81557761D01*
X179585904Y-81510142D01*
X179538285Y-81414904D01*
X179490666Y-81224428D01*
X179490666Y-80986333D01*
X179538285Y-80795857D01*
X179585904Y-80700619D01*
X179633523Y-80653000D01*
X179728761Y-80605380D01*
X181062095Y-81605380D02*
X180728761Y-81129190D01*
X180490666Y-81605380D02*
X180490666Y-80605380D01*
X180871619Y-80605380D01*
X180966857Y-80653000D01*
X181014476Y-80700619D01*
X181062095Y-80795857D01*
X181062095Y-80938714D01*
X181014476Y-81033952D01*
X180966857Y-81081571D01*
X180871619Y-81129190D01*
X180490666Y-81129190D01*
%TO.C,R10*%
X157980142Y-83383380D02*
X157646809Y-82907190D01*
X157408714Y-83383380D02*
X157408714Y-82383380D01*
X157789666Y-82383380D01*
X157884904Y-82431000D01*
X157932523Y-82478619D01*
X157980142Y-82573857D01*
X157980142Y-82716714D01*
X157932523Y-82811952D01*
X157884904Y-82859571D01*
X157789666Y-82907190D01*
X157408714Y-82907190D01*
X158932523Y-83383380D02*
X158361095Y-83383380D01*
X158646809Y-83383380D02*
X158646809Y-82383380D01*
X158551571Y-82526238D01*
X158456333Y-82621476D01*
X158361095Y-82669095D01*
X159551571Y-82383380D02*
X159646809Y-82383380D01*
X159742047Y-82431000D01*
X159789666Y-82478619D01*
X159837285Y-82573857D01*
X159884904Y-82764333D01*
X159884904Y-83002428D01*
X159837285Y-83192904D01*
X159789666Y-83288142D01*
X159742047Y-83335761D01*
X159646809Y-83383380D01*
X159551571Y-83383380D01*
X159456333Y-83335761D01*
X159408714Y-83288142D01*
X159361095Y-83192904D01*
X159313476Y-83002428D01*
X159313476Y-82764333D01*
X159361095Y-82573857D01*
X159408714Y-82478619D01*
X159456333Y-82431000D01*
X159551571Y-82383380D01*
X158503952Y-81224380D02*
X157932523Y-81224380D01*
X158218238Y-81224380D02*
X158218238Y-80224380D01*
X158123000Y-80367238D01*
X158027761Y-80462476D01*
X157932523Y-80510095D01*
X158932523Y-81224380D02*
X158932523Y-80224380D01*
X159027761Y-80843428D02*
X159313476Y-81224380D01*
X159313476Y-80557714D02*
X158932523Y-80938666D01*
%TO.C,R11*%
X120769142Y-94813380D02*
X120435809Y-94337190D01*
X120197714Y-94813380D02*
X120197714Y-93813380D01*
X120578666Y-93813380D01*
X120673904Y-93861000D01*
X120721523Y-93908619D01*
X120769142Y-94003857D01*
X120769142Y-94146714D01*
X120721523Y-94241952D01*
X120673904Y-94289571D01*
X120578666Y-94337190D01*
X120197714Y-94337190D01*
X121721523Y-94813380D02*
X121150095Y-94813380D01*
X121435809Y-94813380D02*
X121435809Y-93813380D01*
X121340571Y-93956238D01*
X121245333Y-94051476D01*
X121150095Y-94099095D01*
X122673904Y-94813380D02*
X122102476Y-94813380D01*
X122388190Y-94813380D02*
X122388190Y-93813380D01*
X122292952Y-93956238D01*
X122197714Y-94051476D01*
X122102476Y-94099095D01*
X119245285Y-96353380D02*
X119864333Y-96353380D01*
X119531000Y-96734333D01*
X119673857Y-96734333D01*
X119769095Y-96781952D01*
X119816714Y-96829571D01*
X119864333Y-96924809D01*
X119864333Y-97162904D01*
X119816714Y-97258142D01*
X119769095Y-97305761D01*
X119673857Y-97353380D01*
X119388142Y-97353380D01*
X119292904Y-97305761D01*
X119245285Y-97258142D01*
X120197666Y-96353380D02*
X120816714Y-96353380D01*
X120483380Y-96734333D01*
X120626238Y-96734333D01*
X120721476Y-96781952D01*
X120769095Y-96829571D01*
X120816714Y-96924809D01*
X120816714Y-97162904D01*
X120769095Y-97258142D01*
X120721476Y-97305761D01*
X120626238Y-97353380D01*
X120340523Y-97353380D01*
X120245285Y-97305761D01*
X120197666Y-97258142D01*
X121435761Y-96353380D02*
X121531000Y-96353380D01*
X121626238Y-96401000D01*
X121673857Y-96448619D01*
X121721476Y-96543857D01*
X121769095Y-96734333D01*
X121769095Y-96972428D01*
X121721476Y-97162904D01*
X121673857Y-97258142D01*
X121626238Y-97305761D01*
X121531000Y-97353380D01*
X121435761Y-97353380D01*
X121340523Y-97305761D01*
X121292904Y-97258142D01*
X121245285Y-97162904D01*
X121197666Y-96972428D01*
X121197666Y-96734333D01*
X121245285Y-96543857D01*
X121292904Y-96448619D01*
X121340523Y-96401000D01*
X121435761Y-96353380D01*
X122769095Y-97353380D02*
X122435761Y-96877190D01*
X122197666Y-97353380D02*
X122197666Y-96353380D01*
X122578619Y-96353380D01*
X122673857Y-96401000D01*
X122721476Y-96448619D01*
X122769095Y-96543857D01*
X122769095Y-96686714D01*
X122721476Y-96781952D01*
X122673857Y-96829571D01*
X122578619Y-96877190D01*
X122197666Y-96877190D01*
%TO.C,R12*%
X127373142Y-90284380D02*
X127039809Y-89808190D01*
X126801714Y-90284380D02*
X126801714Y-89284380D01*
X127182666Y-89284380D01*
X127277904Y-89332000D01*
X127325523Y-89379619D01*
X127373142Y-89474857D01*
X127373142Y-89617714D01*
X127325523Y-89712952D01*
X127277904Y-89760571D01*
X127182666Y-89808190D01*
X126801714Y-89808190D01*
X128325523Y-90284380D02*
X127754095Y-90284380D01*
X128039809Y-90284380D02*
X128039809Y-89284380D01*
X127944571Y-89427238D01*
X127849333Y-89522476D01*
X127754095Y-89570095D01*
X128706476Y-89379619D02*
X128754095Y-89332000D01*
X128849333Y-89284380D01*
X129087428Y-89284380D01*
X129182666Y-89332000D01*
X129230285Y-89379619D01*
X129277904Y-89474857D01*
X129277904Y-89570095D01*
X129230285Y-89712952D01*
X128658857Y-90284380D01*
X129277904Y-90284380D01*
X126230285Y-91527380D02*
X126849333Y-91527380D01*
X126516000Y-91908333D01*
X126658857Y-91908333D01*
X126754095Y-91955952D01*
X126801714Y-92003571D01*
X126849333Y-92098809D01*
X126849333Y-92336904D01*
X126801714Y-92432142D01*
X126754095Y-92479761D01*
X126658857Y-92527380D01*
X126373142Y-92527380D01*
X126277904Y-92479761D01*
X126230285Y-92432142D01*
X127706476Y-91527380D02*
X127516000Y-91527380D01*
X127420761Y-91575000D01*
X127373142Y-91622619D01*
X127277904Y-91765476D01*
X127230285Y-91955952D01*
X127230285Y-92336904D01*
X127277904Y-92432142D01*
X127325523Y-92479761D01*
X127420761Y-92527380D01*
X127611238Y-92527380D01*
X127706476Y-92479761D01*
X127754095Y-92432142D01*
X127801714Y-92336904D01*
X127801714Y-92098809D01*
X127754095Y-92003571D01*
X127706476Y-91955952D01*
X127611238Y-91908333D01*
X127420761Y-91908333D01*
X127325523Y-91955952D01*
X127277904Y-92003571D01*
X127230285Y-92098809D01*
X128420761Y-91527380D02*
X128516000Y-91527380D01*
X128611238Y-91575000D01*
X128658857Y-91622619D01*
X128706476Y-91717857D01*
X128754095Y-91908333D01*
X128754095Y-92146428D01*
X128706476Y-92336904D01*
X128658857Y-92432142D01*
X128611238Y-92479761D01*
X128516000Y-92527380D01*
X128420761Y-92527380D01*
X128325523Y-92479761D01*
X128277904Y-92432142D01*
X128230285Y-92336904D01*
X128182666Y-92146428D01*
X128182666Y-91908333D01*
X128230285Y-91717857D01*
X128277904Y-91622619D01*
X128325523Y-91575000D01*
X128420761Y-91527380D01*
X129754095Y-92527380D02*
X129420761Y-92051190D01*
X129182666Y-92527380D02*
X129182666Y-91527380D01*
X129563619Y-91527380D01*
X129658857Y-91575000D01*
X129706476Y-91622619D01*
X129754095Y-91717857D01*
X129754095Y-91860714D01*
X129706476Y-91955952D01*
X129658857Y-92003571D01*
X129563619Y-92051190D01*
X129182666Y-92051190D01*
%TO.C,RV1*%
X121070761Y-102052380D02*
X120737428Y-101576190D01*
X120499333Y-102052380D02*
X120499333Y-101052380D01*
X120880285Y-101052380D01*
X120975523Y-101100000D01*
X121023142Y-101147619D01*
X121070761Y-101242857D01*
X121070761Y-101385714D01*
X121023142Y-101480952D01*
X120975523Y-101528571D01*
X120880285Y-101576190D01*
X120499333Y-101576190D01*
X121356476Y-101052380D02*
X121689809Y-102052380D01*
X122023142Y-101052380D01*
X122880285Y-102052380D02*
X122308857Y-102052380D01*
X122594571Y-102052380D02*
X122594571Y-101052380D01*
X122499333Y-101195238D01*
X122404095Y-101290476D01*
X122308857Y-101338095D01*
X118348571Y-103719380D02*
X118681904Y-104719380D01*
X119015238Y-103719380D01*
X119300952Y-103814619D02*
X119348571Y-103767000D01*
X119443809Y-103719380D01*
X119681904Y-103719380D01*
X119777142Y-103767000D01*
X119824761Y-103814619D01*
X119872380Y-103909857D01*
X119872380Y-104005095D01*
X119824761Y-104147952D01*
X119253333Y-104719380D01*
X119872380Y-104719380D01*
X120777142Y-103719380D02*
X120300952Y-103719380D01*
X120253333Y-104195571D01*
X120300952Y-104147952D01*
X120396190Y-104100333D01*
X120634285Y-104100333D01*
X120729523Y-104147952D01*
X120777142Y-104195571D01*
X120824761Y-104290809D01*
X120824761Y-104528904D01*
X120777142Y-104624142D01*
X120729523Y-104671761D01*
X120634285Y-104719380D01*
X120396190Y-104719380D01*
X120300952Y-104671761D01*
X120253333Y-104624142D01*
X121443809Y-103719380D02*
X121539047Y-103719380D01*
X121634285Y-103767000D01*
X121681904Y-103814619D01*
X121729523Y-103909857D01*
X121777142Y-104100333D01*
X121777142Y-104338428D01*
X121729523Y-104528904D01*
X121681904Y-104624142D01*
X121634285Y-104671761D01*
X121539047Y-104719380D01*
X121443809Y-104719380D01*
X121348571Y-104671761D01*
X121300952Y-104624142D01*
X121253333Y-104528904D01*
X121205714Y-104338428D01*
X121205714Y-104100333D01*
X121253333Y-103909857D01*
X121300952Y-103814619D01*
X121348571Y-103767000D01*
X121443809Y-103719380D01*
X122681904Y-104719380D02*
X122205714Y-104719380D01*
X122205714Y-103719380D01*
X122967619Y-104433666D02*
X123443809Y-104433666D01*
X122872380Y-104719380D02*
X123205714Y-103719380D01*
X123539047Y-104719380D01*
X123824761Y-103814619D02*
X123872380Y-103767000D01*
X123967619Y-103719380D01*
X124205714Y-103719380D01*
X124300952Y-103767000D01*
X124348571Y-103814619D01*
X124396190Y-103909857D01*
X124396190Y-104005095D01*
X124348571Y-104147952D01*
X123777142Y-104719380D01*
X124396190Y-104719380D01*
X124824761Y-104719380D02*
X124824761Y-103719380D01*
X125205714Y-103719380D01*
X125300952Y-103767000D01*
X125348571Y-103814619D01*
X125396190Y-103909857D01*
X125396190Y-104052714D01*
X125348571Y-104147952D01*
X125300952Y-104195571D01*
X125205714Y-104243190D01*
X124824761Y-104243190D01*
%TO.C,U1*%
X170942095Y-85895380D02*
X170942095Y-86704904D01*
X170989714Y-86800142D01*
X171037333Y-86847761D01*
X171132571Y-86895380D01*
X171323047Y-86895380D01*
X171418285Y-86847761D01*
X171465904Y-86800142D01*
X171513523Y-86704904D01*
X171513523Y-85895380D01*
X172513523Y-86895380D02*
X171942095Y-86895380D01*
X172227809Y-86895380D02*
X172227809Y-85895380D01*
X172132571Y-86038238D01*
X172037333Y-86133476D01*
X171942095Y-86181095D01*
X171997666Y-98487809D02*
X171997666Y-98011619D01*
X172283380Y-98583047D02*
X171283380Y-98249714D01*
X172283380Y-97916380D01*
X171283380Y-97725904D02*
X171283380Y-97154476D01*
X172283380Y-97440190D02*
X171283380Y-97440190D01*
X171616714Y-96964000D02*
X171616714Y-96583047D01*
X171283380Y-96821142D02*
X172140523Y-96821142D01*
X172235761Y-96773523D01*
X172283380Y-96678285D01*
X172283380Y-96583047D01*
X172283380Y-96249714D02*
X171616714Y-96249714D01*
X171283380Y-96249714D02*
X171331000Y-96297333D01*
X171378619Y-96249714D01*
X171331000Y-96202095D01*
X171283380Y-96249714D01*
X171378619Y-96249714D01*
X171616714Y-95773523D02*
X172283380Y-95773523D01*
X171711952Y-95773523D02*
X171664333Y-95725904D01*
X171616714Y-95630666D01*
X171616714Y-95487809D01*
X171664333Y-95392571D01*
X171759571Y-95344952D01*
X172283380Y-95344952D01*
X171616714Y-94964000D02*
X172283380Y-94725904D01*
X171616714Y-94487809D02*
X172283380Y-94725904D01*
X172521476Y-94821142D01*
X172569095Y-94868761D01*
X172616714Y-94964000D01*
X171711952Y-93964000D02*
X171664333Y-94059238D01*
X171616714Y-94106857D01*
X171521476Y-94154476D01*
X171473857Y-94154476D01*
X171378619Y-94106857D01*
X171331000Y-94059238D01*
X171283380Y-93964000D01*
X171283380Y-93773523D01*
X171331000Y-93678285D01*
X171378619Y-93630666D01*
X171473857Y-93583047D01*
X171521476Y-93583047D01*
X171616714Y-93630666D01*
X171664333Y-93678285D01*
X171711952Y-93773523D01*
X171711952Y-93964000D01*
X171759571Y-94059238D01*
X171807190Y-94106857D01*
X171902428Y-94154476D01*
X172092904Y-94154476D01*
X172188142Y-94106857D01*
X172235761Y-94059238D01*
X172283380Y-93964000D01*
X172283380Y-93773523D01*
X172235761Y-93678285D01*
X172188142Y-93630666D01*
X172092904Y-93583047D01*
X171902428Y-93583047D01*
X171807190Y-93630666D01*
X171759571Y-93678285D01*
X171711952Y-93773523D01*
X171283380Y-92678285D02*
X171283380Y-93154476D01*
X171759571Y-93202095D01*
X171711952Y-93154476D01*
X171664333Y-93059238D01*
X171664333Y-92821142D01*
X171711952Y-92725904D01*
X171759571Y-92678285D01*
X171854809Y-92630666D01*
X172092904Y-92630666D01*
X172188142Y-92678285D01*
X172235761Y-92725904D01*
X172283380Y-92821142D01*
X172283380Y-93059238D01*
X172235761Y-93154476D01*
X172188142Y-93202095D01*
X171902428Y-92202095D02*
X171902428Y-91440190D01*
X171378619Y-91011619D02*
X171331000Y-90964000D01*
X171283380Y-90868761D01*
X171283380Y-90630666D01*
X171331000Y-90535428D01*
X171378619Y-90487809D01*
X171473857Y-90440190D01*
X171569095Y-90440190D01*
X171711952Y-90487809D01*
X172283380Y-91059238D01*
X172283380Y-90440190D01*
X171283380Y-89821142D02*
X171283380Y-89725904D01*
X171331000Y-89630666D01*
X171378619Y-89583047D01*
X171473857Y-89535428D01*
X171664333Y-89487809D01*
X171902428Y-89487809D01*
X172092904Y-89535428D01*
X172188142Y-89583047D01*
X172235761Y-89630666D01*
X172283380Y-89725904D01*
X172283380Y-89821142D01*
X172235761Y-89916380D01*
X172188142Y-89964000D01*
X172092904Y-90011619D01*
X171902428Y-90059238D01*
X171664333Y-90059238D01*
X171473857Y-90011619D01*
X171378619Y-89964000D01*
X171331000Y-89916380D01*
X171283380Y-89821142D01*
X172283380Y-89059238D02*
X171283380Y-89059238D01*
X171283380Y-88678285D01*
X171331000Y-88583047D01*
X171378619Y-88535428D01*
X171473857Y-88487809D01*
X171616714Y-88487809D01*
X171711952Y-88535428D01*
X171759571Y-88583047D01*
X171807190Y-88678285D01*
X171807190Y-89059238D01*
X171283380Y-88059238D02*
X172092904Y-88059238D01*
X172188142Y-88011619D01*
X172235761Y-87964000D01*
X172283380Y-87868761D01*
X172283380Y-87678285D01*
X172235761Y-87583047D01*
X172188142Y-87535428D01*
X172092904Y-87487809D01*
X171283380Y-87487809D01*
%TO.C,U2*%
X119761095Y-120864380D02*
X119761095Y-121673904D01*
X119808714Y-121769142D01*
X119856333Y-121816761D01*
X119951571Y-121864380D01*
X120142047Y-121864380D01*
X120237285Y-121816761D01*
X120284904Y-121769142D01*
X120332523Y-121673904D01*
X120332523Y-120864380D01*
X120761095Y-120959619D02*
X120808714Y-120912000D01*
X120903952Y-120864380D01*
X121142047Y-120864380D01*
X121237285Y-120912000D01*
X121284904Y-120959619D01*
X121332523Y-121054857D01*
X121332523Y-121150095D01*
X121284904Y-121292952D01*
X120713476Y-121864380D01*
X121332523Y-121864380D01*
X117118666Y-117133666D02*
X117594857Y-117133666D01*
X117023428Y-117419380D02*
X117356761Y-116419380D01*
X117690095Y-117419380D01*
X118594857Y-117324142D02*
X118547238Y-117371761D01*
X118404380Y-117419380D01*
X118309142Y-117419380D01*
X118166285Y-117371761D01*
X118071047Y-117276523D01*
X118023428Y-117181285D01*
X117975809Y-116990809D01*
X117975809Y-116847952D01*
X118023428Y-116657476D01*
X118071047Y-116562238D01*
X118166285Y-116467000D01*
X118309142Y-116419380D01*
X118404380Y-116419380D01*
X118547238Y-116467000D01*
X118594857Y-116514619D01*
X118975809Y-117371761D02*
X119118666Y-117419380D01*
X119356761Y-117419380D01*
X119452000Y-117371761D01*
X119499619Y-117324142D01*
X119547238Y-117228904D01*
X119547238Y-117133666D01*
X119499619Y-117038428D01*
X119452000Y-116990809D01*
X119356761Y-116943190D01*
X119166285Y-116895571D01*
X119071047Y-116847952D01*
X119023428Y-116800333D01*
X118975809Y-116705095D01*
X118975809Y-116609857D01*
X119023428Y-116514619D01*
X119071047Y-116467000D01*
X119166285Y-116419380D01*
X119404380Y-116419380D01*
X119547238Y-116467000D01*
X119880571Y-116419380D02*
X120547238Y-116419380D01*
X120118666Y-117419380D01*
X121452000Y-117419380D02*
X120880571Y-117419380D01*
X121166285Y-117419380D02*
X121166285Y-116419380D01*
X121071047Y-116562238D01*
X120975809Y-116657476D01*
X120880571Y-116705095D01*
X121832952Y-116514619D02*
X121880571Y-116467000D01*
X121975809Y-116419380D01*
X122213904Y-116419380D01*
X122309142Y-116467000D01*
X122356761Y-116514619D01*
X122404380Y-116609857D01*
X122404380Y-116705095D01*
X122356761Y-116847952D01*
X121785333Y-117419380D01*
X122404380Y-117419380D01*
X122737714Y-117419380D02*
X123261523Y-116752714D01*
X122737714Y-116752714D02*
X123261523Y-117419380D01*
X124118666Y-117419380D02*
X123642476Y-117419380D01*
X123642476Y-116419380D01*
X125023428Y-117324142D02*
X124975809Y-117371761D01*
X124832952Y-117419380D01*
X124737714Y-117419380D01*
X124594857Y-117371761D01*
X124499619Y-117276523D01*
X124452000Y-117181285D01*
X124404380Y-116990809D01*
X124404380Y-116847952D01*
X124452000Y-116657476D01*
X124499619Y-116562238D01*
X124594857Y-116467000D01*
X124737714Y-116419380D01*
X124832952Y-116419380D01*
X124975809Y-116467000D01*
X125023428Y-116514619D01*
X125309142Y-116419380D02*
X125880571Y-116419380D01*
X125594857Y-117419380D02*
X125594857Y-116419380D01*
X126785333Y-117419380D02*
X126452000Y-116943190D01*
X126213904Y-117419380D02*
X126213904Y-116419380D01*
X126594857Y-116419380D01*
X126690095Y-116467000D01*
X126737714Y-116514619D01*
X126785333Y-116609857D01*
X126785333Y-116752714D01*
X126737714Y-116847952D01*
X126690095Y-116895571D01*
X126594857Y-116943190D01*
X126213904Y-116943190D01*
X127213904Y-117038428D02*
X127975809Y-117038428D01*
X128404380Y-116514619D02*
X128452000Y-116467000D01*
X128547238Y-116419380D01*
X128785333Y-116419380D01*
X128880571Y-116467000D01*
X128928190Y-116514619D01*
X128975809Y-116609857D01*
X128975809Y-116705095D01*
X128928190Y-116847952D01*
X128356761Y-117419380D01*
X128975809Y-117419380D01*
X129594857Y-116419380D02*
X129690095Y-116419380D01*
X129785333Y-116467000D01*
X129832952Y-116514619D01*
X129880571Y-116609857D01*
X129928190Y-116800333D01*
X129928190Y-117038428D01*
X129880571Y-117228904D01*
X129832952Y-117324142D01*
X129785333Y-117371761D01*
X129690095Y-117419380D01*
X129594857Y-117419380D01*
X129499619Y-117371761D01*
X129452000Y-117324142D01*
X129404380Y-117228904D01*
X129356761Y-117038428D01*
X129356761Y-116800333D01*
X129404380Y-116609857D01*
X129452000Y-116514619D01*
X129499619Y-116467000D01*
X129594857Y-116419380D01*
X130309142Y-117133666D02*
X130785333Y-117133666D01*
X130213904Y-117419380D02*
X130547238Y-116419380D01*
X130880571Y-117419380D01*
%TO.C,U3*%
X125226380Y-85724904D02*
X126035904Y-85724904D01*
X126131142Y-85677285D01*
X126178761Y-85629666D01*
X126226380Y-85534428D01*
X126226380Y-85343952D01*
X126178761Y-85248714D01*
X126131142Y-85201095D01*
X126035904Y-85153476D01*
X125226380Y-85153476D01*
X125226380Y-84772523D02*
X125226380Y-84153476D01*
X125607333Y-84486809D01*
X125607333Y-84343952D01*
X125654952Y-84248714D01*
X125702571Y-84201095D01*
X125797809Y-84153476D01*
X126035904Y-84153476D01*
X126131142Y-84201095D01*
X126178761Y-84248714D01*
X126226380Y-84343952D01*
X126226380Y-84629666D01*
X126178761Y-84724904D01*
X126131142Y-84772523D01*
X117197666Y-88717380D02*
X117197666Y-87717380D01*
X117531000Y-88431666D01*
X117864333Y-87717380D01*
X117864333Y-88717380D01*
X118531000Y-87717380D02*
X118721476Y-87717380D01*
X118816714Y-87765000D01*
X118911952Y-87860238D01*
X118959571Y-88050714D01*
X118959571Y-88384047D01*
X118911952Y-88574523D01*
X118816714Y-88669761D01*
X118721476Y-88717380D01*
X118531000Y-88717380D01*
X118435761Y-88669761D01*
X118340523Y-88574523D01*
X118292904Y-88384047D01*
X118292904Y-88050714D01*
X118340523Y-87860238D01*
X118435761Y-87765000D01*
X118531000Y-87717380D01*
X119959571Y-88622142D02*
X119911952Y-88669761D01*
X119769095Y-88717380D01*
X119673857Y-88717380D01*
X119531000Y-88669761D01*
X119435761Y-88574523D01*
X119388142Y-88479285D01*
X119340523Y-88288809D01*
X119340523Y-88145952D01*
X119388142Y-87955476D01*
X119435761Y-87860238D01*
X119531000Y-87765000D01*
X119673857Y-87717380D01*
X119769095Y-87717380D01*
X119911952Y-87765000D01*
X119959571Y-87812619D01*
X120292904Y-87717380D02*
X120911952Y-87717380D01*
X120578619Y-88098333D01*
X120721476Y-88098333D01*
X120816714Y-88145952D01*
X120864333Y-88193571D01*
X120911952Y-88288809D01*
X120911952Y-88526904D01*
X120864333Y-88622142D01*
X120816714Y-88669761D01*
X120721476Y-88717380D01*
X120435761Y-88717380D01*
X120340523Y-88669761D01*
X120292904Y-88622142D01*
X121531000Y-87717380D02*
X121626238Y-87717380D01*
X121721476Y-87765000D01*
X121769095Y-87812619D01*
X121816714Y-87907857D01*
X121864333Y-88098333D01*
X121864333Y-88336428D01*
X121816714Y-88526904D01*
X121769095Y-88622142D01*
X121721476Y-88669761D01*
X121626238Y-88717380D01*
X121531000Y-88717380D01*
X121435761Y-88669761D01*
X121388142Y-88622142D01*
X121340523Y-88526904D01*
X121292904Y-88336428D01*
X121292904Y-88098333D01*
X121340523Y-87907857D01*
X121388142Y-87812619D01*
X121435761Y-87765000D01*
X121531000Y-87717380D01*
X122721476Y-88050714D02*
X122721476Y-88717380D01*
X122483380Y-87669761D02*
X122245285Y-88384047D01*
X122864333Y-88384047D01*
X123150047Y-87717380D02*
X123769095Y-87717380D01*
X123435761Y-88098333D01*
X123578619Y-88098333D01*
X123673857Y-88145952D01*
X123721476Y-88193571D01*
X123769095Y-88288809D01*
X123769095Y-88526904D01*
X123721476Y-88622142D01*
X123673857Y-88669761D01*
X123578619Y-88717380D01*
X123292904Y-88717380D01*
X123197666Y-88669761D01*
X123150047Y-88622142D01*
X124197666Y-88717380D02*
X124197666Y-87717380D01*
X124531000Y-88431666D01*
X124864333Y-87717380D01*
X124864333Y-88717380D01*
%TD*%
M02*
