%TF.GenerationSoftware,KiCad,Pcbnew,(5.1.10)-1*%
%TF.CreationDate,2021-12-14T14:45:45+00:00*%
%TF.ProjectId,vacSwitch,76616353-7769-4746-9368-2e6b69636164,rev?*%
%TF.SameCoordinates,Original*%
%TF.FileFunction,Paste,Top*%
%TF.FilePolarity,Positive*%
%FSLAX46Y46*%
G04 Gerber Fmt 4.6, Leading zero omitted, Abs format (unit mm)*
G04 Created by KiCad (PCBNEW (5.1.10)-1) date 2021-12-14 14:45:45*
%MOMM*%
%LPD*%
G01*
G04 APERTURE LIST*
G04 APERTURE END LIST*
%TO.C,U2*%
G36*
G01*
X117327000Y-119149000D02*
X117327000Y-118849000D01*
G75*
G02*
X117477000Y-118699000I150000J0D01*
G01*
X119127000Y-118699000D01*
G75*
G02*
X119277000Y-118849000I0J-150000D01*
G01*
X119277000Y-119149000D01*
G75*
G02*
X119127000Y-119299000I-150000J0D01*
G01*
X117477000Y-119299000D01*
G75*
G02*
X117327000Y-119149000I0J150000D01*
G01*
G37*
G36*
G01*
X117327000Y-120419000D02*
X117327000Y-120119000D01*
G75*
G02*
X117477000Y-119969000I150000J0D01*
G01*
X119127000Y-119969000D01*
G75*
G02*
X119277000Y-120119000I0J-150000D01*
G01*
X119277000Y-120419000D01*
G75*
G02*
X119127000Y-120569000I-150000J0D01*
G01*
X117477000Y-120569000D01*
G75*
G02*
X117327000Y-120419000I0J150000D01*
G01*
G37*
G36*
G01*
X117327000Y-121689000D02*
X117327000Y-121389000D01*
G75*
G02*
X117477000Y-121239000I150000J0D01*
G01*
X119127000Y-121239000D01*
G75*
G02*
X119277000Y-121389000I0J-150000D01*
G01*
X119277000Y-121689000D01*
G75*
G02*
X119127000Y-121839000I-150000J0D01*
G01*
X117477000Y-121839000D01*
G75*
G02*
X117327000Y-121689000I0J150000D01*
G01*
G37*
G36*
G01*
X117327000Y-122959000D02*
X117327000Y-122659000D01*
G75*
G02*
X117477000Y-122509000I150000J0D01*
G01*
X119127000Y-122509000D01*
G75*
G02*
X119277000Y-122659000I0J-150000D01*
G01*
X119277000Y-122959000D01*
G75*
G02*
X119127000Y-123109000I-150000J0D01*
G01*
X117477000Y-123109000D01*
G75*
G02*
X117327000Y-122959000I0J150000D01*
G01*
G37*
G36*
G01*
X122277000Y-122959000D02*
X122277000Y-122659000D01*
G75*
G02*
X122427000Y-122509000I150000J0D01*
G01*
X124077000Y-122509000D01*
G75*
G02*
X124227000Y-122659000I0J-150000D01*
G01*
X124227000Y-122959000D01*
G75*
G02*
X124077000Y-123109000I-150000J0D01*
G01*
X122427000Y-123109000D01*
G75*
G02*
X122277000Y-122959000I0J150000D01*
G01*
G37*
G36*
G01*
X122277000Y-121689000D02*
X122277000Y-121389000D01*
G75*
G02*
X122427000Y-121239000I150000J0D01*
G01*
X124077000Y-121239000D01*
G75*
G02*
X124227000Y-121389000I0J-150000D01*
G01*
X124227000Y-121689000D01*
G75*
G02*
X124077000Y-121839000I-150000J0D01*
G01*
X122427000Y-121839000D01*
G75*
G02*
X122277000Y-121689000I0J150000D01*
G01*
G37*
G36*
G01*
X122277000Y-120419000D02*
X122277000Y-120119000D01*
G75*
G02*
X122427000Y-119969000I150000J0D01*
G01*
X124077000Y-119969000D01*
G75*
G02*
X124227000Y-120119000I0J-150000D01*
G01*
X124227000Y-120419000D01*
G75*
G02*
X124077000Y-120569000I-150000J0D01*
G01*
X122427000Y-120569000D01*
G75*
G02*
X122277000Y-120419000I0J150000D01*
G01*
G37*
G36*
G01*
X122277000Y-119149000D02*
X122277000Y-118849000D01*
G75*
G02*
X122427000Y-118699000I150000J0D01*
G01*
X124077000Y-118699000D01*
G75*
G02*
X124227000Y-118849000I0J-150000D01*
G01*
X124227000Y-119149000D01*
G75*
G02*
X124077000Y-119299000I-150000J0D01*
G01*
X122427000Y-119299000D01*
G75*
G02*
X122277000Y-119149000I0J150000D01*
G01*
G37*
%TD*%
M02*
