%TF.GenerationSoftware,KiCad,Pcbnew,(5.1.10)-1*%
%TF.CreationDate,2021-11-25T21:10:27+00:00*%
%TF.ProjectId,vacSwitch,76616353-7769-4746-9368-2e6b69636164,rev?*%
%TF.SameCoordinates,Original*%
%TF.FileFunction,Legend,Bot*%
%TF.FilePolarity,Positive*%
%FSLAX46Y46*%
G04 Gerber Fmt 4.6, Leading zero omitted, Abs format (unit mm)*
G04 Created by KiCad (PCBNEW (5.1.10)-1) date 2021-11-25 21:10:27*
%MOMM*%
%LPD*%
G01*
G04 APERTURE LIST*
%ADD10C,0.120000*%
%ADD11C,0.150000*%
G04 APERTURE END LIST*
D10*
X134112000Y-116332000D02*
X134239000Y-116332000D01*
X134112000Y-126111000D02*
X134112000Y-116332000D01*
X144272000Y-126111000D02*
X134112000Y-126111000D01*
X144272000Y-116332000D02*
X144272000Y-126111000D01*
X134239000Y-116332000D02*
X144272000Y-116332000D01*
D11*
X151359809Y-102625000D02*
X151455047Y-102577380D01*
X151597904Y-102577380D01*
X151740761Y-102625000D01*
X151836000Y-102720238D01*
X151883619Y-102815476D01*
X151931238Y-103005952D01*
X151931238Y-103148809D01*
X151883619Y-103339285D01*
X151836000Y-103434523D01*
X151740761Y-103529761D01*
X151597904Y-103577380D01*
X151502666Y-103577380D01*
X151359809Y-103529761D01*
X151312190Y-103482142D01*
X151312190Y-103148809D01*
X151502666Y-103148809D01*
X150312190Y-103577380D02*
X150645523Y-103101190D01*
X150883619Y-103577380D02*
X150883619Y-102577380D01*
X150502666Y-102577380D01*
X150407428Y-102625000D01*
X150359809Y-102672619D01*
X150312190Y-102767857D01*
X150312190Y-102910714D01*
X150359809Y-103005952D01*
X150407428Y-103053571D01*
X150502666Y-103101190D01*
X150883619Y-103101190D01*
X149550285Y-103053571D02*
X149407428Y-103101190D01*
X149359809Y-103148809D01*
X149312190Y-103244047D01*
X149312190Y-103386904D01*
X149359809Y-103482142D01*
X149407428Y-103529761D01*
X149502666Y-103577380D01*
X149883619Y-103577380D01*
X149883619Y-102577380D01*
X149550285Y-102577380D01*
X149455047Y-102625000D01*
X149407428Y-102672619D01*
X149359809Y-102767857D01*
X149359809Y-102863095D01*
X149407428Y-102958333D01*
X149455047Y-103005952D01*
X149550285Y-103053571D01*
X149883619Y-103053571D01*
X148169333Y-102672619D02*
X148121714Y-102625000D01*
X148026476Y-102577380D01*
X147788380Y-102577380D01*
X147693142Y-102625000D01*
X147645523Y-102672619D01*
X147597904Y-102767857D01*
X147597904Y-102863095D01*
X147645523Y-103005952D01*
X148216952Y-103577380D01*
X147597904Y-103577380D01*
X146978857Y-102577380D02*
X146883619Y-102577380D01*
X146788380Y-102625000D01*
X146740761Y-102672619D01*
X146693142Y-102767857D01*
X146645523Y-102958333D01*
X146645523Y-103196428D01*
X146693142Y-103386904D01*
X146740761Y-103482142D01*
X146788380Y-103529761D01*
X146883619Y-103577380D01*
X146978857Y-103577380D01*
X147074095Y-103529761D01*
X147121714Y-103482142D01*
X147169333Y-103386904D01*
X147216952Y-103196428D01*
X147216952Y-102958333D01*
X147169333Y-102767857D01*
X147121714Y-102672619D01*
X147074095Y-102625000D01*
X146978857Y-102577380D01*
X146264571Y-102672619D02*
X146216952Y-102625000D01*
X146121714Y-102577380D01*
X145883619Y-102577380D01*
X145788380Y-102625000D01*
X145740761Y-102672619D01*
X145693142Y-102767857D01*
X145693142Y-102863095D01*
X145740761Y-103005952D01*
X146312190Y-103577380D01*
X145693142Y-103577380D01*
X144740761Y-103577380D02*
X145312190Y-103577380D01*
X145026476Y-103577380D02*
X145026476Y-102577380D01*
X145121714Y-102720238D01*
X145216952Y-102815476D01*
X145312190Y-102863095D01*
X152550285Y-104941666D02*
X152074095Y-104941666D01*
X152645523Y-105227380D02*
X152312190Y-104227380D01*
X151978857Y-105227380D01*
X151216952Y-104560714D02*
X151216952Y-105227380D01*
X151645523Y-104560714D02*
X151645523Y-105084523D01*
X151597904Y-105179761D01*
X151502666Y-105227380D01*
X151359809Y-105227380D01*
X151264571Y-105179761D01*
X151216952Y-105132142D01*
X150883619Y-104560714D02*
X150502666Y-104560714D01*
X150740761Y-104227380D02*
X150740761Y-105084523D01*
X150693142Y-105179761D01*
X150597904Y-105227380D01*
X150502666Y-105227380D01*
X150026476Y-105227380D02*
X150121714Y-105179761D01*
X150169333Y-105132142D01*
X150216952Y-105036904D01*
X150216952Y-104751190D01*
X150169333Y-104655952D01*
X150121714Y-104608333D01*
X150026476Y-104560714D01*
X149883619Y-104560714D01*
X149788380Y-104608333D01*
X149740761Y-104655952D01*
X149693142Y-104751190D01*
X149693142Y-105036904D01*
X149740761Y-105132142D01*
X149788380Y-105179761D01*
X149883619Y-105227380D01*
X150026476Y-105227380D01*
X149312190Y-105179761D02*
X149169333Y-105227380D01*
X148931238Y-105227380D01*
X148836000Y-105179761D01*
X148788380Y-105132142D01*
X148740761Y-105036904D01*
X148740761Y-104941666D01*
X148788380Y-104846428D01*
X148836000Y-104798809D01*
X148931238Y-104751190D01*
X149121714Y-104703571D01*
X149216952Y-104655952D01*
X149264571Y-104608333D01*
X149312190Y-104513095D01*
X149312190Y-104417857D01*
X149264571Y-104322619D01*
X149216952Y-104275000D01*
X149121714Y-104227380D01*
X148883619Y-104227380D01*
X148740761Y-104275000D01*
X148407428Y-104560714D02*
X148216952Y-105227380D01*
X148026476Y-104751190D01*
X147836000Y-105227380D01*
X147645523Y-104560714D01*
X147264571Y-105227380D02*
X147264571Y-104560714D01*
X147264571Y-104227380D02*
X147312190Y-104275000D01*
X147264571Y-104322619D01*
X147216952Y-104275000D01*
X147264571Y-104227380D01*
X147264571Y-104322619D01*
X146931238Y-104560714D02*
X146550285Y-104560714D01*
X146788380Y-104227380D02*
X146788380Y-105084523D01*
X146740761Y-105179761D01*
X146645523Y-105227380D01*
X146550285Y-105227380D01*
X145788380Y-105179761D02*
X145883619Y-105227380D01*
X146074095Y-105227380D01*
X146169333Y-105179761D01*
X146216952Y-105132142D01*
X146264571Y-105036904D01*
X146264571Y-104751190D01*
X146216952Y-104655952D01*
X146169333Y-104608333D01*
X146074095Y-104560714D01*
X145883619Y-104560714D01*
X145788380Y-104608333D01*
X145359809Y-105227380D02*
X145359809Y-104227380D01*
X144931238Y-105227380D02*
X144931238Y-104703571D01*
X144978857Y-104608333D01*
X145074095Y-104560714D01*
X145216952Y-104560714D01*
X145312190Y-104608333D01*
X145359809Y-104655952D01*
X149859809Y-105877380D02*
X149526476Y-106877380D01*
X149193142Y-105877380D01*
X148336000Y-106877380D02*
X148907428Y-106877380D01*
X148621714Y-106877380D02*
X148621714Y-105877380D01*
X148716952Y-106020238D01*
X148812190Y-106115476D01*
X148907428Y-106163095D01*
X147907428Y-106782142D02*
X147859809Y-106829761D01*
X147907428Y-106877380D01*
X147955047Y-106829761D01*
X147907428Y-106782142D01*
X147907428Y-106877380D01*
X147240761Y-105877380D02*
X147145523Y-105877380D01*
X147050285Y-105925000D01*
X147002666Y-105972619D01*
X146955047Y-106067857D01*
X146907428Y-106258333D01*
X146907428Y-106496428D01*
X146955047Y-106686904D01*
X147002666Y-106782142D01*
X147050285Y-106829761D01*
X147145523Y-106877380D01*
X147240761Y-106877380D01*
X147336000Y-106829761D01*
X147383619Y-106782142D01*
X147431238Y-106686904D01*
X147478857Y-106496428D01*
X147478857Y-106258333D01*
X147431238Y-106067857D01*
X147383619Y-105972619D01*
X147336000Y-105925000D01*
X147240761Y-105877380D01*
%TO.C,PS1*%
X135271285Y-116731428D02*
X134521285Y-116731428D01*
X135271285Y-117160000D02*
X134842714Y-116838571D01*
X134521285Y-117160000D02*
X134949857Y-116731428D01*
X134878428Y-117481428D02*
X134878428Y-117731428D01*
X135271285Y-117838571D02*
X135271285Y-117481428D01*
X134521285Y-117481428D01*
X134521285Y-117838571D01*
X134878428Y-118160000D02*
X134878428Y-118410000D01*
X135271285Y-118517142D02*
X135271285Y-118160000D01*
X134521285Y-118160000D01*
X134521285Y-118517142D01*
X135271285Y-118838571D02*
X134521285Y-118838571D01*
X134521285Y-119124285D01*
X134557000Y-119195714D01*
X134592714Y-119231428D01*
X134664142Y-119267142D01*
X134771285Y-119267142D01*
X134842714Y-119231428D01*
X134878428Y-119195714D01*
X134914142Y-119124285D01*
X134914142Y-118838571D01*
X134985571Y-119588571D02*
X134985571Y-120160000D01*
X134521285Y-120660000D02*
X134521285Y-120802857D01*
X134557000Y-120874285D01*
X134628428Y-120945714D01*
X134771285Y-120981428D01*
X135021285Y-120981428D01*
X135164142Y-120945714D01*
X135235571Y-120874285D01*
X135271285Y-120802857D01*
X135271285Y-120660000D01*
X135235571Y-120588571D01*
X135164142Y-120517142D01*
X135021285Y-120481428D01*
X134771285Y-120481428D01*
X134628428Y-120517142D01*
X134557000Y-120588571D01*
X134521285Y-120660000D01*
X134521285Y-121302857D02*
X135128428Y-121302857D01*
X135199857Y-121338571D01*
X135235571Y-121374285D01*
X135271285Y-121445714D01*
X135271285Y-121588571D01*
X135235571Y-121660000D01*
X135199857Y-121695714D01*
X135128428Y-121731428D01*
X134521285Y-121731428D01*
X134521285Y-121981428D02*
X134521285Y-122410000D01*
X135271285Y-122195714D02*
X134521285Y-122195714D01*
X134521285Y-123160000D02*
X134521285Y-123660000D01*
X135271285Y-123160000D01*
X135271285Y-123660000D01*
X134521285Y-124088571D02*
X134521285Y-124231428D01*
X134557000Y-124302857D01*
X134628428Y-124374285D01*
X134771285Y-124409999D01*
X135021285Y-124409999D01*
X135164142Y-124374285D01*
X135235571Y-124302857D01*
X135271285Y-124231428D01*
X135271285Y-124088571D01*
X135235571Y-124017142D01*
X135164142Y-123945714D01*
X135021285Y-123909999D01*
X134771285Y-123909999D01*
X134628428Y-123945714D01*
X134557000Y-124017142D01*
X134521285Y-124088571D01*
X135271285Y-124731428D02*
X134521285Y-124731428D01*
X135271285Y-125159999D01*
X134521285Y-125159999D01*
X134878428Y-125517142D02*
X134878428Y-125767142D01*
X135271285Y-125874285D02*
X135271285Y-125517142D01*
X134521285Y-125517142D01*
X134521285Y-125874285D01*
%TD*%
M02*
