%TF.GenerationSoftware,KiCad,Pcbnew,(5.1.10)-1*%
%TF.CreationDate,2021-12-15T20:23:36+00:00*%
%TF.ProjectId,vacSwitch,76616353-7769-4746-9368-2e6b69636164,rev?*%
%TF.SameCoordinates,Original*%
%TF.FileFunction,Soldermask,Bot*%
%TF.FilePolarity,Negative*%
%FSLAX46Y46*%
G04 Gerber Fmt 4.6, Leading zero omitted, Abs format (unit mm)*
G04 Created by KiCad (PCBNEW (5.1.10)-1) date 2021-12-15 20:23:36*
%MOMM*%
%LPD*%
G01*
G04 APERTURE LIST*
%ADD10C,1.600000*%
%ADD11R,1.600000X1.600000*%
%ADD12C,1.950000*%
%ADD13O,1.750000X1.200000*%
%ADD14C,2.200000*%
%ADD15O,1.600000X1.600000*%
%ADD16C,1.800000*%
%ADD17R,1.800000X1.800000*%
%ADD18R,2.000000X1.905000*%
%ADD19O,2.000000X1.905000*%
%ADD20O,1.200000X1.750000*%
%ADD21R,1.700000X1.700000*%
%ADD22O,1.700000X1.700000*%
%ADD23C,1.400000*%
%ADD24R,1.400000X1.400000*%
%ADD25R,2.000000X2.000000*%
%ADD26C,2.000000*%
%ADD27O,1.050000X1.500000*%
%ADD28R,1.050000X1.500000*%
%ADD29R,2.400000X1.600000*%
%ADD30O,2.400000X1.600000*%
%ADD31R,1.600000X2.400000*%
%ADD32O,1.600000X2.400000*%
G04 APERTURE END LIST*
D10*
%TO.C,C4*%
X149860000Y-80471000D03*
D11*
X149860000Y-85471000D03*
%TD*%
%TO.C,C3*%
X127000000Y-121285000D03*
D10*
X132000000Y-121285000D03*
%TD*%
D12*
%TO.C,J1*%
X111252000Y-96647000D03*
X111252000Y-101727000D03*
X111252000Y-106807000D03*
X111252000Y-111887000D03*
X111252000Y-116967000D03*
X111252000Y-122047000D03*
%TD*%
D13*
%TO.C,J3*%
X169672000Y-120871000D03*
X169672000Y-118871000D03*
X169672000Y-116871000D03*
X169672000Y-114871000D03*
X169672000Y-112871000D03*
G36*
G01*
X169046999Y-110271000D02*
X170297001Y-110271000D01*
G75*
G02*
X170547000Y-110520999I0J-249999D01*
G01*
X170547000Y-111221001D01*
G75*
G02*
X170297001Y-111471000I-249999J0D01*
G01*
X169046999Y-111471000D01*
G75*
G02*
X168797000Y-111221001I0J249999D01*
G01*
X168797000Y-110520999D01*
G75*
G02*
X169046999Y-110271000I249999J0D01*
G01*
G37*
%TD*%
D11*
%TO.C,C1*%
X170180000Y-82931000D03*
D10*
X165180000Y-82931000D03*
%TD*%
D14*
%TO.C,C6*%
X130810000Y-112268000D03*
X130810000Y-97268000D03*
%TD*%
D11*
%TO.C,D1*%
X144780000Y-85471000D03*
D15*
X137160000Y-85471000D03*
%TD*%
D16*
%TO.C,D6*%
X189738000Y-81153000D03*
D17*
X189738000Y-83693000D03*
%TD*%
%TO.C,D7*%
X189738000Y-86995000D03*
D16*
X189738000Y-89535000D03*
%TD*%
D18*
%TO.C,D9*%
X111506000Y-87503000D03*
D19*
X111506000Y-84963000D03*
X111506000Y-82423000D03*
%TD*%
%TO.C,J2*%
G36*
G01*
X162976000Y-103368001D02*
X162976000Y-102117999D01*
G75*
G02*
X163225999Y-101868000I249999J0D01*
G01*
X163926001Y-101868000D01*
G75*
G02*
X164176000Y-102117999I0J-249999D01*
G01*
X164176000Y-103368001D01*
G75*
G02*
X163926001Y-103618000I-249999J0D01*
G01*
X163225999Y-103618000D01*
G75*
G02*
X162976000Y-103368001I0J249999D01*
G01*
G37*
D20*
X165576000Y-102743000D03*
X167576000Y-102743000D03*
%TD*%
%TO.C,J4*%
G36*
G01*
X189874999Y-103667000D02*
X191125001Y-103667000D01*
G75*
G02*
X191375000Y-103916999I0J-249999D01*
G01*
X191375000Y-104617001D01*
G75*
G02*
X191125001Y-104867000I-249999J0D01*
G01*
X189874999Y-104867000D01*
G75*
G02*
X189625000Y-104617001I0J249999D01*
G01*
X189625000Y-103916999D01*
G75*
G02*
X189874999Y-103667000I249999J0D01*
G01*
G37*
D13*
X190500000Y-106267000D03*
%TD*%
D21*
%TO.C,JP1*%
X163576000Y-116967000D03*
D22*
X163576000Y-119507000D03*
X163576000Y-122047000D03*
%TD*%
D23*
%TO.C,K1*%
X185166000Y-107696000D03*
X185166000Y-117956000D03*
X177546000Y-117956000D03*
X177546000Y-107696000D03*
D24*
X177546000Y-105156000D03*
D23*
X185166000Y-120396000D03*
X177546000Y-120396000D03*
X185166000Y-105156000D03*
%TD*%
D25*
%TO.C,PS1*%
X139192000Y-90805000D03*
D26*
X139192000Y-95885000D03*
X156972000Y-121285000D03*
X139192000Y-121285000D03*
X156972000Y-116205000D03*
%TD*%
D27*
%TO.C,Q1*%
X182626000Y-86487000D03*
X181356000Y-86487000D03*
D28*
X183896000Y-86487000D03*
%TD*%
D15*
%TO.C,R3*%
X163830000Y-96393000D03*
D10*
X163830000Y-88773000D03*
%TD*%
%TO.C,R4*%
X144780000Y-81915000D03*
D15*
X137160000Y-81915000D03*
%TD*%
D10*
%TO.C,R7*%
X178816000Y-96901000D03*
D15*
X186436000Y-96901000D03*
%TD*%
%TO.C,R8*%
X186436000Y-93599000D03*
D10*
X178816000Y-93599000D03*
%TD*%
D15*
%TO.C,R9*%
X183134000Y-81153000D03*
D10*
X175514000Y-81153000D03*
%TD*%
%TO.C,R10*%
X162306000Y-80645000D03*
D15*
X154686000Y-80645000D03*
%TD*%
D10*
%TO.C,R11*%
X124968000Y-96520000D03*
D15*
X117348000Y-96520000D03*
%TD*%
%TO.C,R12*%
X131826000Y-92202000D03*
D10*
X124206000Y-92202000D03*
%TD*%
%TO.C,RV1*%
X119380000Y-100584000D03*
X124380000Y-102484000D03*
%TD*%
D29*
%TO.C,U1*%
X167894000Y-88773000D03*
D30*
X175514000Y-96393000D03*
X167894000Y-91313000D03*
X175514000Y-93853000D03*
X167894000Y-93853000D03*
X175514000Y-91313000D03*
X167894000Y-96393000D03*
X175514000Y-88773000D03*
%TD*%
D31*
%TO.C,U3*%
X123444000Y-81153000D03*
D32*
X118364000Y-88773000D03*
X120904000Y-81153000D03*
X120904000Y-88773000D03*
X118364000Y-81153000D03*
X123444000Y-88773000D03*
%TD*%
M02*
